<?xml version="1.0" encoding="utf-8"?>
<!-- Svg Vector Icons : http://www.onlinewebfonts.com/icon -->
<!DOCTYPE svg PUBLIC "-//W3C//DTD SVG 1.1//EN" "http://www.w3.org/Graphics/SVG/1.1/DTD/svg11.dtd">
<svg version="1.1" xmlns="http://www.w3.org/2000/svg" xmlns:xlink="http://www.w3.org/1999/xlink" x="0px" y="0px" viewBox="0 0 1000 1000" enable-background="new 0 0 1000 1000" xml:space="preserve">
<metadata> Svg Vector Icons : http://www.onlinewebfonts.com/icon </metadata>
<g><path d="M586.1,500l386-386c23.8-23.8,23.8-62.4,0-86.1l0,0c-23.8-23.8-62.4-23.8-86.1,0l-386,386l-386-386c-23.8-23.8-62.4-23.8-86.1,0l0,0C4.1,51.6,4.1,90.2,27.8,114l386,386l-386,386c-23.8,23.8-23.8,62.4,0,86.1l0,0c23.8,23.8,62.4,23.8,86.1,0l386-386l386,386c23.8,23.8,62.4,23.8,86.1,0l0,0c23.8-23.8,23.8-62.4,0-86.1L586.1,500z"/></g>
</svg>