<?xml version="1.0" encoding="UTF-8"?>
<svg xmlns="http://www.w3.org/2000/svg" xmlns:xlink="http://www.w3.org/1999/xlink" width="500px" height="205px" viewBox="0 0 498 205" version="1.1">
<g id="surface1">
<path style=" stroke:none;fill-rule:nonzero;fill:rgb(226 232 240);fill-opacity:1;" d="M 127.988281 68.445312 C 127.871094 55.40625 127.828125 42.414062 127.855469 29.472656 L 124.292969 29.933594 C 123.96875 23.621094 123.96875 17.296875 124.292969 10.980469 C 132.867188 10 141.429688 9.101562 149.976562 8.285156 C 150.183594 14.476562 150.042969 20.675781 149.554688 26.851562 L 145.210938 27.328125 C 144.941406 40.039062 144.808594 52.78125 144.808594 65.554688 L 153.804688 64.273438 C 153.804688 60.253906 153.859375 56.242188 153.976562 52.234375 C 155.25 51.941406 156.488281 51.679688 157.6875 51.449219 C 158.886719 51.21875 160.164062 51.035156 161.515625 50.894531 C 162.792969 50.738281 164.066406 50.625 165.34375 50.546875 C 166.617188 50.472656 167.894531 50.425781 169.171875 50.414062 C 168.863281 60.625 168.601562 70.878906 168.386719 81.175781 C 153.789062 83.242188 139.292969 85.554688 124.886719 88.105469 C 124.632812 84.941406 124.484375 81.75 124.449219 78.535156 C 124.410156 75.320312 124.441406 72.128906 124.542969 68.964844 Z M 127.988281 68.445312 "/>
<path style=" stroke:none;fill-rule:nonzero;fill:rgb(226 232 240);fill-opacity:1;" d="M 207.960938 73.058594 C 206.332031 74.410156 204.574219 75.605469 202.71875 76.621094 C 199.660156 78.171875 196.332031 79.117188 192.917969 79.414062 C 190.191406 79.808594 187.40625 79.566406 184.785156 78.707031 C 182.382812 77.875 180.21875 76.476562 178.472656 74.628906 C 176.59375 72.625 175.105469 70.289062 174.089844 67.738281 C 172.914062 64.820312 172.148438 61.753906 171.8125 58.625 C 171.3125 54.539062 171.3125 50.40625 171.8125 46.320312 C 172.277344 42.328125 173.410156 38.445312 175.160156 34.832031 C 176.8125 31.425781 179.222656 28.441406 182.203125 26.105469 C 185.394531 23.703125 189.234375 22.320312 193.226562 22.140625 C 195.625 21.925781 198.042969 22.179688 200.34375 22.886719 C 202.332031 23.515625 204.175781 24.539062 205.761719 25.894531 C 207.265625 27.195312 208.480469 28.796875 209.320312 30.601562 C 210.167969 32.410156 210.6875 34.355469 210.851562 36.34375 C 211.039062 38.710938 210.941406 41.085938 210.5625 43.429688 C 210.15625 45.917969 209.179688 48.285156 207.710938 50.339844 C 205.925781 52.75 203.609375 54.714844 200.9375 56.082031 C 197.132812 57.941406 193.035156 59.128906 188.824219 59.582031 C 189.15625 60.765625 189.820312 61.832031 190.738281 62.644531 C 192.078125 63.535156 193.71875 63.847656 195.292969 63.507812 C 197.832031 63.253906 200.292969 62.507812 202.546875 61.304688 C 204.761719 60.152344 206.824219 58.722656 208.6875 57.058594 C 208.472656 62.441406 208.230469 67.777344 207.960938 73.058594 Z M 196.269531 38.605469 C 196.207031 37.738281 195.886719 36.910156 195.351562 36.230469 C 194.777344 35.554688 193.890625 35.226562 193.015625 35.371094 C 191.082031 35.632812 189.480469 37.003906 188.917969 38.871094 C 187.878906 41.628906 187.378906 44.558594 187.445312 47.503906 C 190.023438 47.125 192.429688 45.972656 194.335938 44.195312 C 195.816406 42.738281 196.554688 40.6875 196.34375 38.625 Z M 196.269531 38.605469 "/>
<path style=" stroke:none;fill-rule:nonzero;fill:rgb(226 232 240);fill-opacity:1;" d="M 219.097656 21.875 C 219.226562 20.175781 219.378906 18.378906 219.558594 16.476562 C 219.738281 14.574219 219.890625 12.742188 220.015625 10.980469 C 226.011719 8.519531 232.105469 6.152344 238.292969 3.878906 C 237.691406 9.625 237.105469 15.367188 236.53125 21.109375 L 244.378906 20.839844 C 244.261719 23.519531 244.066406 26.214844 243.785156 28.917969 C 243.503906 31.625 243.132812 34.328125 242.675781 37.035156 L 235.019531 37.398438 C 234.574219 42.121094 234.140625 46.855469 233.71875 51.601562 C 233.628906 52.507812 233.578125 53.234375 233.566406 53.785156 C 233.554688 54.332031 233.554688 54.765625 233.566406 55.085938 C 233.609375 55.679688 233.84375 56.246094 234.234375 56.691406 C 234.800781 57.234375 235.589844 57.472656 236.359375 57.324219 C 237.34375 57.246094 238.3125 57.019531 239.230469 56.65625 C 240.058594 56.355469 240.859375 55.984375 241.621094 55.542969 C 241.101562 60.777344 240.589844 66.023438 240.089844 71.28125 C 238.503906 72.097656 236.859375 72.808594 235.171875 73.402344 C 233.199219 74.144531 231.132812 74.613281 229.03125 74.800781 C 224.972656 75.164062 221.910156 74.378906 219.84375 72.445312 C 217.582031 70.082031 216.296875 66.953125 216.246094 63.679688 C 216.171875 62.773438 216.140625 61.894531 216.152344 61.039062 C 216.164062 60.183594 216.203125 59.226562 216.265625 58.167969 C 216.765625 51.570312 217.285156 44.984375 217.835938 38.414062 L 213.777344 38.679688 C 213.792969 33.132812 214.203125 27.59375 215.003906 22.105469 Z M 219.097656 21.875 "/>
<path style=" stroke:none;fill-rule:nonzero;fill:rgb(226 232 240);fill-opacity:1;" d="M 247.496094 32.59375 C 249.640625 28.496094 251.808594 24.425781 254.003906 20.382812 L 249.105469 20.496094 C 249.390625 13.707031 250.152344 6.945312 251.382812 0.261719 C 257.417969 0.261719 263.457031 0.261719 269.503906 0.261719 C 269.027344 6.949219 268.164062 13.601562 266.921875 20.191406 C 266.449219 20.796875 266.019531 21.433594 265.640625 22.105469 C 264.835938 23.378906 263.941406 24.746094 262.960938 26.199219 L 259.132812 32.25 C 255.28125 32.273438 251.402344 32.390625 247.496094 32.59375 Z M 247.496094 32.59375 "/>
<path style=" stroke:none;fill-rule:nonzero;fill:rgb(226 232 240);fill-opacity:1;" d="M 265.714844 54.339844 C 269.515625 53.753906 273.367188 53.621094 277.199219 53.9375 L 277.199219 54.585938 C 277.199219 54.894531 277.199219 55.199219 277.199219 55.488281 C 277.199219 55.773438 277.199219 56.0625 277.199219 56.367188 C 277.308594 57.230469 277.75 58.019531 278.421875 58.570312 C 279.605469 59.460938 281.089844 59.847656 282.554688 59.640625 C 285.214844 59.640625 286.519531 58.511719 286.382812 56.464844 C 286.382812 55.894531 286.222656 55.339844 285.925781 54.855469 C 285.425781 54.246094 284.761719 53.792969 284.011719 53.554688 L 278.269531 51.46875 C 276.925781 50.972656 275.644531 50.332031 274.441406 49.554688 C 273.230469 48.75 272.148438 47.769531 271.226562 46.644531 C 270.28125 45.496094 269.527344 44.203125 268.988281 42.816406 C 268.394531 41.207031 268.070312 39.511719 268.03125 37.800781 C 267.832031 34.867188 268.265625 31.921875 269.292969 29.167969 C 270.117188 26.988281 271.425781 25.023438 273.121094 23.425781 C 274.738281 21.9375 276.667969 20.832031 278.765625 20.191406 C 280.75 19.578125 282.816406 19.269531 284.890625 19.269531 C 286.835938 19.253906 288.769531 19.53125 290.632812 20.09375 C 292.007812 20.511719 293.300781 21.160156 294.460938 22.007812 L 294.746094 20.4375 C 298.601562 20.058594 302.484375 20.121094 306.324219 20.628906 C 305.445312 25.8125 304.578125 31.003906 303.722656 36.210938 C 299.695312 36.617188 295.636719 36.617188 291.609375 36.210938 L 291.742188 35.386719 C 291.828125 34.992188 291.871094 34.585938 291.875 34.183594 C 291.84375 33.429688 291.480469 32.726562 290.882812 32.269531 C 290.089844 31.671875 289.113281 31.378906 288.125 31.445312 C 287.148438 31.378906 286.183594 31.703125 285.445312 32.34375 C 284.835938 32.941406 284.515625 33.773438 284.566406 34.621094 C 284.601562 35.089844 284.734375 35.546875 284.949219 35.960938 C 285.316406 36.589844 285.925781 37.039062 286.632812 37.207031 L 292.640625 39.390625 C 293.960938 39.941406 295.238281 40.578125 296.46875 41.304688 C 297.707031 42.023438 298.835938 42.921875 299.816406 43.964844 C 300.835938 45.082031 301.636719 46.378906 302.171875 47.792969 C 302.796875 49.398438 303.105469 51.105469 303.089844 52.828125 C 303.1875 55.757812 302.675781 58.679688 301.578125 61.402344 C 300.65625 63.53125 299.316406 65.453125 297.636719 67.050781 C 295.980469 68.574219 294.023438 69.742188 291.894531 70.476562 C 289.820312 71.210938 287.644531 71.632812 285.445312 71.71875 C 283.574219 71.789062 281.703125 71.613281 279.878906 71.203125 C 278.320312 70.917969 276.839844 70.3125 275.535156 69.421875 L 275.285156 71.125 C 271.457031 71.804688 267.5625 72.003906 263.6875 71.71875 C 264.363281 65.914062 265.039062 60.121094 265.714844 54.339844 Z M 265.714844 54.339844 "/>
<path style=" stroke:none;fill-rule:nonzero;fill:rgb(226 232 240);fill-opacity:1;" d="M 323.089844 53.648438 C 325.054688 42.597656 327.074219 31.605469 329.15625 20.667969 L 325.578125 20.535156 C 326.242188 15.160156 327.222656 9.828125 328.523438 4.570312 C 337.632812 5.054688 346.734375 5.640625 355.832031 6.332031 C 358.839844 6.476562 361.792969 7.183594 364.539062 8.417969 C 366.632812 9.382812 368.480469 10.816406 369.9375 12.609375 C 371.25 14.296875 372.160156 16.257812 372.597656 18.351562 C 373.066406 20.527344 373.238281 22.753906 373.113281 24.976562 C 372.96875 27.945312 372.320312 30.871094 371.199219 33.628906 C 370.097656 36.320312 368.46875 38.765625 366.414062 40.824219 C 364.265625 42.964844 361.6875 44.625 358.855469 45.707031 C 355.566406 46.921875 352.0625 47.445312 348.558594 47.238281 L 341.039062 46.988281 L 339.660156 54.050781 L 346.609375 54.242188 C 346.277344 56.882812 345.847656 59.519531 345.324219 62.148438 C 344.800781 64.777344 344.203125 67.417969 343.527344 70.074219 C 334.597656 69.957031 325.703125 69.957031 316.851562 70.074219 C 317.105469 67.355469 317.46875 64.644531 317.941406 61.9375 C 318.414062 59.234375 318.953125 56.527344 319.566406 53.820312 Z M 349.878906 31.65625 C 351.222656 31.722656 352.535156 31.238281 353.515625 30.316406 C 354.699219 29.117188 355.332031 27.480469 355.257812 25.796875 C 355.425781 24.632812 355.066406 23.457031 354.28125 22.582031 C 353.484375 21.917969 352.484375 21.546875 351.449219 21.53125 L 346.398438 21.242188 C 345.707031 24.625 345.019531 28.011719 344.332031 31.40625 Z M 349.878906 31.65625 "/>
<path style=" stroke:none;fill-rule:nonzero;fill:rgb(226 232 240);fill-opacity:1;" d="M 375.484375 20.015625 C 375.867188 17.632812 376.320312 15.25 376.84375 12.878906 C 377.367188 10.503906 378.003906 8.144531 378.757812 5.792969 C 385.863281 6.484375 392.964844 7.238281 400.058594 8.054688 C 395.757812 24.261719 391.578125 40.621094 387.523438 57.132812 L 390.988281 57.363281 C 390.566406 59.710938 390.085938 62.058594 389.550781 64.40625 C 389.015625 66.753906 388.378906 69.105469 387.636719 71.453125 C 380.886719 71.09375 374.132812 70.800781 367.371094 70.570312 C 371.199219 53.664062 375.097656 36.90625 379.0625 20.304688 Z M 375.484375 20.015625 "/>
<path style=" stroke:none;fill-rule:nonzero;fill:rgb(226 232 240);fill-opacity:1;" d="M 416.132812 73.308594 L 416.765625 69.785156 C 415.328125 71.128906 413.636719 72.171875 411.789062 72.847656 C 409.953125 73.515625 407.996094 73.789062 406.046875 73.652344 C 403.753906 73.605469 401.53125 72.859375 399.675781 71.507812 C 398.125 70.285156 396.894531 68.703125 396.097656 66.894531 C 395.269531 65.015625 394.773438 63.007812 394.621094 60.960938 C 394.464844 58.917969 394.464844 56.863281 394.621094 54.816406 C 394.871094 50.804688 395.730469 46.855469 397.167969 43.101562 C 398.421875 39.796875 400.277344 36.753906 402.640625 34.125 C 404.796875 31.742188 407.457031 29.871094 410.429688 28.648438 C 413.421875 27.453125 416.667969 27.042969 419.863281 27.464844 C 422.195312 27.609375 424.445312 28.382812 426.371094 29.703125 C 427.566406 30.589844 428.617188 31.652344 429.488281 32.863281 L 431.671875 29.914062 C 435.742188 30.4375 439.804688 30.980469 443.863281 31.539062 C 440.773438 41.339844 437.730469 51.210938 434.734375 61.152344 L 438.195312 61.515625 C 437.6875 63.75 437.117188 65.976562 436.492188 68.199219 C 435.867188 70.417969 435.128906 72.636719 434.273438 74.859375 C 428.1875 74.296875 422.140625 73.78125 416.132812 73.308594 Z M 414.429688 59.910156 C 415.210938 59.921875 415.976562 59.679688 416.609375 59.21875 C 417.546875 58.574219 418.332031 57.738281 418.925781 56.769531 C 419.773438 55.417969 420.449219 53.964844 420.9375 52.445312 C 421.597656 50.414062 422.019531 48.3125 422.199219 46.183594 C 422.328125 45.019531 422.191406 43.839844 421.796875 42.738281 C 421.535156 41.804688 420.734375 41.121094 419.769531 41.015625 C 418.730469 40.910156 417.691406 41.238281 416.898438 41.914062 C 415.972656 42.746094 415.207031 43.738281 414.640625 44.84375 C 413.886719 46.191406 413.296875 47.625 412.878906 49.113281 C 412.402344 50.722656 412.089844 52.378906 411.941406 54.050781 C 411.769531 55.441406 411.894531 56.847656 412.304688 58.1875 C 412.582031 59.164062 413.4375 59.867188 414.449219 59.949219 Z M 414.429688 59.910156 "/>
<path style=" stroke:none;fill-rule:nonzero;fill:rgb(226 232 240);fill-opacity:1;" d="M 467.746094 48.578125 C 468.804688 44.203125 470.246094 39.933594 472.050781 35.808594 C 476.898438 36.601562 481.734375 37.421875 486.554688 38.277344 C 486.808594 38.933594 486.980469 39.613281 487.074219 40.308594 C 487.1875 41.085938 487.269531 41.902344 487.320312 42.757812 C 487.371094 43.597656 487.371094 44.441406 487.320312 45.285156 C 487.320312 46.113281 487.246094 46.859375 487.09375 47.523438 C 486.5625 50.511719 485.554688 53.394531 484.105469 56.0625 C 482.464844 59.1875 480.597656 62.1875 478.519531 65.039062 C 476.320312 68.066406 473.972656 70.980469 471.476562 73.769531 C 468.925781 76.589844 466.476562 79.140625 464.128906 81.425781 C 462.621094 82.886719 461.035156 84.265625 459.382812 85.558594 C 457.90625 86.714844 456.308594 87.703125 454.617188 88.507812 C 452.972656 89.277344 451.238281 89.824219 449.449219 90.132812 C 447.460938 90.453125 445.441406 90.511719 443.441406 90.304688 C 440.144531 89.953125 436.953125 88.929688 434.0625 87.300781 C 435.503906 83.117188 436.953125 78.949219 438.40625 74.800781 L 439.382812 75.433594 C 439.921875 75.761719 440.476562 76.0625 441.046875 76.332031 C 441.710938 76.648438 442.394531 76.914062 443.097656 77.136719 C 443.761719 77.363281 444.445312 77.515625 445.144531 77.597656 C 446.164062 77.722656 447.199219 77.679688 448.207031 77.460938 C 449.070312 77.25 449.894531 76.886719 450.636719 76.390625 C 451.207031 76.046875 451.75 75.664062 452.261719 75.242188 C 452.582031 74.988281 452.882812 74.714844 453.164062 74.417969 C 452.5 69.402344 451.585938 64.414062 450.425781 59.449219 C 449.265625 54.484375 448.058594 49.878906 446.808594 45.628906 L 443.34375 45.207031 C 443.855469 42.988281 444.492188 40.78125 445.257812 38.585938 C 446.023438 36.390625 446.816406 34.214844 447.632812 32.058594 C 452.570312 32.757812 457.5 33.488281 462.425781 34.238281 C 462.742188 35.363281 463.105469 36.925781 463.515625 38.929688 C 463.921875 40.933594 464.320312 43.109375 464.703125 45.457031 C 465.085938 47.816406 465.441406 50.183594 465.773438 52.558594 C 466.105469 54.933594 466.398438 57.042969 466.652344 58.894531 C 467.164062 58.167969 467.675781 57.375 468.183594 56.519531 C 468.6875 55.664062 469.148438 54.785156 469.5625 53.878906 C 469.972656 52.984375 470.328125 52.117188 470.632812 51.277344 C 470.902344 50.5625 471.125 49.835938 471.304688 49.09375 Z M 467.746094 48.578125 "/>
<path style=" stroke:none;fill-rule:nonzero;fill:rgb(203 213 225);fill-opacity:1;" d="M 16.476562 171.027344 L 9.605469 132.015625 L 3.40625 132.972656 C 2.933594 131.417969 2.511719 129.886719 2.144531 128.378906 C 1.773438 126.875 1.441406 125.328125 1.148438 123.746094 C 0.855469 122.164062 0.613281 120.601562 0.421875 119.058594 C 0.230469 117.511719 0.0820312 115.929688 -0.0195312 114.3125 C 17.433594 110.648438 34.949219 107.296875 52.53125 104.261719 C 57.457031 103.304688 62.503906 103.15625 67.476562 103.820312 C 71.378906 104.335938 75.136719 105.636719 78.519531 107.648438 C 81.382812 109.425781 83.773438 111.867188 85.484375 114.769531 C 87.125 117.523438 88.144531 120.597656 88.46875 123.785156 C 88.902344 127.242188 88.535156 130.753906 87.398438 134.046875 C 86.328125 137.015625 84.5 139.65625 82.097656 141.703125 C 83.945312 142.527344 85.71875 143.503906 87.398438 144.632812 C 89.101562 145.761719 90.628906 147.136719 91.933594 148.707031 C 93.335938 150.4375 94.460938 152.375 95.261719 154.453125 C 96.222656 156.984375 96.820312 159.640625 97.042969 162.335938 C 97.464844 166.226562 97.160156 170.160156 96.144531 173.9375 C 95.1875 177.460938 93.347656 180.679688 90.804688 183.296875 C 87.941406 186.113281 84.433594 188.183594 80.585938 189.328125 C 75.511719 190.804688 70.226562 191.410156 64.949219 191.128906 C 47.929688 190.679688 30.917969 190.265625 13.914062 189.882812 C 13.453125 188.289062 13.039062 186.730469 12.667969 185.210938 C 12.296875 183.695312 11.96875 182.144531 11.671875 180.5625 C 11.378906 178.976562 11.136719 177.421875 10.945312 175.890625 C 10.753906 174.359375 10.601562 172.800781 10.488281 171.21875 Z M 52.398438 136.765625 C 54.164062 136.722656 55.835938 135.964844 57.027344 134.660156 C 57.949219 133.519531 58.351562 132.050781 58.136719 130.601562 C 57.9375 129.238281 57.257812 127.988281 56.222656 127.078125 C 54.738281 125.921875 52.8125 125.5 50.980469 125.929688 L 40.015625 127.382812 L 41.46875 137.875 Z M 58.921875 169.746094 C 61.042969 169.902344 63.128906 169.152344 64.664062 167.679688 C 65.828125 166.382812 66.339844 164.628906 66.0625 162.910156 C 65.839844 161.128906 64.917969 159.511719 63.496094 158.414062 C 61.699219 157.117188 59.476562 156.550781 57.277344 156.824219 L 44.378906 157.570312 L 46.175781 170.089844 Z M 58.921875 169.746094 "/>
<path style=" stroke:none;fill-rule:nonzero;fill:rgb(203 213 225);fill-opacity:1;" d="M 107.894531 168.769531 L 103.511719 120.300781 L 97.253906 120.933594 C 96.882812 118.957031 96.566406 117.042969 96.296875 115.191406 C 96.027344 113.339844 95.800781 111.425781 95.609375 109.449219 C 95.417969 107.457031 95.277344 105.503906 95.1875 103.589844 C 95.097656 101.675781 95.054688 99.667969 95.054688 97.5625 C 110.4375 95.367188 125.855469 93.414062 141.308594 91.703125 C 141.625 93.824219 141.894531 95.902344 142.109375 97.945312 C 142.328125 99.984375 142.507812 102.078125 142.648438 104.222656 C 142.773438 106.367188 142.855469 108.464844 142.894531 110.519531 C 142.933594 112.574219 142.933594 114.675781 142.894531 116.816406 L 136.617188 117.316406 L 140.003906 168.5 L 146.089844 168.5 C 146.398438 170.644531 146.660156 172.738281 146.875 174.78125 C 147.09375 176.820312 147.265625 178.921875 147.390625 181.078125 C 147.519531 183.222656 147.609375 185.3125 147.660156 187.355469 C 147.710938 189.398438 147.710938 191.492188 147.660156 193.636719 L 104.027344 192.332031 C 103.660156 190.34375 103.339844 188.390625 103.070312 186.476562 C 102.804688 184.5625 102.574219 182.617188 102.382812 180.636719 C 102.191406 178.648438 102.050781 176.699219 101.960938 174.800781 C 101.871094 172.898438 101.820312 170.953125 101.808594 168.960938 Z M 107.894531 168.769531 "/>
<path style=" stroke:none;fill-rule:nonzero;fill:rgb(203 213 225);fill-opacity:1;" d="M 159.660156 168.328125 L 156.847656 115.824219 L 150.550781 116.261719 C 150.242188 114.105469 149.980469 112 149.765625 109.945312 C 149.546875 107.890625 149.382812 105.78125 149.269531 103.609375 C 149.140625 101.453125 149.0625 99.335938 149.039062 97.253906 C 149.011719 95.175781 149.011719 93.042969 149.039062 90.863281 C 161.261719 89.585938 173.496094 88.460938 185.742188 87.492188 C 194.367188 103.699219 202.769531 120.359375 210.945312 137.472656 L 210.488281 112.988281 L 206.257812 113.160156 C 206.015625 110.863281 205.824219 108.617188 205.683594 106.425781 C 205.542969 104.230469 205.449219 101.953125 205.398438 99.589844 C 205.398438 97.292969 205.398438 95.042969 205.398438 92.832031 C 205.398438 90.625 205.484375 88.367188 205.664062 86.058594 C 219.621094 85.152344 233.585938 84.449219 247.554688 83.953125 C 247.746094 86.324219 247.886719 88.640625 247.976562 90.898438 C 248.066406 93.160156 248.121094 95.480469 248.148438 97.867188 C 248.148438 100.242188 248.105469 102.5625 248.015625 104.835938 C 247.925781 107.105469 247.792969 109.429688 247.613281 111.804688 L 241.335938 111.9375 L 241.621094 196.582031 L 213.875 195.644531 C 205.710938 177.984375 197.308594 160.722656 188.671875 143.867188 L 189.511719 168.328125 L 193.742188 168.328125 C 193.984375 170.601562 194.1875 172.820312 194.355469 174.992188 C 194.519531 177.160156 194.636719 179.378906 194.699219 181.652344 C 194.777344 183.921875 194.777344 186.144531 194.699219 188.3125 C 194.621094 190.484375 194.566406 192.703125 194.527344 194.976562 L 155.066406 193.710938 C 154.773438 191.542969 154.519531 189.421875 154.300781 187.355469 C 154.085938 185.289062 153.917969 183.171875 153.804688 181 C 153.675781 178.84375 153.597656 176.726562 153.574219 174.644531 C 153.546875 172.566406 153.546875 170.449219 153.574219 168.289062 Z M 159.660156 168.328125 "/>
<path style=" stroke:none;fill-rule:nonzero;fill:rgb(203 213 225);fill-opacity:1;" d="M 309.578125 161.285156 L 304.125 161.132812 C 304.023438 158.695312 303.957031 156.367188 303.933594 154.144531 C 303.90625 151.925781 303.90625 149.652344 303.933594 147.332031 C 304.007812 145.007812 304.125 142.710938 304.277344 140.4375 C 304.429688 138.167969 304.632812 135.820312 304.890625 133.394531 C 319.203125 133.664062 333.503906 134.070312 347.792969 134.621094 C 347.792969 137.070312 347.792969 139.4375 347.792969 141.722656 C 347.792969 144.007812 347.71875 146.316406 347.566406 148.652344 C 347.4375 150.988281 347.269531 153.265625 347.066406 155.484375 C 346.863281 157.707031 346.609375 160.035156 346.300781 162.472656 L 341.785156 162.300781 L 340.253906 192.21875 C 339.539062 192.613281 338.039062 193.359375 335.757812 194.457031 C 332.929688 195.753906 330.011719 196.847656 327.03125 197.730469 C 323.015625 198.941406 318.921875 199.890625 314.78125 200.5625 C 309.78125 201.378906 304.710938 201.679688 299.644531 201.464844 C 291.921875 201.382812 284.320312 199.550781 277.410156 196.105469 C 271.386719 192.980469 266.152344 188.53125 262.097656 183.085938 C 257.929688 177.378906 254.894531 170.917969 253.164062 164.058594 C 251.175781 156.347656 250.203125 148.40625 250.273438 140.4375 C 250.199219 132.242188 251.3125 124.082031 253.582031 116.207031 C 255.550781 109.332031 258.796875 102.886719 263.152344 97.21875 C 267.164062 92.035156 272.257812 87.789062 278.078125 84.773438 C 284.140625 81.703125 290.859375 80.148438 297.65625 80.238281 C 301.683594 80.257812 305.6875 80.863281 309.539062 82.039062 C 313.078125 83 316.40625 84.609375 319.355469 86.785156 L 319.492188 83.28125 C 323.753906 83.039062 328.050781 82.976562 332.390625 83.089844 C 336.214844 83.191406 340.082031 83.472656 343.984375 83.933594 L 341.917969 128.304688 C 339.367188 128.429688 336.855469 128.507812 334.378906 128.53125 C 331.90625 128.558594 329.441406 128.558594 326.992188 128.53125 C 324.441406 128.457031 321.960938 128.335938 319.546875 128.167969 C 317.136719 128.003906 314.707031 127.785156 312.257812 127.519531 L 312.46875 121.488281 C 312.652344 118.644531 311.726562 115.835938 309.882812 113.660156 C 307.859375 111.425781 304.9375 110.214844 301.921875 110.367188 C 299.359375 110.316406 296.847656 111.09375 294.765625 112.585938 C 292.511719 114.242188 290.667969 116.390625 289.371094 118.867188 C 287.785156 121.875 286.644531 125.101562 285.980469 128.4375 C 285.152344 132.429688 284.710938 136.496094 284.660156 140.574219 C 284.464844 145.375 284.882812 150.179688 285.90625 154.871094 C 286.601562 158.210938 287.898438 161.394531 289.734375 164.269531 C 291.167969 166.46875 293.144531 168.261719 295.472656 169.476562 C 297.539062 170.519531 299.804688 171.09375 302.113281 171.164062 C 303.6875 171.210938 305.257812 171.148438 306.820312 170.972656 C 307.65625 170.917969 308.484375 170.785156 309.289062 170.570312 Z M 309.578125 161.285156 "/>
<path style=" stroke:none;fill-rule:nonzero;fill:rgb(226 232 240);fill-opacity:1;" d="M 396.976562 204.871094 C 388.921875 204.890625 381 202.792969 374.011719 198.785156 C 368.128906 195.207031 363.203125 190.253906 359.660156 184.351562 C 356.0625 178.25 353.613281 171.542969 352.425781 164.558594 C 351.105469 157.261719 350.644531 149.835938 351.046875 142.429688 C 351.445312 134.972656 352.730469 127.589844 354.875 120.4375 C 356.902344 113.488281 360.234375 106.992188 364.691406 101.292969 C 369.195312 95.660156 375.003906 91.207031 381.609375 88.316406 C 389.558594 85.039062 398.214844 83.847656 406.753906 84.851562 C 415.238281 85.3125 423.476562 87.886719 430.714844 92.335938 C 436.679688 96.136719 441.664062 101.289062 445.257812 107.382812 C 448.730469 113.433594 450.984375 120.105469 451.898438 127.019531 C 452.898438 134.101562 453.015625 141.277344 452.242188 148.382812 C 451.460938 155.511719 449.828125 162.523438 447.382812 169.265625 C 445.023438 175.910156 441.527344 182.089844 437.050781 187.527344 C 427.214844 199.417969 412.25 205.832031 396.863281 204.757812 Z M 399.445312 174.589844 C 404.457031 174.816406 408.636719 172.507812 411.980469 167.660156 C 415.320312 162.808594 417.441406 155.574219 418.332031 145.953125 C 419.214844 136.203125 418.390625 128.722656 415.863281 123.519531 C 413.964844 118.746094 409.503906 115.484375 404.382812 115.113281 C 399.097656 114.6875 394.027344 117.289062 391.292969 121.832031 C 387.925781 126.695312 385.890625 134.085938 385.1875 144 C 384.484375 153.914062 385.371094 161.394531 387.847656 166.433594 C 389.773438 171.191406 394.316406 174.371094 399.445312 174.550781 Z M 399.445312 174.589844 "/>
<path style=" stroke:none;fill-rule:nonzero;fill:rgb(203 213 225);fill-opacity:1;" d="M 462.769531 93.484375 C 474.542969 94.976562 486.289062 96.636719 498 98.460938 C 493.941406 120.371094 489.917969 142.371094 485.925781 164.460938 C 476.867188 163.746094 467.800781 163.070312 458.730469 162.433594 C 460.109375 139.527344 461.453125 116.542969 462.769531 93.484375 Z M 487.648438 172.273438 C 487.457031 175.105469 487.230469 177.867188 486.976562 180.5625 C 486.722656 183.253906 486.414062 185.957031 486.058594 188.675781 C 485.703125 191.40625 485.304688 194.105469 484.871094 196.773438 C 484.4375 199.441406 483.960938 202.140625 483.4375 204.871094 L 451.515625 203.835938 C 451.65625 201.003906 451.816406 198.203125 451.996094 195.433594 C 452.171875 192.664062 452.414062 189.863281 452.722656 187.03125 C 453.039062 184.210938 453.417969 181.414062 453.851562 178.648438 C 454.285156 175.878906 454.757812 173.039062 455.265625 170.128906 C 466.023438 170.792969 476.796875 171.527344 487.589844 172.328125 Z M 487.648438 172.273438 "/>
</g>
</svg>
