<svg xmlns="http://www.w3.org/2000/svg" version="1.1" viewBox="-8 -8 528 528">
    <path fill="rgb(255 255 255)" d="M-8.002 256l264-264 264 264-264 264-264-264z"/>
    <path fill="rgb(217  0 18)" d="M1.478 256l254.513-254.513 254.513 254.513-254.513 254.514-254.513-254.514z"/>
    <path fill="rgb(255 255 255)" d="M34.107 256l221.885-221.885 221.885 221.885-221.885 221.885-221.885-221.885z"/>
    <path fill="rgb(217 0 18)" d="M256 307.678c1.263 0 8.91-6.723 13.191-11.842 1.518-1.81 2.942-3.489 4.195-5.168h23.883c1.414 0 2.367 0.528 2.829 2.697l1.395 6.543 0.002 0.014c0.188 1.423 1.406 2.521 2.879 2.521 0.008 0 0.017 0 0.024 0h2.149c0.008 0 0.017 0 0.025 0 1.474 0 2.692-1.098 2.88-2.536l1.406-6.543c0.425-2.169 1.377-2.697 2.829-2.697h0.877c2.726 0 3.074 0.284 3.668 0.943l10.334 11.389c1.122 1.235 1.971 1.829 3.234 1.829s2.121-0.594 3.234-1.829l10.276-11.399c0.585-0.669 0.943-0.943 3.668-0.943h0.877c1.414 0 2.367 0.528 2.829 2.697l1.395 6.543 0.002 0.014c0.188 1.423 1.406 2.521 2.879 2.521 0.008 0 0.017 0 0.024 0h2.281c0.008 0 0.017 0 0.025 0 1.474 0 2.692-1.098 2.88-2.536l1.885-8.873-0.046 0.25c0.404-1.844 0.671-3.74 0.8-5.784l-0.005-0.108c-0.123-1.935-0.392-3.829-0.75-5.425l-1.885-8.873-0.002-0.014c-0.188-1.423-1.406-2.521-2.879-2.521-0.008 0-0.017 0-0.024 0h-2.3c-0.005 0-0.010 0-0.015 0-1.476 0-2.697 1.098-2.889 2.536l-1.546 6.58c-0.425 2.169-1.377 2.697-2.829 2.697h-0.877c-2.726 0-3.074-0.284-3.668-0.943l-10.276-11.399c-1.122-1.245-1.98-1.839-3.234-1.839s-2.121 0.603-3.234 1.839l-10.276 11.399c-0.594 0.669-0.943 0.943-3.668 0.943h-0.877c-1.414 0-2.367-0.528-2.829-2.697l-1.406-6.543-0.002-0.014c-0.188-1.423-1.406-2.521-2.879-2.521-0.008 0-0.017 0-0.024 0h-2.149c-0.008 0-0.015 0-0.025 0-1.474 0-2.692 1.098-2.88 2.536l-1.395 6.543c-0.425 2.169-1.377 2.697-2.829 2.697h-19.131l-0.014 0.115c0.152-1.017 0.231-2.058 0.231-3.12 0-0.028 0-0.057 0-0.079v0.012c0.002-0.087 0.003-0.173 0.003-0.26 0-6.147-4.839-11.164-10.94-11.454-3.885 0-5.544 0.31-9.485 4.083-0.726 0.66-1.349 1.603-1.886 1.603s-1.15-0.904-1.886-1.603c-3.94-3.743-5.61-4.083-9.484-4.083l-0.026 0.001c-6.076 0.288-10.915 5.305-10.915 11.452 0 0.087 0.001 0.173 0.003 0.248v-0.001c0 0.005 0 0.012 0 0.019 0 1.082 0.083 2.144 0.226 3.066h-19.131c-1.415 0-2.367-0.528-2.829-2.697l-1.395-6.543-0.001-0.014c-0.188-1.423-1.405-2.521-2.879-2.521-0.008 0-0.016 0-0.024 0h-2.139c-0.008 0-0.016 0-0.025 0-1.475 0-2.692 1.098-2.88 2.536l-1.395 6.543c-0.424 2.169-1.377 2.697-2.829 2.697h-0.877c-2.734 0-3.083-0.284-3.677-0.943l-10.305-11.438c-1.122-1.245-1.98-1.839-3.234-1.839s-2.121 0.603-3.234 1.839l-10.276 11.399c-0.585 0.669-0.944 0.943-3.667 0.943h-0.887c-1.415 0-2.367-0.528-2.829-2.697l-1.395-6.543-0.001-0.015c-0.203-1.41-1.417-2.493-2.883-2.493-0.006 0-0.013 0-0.019 0h-2.299c-0.008 0-0.016 0-0.025 0-1.475 0-2.692 1.098-2.88 2.536l-1.886 8.873 0.046-0.25c-0.404 1.844-0.672 3.74-0.8 5.784l0.005 0.108c0.123 1.935 0.392 3.829 0.75 5.425l1.886 8.873 0.001 0.014c0.188 1.423 1.405 2.521 2.879 2.521 0.008 0 0.016 0 0.024 0h2.299c0.008 0 0.016 0 0.025 0 1.475 0 2.692-1.098 2.88-2.536l1.481-6.543c0.424-2.169 1.377-2.697 2.829-2.697h0.887c2.726 0 3.073 0.284 3.667 0.943l10.276 11.399c1.122 1.235 1.971 1.829 3.234 1.829s2.121-0.594 3.234-1.829l10.276-11.399c0.594-0.669 0.952-0.943 3.677-0.943h0.877c1.415 0 2.367 0.528 2.829 2.697l1.395 6.543 0.001 0.014c0.188 1.423 1.405 2.521 2.879 2.521 0.008 0 0.016 0 0.024 0h2.139c0.008 0 0.016 0 0.025 0 1.475 0 2.692-1.098 2.88-2.536l1.395-6.543c0.424-2.169 1.377-2.697 2.829-2.697h23.826c1.254 1.678 2.678 3.357 4.196 5.168 4.29 5.101 11.937 11.823 13.2 11.823zM127.931 285.511l0.585-26.495c-0.004-0.070-0.006-0.154-0.006-0.236 0-1.077 0.411-2.057 1.084-2.793l-0.003 0.003 4.149-3.771c0.552-0.48 1.276-0.771 2.069-0.771 0.078 0 0.156 0.003 0.232 0.008l-0.010-0 12.747-0.302c0.036 0.001 0.079 0.003 0.123 0.003 1.562 0 2.829-1.266 2.829-2.829 0-0.782-0.317-1.489-0.829-2.001v0l-2.734-2.631c-0.586-0.585-0.948-1.394-0.948-2.287 0-0.065 0.001-0.128 0.005-0.191l-0 0.008v-10.023c0-2.462 0.376-3.526 2.602-3.771 8.149-0.883 17.6-1.387 27.169-1.387 1.151 0 2.302 0.007 3.45 0.022l-0.174-0.001h16.029c1.395 0 2.026 0.755 2.508 2.121 3.011 7.933 10.549 13.47 19.38 13.47s16.369-5.537 19.334-13.328l0.047-0.142c0.49-1.367 1.113-2.121 2.508-2.121h31.953c1.395 0 2.026 0.755 2.517 2.121 3.010 7.933 10.549 13.47 19.38 13.47s16.37-5.537 19.334-13.328l0.046-0.142c0.49-1.367 1.113-2.121 2.508-2.121h16.029c0.973-0.012 2.123-0.020 3.274-0.020 9.57 0 19.021 0.504 28.329 1.487l-1.16-0.099c2.224 0.207 2.603 1.274 2.603 3.771v9.994c0.003 0.055 0.005 0.119 0.005 0.183 0 0.893-0.363 1.703-0.949 2.287v0l-2.735 2.631c-0.513 0.512-0.829 1.22-0.829 2.002 0 1.562 1.266 2.829 2.829 2.829 0.043 0 0.087-0.001 0.129-0.003h-0.005l12.747 0.302c0.065-0.005 0.139-0.007 0.214-0.007 0.793 0 1.517 0.292 2.072 0.774l-0.004-0.004 4.149 3.771c0.671 0.733 1.082 1.713 1.082 2.79 0 0.084-0.002 0.166-0.007 0.248l0-0.011 0.585 26.495-0.585 26.495c0.004 0.070 0.007 0.154 0.007 0.236 0 1.077-0.411 2.057-1.084 2.793l0.003-0.003-4.149 3.771c-0.551 0.479-1.276 0.771-2.068 0.771-0.075 0-0.15-0.002-0.224-0.007l0.010 0-12.747 0.301c-0.036-0.002-0.079-0.003-0.123-0.003-1.562 0-2.829 1.266-2.829 2.829 0 0.783 0.317 1.49 0.829 2.002v0l2.735 2.631c0.586 0.586 0.949 1.394 0.949 2.288 0 0.065-0.002 0.128-0.005 0.192l0-0.009v9.995c0 2.462-0.377 3.526-2.603 3.771-8.154 0.884-17.613 1.387-27.19 1.387-1.144 0-2.288-0.007-3.429-0.022l0.173 0.002h-151.602c-0.968 0.012-2.112 0.021-3.256 0.021-9.576 0-19.035-0.503-28.35-1.486l1.161 0.099c-2.225-0.207-2.602-1.274-2.602-3.771v-9.995c-0.004-0.055-0.005-0.119-0.005-0.183 0-0.894 0.363-1.703 0.948-2.288v0l2.734-2.631c0.513-0.512 0.829-1.22 0.829-2.002 0-1.562-1.266-2.829-2.829-2.829-0.042 0-0.087 0.001-0.129 0.003h0.006l-12.747-0.301c-0.066 0.005-0.144 0.007-0.223 0.007-0.793 0-1.518-0.293-2.072-0.774l0.004 0.003-4.149-3.771c-0.671-0.733-1.082-1.714-1.082-2.791 0-0.084 0.002-0.166 0.007-0.248l-0 0.011zM256 217.344h-15.398c-0.036 0.001-0.077 0.003-0.12 0.003-1.229 0-2.243-0.923-2.387-2.113l-0.001-0.012c-2.325-9.019-10.387-15.576-19.978-15.576s-17.654 6.558-19.947 15.434l-0.031 0.143c-0.145 1.201-1.159 2.123-2.387 2.123-0.032 0-0.065-0-0.096-0.001h-21.851c3.583-36.544 20.036-52.714 40.335-63.868 2.266-1.094 3.799-3.374 3.799-6.012 0-0.831-0.153-1.625-0.43-2.358l0.015 0.046c-0.928-2.797-2.32-5.212-4.105-7.278l0.024 0.028c-1.461-1.839-3.941-2.649-6.6-3.177-7.421-1.433-11.438-5.233-11.438-11.579 0-9.995 12.569-18.32 22.629-18.32 11.002 0 14.058 7.034 14.058 11.389 0 3.234-1.603 6.459-2.187 8.127-1.113 3.197-1.641 5.874-0.151 9.607 1.303 3.042 2.713 5.636 4.331 8.078l-0.117-0.187c1.302 2.245 3.695 3.732 6.434 3.732 0.392 0 0.776-0.030 1.151-0.089l-0.042 0.005c3.98-0.31 8.137-0.755 14.557-0.755s10.579 0.442 14.548 0.755c0.334 0.054 0.718 0.084 1.11 0.084 2.74 0 5.132-1.487 6.414-3.696l0.019-0.036c1.502-2.256 2.911-4.85 4.089-7.566l0.125-0.326c1.49-3.771 0.943-6.411-0.151-9.608-0.585-1.678-2.187-4.893-2.187-8.127 0-4.356 3.055-11.389 14.058-11.389 10.060 0 22.629 8.325 22.629 18.32 0 6.345-4.017 10.144-11.438 11.578-2.697 0.519-5.168 1.339-6.6 3.177-1.762 2.039-3.156 4.454-4.039 7.101l-0.043 0.15c-0.263 0.688-0.416 1.482-0.416 2.313 0 2.638 1.534 4.917 3.76 5.995l0.039 0.018c20.3 11.154 36.771 27.344 40.335 63.868h-21.978c-0.036 0.001-0.077 0.003-0.12 0.003-1.229 0-2.243-0.923-2.387-2.113l-0.001-0.012c-2.325-9.019-10.387-15.576-19.978-15.576s-17.654 6.558-19.947 15.434l-0.031 0.143c-0.144 1.202-1.159 2.124-2.387 2.124-0.042 0-0.084-0.001-0.127-0.003h0.005z"/>
</svg>