<svg xmlns="http://www.w3.org/2000/svg" xmlns:xlink="http://www.w3.org/1999/xlink" version="1.1" id="Laag_1" x="0px" y="0px" style="enable-background:new 0 0 508.8 586.6;" xml:space="preserve" viewBox="9.01 39.7 490.81 529.99">
<style type="text/css">
	.st0{fill:rgb(255 255 255);}
	.st1{fill:rgb(248 250 252);}
	.st2{fill:rgb(241 245 249);}
	.st4{fill:rgb(226 232 240);}
	.st5{fill:rgb(203 213 225);}
</style>
<g>
	<g>
		<circle class="st0" cx="254.3" cy="324.9" r="222.1"/>
		<path class="st5" d="M254.3,110.7c118.3,0,214.1,95.9,214.1,214.1S372.6,539,254.3,539C136,539,40.2,443.1,40.2,324.9S136,110.7,254.3,110.7     M254.3,102.8c-59.3,0-115.1,23.1-157,65c-41.9,41.9-65,97.7-65,157s23.1,115.1,65,157c41.9,41.9,97.7,65,157,65    s115.1-23.1,157-65c41.9-41.9,65-97.7,65-157s-23.1-115.1-65-157C369.4,125.9,313.6,102.8,254.3,102.8L254.3,102.8z"/>
	</g>
	<g>
		<path class="st1" d="M210.8,127.2L210.8,127.2c0.2,0.7-0.7,1.3-0.4,2.3l2.6,10.6l0.6-0.2c1.5-0.4,1.1-3,2.2-3.3l0.4-0.1    c0.4-0.1,0.7,0.1,0.7,0.5l0.3,3.1c0.1,0.5-0.1,0.8-0.6,0.9l-10.8,2.6c-0.5,0.1-0.8,0-0.9-0.5l-1.1-2.9c-0.2-0.4,0-0.7,0.4-0.8    l0.4-0.1c1.1-0.3,2,2.3,3.5,1.9l0.6-0.2l-2.6-10.6c-0.2-1-1.3-1.1-1.4-1.8l0-0.1c-0.1-0.3,0.1-0.5,0.4-0.6l5.1-1.2    C210.5,126.8,210.7,126.9,210.8,127.2z"/>
		<path class="st1" d="M198.3,130.3L198.3,130.3c0.2,0.7-0.5,1.3-0.2,2.3l3.2,9.6c0.3,1,1.3,1,1.5,1.7l0,0.1    c0.1,0.3-0.1,0.5-0.4,0.6l-4.9,1.7c-0.3,0.1-0.6,0-0.7-0.3l0-0.1c-0.2-0.6,0.6-1.2,0.3-2.2l-1.3-3.9l-4.6,1.6l1.3,3.9    c0.3,1,1.3,1,1.5,1.7l0,0.1c0.1,0.3,0,0.5-0.3,0.6l-4.9,1.7c-0.3,0.1-0.6,0-0.7-0.3l0-0.1c-0.2-0.6,0.6-1.3,0.3-2.2l-3.2-9.6    c-0.3-1-1.4-1-1.6-1.6l0-0.1c-0.1-0.3,0.1-0.5,0.4-0.6l4.9-1.7c0.3-0.1,0.5,0,0.6,0.3l0,0.1c0.2,0.6-0.5,1.2-0.2,2.2l1.3,3.9    l4.6-1.6l-1.3-4c-0.3-1-1.4-1-1.6-1.6l0-0.1c-0.1-0.3,0.1-0.5,0.4-0.6l4.9-1.7C198,129.9,198.2,130,198.3,130.3z"/>
		<path class="st1" d="M180.3,136.6L180.3,136.6c0.3,0.7-0.4,1.3,0,2.3l4,9.2c0.4,1,1.4,0.9,1.6,1.5l0,0.1c0.1,0.3,0,0.5-0.3,0.6    l-9.2,4c-0.5,0.2-0.7,0.1-1-0.3l-1.6-2.4c-0.2-0.3-0.1-0.7,0.3-0.9l0.1-0.1c1.2-0.5,2.8,1.6,4.3,1l1.1-0.5    c0.5-0.2,0.9-0.7,0.5-1.5l-1.6-3.6l-1.7,0.7c-1.1,0.5-0.5,2.2-1.1,2.5l-0.2,0.1c-0.3,0.1-0.5,0-0.6-0.3l-1.7-3.8    c-0.1-0.3-0.1-0.6,0.2-0.7l0.2-0.1c0.6-0.3,1.4,1.3,2.6,0.8l1.7-0.7l-1.4-3.2c-0.3-0.7-1-1.4-2-1l-1.4,0.6c-1.5,0.7-0.7,3.3-2,3.9    l-0.2,0.1c-0.4,0.2-0.7-0.2-0.8-0.4l-0.8-2.9c-0.1-0.5,0-0.8,0.4-1l9.7-4.2C179.9,136.3,180.1,136.3,180.3,136.6z"/>
		<path class="st1" d="M165.1,151.4c2.4,4.3,0.6,8.6-2.4,10.4c-3.2,1.8-6.4,1.8-7.5-0.3c-0.6-1-0.3-2.1,0.7-2.7    c2.7-1.5,5.2,1.9,6.9,0.9c1.1-0.6,1-2.1,0.1-3.7c-2.1-3.6-5.6-5.7-7.8-4.5c-0.3,0.1-0.4,0.3-0.5,0.4l1.2,2.2    c0.5,0.9,1.7,0.6,2,1.2l0,0.1c0.1,0.2,0,0.5-0.3,0.7l-4.4,2.5c-0.3,0.2-0.6,0.1-0.7-0.1l0-0.1c-0.3-0.6,0.4-1.3-0.2-2.3l-1.1-2    c-0.3-0.6-0.4-1.1,0-2c0.4-1.1,1.4-2.6,3.3-3.7C158.6,146.1,163.2,147.9,165.1,151.4z"/>
		<path class="st1" d="M134.3,162.4L134.3,162.4c-0.2-0.3-0.1-0.6,0.1-0.7l4.8-3.3c0.3-0.2,0.5-0.2,0.7,0.1l0,0.1    c0.4,0.5-0.4,1.4,0.7,2l3,1.7l1.3-1l-1.7-2.5c-0.6-0.9-1.6-0.6-2-1.1l0-0.1c-0.2-0.2-0.1-0.5,0.2-0.7l4.3-3    c0.3-0.2,0.5-0.2,0.7,0.1l0,0.1c0.4,0.5-0.2,1.3,0.4,2.2l5.7,8.3c0.6,0.9,1.5,0.6,1.9,1.2l0,0.1c0.2,0.2,0.1,0.5-0.2,0.7l-5.1,3.5    c-3.3,2.3-6.3,2.3-8.1-0.3c-0.8-1.2-1.1-3-0.2-4.7l-4.1-1.8C135.5,162.5,134.6,163,134.3,162.4z M144.7,163.5l-0.4,0.2    c-0.6,0.4-0.7,1.3,0.4,2.9c1.2,1.8,3.1,2.3,3.9,1.7l0.1-0.1c0.4-0.3,0.4-0.9,0-1.5l-1.8-2.7C146.2,163,145.5,162.9,144.7,163.5z"/>
		<path class="st1" d="M132.3,163.9L132.3,163.9c0.5,0.6,0,1.4,0.7,2.2l6.4,7.8c0.7,0.8,1.6,0.5,2,1l0.1,0.1    c0.2,0.2,0.1,0.5-0.1,0.7l-7.8,6.3c-0.4,0.3-0.7,0.3-1.1,0l-2.2-1.9c-0.3-0.3-0.3-0.6,0-0.9l0.1-0.1c1-0.8,3.2,0.8,4.4-0.2    l0.9-0.8c0.4-0.4,0.7-0.9,0.1-1.5l-2.5-3l-1.4,1.2c-1,0.8,0.1,2.3-0.4,2.7l-0.2,0.1c-0.2,0.2-0.5,0.1-0.7-0.1l-2.6-3.2    c-0.2-0.2-0.2-0.5,0-0.7l0.2-0.1c0.5-0.4,1.7,0.8,2.7,0.1l1.4-1.2l-2.2-2.7c-0.5-0.6-1.3-1.1-2.2-0.4l-1.2,1    c-1.3,1,0.2,3.4-0.9,4.3l-0.2,0.1c-0.3,0.2-0.7,0-0.8-0.2l-1.5-2.6c-0.3-0.5-0.3-0.8,0.1-1.1l8.2-6.7    C131.8,163.7,132.1,163.7,132.3,163.9z"/>
		<path class="st1" d="M109.8,184L109.8,184c-0.3-0.3-0.2-0.5,0-0.8l4.5-4.3c0.2-0.2,0.5-0.2,0.7,0l0.1,0.1c0.5,0.5-0.3,1.6,0.7,2.2    l0.9,0.5l3.6-3.5l-0.4-1c-0.5-1-1.7-0.3-2.1-0.8l-0.1-0.1c-0.2-0.2-0.2-0.5,0.1-0.7l2.5-2.4c0.2-0.2,0.5-0.2,0.7,0l0.1,0.1    c0.5,0.5-0.1,1.2,0.5,2.4l4.1,9.8c0.4,0.9,1.7,0.6,2.1,1.1l0.1,0.1c0.2,0.2,0.2,0.5-0.1,0.7l-2.3,2.2c-0.6,0.5-1.2,0.6-1.9,0.3    l-11.4-5.1C110.9,184,110.2,184.5,109.8,184z M118.4,182.4l5.1,2.6l-2.4-5.3L118.4,182.4z"/>
		<path class="st1" d="M107.2,186.7L107.2,186.7c0.6,0.5,0.2,1.4,0.9,2.1l8.1,7.3l0.4-0.5c1-1.1-0.8-3.1,0-4l0.3-0.3    c0.3-0.3,0.6-0.3,0.9,0l2,2.4c0.3,0.4,0.3,0.7,0,1.1l-7.5,8.2c-0.3,0.4-0.6,0.4-1.1,0.1l-2.6-1.8c-0.3-0.2-0.4-0.6-0.1-0.9    l0.3-0.3c0.7-0.8,2.9,0.8,3.9-0.4l0.4-0.5l-8.1-7.3c-0.8-0.7-1.7-0.2-2.2-0.7l-0.1-0.1c-0.2-0.2-0.2-0.5,0-0.7l3.5-3.9    C106.8,186.6,107,186.5,107.2,186.7z"/>
		<path class="st1" d="M98.8,196.3L98.8,196.3c0.6,0.5,0.3,1.4,1.1,2l8,6.2c0.8,0.6,1.6,0.1,2.2,0.6l0.1,0.1c0.2,0.2,0.2,0.4,0,0.7    l-6.1,7.9c-0.3,0.4-0.6,0.4-1,0.2l-2.6-1.4c-0.4-0.2-0.4-0.6-0.2-0.9l0.1-0.1c0.8-1.1,3.2,0,4.2-1.2l0.7-1c0.3-0.4,0.5-1-0.2-1.5    l-3.1-2.4l-1.1,1.4c-0.8,1,0.6,2.2,0.2,2.7l-0.1,0.2c-0.2,0.2-0.4,0.2-0.7,0l-3.3-2.6c-0.3-0.2-0.3-0.5-0.1-0.7l0.1-0.2    c0.4-0.5,1.9,0.4,2.6-0.5l1.1-1.4l-2.8-2.2c-0.6-0.5-1.6-0.8-2.2,0.1l-0.9,1.2c-1,1.3,1,3.2,0.1,4.4l-0.1,0.2    c-0.2,0.3-0.7,0.2-0.9,0l-2.1-2.2c-0.4-0.4-0.4-0.7-0.1-1.1l6.5-8.3C98.3,196.2,98.5,196.1,98.8,196.3z"/>
		<path class="st1" d="M92.3,210.1c0.9,0.6,1.2,1.4,0.5,2.4c-1.4,2.1-4.6-0.5-6.2,2c-0.6,0.9-0.5,1.7,0.3,2.2    c3.2,2.1,5.9-6,11.1-2.6c2.4,1.6,2.7,4.6,0.7,7.6c-1.9,2.9-5,4.3-6.8,3.1c-0.9-0.6-1.1-1.5-0.5-2.5c1.6-2.4,4.7,0.4,6-1.5    c0.6-0.9,0.3-1.7-0.4-2.2c-3.8-2.5-6.3,5.7-11.2,2.4c-2.4-1.6-2.2-4.8-0.5-7.5C87.5,210.3,90.6,209,92.3,210.1z"/>
		<path class="st1" d="M79.6,224L79.6,224c0.7,0.4,0.5,1.3,1.4,1.9l9.5,5.3l0.3-0.6c0.7-1.4-1.4-2.9-0.9-3.9l0.2-0.4    c0.2-0.4,0.5-0.5,0.9-0.2l2.5,1.9c0.4,0.3,0.5,0.6,0.2,1l-5.4,9.7c-0.3,0.5-0.5,0.5-1,0.4l-2.9-1.1c-0.4-0.1-0.5-0.5-0.3-0.8    l0.2-0.4c0.5-1,3,0.1,3.8-1.3l0.3-0.6l-9.5-5.3c-0.9-0.5-1.7,0.2-2.3-0.1l-0.1,0c-0.2-0.1-0.3-0.4-0.1-0.7l2.5-4.6    C79.1,224,79.4,223.9,79.6,224z"/>
		<path class="st1" d="M74.5,240.8c0.9,0.4,1.4,1.1,0.9,2.3c-1,2.3-4.6,0.4-5.7,3c-0.4,1-0.2,1.7,0.7,2.1c3.6,1.5,4.7-6.9,10.5-4.5    c2.6,1.1,3.4,4.1,2,7.3c-1.4,3.2-4.2,5.1-6.1,4.3c-1-0.4-1.4-1.2-0.9-2.4c1.1-2.6,4.7-0.5,5.6-2.6c0.4-1,0-1.8-0.8-2.1    c-4.2-1.8-5.1,6.7-10.5,4.4c-2.7-1.1-3.1-4.3-1.8-7.3C69.8,241.8,72.6,240,74.5,240.8z"/>
		<path class="st1" d="M65.3,254.2L65.3,254.2c0.7,0.2,0.7,1.2,1.7,1.5l9.6,3.2c1,0.3,1.6-0.4,2.2-0.2l0.1,0    c0.3,0.1,0.4,0.3,0.3,0.7l-1.6,5c-0.1,0.3-0.3,0.5-0.6,0.4l-0.1,0c-0.6-0.2-0.6-1.2-1.6-1.6l-3.9-1.3l-1.5,4.6l3.9,1.3    c1,0.3,1.6-0.4,2.2-0.2l0.1,0c0.3,0.1,0.4,0.3,0.3,0.6l-1.6,5c-0.1,0.3-0.3,0.5-0.6,0.4l-0.1,0c-0.6-0.2-0.6-1.2-1.6-1.6l-9.6-3.2    c-1-0.3-1.6,0.5-2.2,0.3l-0.1,0c-0.3-0.1-0.4-0.3-0.3-0.7l1.6-5c0.1-0.3,0.3-0.4,0.6-0.3l0.1,0c0.6,0.2,0.7,1.1,1.7,1.5l4,1.3    l1.5-4.6l-3.9-1.3c-1-0.3-1.6,0.5-2.2,0.3l-0.1,0c-0.3-0.1-0.4-0.3-0.3-0.7l1.6-5C64.8,254.3,65,254.1,65.3,254.2z"/>
		<path class="st1" d="M66.5,273.6c4.6,1.1,7.1,4.7,6,9.2c-0.9,3.9-4.8,6.7-9.4,5.6c-4.6-1.1-6.8-5.1-5.8-9.2    C58.1,275.5,61.8,272.5,66.5,273.6z M60.7,283.2c3.2,0.7,9.9-0.2,10.4-2.4c0.3-1.1-0.4-1.9-2-2.2c-3.7-0.9-9.9,0.2-10.4,2.3    C58.4,282.1,59.1,282.8,60.7,283.2z"/>
		<path class="st1" d="M67.2,312.4L67.2,312.4c-0.7-0.1-0.8-1-1.9-1.6l-10.9-5.4c-0.8-0.4-1.1-1-1-1.7c0.1-0.8,0.5-1.3,1.3-1.4    l7.2-1.3l-6.6-3.1c-0.8-0.4-1.1-0.9-1-1.6c0.1-0.9,0.5-1.2,1.3-1.4l12.1-3.5c1.2-0.4,1.5-1.3,2.2-1.2l0.1,0c0.3,0,0.4,0.3,0.4,0.6    l-0.7,5.8c0,0.3-0.2,0.5-0.5,0.5l-0.1,0c-0.7-0.1-0.8-1.3-1.9-1.1l-7.6,1.8l5.6,2.6l1.4-0.3c1-0.2,1.6-1.3,2.2-1.2l0.1,0    c0.3,0,0.4,0.3,0.4,0.6l-0.7,5.7c0,0.3-0.2,0.5-0.5,0.5l-0.1,0c-0.7-0.1-0.6-1.4-1.9-1.3l-7.4,1l6.8,3.2c1,0.5,1.5-0.7,2.1-0.7    l0.1,0c0.3,0,0.4,0.3,0.4,0.6l-0.4,3.5C67.6,312.2,67.4,312.4,67.2,312.4z"/>
		<path class="st1" d="M59.7,317.9c4.7-0.1,8,2.9,8.1,7.4c0.1,4-3.1,7.7-7.8,7.7c-4.8,0.1-7.8-3.3-7.8-7.5    C52,321.7,54.9,318,59.7,317.9z M56.3,328.6c3.2-0.1,9.6-2.6,9.6-4.8c0-1.2-0.8-1.7-2.5-1.7c-3.8,0.1-9.5,2.6-9.5,4.8    C53.9,328.1,54.7,328.6,56.3,328.6z"/>
		<path class="st1" d="M68.5,349.9L68.5,349.9c-0.7,0.1-1.2-0.9-2.2-0.8l-11.5,1c-0.7,0.1-1.1-0.3-1.2-1l-0.1-1.4    c-0.1-0.6,0.2-0.9,0.6-1.3l8.8-8.1l-7.7,0.7c-1,0.1-1.3,1.2-1.9,1.2l-0.1,0c-0.3,0-0.5-0.2-0.5-0.5l-0.3-3c0-0.3,0.1-0.5,0.4-0.6    l0.1,0c0.7-0.1,1.1,0.8,2.1,0.7l10-0.9c1-0.1,1.3-1,2-1.1l0.1,0c0.3,0,0.5,0.2,0.5,0.5l0.3,3.6c0.1,0.6-0.2,0.9-0.6,1.3l-8.4,7.2    l7.1-0.6c1-0.1,1.3-1.1,1.9-1.1l0.1,0c0.3,0,0.5,0.2,0.5,0.5l0.3,3C69,349.6,68.8,349.9,68.5,349.9z"/>
		<path class="st1" d="M55.6,359.8L55.6,359.8c0.7-0.1,1.2,0.6,2.3,0.4l9.9-2c1-0.2,1.2-1.1,1.8-1.3l0.1,0c0.3-0.1,0.5,0.1,0.5,0.4    l2,9.8c0.1,0.5,0,0.7-0.5,0.9l-2.7,1.1c-0.4,0.1-0.7-0.1-0.8-0.5l0-0.1c-0.3-1.3,2.2-2.4,1.8-4l-0.2-1.2c-0.1-0.5-0.5-1-1.3-0.8    l-3.8,0.8l0.4,1.8c0.2,1.2,2.1,1,2.2,1.6l0,0.2c0.1,0.3-0.1,0.5-0.4,0.5l-4.1,0.8c-0.3,0.1-0.6-0.1-0.6-0.3l0-0.2    c-0.1-0.7,1.5-1.1,1.3-2.3l-0.4-1.8l-3.4,0.7c-0.8,0.2-1.6,0.7-1.4,1.7l0.3,1.5c0.3,1.6,3.1,1.4,3.4,2.8l0,0.2    c0.1,0.4-0.3,0.6-0.6,0.6l-3,0.1c-0.5,0-0.8-0.1-0.9-0.6l-2.1-10.3C55.2,360.1,55.3,359.8,55.6,359.8z"/>
		<path class="st1" d="M62.9,389L62.9,389c-0.3,0.1-0.6-0.1-0.7-0.4l-1.7-6c-0.1-0.3,0-0.6,0.3-0.6l0.1,0c0.6-0.2,1.3,1,2.2,0.4    l0.9-0.6l-1.4-4.8l-1-0.1c-1.1-0.1-1,1.3-1.7,1.5l-0.1,0c-0.3,0.1-0.5-0.1-0.6-0.4l-1-3.4c-0.1-0.3,0-0.6,0.3-0.6l0.1,0    c0.6-0.2,1,0.6,2.3,0.7l10.6,0.9c1,0.1,1.4-1.2,1.9-1.4l0.1,0c0.3-0.1,0.5,0.1,0.6,0.4l0.9,3.1c0.2,0.8,0,1.3-0.6,1.8l-9.8,7.7    C63.5,388,63.6,388.9,62.9,389z M65.6,380.7l4.7-3.3l-5.8-0.3L65.6,380.7z"/>
		<path class="st1" d="M69.1,405.2L69.1,405.2c-0.3,0.1-0.6,0-0.7-0.3l-2.1-5.4c-0.1-0.3,0-0.6,0.2-0.7l0.1,0    c0.6-0.2,1.2,0.7,2.1-0.2l2.4-2.5l-0.6-1.5l-2.8,1.1c-1,0.4-0.9,1.4-1.5,1.7l-0.1,0c-0.3,0.1-0.5,0-0.6-0.3l-1.9-4.9    c-0.1-0.3,0-0.6,0.2-0.7l0.1,0c0.6-0.2,1.2,0.5,2.2,0.1l9.4-3.6c1-0.4,1-1.3,1.6-1.6l0.1,0c0.3-0.1,0.5,0,0.6,0.3l2.2,5.7    c1.4,3.7,0.8,6.7-2.2,7.8c-1.4,0.5-3.2,0.4-4.6-0.9l-2.7,3.6C69.5,404.1,69.7,405,69.1,405.2z M72.5,395.3l0.2,0.4    c0.2,0.6,1.1,1,2.9,0.3c2-0.8,3-2.5,2.6-3.4l0-0.1c-0.2-0.5-0.8-0.6-1.4-0.4l-3,1.2C72.4,393.8,72.2,394.4,72.5,395.3z"/>
		<path class="st1" d="M71.1,409.7L71.1,409.7c0.7-0.3,1.4,0.4,2.3-0.1l9.8-4.7l-0.3-0.6c-0.7-1.4-3.2-0.5-3.7-1.5l-0.2-0.4    c-0.2-0.4-0.1-0.7,0.3-0.8l3-0.9c0.5-0.2,0.8-0.1,1,0.4l4.8,10c0.2,0.5,0.1,0.7-0.3,1l-2.6,1.7c-0.3,0.2-0.7,0.1-0.9-0.3l-0.2-0.4    c-0.5-1,1.8-2.4,1.1-3.8l-0.3-0.6l-9.8,4.7c-0.9,0.5-0.8,1.5-1.4,1.8l-0.1,0c-0.3,0.1-0.5,0-0.6-0.3l-2.3-4.7    C70.8,410,70.9,409.8,71.1,409.7z"/>
		<path class="st1" d="M91.2,444.1L91.2,444.1c0.6-0.5,1.4,0.1,2.3-0.5l8.7-6.5l-0.4-0.5c-0.9-1.2-3.2,0.1-3.9-0.8l-0.2-0.3    c-0.2-0.3-0.2-0.7,0.2-0.9l2.7-1.5c0.5-0.3,0.7-0.2,1,0.2l6.7,8.9c0.3,0.4,0.3,0.7-0.1,1.1l-2.2,2.2c-0.3,0.3-0.6,0.2-0.9-0.1    l-0.2-0.3c-0.7-0.9,1.3-2.7,0.4-3.9l-0.4-0.5l-8.7,6.5c-0.8,0.6-0.5,1.6-1.1,2l-0.1,0.1c-0.2,0.2-0.5,0.1-0.7-0.2l-3.1-4.2    C91,444.5,91,444.3,91.2,444.1z"/>
		<path class="st1" d="M99,454.3L99,454.3c0.6-0.5,1.4-0.1,2.2-0.8l7.5-6.7c0.8-0.7,0.4-1.6,0.9-2l0.1-0.1c0.2-0.2,0.5-0.1,0.7,0.1    l3.5,3.9c0.2,0.2,0.2,0.5,0,0.7l-0.1,0.1c-0.5,0.4-1.4-0.1-2.2,0.6l-3,2.7l3.3,3.7l3.1-2.7c0.8-0.7,0.5-1.6,0.9-2l0.1-0.1    c0.2-0.2,0.5-0.2,0.7,0.1l3.5,3.9c0.2,0.2,0.2,0.5,0,0.7l-0.1,0.1c-0.5,0.4-1.4-0.1-2.2,0.6l-7.5,6.7c-0.8,0.7-0.4,1.7-0.9,2.1    l-0.1,0.1c-0.2,0.2-0.5,0.1-0.7-0.1l-3.5-3.9c-0.2-0.2-0.2-0.5,0-0.7l0.1-0.1c0.5-0.4,1.3,0,2.1-0.7l3.1-2.8l-3.3-3.7l-3.1,2.8    c-0.8,0.7-0.4,1.7-0.9,2.1l-0.1,0.1c-0.2,0.2-0.5,0.1-0.7-0.1L99,455C98.8,454.8,98.8,454.5,99,454.3z"/>
		<path class="st1" d="M111.9,468.4L111.9,468.4c0.5-0.5,1.4-0.2,2.1-0.9l6.9-7.3c0.7-0.8,0.3-1.6,0.8-2.1l0.1-0.1    c0.2-0.2,0.5-0.2,0.7,0l7.3,6.9c0.4,0.4,0.4,0.6,0.1,1.1l-1.6,2.4c-0.2,0.3-0.6,0.4-0.9,0.1l-0.1-0.1c-1-0.9,0.4-3.2-0.8-4.3    l-0.9-0.8c-0.4-0.4-1-0.5-1.5,0.1l-2.7,2.8l1.3,1.3c0.9,0.9,2.3-0.4,2.7,0.1l0.2,0.1c0.2,0.2,0.2,0.5,0,0.7l-2.9,3    c-0.2,0.2-0.5,0.3-0.7,0.1l-0.2-0.1c-0.5-0.5,0.6-1.8-0.3-2.7l-1.3-1.3l-2.4,2.6c-0.5,0.6-0.9,1.5-0.2,2.2l1.1,1.1    c1.2,1.1,3.3-0.7,4.4,0.3l0.2,0.1c0.3,0.3,0.1,0.7-0.1,0.9l-2.4,1.8c-0.4,0.3-0.7,0.4-1.1,0l-7.7-7.2    C111.7,468.9,111.7,468.6,111.9,468.4z"/>
		<path class="st1" d="M131.5,476.6c3-3.9,7.7-4,10.5-1.8c2.9,2.2,4.1,5.2,2.7,7c-0.7,0.9-1.8,1.1-2.7,0.4c-2.4-1.9-0.2-5.5-1.9-6.7    c-1-0.7-2.4-0.1-3.5,1.4c-2.5,3.3-3.1,7.4-1,8.9c0.2,0.2,0.4,0.3,0.6,0.3l1.5-2c0.6-0.8-0.1-1.8,0.3-2.3l0.1-0.1    c0.2-0.2,0.5-0.2,0.8,0l4,3.1c0.3,0.2,0.3,0.5,0.2,0.7l-0.1,0.1c-0.4,0.5-1.4,0.2-2,1l-1.4,1.8c-0.4,0.5-0.8,0.8-1.9,0.8    c-1.1,0-2.9-0.3-4.7-1.6C129.2,484.7,129,479.7,131.5,476.6z"/>
		<path class="st1" d="M153.7,500.6L153.7,500.6c-0.2,0.3-0.5,0.3-0.7,0.2l-4.9-3.1c-0.3-0.2-0.4-0.4-0.2-0.7l0-0.1    c0.4-0.6,1.4-0.2,1.6-1.4l0.4-3.4l-1.4-0.8l-1.6,2.6c-0.6,0.9,0.1,1.7-0.3,2.3l0,0.1c-0.2,0.2-0.4,0.3-0.7,0.1l-4.4-2.8    c-0.3-0.2-0.4-0.4-0.2-0.7l0-0.1c0.4-0.6,1.3-0.4,1.8-1.2l5.4-8.5c0.6-0.9,0-1.6,0.4-2.2l0-0.1c0.1-0.2,0.4-0.3,0.7-0.1l5.2,3.3    c3.4,2.1,4.6,4.9,2.9,7.6c-0.8,1.2-2.3,2.2-4.2,2l0,4.5C153.3,499.5,154,500.1,153.7,500.6z M150.6,490.6l0.4,0.2    c0.6,0.4,1.5,0.1,2.5-1.5c1.2-1.8,0.9-3.7,0.1-4.3l-0.1-0.1c-0.5-0.3-1,0-1.4,0.5l-1.7,2.7C149.6,489.4,149.7,490.1,150.6,490.6z"/>
		<path class="st1" d="M155.8,501.9L155.8,501.9c0.4-0.7,1.3-0.5,1.8-1.5l4.7-8.9c0.5-0.9-0.1-1.6,0.2-2.2l0-0.1    c0.1-0.2,0.4-0.3,0.7-0.1l8.8,4.7c0.5,0.2,0.5,0.5,0.4,1l-0.9,2.8c-0.1,0.4-0.5,0.5-0.8,0.3l-0.1-0.1c-1.2-0.6-0.5-3.2-2-4    l-1.1-0.6c-0.5-0.3-1.1-0.3-1.5,0.5l-1.8,3.5l1.6,0.9c1.1,0.6,2.1-1,2.7-0.7l0.2,0.1c0.2,0.1,0.3,0.4,0.1,0.7l-2,3.7    c-0.2,0.3-0.4,0.4-0.7,0.3l-0.2-0.1c-0.6-0.3,0.1-1.9-1-2.5l-1.6-0.9l-1.6,3.1c-0.4,0.7-0.5,1.7,0.4,2.2l1.4,0.7    c1.4,0.8,3-1.5,4.3-0.9l0.2,0.1c0.3,0.2,0.3,0.6,0.1,0.9l-1.8,2.4c-0.3,0.4-0.6,0.5-1.1,0.3l-9.3-4.9    C155.8,502.4,155.7,502.1,155.8,501.9z"/>
		<path class="st1" d="M183.1,514.7L183.1,514.7c-0.1,0.3-0.4,0.4-0.7,0.3l-5.7-2.5c-0.3-0.1-0.4-0.4-0.3-0.6l0-0.1    c0.3-0.6,1.6-0.4,1.7-1.5l0.1-1l-4.6-2l-0.7,0.8c-0.7,0.8,0.4,1.6,0.1,2.3l0,0.1c-0.1,0.3-0.4,0.3-0.7,0.2l-3.2-1.4    c-0.3-0.1-0.4-0.4-0.3-0.6l0-0.1c0.3-0.6,1.1-0.4,2-1.4l7.4-7.6c0.7-0.7-0.1-1.9,0.1-2.4l0-0.1c0.1-0.3,0.4-0.3,0.7-0.2l2.9,1.2    c0.7,0.3,1,0.8,1,1.6l-0.2,12.5C182.7,513.6,183.4,514.1,183.1,514.7z M178.3,507.4l0.4-5.7l-3.9,4.2L178.3,507.4z"/>
		<path class="st1" d="M186.7,516L186.7,516c0.2-0.7,1.2-0.7,1.6-1.7l3.5-10.3l-0.6-0.2c-1.5-0.5-2.6,1.9-3.6,1.6l-0.4-0.1    c-0.4-0.1-0.5-0.5-0.4-0.8l1.4-2.8c0.2-0.5,0.5-0.6,1-0.4l10.5,3.6c0.5,0.2,0.6,0.4,0.5,0.9l-0.6,3.1c-0.1,0.4-0.4,0.6-0.8,0.4    l-0.4-0.1c-1.1-0.4-0.5-3-1.9-3.5l-0.6-0.2l-3.5,10.3c-0.3,1,0.5,1.6,0.2,2.2l0,0.1c-0.1,0.3-0.3,0.4-0.7,0.3l-5-1.7    C186.7,516.5,186.6,516.3,186.7,516z"/>
		<path class="st1" d="M198.7,520L198.7,520c0.2-0.7,1.1-0.8,1.4-1.8l2.5-9.8c0.3-1-0.5-1.5-0.3-2.2l0-0.1c0.1-0.3,0.3-0.4,0.6-0.3    l9.7,2.5c0.5,0.1,0.6,0.4,0.6,0.9l-0.2,2.9c0,0.4-0.4,0.6-0.7,0.5l-0.1,0c-1.3-0.3-1.2-3-2.8-3.4l-1.2-0.3c-0.5-0.1-1.1,0-1.3,0.8    l-1,3.8l1.8,0.5c1.2,0.3,1.8-1.4,2.4-1.3l0.2,0.1c0.3,0.1,0.4,0.3,0.3,0.6l-1,4c-0.1,0.3-0.3,0.5-0.6,0.4l-0.2-0.1    c-0.6-0.2-0.3-1.9-1.5-2.2l-1.8-0.5l-0.9,3.4c-0.2,0.7-0.1,1.7,0.9,2l1.5,0.4c1.6,0.4,2.6-2.2,4-1.8l0.2,0.1    c0.4,0.1,0.4,0.5,0.3,0.8l-1.2,2.7c-0.2,0.5-0.5,0.7-1,0.5l-10.2-2.6C198.8,520.5,198.7,520.3,198.7,520z"/>
		<path class="st1" d="M214,520.5c0.2-1,0.8-1.6,2-1.4c2.4,0.4,1.4,4.4,4.3,4.9c1,0.2,1.7-0.2,1.9-1.1c0.7-3.8-7.8-3-6.7-9.2    c0.5-2.8,3.2-4.3,6.7-3.7c3.4,0.6,5.9,2.9,5.5,5c-0.2,1-0.9,1.6-2.1,1.4c-2.8-0.5-1.5-4.5-3.8-4.9c-1.1-0.2-1.7,0.4-1.9,1.3    c-0.8,4.5,7.7,3.5,6.7,9.3c-0.5,2.9-3.5,4-6.7,3.4C216.1,524.8,213.7,522.5,214,520.5z"/>
		<path class="st1" d="M231.9,526.6L231.9,526.6c0.1-0.7,1-1,1.2-2l1.1-10.8l-0.6-0.1c-1.5-0.2-2.1,2.5-3.2,2.4l-0.4,0    c-0.4,0-0.6-0.3-0.5-0.7l0.7-3c0.1-0.5,0.3-0.7,0.9-0.6l11.1,1.1c0.5,0.1,0.7,0.3,0.7,0.8l0.1,3.1c0,0.4-0.3,0.6-0.7,0.6l-0.4,0    c-1.1-0.1-1.1-2.8-2.7-2.9l-0.6-0.1l-1.1,10.8c-0.1,1,0.8,1.5,0.8,2.1l0,0.1c0,0.3-0.3,0.4-0.6,0.4l-5.2-0.5    C232,527.1,231.9,526.9,231.9,526.6z"/>
		<path class="st1" d="M249.3,524.8c0-1,0.5-1.7,1.7-1.7c2.5,0,2.2,4,5.1,4c1,0,1.7-0.6,1.6-1.5c-0.1-3.9-8.2-1.5-8.4-7.7    c0-2.9,2.3-4.8,5.9-4.9c3.5-0.1,6.4,1.7,6.4,3.8c0,1.1-0.6,1.8-1.8,1.8c-2.9,0-2.3-4.1-4.6-4.1c-1.1,0-1.6,0.7-1.6,1.6    c0.1,4.6,8.2,2,8.3,7.8c0,2.9-2.7,4.5-5.9,4.6C252.1,528.7,249.3,526.9,249.3,524.8z"/>
		<path class="st1" d="M265.1,527.9L265.1,527.9c-0.1-0.7,0.8-1.1,0.7-2.2l-0.8-10c-0.1-1-1-1.3-1-2l0-0.1c0-0.3,0.2-0.5,0.5-0.5    l5.2-0.4c0.3,0,0.5,0.1,0.6,0.4l0,0.1c0.1,0.7-0.9,1.1-0.8,2.1l0.3,4.1l4.9-0.4l-0.3-4.1c-0.1-1-1-1.3-1-2l0-0.1    c0-0.3,0.2-0.5,0.5-0.5l5.2-0.4c0.3,0,0.5,0.1,0.6,0.4l0,0.1c0.1,0.7-0.9,1.1-0.8,2.1l0.8,10c0.1,1,1.1,1.3,1.2,1.9l0,0.1    c0,0.3-0.2,0.5-0.5,0.5l-5.2,0.4c-0.3,0-0.5-0.1-0.6-0.4l0-0.1c-0.1-0.7,0.8-1.1,0.7-2.1l-0.4-4.1l-4.9,0.4l0.3,4.1    c0.1,1,1.1,1.3,1.2,1.9l0,0.1c0,0.3-0.2,0.5-0.5,0.5l-5.2,0.4C265.4,528.3,265.2,528.2,265.1,527.9z"/>
		<path class="st1" d="M282.6,519.2c-0.8-4.7,1.6-8.4,6.1-9.1c3.9-0.7,8.1,1.8,8.9,6.5c0.8,4.7-2,8.2-6.2,8.9    C287.5,526.2,283.4,523.9,282.6,519.2z M293.7,520.8c-0.6-3.2-4.1-9.1-6.3-8.7c-1.1,0.2-1.6,1.1-1.3,2.7c0.7,3.8,4,9,6.2,8.6    C293.5,523.3,293.9,522.4,293.7,520.8z"/>
		<path class="st1" d="M318,503.4L318,503.4c0.2,0.7-0.7,1.1-0.7,2.4l-0.7,12.1c-0.1,0.9-0.5,1.4-1.2,1.6c-0.8,0.2-1.4,0-1.8-0.6    l-4-6.1l-0.3,7.2c0,0.9-0.4,1.4-1.1,1.5c-0.9,0.2-1.3,0-1.8-0.6l-8-9.7c-0.8-1-1.8-0.9-2-1.6l0-0.1c-0.1-0.3,0.1-0.5,0.4-0.6    l5.7-1.6c0.3-0.1,0.6,0,0.6,0.3l0,0.1c0.2,0.6-0.9,1.3-0.2,2.2l4.6,6.3l0.2-6.2l-0.8-1.2c-0.6-0.8-1.8-0.9-2-1.5l0-0.1    c-0.1-0.3,0.1-0.5,0.4-0.6l5.5-1.6c0.3-0.1,0.6,0,0.6,0.3l0,0.1c0.2,0.6-1.1,1.1-0.4,2.2l3.8,6.4l0.3-7.5c0-1.1-1.3-1.1-1.4-1.7    l0-0.1c-0.1-0.3,0.1-0.5,0.4-0.6l3.4-1C317.6,503.1,317.9,503.2,318,503.4z"/>
		<path class="st1" d="M325.9,508.1c-1.9-4.4-0.4-8.5,3.8-10.3c3.7-1.6,8.3-0.1,10.1,4.3c1.9,4.4-0.1,8.4-3.9,10.1    C332.4,513.7,327.8,512.4,325.9,508.1z M337.1,507.1c-1.3-3-6-7.9-8.1-7c-1.1,0.5-1.3,1.4-0.6,3c1.5,3.5,6,7.9,8,7    C337.5,509.5,337.7,508.6,337.1,507.1z"/>
		<path class="st1" d="M351.9,487.4L351.9,487.4c0.4,0.7-0.4,1.4,0.1,2.3l5.5,10.2c0.3,0.6,0.2,1.2-0.4,1.5l-1.2,0.7    c-0.5,0.3-0.9,0.2-1.5-0.1l-10.9-4.9l3.7,6.8c0.5,0.9,1.6,0.7,1.9,1.3l0,0.1c0.1,0.2,0,0.5-0.3,0.7l-2.6,1.4    c-0.3,0.2-0.6,0.1-0.7-0.1l0-0.1c-0.3-0.6,0.3-1.3-0.2-2.2l-4.8-8.9c-0.5-0.9-1.4-0.8-1.7-1.4l0-0.1c-0.1-0.2,0-0.5,0.3-0.7    l3.2-1.7c0.5-0.3,0.9-0.2,1.5,0.1l10,4.8l-3.4-6.3c-0.5-0.9-1.5-0.7-1.8-1.3l0-0.1c-0.1-0.2,0-0.5,0.3-0.7l2.7-1.4    C351.5,487.1,351.8,487.1,351.9,487.4z"/>
		<path class="st1" d="M366.1,495.4L366.1,495.4c-0.4-0.6,0.1-1.4-0.5-2.2l-5.7-8.3c-0.6-0.9-1.5-0.6-1.9-1.2l0-0.1    c-0.2-0.2-0.1-0.5,0.2-0.7l8.2-5.7c0.4-0.3,0.7-0.2,1.1,0.1l2.1,2.1c0.3,0.3,0.2,0.7-0.1,0.9l-0.1,0.1c-1.1,0.8-3.1-1-4.4-0.1    l-1,0.7c-0.5,0.3-0.7,0.8-0.2,1.5l2.2,3.2l1.5-1c1-0.7,0.1-2.3,0.6-2.7l0.2-0.1c0.2-0.2,0.5-0.1,0.7,0.2l2.4,3.4    c0.2,0.3,0.2,0.5-0.1,0.7l-0.2,0.1c-0.5,0.4-1.6-1-2.7-0.3l-1.5,1l2,2.9c0.4,0.6,1.2,1.2,2.1,0.6l1.3-0.9c1.3-0.9,0-3.4,1.2-4.2    l0.2-0.1c0.3-0.2,0.7,0,0.8,0.3l1.3,2.7c0.2,0.5,0.2,0.8-0.2,1.1l-8.7,6C366.5,495.6,366.2,495.6,366.1,495.4z"/>
		<path class="st1" d="M390,477.1L390,477.1c0.2,0.3,0.2,0.6-0.1,0.8l-4.8,4c-0.2,0.2-0.5,0.2-0.7,0l-0.1-0.1    c-0.4-0.5,0.4-1.6-0.5-2.2L383,479l-3.9,3.2l0.4,1c0.4,1,1.6,0.4,2.1,1l0.1,0.1c0.2,0.2,0.1,0.5-0.1,0.7l-2.7,2.2    c-0.2,0.2-0.5,0.2-0.7,0L378,487c-0.4-0.5,0.1-1.1-0.3-2.4l-3.3-10.1c-0.3-0.9-1.7-0.8-2-1.2l-0.1-0.1c-0.2-0.2-0.1-0.5,0.1-0.7    l2.5-2c0.6-0.5,1.2-0.5,1.9-0.1l10.9,6C388.9,477,389.6,476.6,390,477.1z M381.4,478l-4.9-3l1.9,5.4L381.4,478z"/>
		<path class="st1" d="M402.5,465.1L402.5,465.1c0.3,0.3,0.2,0.5,0,0.8l-4.2,4.1c-0.2,0.2-0.5,0.3-0.7,0l-0.1-0.1    c-0.5-0.5,0.2-1.4-1-1.8l-3.2-1.2l-1.2,1.2l2.1,2.2c0.7,0.8,1.7,0.3,2.1,0.8l0.1,0.1c0.2,0.2,0.2,0.5-0.1,0.7l-3.8,3.7    c-0.2,0.2-0.5,0.3-0.7,0.1l-0.1-0.1c-0.5-0.5-0.1-1.3-0.8-2.1l-7-7.2c-0.7-0.8-1.6-0.4-2.1-0.8l-0.1-0.1c-0.2-0.2-0.2-0.5,0.1-0.7    l4.4-4.3c2.9-2.8,5.8-3.3,8.1-1c1,1,1.6,2.8,1,4.6l4.4,1.1C401.3,465.2,402.1,464.6,402.5,465.1z M392.1,465.8l0.3-0.3    c0.5-0.5,0.5-1.4-0.8-2.8c-1.5-1.6-3.4-1.7-4.2-1l-0.1,0.1c-0.4,0.4-0.3,1,0.2,1.5l2.2,2.3C390.7,466.5,391.4,466.5,392.1,465.8z"/>
		<path class="st1" d="M405.9,461.4L405.9,461.4c-0.6-0.5-0.2-1.4-1-2.1l-8.2-7.2l-0.4,0.5c-1,1.2,0.8,3.1,0.1,4l-0.3,0.3    c-0.3,0.3-0.6,0.3-0.9,0l-2-2.4c-0.3-0.4-0.3-0.7,0-1.1l7.4-8.4c0.3-0.4,0.6-0.4,1.1-0.1l2.6,1.7c0.3,0.2,0.4,0.6,0.1,0.9    l-0.3,0.3c-0.7,0.8-2.9-0.7-3.9,0.4l-0.4,0.5l8.2,7.2c0.8,0.7,1.7,0.2,2.2,0.6l0.1,0.1c0.2,0.2,0.2,0.5,0,0.7l-3.5,3.9    C406.3,461.6,406.1,461.6,405.9,461.4z"/>
		<path class="st1" d="M414.3,451.8L414.3,451.8c-0.6-0.4-0.3-1.3-1.2-2l-8.1-6c-0.8-0.6-1.6-0.1-2.2-0.5l-0.1,0    c-0.2-0.2-0.2-0.4,0-0.7l3.1-4.2c0.2-0.3,0.5-0.3,0.7-0.2l0.1,0.1c0.5,0.4,0.2,1.4,1.1,2l3.3,2.4l2.9-3.9l-3.3-2.4    c-0.8-0.6-1.6-0.1-2.2-0.5l-0.1-0.1c-0.2-0.2-0.2-0.4-0.1-0.7l3.1-4.2c0.2-0.3,0.5-0.3,0.7-0.2l0.1,0.1c0.5,0.4,0.2,1.4,1.1,2    l8.1,6c0.8,0.6,1.7,0,2.2,0.4l0.1,0.1c0.2,0.2,0.2,0.4,0,0.7l-3.1,4.2c-0.2,0.3-0.4,0.3-0.7,0.1l-0.1-0.1    c-0.5-0.4-0.3-1.3-1.1-1.9l-3.4-2.5l-2.9,3.9l3.3,2.5c0.8,0.6,1.7,0,2.2,0.4l0.1,0.1c0.2,0.2,0.2,0.4,0,0.7l-3.1,4.2    C414.8,451.9,414.5,451.9,414.3,451.8z"/>
		<path class="st1" d="M436,418.3L436,418.3c-0.7-0.3-0.6-1.3-1.5-1.7l-9.1-4.3c-0.9-0.4-1.6,0.2-2.2-0.1l-0.1,0    c-0.3-0.1-0.3-0.4-0.2-0.7l2.2-4.7c0.1-0.3,0.4-0.4,0.6-0.3l0.1,0c0.6,0.3,0.5,1.3,1.4,1.7l3.7,1.7l2.1-4.4l-3.7-1.8    c-1-0.4-1.6,0.2-2.2-0.1l-0.1,0c-0.3-0.1-0.3-0.4-0.2-0.7l2.2-4.7c0.1-0.3,0.4-0.4,0.6-0.3l0.1,0c0.6,0.3,0.5,1.3,1.4,1.8l9.1,4.3    c0.9,0.4,1.7-0.3,2.3,0l0.1,0c0.3,0.1,0.3,0.4,0.2,0.7l-2.2,4.7c-0.1,0.3-0.4,0.4-0.6,0.3l-0.1,0c-0.6-0.3-0.5-1.2-1.5-1.6    l-3.8-1.7l-2.1,4.4l3.8,1.8c1,0.4,1.7-0.3,2.3,0l0.1,0c0.3,0.1,0.3,0.4,0.2,0.7l-2.2,4.7C436.5,418.3,436.3,418.4,436,418.3z"/>
		<path class="st1" d="M443.9,400.9L443.9,400.9c-0.7-0.3-0.7-1.2-1.7-1.6l-9.5-3.5c-1-0.4-1.6,0.4-2.2,0.1l-0.1,0    c-0.3-0.1-0.3-0.4-0.2-0.7l3.5-9.4c0.2-0.5,0.4-0.6,0.9-0.5l2.9,0.5c0.4,0.1,0.6,0.4,0.4,0.8l0,0.1c-0.5,1.2-3.1,0.9-3.7,2.5    l-0.4,1.1c-0.2,0.5-0.1,1.1,0.7,1.4l3.7,1.3l0.6-1.7c0.4-1.2-1.3-1.9-1-2.5l0.1-0.2c0.1-0.3,0.4-0.3,0.7-0.2l3.9,1.4    c0.3,0.1,0.4,0.3,0.3,0.6l-0.1,0.2c-0.2,0.6-1.9,0.1-2.3,1.3l-0.6,1.7l3.3,1.2c0.7,0.3,1.7,0.3,2.1-0.7l0.5-1.4    c0.6-1.5-1.9-2.8-1.4-4.1l0.1-0.2c0.1-0.4,0.6-0.4,0.8-0.2l2.6,1.5c0.5,0.3,0.6,0.5,0.4,1l-3.6,9.9    C444.4,400.8,444.2,401,443.9,400.9z"/>
		<path class="st1" d="M443.7,379.7c-4.8-1.2-6.7-5.5-5.8-8.9c0.9-3.5,3.1-5.8,5.4-5.3c1.1,0.3,1.7,1.2,1.4,2.4    c-0.7,3-5,2.4-5.5,4.4c-0.3,1.2,0.8,2.2,2.6,2.7c4.1,1,8-0.1,8.6-2.6c0.1-0.3,0.1-0.5,0.1-0.6l-2.4-0.6c-1-0.3-1.6,0.8-2.3,0.6    l-0.1,0c-0.3-0.1-0.4-0.4-0.3-0.7l1.3-4.9c0.1-0.3,0.3-0.5,0.6-0.4l0.1,0c0.6,0.2,0.7,1.2,1.7,1.5l2.2,0.5c0.6,0.2,1,0.4,1.5,1.4    c0.5,1,0.9,2.8,0.4,5C452.1,378.6,447.6,380.7,443.7,379.7z"/>
		<path class="st1" d="M457.1,349.8L457.1,349.8c0.4,0.1,0.5,0.3,0.4,0.6l-0.9,5.8c-0.1,0.3-0.3,0.5-0.5,0.5l-0.1,0    c-0.7-0.1-0.7-1.2-1.9-0.9l-3.3,0.9l-0.2,1.6l3,0.5c1,0.2,1.5-0.8,2.2-0.7l0.1,0c0.3,0,0.4,0.3,0.4,0.6l-0.8,5.2    c0,0.3-0.3,0.5-0.5,0.5l-0.1,0c-0.7-0.1-0.8-1-1.9-1.2l-10-1.6c-1-0.2-1.5,0.7-2.2,0.5l-0.1,0c-0.3,0-0.4-0.3-0.4-0.6l1-6.1    c0.6-3.9,2.7-6.2,5.9-5.6c1.4,0.2,2.9,1.3,3.5,3.1l4.1-1.7C456.1,350.6,456.4,349.7,457.1,349.8z M449.1,356.6l0.1-0.4    c0.1-0.7-0.5-1.4-2.4-1.7c-2.2-0.3-3.8,0.6-4,1.6l0,0.1c-0.1,0.5,0.4,1,1,1.1l3.2,0.5C448.4,358,448.9,357.6,449.1,356.6z"/>
		<path class="st1" d="M457.3,347.4L457.3,347.4c-0.8-0.1-1-1-2.1-1l-10.1-0.8c-1-0.1-1.4,0.8-2.1,0.7l-0.1,0    c-0.3,0-0.4-0.2-0.4-0.6l0.8-10c0-0.5,0.2-0.7,0.8-0.7l2.9-0.3c0.4,0,0.6,0.2,0.6,0.7l0,0.1c-0.1,1.3-2.7,1.7-2.9,3.4l-0.1,1.2    c0,0.6,0.2,1.1,1,1.2l3.9,0.3l0.1-1.8c0.1-1.2-1.7-1.5-1.7-2.2l0-0.2c0-0.3,0.2-0.4,0.6-0.4l4.2,0.3c0.3,0,0.5,0.2,0.5,0.5l0,0.2    c-0.1,0.7-1.8,0.7-1.9,1.9l-0.1,1.8l3.5,0.3c0.8,0.1,1.7-0.2,1.8-1.3l0.1-1.5c0.1-1.6-2.6-2.2-2.5-3.6l0-0.2    c0-0.4,0.5-0.5,0.7-0.5l2.9,0.7c0.5,0.1,0.7,0.3,0.7,0.9l-0.8,10.5C457.8,347.2,457.6,347.4,457.3,347.4z"/>
		<path class="st1" d="M458.3,317.2L458.3,317.2c0.4,0,0.5,0.2,0.5,0.5l0.1,6.2c0,0.3-0.2,0.5-0.4,0.5l-0.1,0c-0.7,0-1-1.3-2.1-1    l-1,0.4l0.1,5l1,0.3c1.1,0.3,1.4-1,2-1l0.1,0c0.3,0,0.5,0.2,0.5,0.5l0.1,3.5c0,0.3-0.2,0.5-0.4,0.5l-0.1,0c-0.7,0-0.8-0.8-2.1-1.3    l-9.9-3.7c-0.9-0.3-1.7,0.8-2.2,0.9l-0.1,0c-0.3,0-0.5-0.2-0.5-0.5l0-3.2c0-0.8,0.3-1.3,1.1-1.6l11.5-4.9    C457.4,318.1,457.6,317.2,458.3,317.2z M453.6,324.6l-5.4,1.9l5.5,1.8L453.6,324.6z"/>
		<path class="st1" d="M458.2,313.5L458.2,313.5c-0.8,0.1-1.1-0.9-2.2-0.8l-10.8,0.8l0,0.6c0.1,1.5,2.8,1.6,2.9,2.7l0,0.4    c0,0.4-0.2,0.7-0.6,0.6l-3.1-0.2c-0.5,0-0.7-0.2-0.8-0.7l-0.8-11.1c0-0.5,0.1-0.7,0.7-0.8l3.1-0.6c0.4-0.1,0.7,0.1,0.7,0.6l0,0.4    c0.1,1.1-2.6,1.6-2.4,3.1l0,0.6l10.8-0.8c1-0.1,1.3-1.1,2-1.1l0.1,0c0.3,0,0.5,0.2,0.5,0.5l0.4,5.2    C458.6,313.3,458.4,313.5,458.2,313.5z"/>
		<path class="st1" d="M457.1,300.8L457.1,300.8c-0.7,0.1-1.2-0.7-2.2-0.6l-10,1.5c-1,0.2-1.2,1.1-1.9,1.2l-0.1,0    c-0.3,0-0.5-0.1-0.5-0.5l-1.5-9.9c-0.1-0.5,0.1-0.7,0.6-0.9l2.8-0.9c0.4-0.1,0.7,0.1,0.7,0.5l0,0.1c0.2,1.3-2.3,2.3-2,3.9l0.2,1.2    c0.1,0.6,0.4,1,1.3,0.9l3.9-0.6l-0.3-1.8c-0.2-1.2-2-1.1-2.1-1.7l0-0.2c0-0.3,0.1-0.5,0.5-0.5l4.1-0.6c0.3,0,0.6,0.1,0.6,0.4    l0,0.2c0.1,0.7-1.6,1-1.4,2.3l0.3,1.8l3.5-0.5c0.8-0.1,1.7-0.6,1.5-1.7l-0.2-1.5c-0.2-1.6-3-1.5-3.2-2.9l0-0.2    c-0.1-0.4,0.3-0.6,0.6-0.6l3,0c0.5,0,0.8,0.2,0.9,0.7l1.5,10.4C457.5,300.5,457.4,300.8,457.1,300.8z"/>
		<path class="st1" d="M451.6,286.6c-1,0.2-1.8-0.1-2.1-1.3c-0.5-2.4,3.5-3,2.9-5.8c-0.2-1-0.9-1.5-1.8-1.3    c-3.8,0.9,0.2,8.4-5.8,9.8c-2.8,0.6-5.2-1.3-6-4.7c-0.8-3.4,0.4-6.6,2.4-7c1-0.2,1.8,0.2,2.1,1.4c0.6,2.8-3.5,3.1-3,5.4    c0.3,1.1,1,1.4,1.9,1.2c4.5-1,0.2-8.4,6-9.8c2.8-0.6,5,1.7,5.7,4.9C454.8,283,453.6,286.1,451.6,286.6z"/>
		<path class="st1" d="M450.3,267.7L450.3,267.7c-0.7,0.2-1.3-0.6-2.3-0.3l-10.4,3.2l0.2,0.6c0.5,1.5,3.1,1,3.4,2l0.1,0.4    c0.1,0.4,0,0.7-0.5,0.8l-3.1,0.5c-0.5,0.1-0.8-0.1-0.9-0.5l-3.3-10.6c-0.2-0.5,0-0.8,0.4-1l2.8-1.3c0.4-0.2,0.7,0,0.8,0.4l0.1,0.4    c0.3,1.1-2.1,2.1-1.7,3.6l0.2,0.6l10.4-3.2c1-0.3,1-1.3,1.7-1.5l0.1,0c0.3-0.1,0.5,0.1,0.6,0.4l1.6,5    C450.6,267.4,450.5,267.6,450.3,267.7z"/>
		<path class="st1" d="M441.7,252.5c-0.9,0.4-1.8,0.2-2.3-0.9c-1-2.3,2.9-3.6,1.8-6.3c-0.4-1-1.2-1.3-2-1c-3.6,1.5,1.7,8.2-4,10.7    c-2.6,1.1-5.3-0.3-6.7-3.6c-1.4-3.2-0.8-6.5,1.1-7.3c1-0.4,1.9-0.1,2.3,1c1.1,2.6-2.9,3.7-2,5.8c0.4,1,1.3,1.2,2.1,0.9    c4.2-1.8-1.3-8.3,4.1-10.6c2.7-1.1,5.2,0.8,6.5,3.7C444.2,248.3,443.6,251.6,441.7,252.5z"/>
		<path class="st1" d="M438.4,236.6L438.4,236.6c-0.7,0.4-1.4-0.3-2.3,0.2l-8.9,4.7c-0.9,0.5-0.8,1.4-1.4,1.7l-0.1,0    c-0.2,0.1-0.5,0-0.6-0.3l-2.5-4.6c-0.2-0.3-0.1-0.6,0.1-0.7l0.1,0c0.6-0.3,1.3,0.4,2.3-0.1l3.6-1.9l-2.3-4.3l-3.6,1.9    c-0.9,0.5-0.8,1.4-1.4,1.7l-0.1,0c-0.2,0.1-0.5,0-0.6-0.2l-2.5-4.6c-0.2-0.3-0.1-0.6,0.1-0.7l0.1,0c0.6-0.3,1.3,0.4,2.3-0.1    l8.9-4.7c0.9-0.5,0.7-1.5,1.3-1.8l0.1,0c0.2-0.1,0.5,0,0.6,0.3l2.5,4.6c0.2,0.3,0.1,0.5-0.2,0.7l-0.1,0c-0.6,0.3-1.3-0.3-2.2,0.2    l-3.7,2l2.3,4.3l3.7-1.9c0.9-0.5,0.7-1.5,1.3-1.8l0.1,0c0.2-0.1,0.5,0,0.7,0.3l2.5,4.6C438.7,236.2,438.6,236.5,438.4,236.6z"/>
		<path class="st1" d="M423.5,224c-4,2.6-8.3,1.8-10.8-2c-2.2-3.3-1.5-8.1,2.4-10.7c4-2.6,8.3-1.4,10.6,2.1    C427.9,216.7,427.5,221.4,423.5,224z M420.6,213.2c-2.7,1.8-6.7,7.3-5.5,9.2c0.6,1,1.6,1,3,0.1c3.2-2.1,6.7-7.3,5.5-9.1    C422.9,212.3,422,212.3,420.6,213.2z"/>
		<path class="st1" d="M395,197.7L395,197.7c0.6-0.5,1.3,0.2,2.5-0.3l11.4-4.1c0.8-0.3,1.5-0.1,1.9,0.5c0.5,0.6,0.6,1.3,0.1,1.9    l-4,6.1l6.8-2.6c0.8-0.3,1.4-0.2,1.8,0.4c0.6,0.7,0.5,1.2,0.1,1.9l-5.8,11.2c-0.6,1.1-0.1,2-0.7,2.4l-0.1,0.1    c-0.2,0.2-0.5,0.1-0.7-0.1l-3.7-4.6c-0.2-0.2-0.2-0.5,0-0.7l0.1-0.1c0.5-0.4,1.5,0.3,2.1-0.6l4-6.7l-5.8,2.3l-0.8,1.2    c-0.6,0.8-0.1,2-0.6,2.5l-0.1,0.1c-0.2,0.2-0.5,0.1-0.7-0.1l-3.6-4.5c-0.2-0.3-0.2-0.5,0-0.7l0.1-0.1c0.5-0.4,1.5,0.5,2.2-0.5    l4.4-6l-7,2.7c-1,0.4-0.5,1.6-1,2l-0.1,0.1c-0.2,0.2-0.5,0.1-0.7-0.1l-2.2-2.8C394.7,198.1,394.7,197.8,395,197.7z"/>
		<path class="st1" d="M396.1,188.6c-3.3,3.4-7.7,3.7-11,0.5c-2.9-2.8-3.3-7.6,0-11c3.3-3.5,7.8-3.2,10.8-0.3    C398.8,180.4,399.4,185.1,396.1,188.6z M390.9,178.7c-2.2,2.3-4.9,8.7-3.3,10.2c0.8,0.8,1.8,0.6,3-0.6c2.6-2.8,4.9-8.6,3.3-10.1    C392.9,177.3,392,177.5,390.9,178.7z"/>
		<path class="st1" d="M367,172.8L367,172.8c0.5-0.6,1.4-0.2,2.1-1l7.2-9c0.4-0.6,1-0.6,1.6-0.2l1.1,0.9c0.5,0.4,0.5,0.8,0.5,1.4    l-0.3,12l4.8-6c0.7-0.8,0-1.7,0.5-2.2l0.1-0.1c0.2-0.2,0.4-0.2,0.7,0l2.3,1.9c0.3,0.2,0.3,0.5,0.1,0.7l-0.1,0.1    c-0.4,0.5-1.3,0.2-2,1l-6.3,7.9c-0.7,0.8-0.2,1.6-0.6,2.1l-0.1,0.1c-0.2,0.2-0.5,0.2-0.7,0l-2.9-2.3c-0.5-0.4-0.5-0.8-0.5-1.4    l0.5-11l-4.5,5.6c-0.7,0.8-0.1,1.7-0.5,2.2l-0.1,0.1c-0.2,0.2-0.4,0.2-0.7,0l-2.4-1.9C366.8,173.3,366.8,173,367,172.8z"/>
		<path class="st1" d="M368.7,156.6L368.7,156.6c-0.4,0.6-1.3,0.4-1.9,1.3l-5.4,8.5c-0.6,0.9,0,1.6-0.3,2.2l0,0.1    c-0.1,0.2-0.4,0.3-0.7,0.1l-8.5-5.3c-0.4-0.3-0.5-0.5-0.3-1l1.1-2.7c0.2-0.4,0.5-0.5,0.9-0.2l0.1,0.1c1.1,0.7,0.3,3.2,1.6,4.1    l1,0.6c0.5,0.3,1,0.4,1.5-0.4l2.1-3.3l-1.5-1c-1.1-0.7-2.1,0.8-2.7,0.5l-0.2-0.1c-0.2-0.1-0.3-0.4-0.1-0.7l2.2-3.5    c0.2-0.3,0.4-0.4,0.7-0.2l0.2,0.1c0.6,0.4-0.3,1.9,0.8,2.6l1.5,1l1.9-3c0.4-0.7,0.6-1.6-0.3-2.2l-1.3-0.8    c-1.4-0.9-3.1,1.3-4.3,0.5l-0.2-0.1c-0.3-0.2-0.3-0.6-0.1-0.9l2-2.3c0.3-0.4,0.6-0.5,1.1-0.2l8.9,5.6    C368.8,156.1,368.8,156.3,368.7,156.6z"/>
		<path class="st1" d="M342.5,141.6L342.5,141.6c0.2-0.3,0.4-0.4,0.7-0.2l5.5,2.9c0.3,0.1,0.4,0.4,0.3,0.6l0,0.1    c-0.3,0.6-1.7,0.2-1.8,1.3l-0.2,1l4.4,2.3l0.8-0.7c0.8-0.8-0.2-1.7,0.1-2.3l0-0.1c0.1-0.2,0.4-0.3,0.7-0.2l3.1,1.6    c0.3,0.1,0.4,0.4,0.3,0.6l0,0.1c-0.3,0.6-1.1,0.3-2.1,1.2l-8,7c-0.7,0.6-0.1,1.9-0.3,2.4l0,0.1c-0.1,0.2-0.4,0.3-0.7,0.1l-2.8-1.5    c-0.7-0.4-1-0.9-0.9-1.7l1.2-12.4C342.8,142.8,342.2,142.2,342.5,141.6z M346.7,149.3l-0.9,5.7l4.2-3.9L346.7,149.3z"/>
		<path class="st1" d="M326.6,134.9L326.6,134.9c0.1-0.3,0.4-0.4,0.7-0.3l5.4,2.3c0.3,0.1,0.4,0.4,0.3,0.6l0,0.1    c-0.3,0.6-1.4,0.4-1.3,1.7l0.1,3.4l1.5,0.6l1.2-2.8c0.4-1-0.4-1.6-0.1-2.3l0-0.1c0.1-0.3,0.4-0.3,0.7-0.2l4.8,2    c0.3,0.1,0.4,0.4,0.3,0.6l0,0.1c-0.3,0.6-1.2,0.6-1.6,1.5l-3.9,9.3c-0.4,1,0.3,1.6,0,2.2l0,0.1c-0.1,0.3-0.4,0.3-0.7,0.2l-5.7-2.4    c-3.7-1.5-5.3-4.1-4.1-7c0.6-1.3,1.9-2.5,3.8-2.7l-0.7-4.4C327.1,136,326.3,135.5,326.6,134.9z M331.3,144.2l-0.4-0.2    c-0.6-0.3-1.5,0.1-2.3,1.9c-0.8,2-0.3,3.8,0.7,4.2l0.1,0c0.5,0.2,1-0.1,1.3-0.8l1.2-3C332.5,145.2,332.2,144.6,331.3,144.2z"/>
		<path class="st1" d="M321.9,133.3L321.9,133.3c-0.2,0.7-1.2,0.7-1.6,1.7l-3.4,10.3l0.6,0.2c1.5,0.5,2.6-2,3.6-1.6l0.4,0.1    c0.4,0.1,0.6,0.5,0.4,0.8l-1.4,2.8c-0.2,0.5-0.5,0.6-1,0.4l-10.6-3.5c-0.5-0.2-0.6-0.4-0.5-0.9l0.6-3.1c0.1-0.4,0.4-0.6,0.8-0.4    l0.4,0.1c1.1,0.3,0.5,3,2,3.4l0.6,0.2l3.4-10.3c0.3-1-0.5-1.6-0.3-2.2l0-0.1c0.1-0.3,0.3-0.4,0.7-0.3l5,1.6    C321.9,132.8,322,133,321.9,133.3z"/>
		<path class="st1" d="M309.7,129.4L309.7,129.4c-0.2,0.7-1.1,0.8-1.3,1.9l-2.3,9.8c-0.2,1,0.5,1.5,0.4,2.2l0,0.1    c-0.1,0.3-0.3,0.4-0.6,0.3l-5.1-1.2c-0.3-0.1-0.5-0.3-0.4-0.6l0-0.1c0.2-0.6,1.2-0.7,1.4-1.8l0.9-4l-4.8-1.1l-1,4    c-0.2,1,0.5,1.5,0.4,2.2l0,0.1c-0.1,0.3-0.3,0.4-0.6,0.3l-5.1-1.2c-0.3-0.1-0.5-0.3-0.4-0.6l0-0.1c0.2-0.6,1.2-0.7,1.4-1.8    l2.3-9.8c0.2-1-0.6-1.6-0.5-2.2l0-0.1c0.1-0.3,0.3-0.4,0.6-0.3l5.1,1.2c0.3,0.1,0.5,0.3,0.4,0.6l0,0.1c-0.2,0.6-1.1,0.8-1.3,1.8    l-0.9,4.1l4.8,1.1l1-4c0.2-1-0.6-1.6-0.5-2.2l0-0.1c0.1-0.3,0.3-0.4,0.6-0.3l5.1,1.2C309.6,128.9,309.8,129.1,309.7,129.4z"/>
	</g>
	<g>
		
			<ellipse transform="matrix(0.7071 -0.7071 0.7071 0.7071 -155.2203 274.9725)" class="st2" cx="254.3" cy="324.9" rx="173.1" ry="173.1"/>
		<path class="st5" d="M254.3,155.7c93.4,0,169.2,75.8,169.2,169.2s-75.8,169.2-169.2,169.2c-93.4,0-169.2-75.8-169.2-169.2    S160.9,155.7,254.3,155.7 M254.3,148c-47.3,0-91.7,18.4-125.1,51.8s-51.8,77.8-51.8,125.1s18.4,91.7,51.8,125.1    s77.8,51.8,125.1,51.8c47.3,0,91.7-18.4,125.1-51.8s51.8-77.8,51.8-125.1s-18.4-91.7-51.8-125.1S301.6,148,254.3,148L254.3,148z"/>
	</g>
	<polygon class="st0" points="254.3,185.6 283.7,158.2 302,194 338.9,178.3 343.9,218.2 383.9,216.1 375,255.2 413.3,267    391.5,300.7 423.5,324.9 391.5,349.1 413.3,382.8 375,394.6 383.9,433.7 343.9,431.6 338.9,471.5 302,455.8 283.7,491.6    254.3,464.2 224.9,491.6 206.7,455.8 169.7,471.5 164.8,431.6 124.7,433.7 133.7,394.6 95.3,382.8 117.1,349.1 85.1,324.9    117.1,300.7 95.3,267 133.7,255.2 124.7,216.1 164.8,218.2 169.7,178.3 206.7,194 224.9,158.2  "/>
	<polygon class="st1" points="254.3,199.5 280.8,174.9 297.2,207.1 330.4,193 334.9,228.9 371,227 362.9,262.2 397.4,272.8    377.8,303.1 406.6,324.9 377.8,346.7 397.4,377 362.9,387.6 371,422.8 334.9,420.9 330.4,456.8 297.2,442.7 280.8,474.9    254.3,450.3 227.9,474.9 211.4,442.7 178.2,456.8 173.7,420.9 137.7,422.8 145.7,387.6 111.2,377 130.9,346.7 102,324.9    130.9,303.1 111.2,272.8 145.7,262.2 137.7,227 173.7,228.9 178.2,193 211.4,207.1 227.9,174.9  "/>
	<g>
		<g>
			<g>
				<path class="st2" d="M456.5,315.6c0,0,44.2,28.9,39.4,76.4c-2,19.9-7.1,26-32.2,31.2c-41.4,8.7-64.6-3.9-108.5-21.3l29.1-50.9      c0,0,8.9-5.2,25.9,7.8L456.5,315.6z"/>
			</g>
			<path class="st5" d="M416.3,369.7c0,0-0.1-0.1-0.1-0.1L416.3,369.7c0,0,0,0,0,0.1c0.1,0.1,0.1,0.3,0.2,0.5c0.2,0.3,0.3,0.7,0.5,1     c0.4,0.7,0.9,1.4,1.5,2.1c0.6,0.7,1.2,1.4,1.8,2c0.6,0.7,1.4,1.3,2.1,1.9c2.9,2.5,6.2,4.7,9.7,6.6c1.8,1,3.5,1.9,5.4,2.8     c1.8,0.8,3.7,1.7,5.6,2.5c1.9,0.7,3.8,1.5,5.7,2.2l5.8,2l-6-1.1c-2-0.4-4-0.9-6-1.3c-2-0.5-4-1.1-6-1.6c-2-0.6-4-1.2-5.9-2     c-3.9-1.4-7.8-3.2-11.5-5.4c-0.9-0.6-1.9-1.1-2.7-1.8c-0.9-0.6-1.8-1.4-2.6-2.1c-0.9-0.8-1.7-1.6-2.5-2.5c-0.4-0.4-0.8-1-1.2-1.5     c-0.2-0.3-0.4-0.6-0.5-0.9c-0.1-0.1-0.2-0.3-0.3-0.5l-0.1-0.3c0-0.1-0.1-0.3-0.2-0.5L416.3,369.7z"/>
		</g>
		<g>
			<g>
				<path class="st2" d="M52.1,315.6c0,0-44.2,28.9-39.4,76.4c2,19.9,7.1,26,32.2,31.2c41.4,8.7,64.6-3.9,108.5-21.3L124.3,351      c0,0-8.9-5.2-25.9,7.8L52.1,315.6z"/>
			</g>
			<path class="st1" d="M424.1,376.5c3.8,3.1,11.6,8.1,26.4,14.1c0,0-15.8-9.4-24.4-16.3c0,0,0,0-0.1-0.1     C424.4,373,422.6,375.3,424.1,376.5z"/>
			<path class="st1" d="M83.3,376.5c-3.8,3.1-11.6,8.1-26.4,14.1c0,0,15.8-9.4,24.4-16.3c0,0,0,0,0.1-0.1     C83,373,84.8,375.3,83.3,376.5z"/>
		</g>
	</g>
	<circle class="st1" cx="254.3" cy="324.9" r="135.5"/>
	<path class="st1" d="M254.3,431.2c5.5,0,14.6-1.5,22.2-3c0.8-0.2,1.7-0.3,2.7-0.6c18.1-4.3,34.4-13.7,46.9-26.8l11.3-11.9   c12.3-13,22.2-27.9,29.1-44c5.3-12.3,10-23.5,10-23.5V212.7H132v108.7c0,0,4.7,11.2,10,23.5c6.9,16.2,16.8,31.1,29.1,44l11.3,11.9   c12.5,13.1,28.8,22.6,46.9,26.8c1,0.2,1.9,0.4,2.7,0.6C239.7,429.7,248.8,431.2,254.3,431.2z"/>
	<path class="st5" d="M254.3,464.2c-76.8,0-139.3-62.5-139.3-139.3s62.5-139.3,139.3-139.3S393.6,248,393.6,324.9S331.1,464.2,254.3,464.2z    M254.3,193.2c-72.6,0-131.6,59-131.6,131.6s59,131.6,131.6,131.6s131.6-59,131.6-131.6S326.9,193.2,254.3,193.2z"/>
	<g>
		<path class="st0" d="M233,435.5c-4.2-0.8-8.2,1.9-9,6.1c-0.8,4.2,1.9,8.2,6.1,9c0.4,0.1,0.7,0.1,1.1,0.1c3.8,0.2,7.2-2.4,7.9-6.2    C239.9,440.3,237.2,436.3,233,435.5z"/>
		<path class="st0" d="M275.6,435.5c-4.2,0.8-6.9,4.8-6.1,9c0.7,3.6,3.7,6.1,7.2,6.2c0.6,0,1.2,0,1.8-0.1c4.2-0.8,6.9-4.8,6.1-9    C283.9,437.4,279.8,434.7,275.6,435.5z"/>
		<path class="st0" d="M254.3,437.5c-4.3,0-7.7,3.4-7.7,7.7c0,4.1,3.2,7.5,7.3,7.7c0.1,0,0.2,0,0.4,0c0,0,0,0,0,0    c4.3,0,7.7-3.4,7.7-7.7C262,441,258.6,437.5,254.3,437.5z"/>
		<path class="st0" d="M193.4,419.7L193.4,419.7c-3.6-2.3-8.3-1.3-10.6,2.3c-2.3,3.6-1.3,8.3,2.3,10.6c1.2,0.8,2.5,1.2,3.8,1.2    c2.7,0.1,5.3-1.1,6.9-3.5C198,426.7,197,422,193.4,419.7z"/>
		<path class="st0" d="M212.4,429.5c-3.9-1.6-8.4,0.3-10,4.3c-1.6,3.9,0.3,8.4,4.3,10c0.8,0.3,1.7,0.5,2.5,0.5    c3.2,0.2,6.3-1.7,7.5-4.8C218.3,435.6,216.4,431.1,212.4,429.5z"/>
		<path class="st0" d="M176.6,406.4c-3.1-2.9-8-2.8-10.9,0.3c-2.9,3.1-2.8,8,0.3,10.9c0,0,0,0,0,0c1.4,1.3,3.2,2,4.9,2.1    c2.2,0.1,4.3-0.7,5.9-2.4C179.8,414.2,179.7,409.4,176.6,406.4L176.6,406.4z"/>
		<path class="st0" d="M144.8,351.5c-0.5-2.2-2-4-3.9-5h-7.1c-3.1,1.6-4.8,5.1-3.9,8.6c0.8,3.4,3.8,5.7,7.1,5.9c0.7,0,1.5,0,2.2-0.2    C143.3,359.8,145.8,355.6,144.8,351.5z"/>
		<path class="st0" d="M162.5,390.2c-2.5-3.5-7.3-4.3-10.7-1.8c-3.5,2.5-4.3,7.3-1.8,10.7c1.4,2,3.6,3.1,5.9,3.2    c1.7,0.1,3.4-0.4,4.8-1.4C164.2,398.5,165,393.7,162.5,390.2z"/>
		<path class="st0" d="M151.8,371.7L151.8,371.7c-1.8-3.9-6.3-5.6-10.2-3.8c-3.9,1.8-5.6,6.3-3.8,10.2c1.2,2.7,3.9,4.4,6.6,4.5    c1.2,0.1,2.4-0.2,3.6-0.7C151.9,380.1,153.6,375.6,151.8,371.7z"/>
		<path class="st0" d="M356.8,388.4c-3.5-2.5-8.3-1.7-10.7,1.8h0c-2.5,3.5-1.7,8.3,1.8,10.7c1.2,0.9,2.7,1.4,4.1,1.4    c2.5,0.1,5.1-1,6.6-3.2C361.1,395.7,360.3,390.9,356.8,388.4z"/>
		<path class="st0" d="M332.1,406.4L332.1,406.4c-3.1,2.9-3.2,7.8-0.3,10.9c1.4,1.5,3.3,2.3,5.2,2.4c2,0.1,4.1-0.6,5.7-2.1    c0,0,0,0,0,0c3.1-2.9,3.2-7.8,0.3-10.9C340,403.6,335.1,403.5,332.1,406.4z"/>
		<path class="st0" d="M367,367.9c-3.9-1.8-8.4-0.1-10.2,3.8c-1.8,3.9-0.1,8.4,3.8,10.2c0.9,0.4,1.9,0.6,2.8,0.7    c3.1,0.1,6-1.5,7.4-4.5C372.6,374.2,370.9,369.7,367,367.9z"/>
		<path class="st0" d="M374.9,346.5h-7.1c-1.9,1-3.4,2.8-3.9,5c-1,4.1,1.5,8.3,5.7,9.3c0.5,0.1,1,0.2,1.4,0.2c3.6,0.2,7-2.2,7.8-5.9    C379.6,351.6,377.9,348.1,374.9,346.5z"/>
		<path class="st0" d="M296.2,429.5c-3.9,1.6-5.9,6.1-4.3,10c1.2,2.9,3.9,4.7,6.8,4.8c1.1,0.1,2.2-0.1,3.2-0.5    c3.9-1.6,5.9-6.1,4.3-10C304.6,429.8,300.1,427.9,296.2,429.5z"/>
		<path class="st0" d="M315.2,419.7c-3.6,2.3-4.6,7.1-2.3,10.6c1.4,2.2,3.7,3.4,6.1,3.5c1.5,0.1,3.1-0.3,4.5-1.2c0,0,0,0,0,0    c3.6-2.3,4.6-7.1,2.3-10.6C323.6,418.4,318.8,417.4,315.2,419.7z"/>
	</g>
	<path class="st5" d="M146.3,244.1h4.2c29.1-18.6,66-29.7,106.1-29.7s77,11.1,106.1,29.7h3.6c57.8-21.7,54.6-58.4,48.8-72.3   c-5.7-13.8-20.1-26.8-56.4-14.3c-63.5,21.8-104.8,20-104.8,20s-41.3,1.8-104.8-20c-36.2-12.4-50.5,0.6-56.4,14.3   C82.5,195.8,111.1,224,146.3,244.1z"/>
	<path class="st5" d="M459.6,313.1c-0.7-3.5-2.2-7.4-5.3-10.6c-2.8-2.9-6.5-4.6-10.9-5.1c-5.2-16.9-16.9-24.5-20.8-26.6   c-20.1-36.2-44.1-49.5-55.2-53.9c-10.1-11.6-21.3-21.1-29.1-22.7c-10.7-2.2-19.9-0.6-27.3,4.8c-6.2,4.5-10.1,10.8-12.5,16.5   c-3.5,1.6-6.6,3.5-9.2,5.8c-7.2,6.5-10.1,15.7-8.7,27.2c-6.8,9.3-10.9,20.7-10.9,33.1c0,15,6,28.7,15.7,38.7   c-7.5,6.9-8,15.7-4.6,22.1c3.5,6.7,10.8,11.5,18.9,12.3c7.6,0.8,14.9-1.3,21.2-3.4c1.3-0.4,2.6-0.9,4-1.4c2.5-0.9,5-1.8,7.4-2.5   c0.1,1.7,0.1,3.3-0.1,5.1c-0.2,1.9-0.4,3.8-0.7,5.7c-0.3,1.9-0.8,3.8-1.3,5.7c1.4-1.4,2.7-2.9,3.9-4.5c1.3-1.6,2.4-3.2,3.6-5   c0.1-0.2,0.2-0.4,0.4-0.6c-0.1,0.4-0.2,0.9-0.3,1.3c-1.3,5-3.1,9.9-5.1,14.8c3-3.1,5.8-6.4,8.5-9.9c-0.2,0.5-0.5,0.9-0.7,1.4   c-3.9,7.7-8.6,15-14.2,21.7c5.8-4.5,11.2-9.6,16.2-15.2c-0.6,0.9-1.3,1.8-1.9,2.7c-3.4,4.6-6.9,9.1-10.7,13.3   c-3.8,4.3-7.8,8.3-12.1,12.2c4.9-3.1,9.6-6.4,14.1-10.1c4.5-3.6,8.9-7.5,13.1-11.6c0.3-0.3,0.6-0.6,0.9-0.9   c-52.7,74.6-132.5,67.6-181.5,1.6c4,3.8,8,7.5,12.3,10.9c4.5,3.6,9.2,7,14.1,10.1c-4.3-3.8-8.3-7.9-12.1-12.2   c-3.8-4.2-7.3-8.7-10.7-13.3c-0.6-0.9-1.3-1.8-1.9-2.7c5,5.6,10.4,10.7,16.2,15.2c-5.6-6.7-10.3-14.1-14.2-21.7   c-0.2-0.5-0.5-0.9-0.7-1.4c2.7,3.5,5.6,6.8,8.5,9.9c-2-4.9-3.8-9.9-5.1-14.8c-0.1-0.4-0.2-0.9-0.3-1.3c0.1,0.2,0.2,0.4,0.4,0.6   c1.1,1.7,2.3,3.4,3.6,5c1.2,1.6,2.6,3.1,3.9,4.5c-0.5-1.9-1-3.8-1.3-5.7c-0.4-1.9-0.6-3.8-0.7-5.7c-0.1-1.7-0.1-3.4-0.1-5.1   c2.5,0.7,5,1.6,7.6,2.5c1.3,0.5,2.6,0.9,4,1.4c6.2,2.1,13.6,4.1,21.2,3.4c8.2-0.9,15.4-5.6,18.9-12.3c3.3-6.3,2.9-15.2-4.6-22.1   c9.7-10,15.7-23.7,15.7-38.7c0-12.4-4.1-23.8-10.9-33.1c1.4-11.5-1.5-20.7-8.7-27.2c-2.5-2.2-5.4-4.1-8.8-5.6   c-2.4-5.7-6.3-12.1-12.5-16.6c-7.4-5.4-16.6-7-27.3-4.8c-7.8,1.6-18.9,11-28.9,22.5c-10.9,4.3-35.3,17.4-55.6,54.1   c-3.9,2.1-15.5,9.7-20.8,26.6c-4.4,0.5-8.1,2.2-10.9,5.1c-3.1,3.2-4.6,7.1-5.3,10.6c-7.2,5.1-44.6,33.7-40,79.2   c2.2,22.3,9.2,29.1,35.2,34.6c9.5,2,18.1,2.9,26.2,2.9c24.1,0,43.9-8,70.3-18.7c2-0.8,4-1.6,6-2.4l-5.3-6.1c-1.2,0.5-2.4,1-3.5,1.4   c-35.2,14.2-56.5,22.8-92.1,15.4c-23.8-5-27.4-10.1-29.2-27.8c-3.4-34.3,20.5-58.8,31.9-68.3c1.7,24.7,19.2,45.5,41.5,50.4   c-0.5,0.6-1,1.1-1.6,1.7c-0.6,0.7-1.4,1.3-2.1,1.9c-2.9,2.5-6.2,4.7-9.7,6.6c-1.8,1-3.5,1.9-5.4,2.8c-1.8,0.8-3.7,1.7-5.6,2.5   c-1.9,0.7-3.8,1.5-5.7,2.2l-5.8,2l6-1.1c2-0.4,4-0.9,6-1.3c2-0.5,4-1.1,6-1.6c2-0.6,4-1.2,5.9-2c3.9-1.4,7.8-3.2,11.5-5.4   c0.9-0.6,1.9-1.1,2.7-1.8c0.9-0.6,1.8-1.4,2.6-2.1c0.9-0.8,1.7-1.6,2.5-2.5c0.2-0.2,0.4-0.5,0.6-0.7c0.1,0,0.2,0,0.3,0   c15,0,19.5-8.9,20.8-14.3c0.2-0.9,0.4-1.8,0.5-2.8c7.6-1,14.6-3.7,21.3-6.3c20.8,43.2,63.9,84.2,113.5,83.6   c49.5,0.6,92.6-40.3,113.4-83.4c6.6,2.5,13.4,5.1,20.8,6.1c0.1,1,0.3,1.9,0.5,2.8c1.3,5.3,5.8,14.3,20.8,14.3c0.1,0,0.2,0,0.3,0   c0.2,0.3,0.4,0.5,0.6,0.7c0.8,1,1.6,1.8,2.5,2.5c0.9,0.8,1.7,1.5,2.6,2.1c0.9,0.7,1.8,1.3,2.7,1.8c3.7,2.3,7.6,4,11.5,5.4   c2,0.7,3.9,1.3,5.9,2c2,0.5,4,1.1,6,1.6c2,0.4,4,0.9,6,1.3l6,1.1l-5.8-2c-1.9-0.7-3.8-1.5-5.7-2.2c-1.9-0.7-3.7-1.6-5.6-2.5   c-1.8-0.9-3.6-1.8-5.4-2.8c-3.5-1.9-6.8-4.1-9.7-6.6c-0.7-0.6-1.4-1.2-2.1-1.9c-0.6-0.5-1.1-1.1-1.6-1.7   c22.2-4.9,39.7-25.8,41.5-50.4c11.4,9.6,35.3,34,31.9,68.3c-1.8,17.7-5.4,22.9-29.2,27.8c-35.6,7.5-56.8-1.1-92.1-15.4   c-1.2-0.5-2.4-1-3.5-1.4l-5.3,6.1c2,0.8,4,1.6,6,2.4c26.4,10.7,46.2,18.7,70.3,18.7c8.1,0,16.7-0.9,26.2-2.9   c26.1-5.5,33-12.3,35.2-34.6C504.2,346.8,466.8,318.2,459.6,313.1z M223.2,281.5c0,22.1-18,40.1-40.1,40.1   c-22.1,0-40.1-18-40.1-40.1c0-22.1,18-40.1,40.1-40.1C205.2,241.4,223.2,259.4,223.2,281.5z M172.1,201.7   c8.5-1.7,15.6-0.6,21.2,3.5c2.7,2,4.9,4.4,6.6,7.1c-4.7-1-9.9-1.6-15.7-1.7c-8.8-0.2-18.9,0.7-28.6,2.5   C161.9,207,167.9,202.6,172.1,201.7z M99.5,359.3c-1.3-0.3-2.5-0.8-3.8-1.2c-1.3-0.5-2.5-1-3.8-1.5c-1.2-0.6-2.5-1.2-3.7-1.8   l-3.7-2l3.1,2.8c1.1,0.9,2.2,1.7,3.3,2.6c1.1,0.8,2.3,1.6,3.5,2.4c0.5,0.3,0.9,0.6,1.4,0.9c-1.1-0.4-2.1-0.8-3.1-1.3   c-3.1-1.3-6-3.1-8.9-5l-4.2-3.1l-4-3.3l3.3,4l3.6,3.8c2.5,2.4,5.2,4.8,8.2,6.9c0.4,0.3,0.7,0.5,1.1,0.7c-2.7-1.2-5.4-2.7-8-4.4   c-2.9-1.9-5.6-4.3-8.3-6.7c-1.3-1.2-2.5-2.5-3.8-3.8l-3.6-4.1L71,350c1,1.5,2,3,3.1,4.5c2,2.5,4,5.1,6.3,7.4   c-13.8-7.7-23.6-23.3-24.3-40.9c0.5,2.2,1.2,4.3,1.9,6.3c0.4,1.2,0.9,2.3,1.3,3.4l1.5,3.3l-0.6-3.6c-0.1-1.2-0.3-2.4-0.4-3.6   c-0.2-2.4-0.3-4.7-0.1-7.1c0.1-2.3,0.4-4.5,0.8-6.7c0.1,0.5,0.1,1,0.2,1.4c0.2,1.6,0.5,3.1,0.9,4.6c0.3-1.5,0.6-3,0.9-4.5   c0-0.2,0.1-0.3,0.1-0.5c0,0.4,0,0.7,0,1.1c0,0.1,0,0.1,0,0.2c0.5,8.5,6.2,23.8,23.9,27.4c2.1,5.1,5.9,10.2,13,13   c-1.1-0.3-2.2-0.6-3.3-0.9c-1-0.3-2.1-0.7-3.1-1.1l-3.1-1.4l2.6,2.2c0.9,0.7,1.8,1.4,2.8,2c1.4,0.9,2.8,1.8,4.2,2.5   C99.6,359.3,99.5,359.3,99.5,359.3z M159.1,338.1l-0.3,0.1c-7.1,1-13.7,3.5-20.2,6c-7.5,2.9-14.5,5.6-22.2,6.1l-0.3,0   c-5,0.4-9.1,0-12.5-1.2c0.3,0,0.5,0,0.8,0c1,0.1,2.1,0,3.1-0.1c1-0.1,2-0.2,3-0.3c-1-0.2-2-0.4-2.9-0.6c-1-0.3-1.9-0.5-2.8-0.9   c-0.6-0.2-1.1-0.4-1.7-0.7c1,0,1.9-0.1,2.9-0.3c1-0.1,2-0.4,3-0.5c1-0.2,2-0.5,2.9-0.8c-1-0.1-2-0.1-3-0.2c-1-0.1-2-0.2-2.9-0.4   c-0.4-0.1-0.8-0.2-1.1-0.2c1.5-0.3,3-0.8,4.5-1.2c1-0.4,2.1-0.8,3.1-1.1l3-1.3l-3.2,0.4c-1.1,0.1-2.1,0.1-3.2,0.2   c-0.2,0-0.5,0-0.7,0c3.5-1.1,6.8-2.6,9.9-4.5c3.6-2.2,6.8-4.9,9.4-8c2.7-3.1,4.8-6.6,6.4-10.2c-2.2,3.3-4.8,6.4-7.7,8.9   c-3,2.5-6.3,4.5-9.8,5.9c-7,2.9-14.6,3.5-22,2.9c0,0-0.1,0-0.1,0c-21.5-0.4-23.5-19.2-23.6-20.9c0-18.7,8.3-29,14.2-34.1   c0,1,0.1,1.9,0.2,2.9c0.2,1.9,0.4,3.7,0.8,5.6c0.4,1.8,0.9,3.6,1.5,5.3c0-1.8,0.1-3.6,0.4-5.4c0.2-1.8,0.6-3.5,1.1-5.2   c0.5-1.7,1-3.3,1.7-4.9c0.3-0.8,0.7-1.6,1-2.3c0.2-0.3,0.3-0.7,0.5-1c0.2-0.2,0.3-0.4,0.4-0.6c24.8-45.5,56.5-53.1,56.9-53.2   c32.6-7.9,56.2-3.4,65,4.6c3.8,3.4,5.9,7.8,6.4,13.3c-9.9-8.9-23-14.4-37.3-14.4c-16.1,0-30.6,6.9-40.7,17.8   c-0.4,0.2-0.8,0.4-1.2,0.5c-0.9,0.4-1.8,0.8-2.6,1.3c-1.7,0.9-3.3,1.9-4.9,3c-1.5,1.1-3,2.3-4.4,3.5c-1.4,1.2-2.6,2.6-3.8,4   c1.6-0.9,3.2-1.7,4.9-2.4c1.6-0.7,3.3-1.2,5-1.7c0.3-0.1,0.5-0.1,0.8-0.2c-5.5,8.6-8.6,18.8-8.6,29.7c0,30.7,25,55.7,55.7,55.7   c12.6,0,24.2-4.2,33.5-11.3c-0.8,1-1.7,2.1-2.7,3c-1.1,1-2.2,2-3.4,2.9c-1.2,0.9-2.5,1.8-3.9,2.6c1.6-0.2,3.1-0.5,4.7-0.8   c1.6-0.4,3.1-0.8,4.7-1.4c0.7-0.3,1.4-0.6,2.1-0.9c-1.1,0.9-2.3,1.7-3.6,2.4c-1.7,1-3.4,1.9-5.3,2.7c-0.9,0.4-1.9,0.7-2.8,1.1   c-1,0.3-1.9,0.6-2.9,0.9c1,0,2,0,3.1,0c1-0.1,2.1,0,3.1-0.2c2.1-0.2,4.2-0.5,6.2-0.9c1.3-0.3,2.6-0.7,3.9-1.1c0,0,0,0,0,0   c-1.4,0.9-2.9,1.7-4.5,2.3c-1.6,0.7-3.2,1.2-4.9,1.6c-1.7,0.4-3.5,0.7-5.3,0.9c1.7,0.5,3.5,0.9,5.4,1.1c1.8,0.2,3.7,0.3,5.6,0.2   c0.5,0,1.1-0.1,1.6-0.1c-0.2,0.1-0.3,0.2-0.5,0.2c-1.2,0.6-2.5,1-3.9,1.2c-1.4,0.3-2.9,0.4-4.4,0.4c-0.7,0-1.5-0.1-2.3-0.1   l-2.3-0.3l2,1.2c0.7,0.3,1.4,0.7,2.1,1c0.5,0.2,1,0.4,1.5,0.6c-0.7,0.2-1.5,0.3-2.2,0.4c-6.1,0.6-12.5-1.2-17.9-3   c-1.3-0.4-2.6-0.9-3.9-1.3c-5.1-1.8-10.3-3.6-15.9-4.5C166.4,337.6,162.7,337.7,159.1,338.1C159.1,338.1,159.1,338.1,159.1,338.1z    M315.6,205.2c5.6-4,12.8-5.2,21.2-3.5c4.1,0.8,10.2,5.3,16.6,11.5c-9.8-1.8-20.1-2.8-28.9-2.6c-5.7,0.1-10.8,0.7-15.4,1.6   C310.8,209.6,312.9,207.2,315.6,205.2z M285.4,281.5c0-22.1,18-40.1,40.1-40.1c22.1,0,40.1,18,40.1,40.1c0,22.1-18,40.1-40.1,40.1   C303.4,321.6,285.4,303.6,285.4,281.5z M401.4,349.2c1,0,2,0.1,3.1,0.1c0.2,0,0.5,0,0.8,0c-3.4,1.2-7.5,1.6-12.5,1.2l-0.3,0   c-7.7-0.5-14.8-3.3-22.2-6.1c-6.6-2.5-13.3-5.1-20.4-6.1l-0.2-0.1c0,0,0,0,0,0c-3.6-0.5-7.3-0.5-11.1,0.1   c-5.6,0.8-10.8,2.7-15.9,4.5c-1.3,0.5-2.6,0.9-3.9,1.3c-5.4,1.8-11.8,3.6-17.9,3c-0.8-0.1-1.5-0.2-2.2-0.4c0.5-0.2,1-0.4,1.5-0.6   c0.7-0.3,1.4-0.7,2.1-1l2-1.2l-2.3,0.3c-0.8,0-1.5,0.1-2.3,0.1c-1.5,0-3-0.1-4.4-0.4c-1.4-0.3-2.7-0.7-3.9-1.2   c-0.2-0.1-0.3-0.2-0.5-0.2c0.5,0,1.1,0.1,1.6,0.1c1.9,0.1,3.8,0,5.6-0.2c1.8-0.2,3.6-0.6,5.4-1.1c-1.8-0.2-3.6-0.4-5.3-0.9   c-1.7-0.4-3.3-1-4.9-1.6c-1.6-0.6-3.1-1.4-4.5-2.3c0,0,0,0,0,0c1.3,0.4,2.6,0.8,3.9,1.1c2.1,0.4,4.2,0.8,6.2,0.9   c1,0.1,2.1,0.1,3.1,0.2c1,0,2.1,0,3.1,0c-1-0.3-2-0.6-2.9-0.9c-0.9-0.4-1.9-0.7-2.8-1.1c-1.9-0.8-3.6-1.7-5.3-2.7   c-1.2-0.8-2.4-1.6-3.6-2.4c0.7,0.3,1.4,0.6,2.1,0.9c1.6,0.6,3.1,1.1,4.7,1.4c1.6,0.4,3.1,0.6,4.7,0.8c-1.4-0.8-2.7-1.7-3.9-2.6   c-1.2-0.9-2.4-1.9-3.4-2.9c-1-1-1.9-2-2.7-3c9.3,7.1,20.9,11.3,33.5,11.3c30.7,0,55.7-25,55.7-55.7c0-10.9-3.2-21.1-8.6-29.7   c0.3,0.1,0.5,0.1,0.8,0.2c1.7,0.4,3.4,1,5,1.7c1.7,0.6,3.3,1.5,4.9,2.4c-1.2-1.4-2.4-2.7-3.8-4c-1.4-1.3-2.8-2.4-4.4-3.5   c-1.5-1.1-3.2-2.1-4.9-3c-0.8-0.5-1.7-0.9-2.6-1.3c-0.4-0.2-0.8-0.4-1.2-0.5c-10.2-10.9-24.7-17.8-40.7-17.8   c-14.3,0-27.4,5.5-37.3,14.4c0.5-5.5,2.6-9.9,6.4-13.3c8.8-8,32.4-12.5,65-4.6c0.4,0.1,32.1,7.7,56.9,53.2c0.1,0.2,0.3,0.4,0.4,0.6   c0.2,0.3,0.4,0.7,0.5,1c0.4,0.8,0.7,1.5,1,2.3c0.7,1.6,1.2,3.2,1.7,4.9c0.5,1.7,0.9,3.4,1.1,5.2c0.3,1.8,0.4,3.6,0.4,5.4   c0.6-1.7,1.1-3.5,1.5-5.3c0.4-1.8,0.7-3.7,0.8-5.6c0.1-0.9,0.1-1.9,0.2-2.9c5.9,5,14.1,15.4,14.2,34.1c-0.1,1.6-2.1,20.5-23.6,20.9   c0,0-0.1,0-0.1,0c-7.4,0.6-15.1,0-22-2.9c-3.5-1.4-6.8-3.4-9.8-5.9c-3-2.5-5.6-5.5-7.7-8.9c1.6,3.6,3.7,7.1,6.4,10.2   c2.6,3.1,5.8,5.8,9.4,8c3.1,1.9,6.4,3.4,9.9,4.5c-0.2,0-0.5,0-0.7,0c-1.1,0-2.1-0.1-3.2-0.2l-3.2-0.4l3,1.3c1,0.4,2,0.8,3.1,1.1   c1.5,0.5,2.9,0.9,4.5,1.2c-0.4,0.1-0.8,0.2-1.1,0.2c-1,0.2-1.9,0.3-2.9,0.4c-1,0.1-2,0.1-3,0.2c1,0.3,1.9,0.5,2.9,0.8   c1,0.2,2,0.4,3,0.5c0.9,0.1,1.9,0.2,2.9,0.3c-0.6,0.2-1.1,0.5-1.7,0.7c-0.9,0.4-1.9,0.6-2.8,0.9c-1,0.2-1.9,0.4-2.9,0.6   C399.3,348.9,400.3,349.1,401.4,349.2z M428.2,361.9c2.3-2.3,4.3-4.8,6.3-7.4c1.1-1.5,2.1-3,3.1-4.5l2.8-4.7l-3.6,4.1   c-1.3,1.3-2.5,2.6-3.8,3.8c-2.7,2.4-5.3,4.7-8.3,6.7c-2.6,1.7-5.2,3.2-8,4.4c0.4-0.2,0.7-0.5,1.1-0.7c3-2,5.6-4.4,8.2-6.9l3.6-3.8   l3.3-4l-4,3.3l-4.2,3.1c-2.9,1.9-5.8,3.7-8.9,5c-1,0.5-2.1,0.9-3.1,1.3c0.5-0.3,0.9-0.6,1.4-0.9c1.2-0.8,2.3-1.6,3.5-2.4   c1.1-0.9,2.2-1.7,3.3-2.6l3.1-2.8l-3.7,2c-1.2,0.6-2.5,1.2-3.7,1.8c-1.3,0.5-2.5,1-3.8,1.5c-1.3,0.4-2.5,0.9-3.8,1.2   c-0.1,0-0.2,0-0.3,0.1c1.5-0.8,2.9-1.6,4.2-2.5c0.9-0.6,1.9-1.4,2.8-2l2.6-2.2l-3.1,1.4c-1.1,0.4-2.1,0.8-3.1,1.1   c-1.1,0.3-2.2,0.6-3.3,0.9c7.1-2.8,11-7.9,13-13c17.7-3.6,23.5-18.9,23.9-27.4c0-0.1,0-0.1,0-0.2c0-0.4,0-0.7,0-1.1   c0,0.2,0.1,0.3,0.1,0.5c0.3,1.5,0.6,3,0.9,4.5c0.3-1.5,0.6-3,0.9-4.6c0.1-0.5,0.1-1,0.2-1.4c0.5,2.2,0.7,4.4,0.8,6.7   c0.1,2.3,0,4.7-0.1,7.1c-0.1,1.2-0.3,2.4-0.4,3.6l-0.6,3.6l1.5-3.3c0.4-1.1,0.9-2.3,1.3-3.4c0.7-2.1,1.4-4.1,1.9-6.3   C451.8,338.6,442,354.2,428.2,361.9z"/>
	<g>
		<g>
			<path class="st1" d="M440.6,301.1l-0.1,0c-5.2-20.5-20.6-27.4-20.6-27.4c-20-36.8-44.4-49.6-54.5-53.5     c-9.9-11.4-20.7-20.8-27.7-22.2c-22.1-4.5-31.9,9.7-36,20.4c-11.6,4.6-19.2,13.7-17,30.1l74.1,52.1l-67.4,20     c-8.9,5.8-10,14.1-7,19.9c3,5.8,9.3,9.6,15.9,10.3s13.3-1,19.6-3.2c6.3-2.1,12.5-4.7,19.1-5.6c18.9-2.8,34.2,10.9,53.2,12.2     c0.1,0,0.2,0,0.3,0c0.1,9.7,5,16.9,18.1,16.7c26-1.2,45.5-25,45.8-51C456.5,315.2,455.4,301.1,440.6,301.1z"/>
		</g>
		<g>
			<path class="st1" d="M217.4,320.6l-67.4-20l74.1-52.1c2.2-16.3-5.2-25.4-16.6-30c-4.1-10.8-13.9-25.1-36.1-20.6     c-7,1.4-17.8,10.8-27.6,22.1c-9.9,3.8-34.6,16.4-54.9,53.7c0,0-15.4,6.9-20.6,27.4l-0.1,0c-14.8,0-15.9,14.1-15.8,18.8     c0.3,26,19.8,49.8,45.8,51c13.1,0.2,18.1-7,18.1-16.7c0.1,0,0.2,0,0.3,0c19-1.3,34.4-15,53.2-12.2c6.6,1,12.8,3.5,19.1,5.6     c6.3,2.1,12.9,3.9,19.6,3.2c6.6-0.7,12.9-4.5,15.9-10.3C227.4,334.7,226.2,326.4,217.4,320.6z"/>
		</g>
	</g>
	<g>
		<g>
			
				<ellipse transform="matrix(0.7071 -0.7071 0.7071 0.7071 -145.9616 211.8358)" class="st2" cx="182.7" cy="282.1" rx="42" ry="42"/>
			<path class="st4" d="M150.7,313.9c-17.9-17.9-17.9-46.9,0-64.8c17.9-17.9,46.9-17.9,64.8,0s17.9,46.9,0,64.8     C197.7,331.8,168.6,331.8,150.7,313.9z M211.5,253.2c-15.6-15.6-40.2-16.5-54.8-1.9s-11.8,37.3,3.8,52.9     c15.6,15.6,38.3,18.4,52.9,3.8S227.1,268.8,211.5,253.2z"/>
		</g>
		<g>
			
				<ellipse transform="matrix(0.7071 -0.7071 0.7071 0.7071 -104.2651 312.5002)" class="st2" cx="325.1" cy="282.1" rx="42" ry="42"/>
			<path class="st4" d="M293.1,313.9c-17.9-17.9-17.9-46.9,0-64.8c17.9-17.9,46.9-17.9,64.8,0c17.9,17.9,17.9,46.9,0,64.8     C340,331.8,311,331.8,293.1,313.9z M353.8,253.2c-15.6-15.6-40.2-16.5-54.8-1.9s-11.8,37.3,3.8,52.9     c15.6,15.6,38.3,18.4,52.9,3.8S369.5,268.8,353.8,253.2z"/>
		</g>
	</g>
	<polygon class="st0" points="246.9,125.5 254.3,129.2 261.7,125.5 254.3,121.7  "/>
	<g>
		<path class="st5" d="M253.8,177.5c0,0,40.9,1.7,103.9-19.7c-1-43.9-6.6-66.3-15.6-80c-9.3-14.2-36.1-38.1-87.8-38.1s-78.5,23.9-87.8,38.1    c-9,13.8-14.6,36.2-15.6,80.4C213.4,179.2,253.8,177.5,253.8,177.5z"/>
	</g>
	<g>
		<path class="st1" d="M372.3,216.9c4.1,1.6,9.8,4.4,16.5,9.1c0.4-0.3,0.8-0.5,1.2-0.8c2.8-1.9,5.4-4.1,7.7-6.4    c2.3-2.4,4.4-4.9,6.3-7.5c1-1.3,1.8-2.7,2.7-4.1c0.8-1.4,1.6-2.8,2.3-4.2c-1,1.2-2.1,2.4-3.1,3.6c-1.1,1.1-2.2,2.3-3.3,3.4    c-2.3,2.2-4.7,4.1-7.3,5.8c-1.4,1-2.9,1.8-4.4,2.6c0,0,0,0,0,0c2.3-2.2,4.5-4.6,6.5-7c1-1.2,2-2.4,3-3.6l2.9-3.7l-3.6,3.1    c-1.2,1-2.4,2-3.6,2.9c-2.4,1.9-5,3.7-7.5,5.3c-0.6,0.4-1.2,0.7-1.8,1c0.5-0.5,1-0.9,1.5-1.4c1.1-1.1,2.1-2.1,3.1-3.2    c1-1.1,2-2.2,3-3.3l2.8-3.4l-3.5,2.7c-1.2,0.9-2.4,1.7-3.5,2.6c-1.2,0.8-2.4,1.6-3.6,2.4c-1.3,0.7-2.5,1.5-3.8,2.1    c-0.8,0.4-1.6,0.8-2.4,1.1c1.1-0.9,2.3-1.9,3.4-2.8c1.8-1.5,3.4-3.1,5.1-4.7c-2.1,1.1-4.1,2.1-6.2,3.1c-2.1,1-4.2,1.9-6.3,2.7    c-1.6,0.6-3.3,1.2-4.9,1.7C371.7,216.3,372,216.6,372.3,216.9z"/>
		<path class="st1" d="M135.5,168.9c2.5,0.2,27.3,10.4,27.3,10.4c-15.3-4.8-31.6-8.8-47.7-7.8c13.2,1.1,26.1,4.6,38.6,8.7    c-14.8-3-29.8-4.5-44.8-4c5.7,0.9,11.3,2.2,16.6,4c0,0-16.6-1.4-25.9,4.5c7.1-30.6,38.6-23.9,64.7-13.9c15.2,5,30.9,9.4,46.7,12.4    c52.2,10.1,105.5-1.1,155.4-17.1c-62.7,25-137.1,33.7-201.8,9.3C164.6,175.4,149.4,170.1,135.5,168.9z"/>
	</g>
	<g>
		<path class="st2" d="M165.5,159.7c1.5,0.6,3,1.2,4.5,1.8c12.7,4.8,25.9,8.4,39.4,10.5c1.6,0.2,5.4,0.7,7.1,0.9    c1.6,0.1,5.6,0.5,7.1,0.6c1.5,0,5.5,0.2,7.1,0.2c-1.6-0.1-5.6-0.5-7.1-0.7c-1.5-0.2-5.5-0.8-7-1c-1.6-0.3-5.4-1-7-1.4    c-13.1-2.9-25.9-7.3-38.2-12.8c-3.2-1.5-6.4-3-9.5-4.6c13.4,5.6,27.7,9.1,42.2,9.9c-15.3-2.4-30.2-7.8-43.6-15.5    c9.6,3.7,19.7,5.9,29.9,7.4l4.9,0.7l-4.8-1.3c-10.3-2.9-20.6-6.4-30.1-11.7c-0.4-0.2-1.2-0.7-1.5-0.9l0-0.2    c8.8,3.3,18.1,5.3,27.3,6.9l4.3,0.7l-4.2-1.3c-8.4-2.6-16.6-5.7-24.5-9.7c6.6,2.2,13.5,3.4,20.5,4l3.8,0.3l-3.8-0.9    c-8-2-15.9-4.6-22.9-9l-0.2-0.1l0-0.1c6.7,2.6,13.9,4.1,21.1,4.7c-7.4-2.2-14.6-5.2-21-9.6l0-0.2c6.2,2.4,12.7,4,19.3,5.1    c-6.7-2.6-13.2-5.9-19.1-9.9l0-0.3c5.4,1.3,10.9,2.5,16.5,3.1c-5.5-2.1-10.8-4.8-16-7.5l0-0.2c4.4,0.6,8.8,1.1,13.1,1.4    c-3.9-1.6-7.8-3.3-11.6-5.2c4.3,0.3,8.8,0.3,13.1-0.1c-3.2-0.7-6.4-1.6-9.5-2.7c3.4-1,6.7-1.8,10.3-2.2c-3.9-0.6-7.9-0.9-11.8-0.9    c3.6-1.6,6.7-2.4,10.6-3.3c-4-0.3-7.6-0.8-11.6-0.3c2.7-1.6,5.1-4.1,8.1-5.2l-6.1-2.6l5.5-3.1l-3.6-3.7l3.7-1.7    c0,0-1.4-3.8-0.6-7.2c-8.7,13.6-13.4,44-12.4,67.4C157.3,157.3,157.7,156.6,165.5,159.7z"/>
		<path class="st2" d="M351,144.9c-0.2-2.5-0.4-4.9-0.7-7.4c-0.3-2.5-0.5-4.9-0.8-7.4c-0.6-4.9-1.4-9.8-2.4-14.7    c-1-4.8-2.2-9.7-4-14.3c1.5,4.7,2.3,9.6,3,14.4c0.6,4.9,1.1,9.8,1.3,14.7c0.2,2.5,0.2,4.9,0.3,7.4c0.1,2.5,0.1,4.9,0.1,7.4    l-0.1,7.4l-0.1,3.3c0,1.2-0.8,2.3-1.9,2.8c0,0,0,0,0,0c-5.6,1.4-10.1,3.4-25.2,7.9c0,0,19.6-3.5,28.1-6c1.8-0.5,2.9-2.3,2.9-4.2    c0-1,0-2.3,0-3.9L351,144.9z"/>
	</g>
	<path class="st4" d="M280,72.9c-5-3.8-11.4-4.8-19-3.1l-40,6.5l0.5,2.5l22.4,35.2l-18.2,1.6l0.5,2.5l28.2,44.1v-31.7l6.6-1.5   c7.5-1.7,13.9-5.7,18.9-11.9c5.1-6.1,7.6-13.5,7.6-22v-4C287.6,82.9,285,76.7,280,72.9z M268.1,99.3c0,2.7-0.5,5.1-1.5,6.9   c-1.1,2-2.5,3.2-4.2,3.6l-7.2,1.7l0.8-21.6l6.4-1.5c1.6-0.4,3,0.2,4.1,1.6c1,1.3,1.5,3.4,1.5,6.2V99.3z"/>
	<path class="st2" d="M279.7,70.4c-5-3.8-11.4-4.8-19-3.1l-39.5,9.1l22.4,35.2l-17.7,4.1l28.2,44.1v-31.7l6.6-1.5   c7.5-1.7,13.9-5.7,18.9-11.9c5.1-6.1,7.6-13.5,7.6-22v-4C287.3,80.4,284.8,74.2,279.7,70.4z M267.8,96.8c0,2.7-0.5,5.1-1.5,6.9   c-1.1,2-2.5,3.2-4.2,3.6l-7.2,1.7l0.8-21.6l6.4-1.5c1.6-0.4,3,0.2,4.1,1.6c1,1.3,1.5,3.4,1.5,6.2V96.8z"/>
	<path class="st5" d="M275,384l-0.7-0.1c0.3-0.2,0.5-0.5,0.7-0.7l-5.4-1.1c-3.4,1.8-8.4,4.1-15.2,4.1c-7,0-12.1-2.3-15.5-4.2l-4.3,1.3   c0.2,0.2,0.4,0.5,0.6,0.7l-0.6,0.2c0.2,0.2,0.4,0.5,0.6,0.7l-0.6,0.2c6.4,8.4,33.9,7.8,40.4-0.1l-0.7-0.1   C274.5,384.5,274.7,384.3,275,384z"/>
	<path class="st5" d="M263.4,402c-0.8-1-2-1.8-3.6-2.4l0,0c-0.8-0.3-1.7-0.6-2.7-0.7c-1-0.2-2-0.3-3.1-0.3c-1,0-2.1,0.1-3,0.3   c-0.9,0.2-1.8,0.4-2.7,0.7c-1.6,0.6-2.8,1.5-3.6,2.4c-0.7,0.8-0.4,1.9,0.7,2.5c0.5,0.3,1.1,0.4,1.7,0.4c0.5,0,1-0.1,1.5-0.3   c0.9-0.4,1.8-0.8,2.7-1c1.8-0.5,3.5-0.5,5.2,0c1,0.3,1.9,0.7,2.7,1c1,0.4,2.3,0.4,3.2-0.1C263.7,403.8,264,402.8,263.4,402z"/>
	<g id="_x32_rv3kk_4_">
		<g>
			<path class="st0" d="M294.8,289.1c3.7,12.5,12.6,22.9,30,24.2c18.7,1.4,35.6-15.6,33.8-34.1c-0.8-16.4-15.7-30.1-32.2-28.3     c-17.3,1.1-30,19.7-23.3,36c9.2,24,45.8,18.9,44.1-7.9c-1.1-9.7-9.1-17.1-18.8-16.8c-8.7,0.2-15.6,7.1-15.6,15.6     c0,7.7,6.3,13.7,13.6,13.3c6.3-0.4,11.1-6.7,9.2-12.5c-1.2-3.8-5.1-6-8.6-4.8c-1.8,0.6-3,1.8-3.2,3.8c-0.1,1,0.2,1.9,1.1,2.6     c0.9,0.7,1.9,0.4,2.4-0.6c0.4-0.9,1.1-1.1,1.9-0.5c0.8,0.5,1.1,1.7,0.9,2.8c-0.5,2.2-2.9,3.6-5.4,3.3c-3.3-0.4-6-3.5-6-7.1     c-0.1-6.4,6-11.1,12.6-9.7c7,1.5,11.4,8.6,9.7,15.9c-2,8.7-10.9,13.9-19.8,11.6c-8.8-2.3-14.7-10.9-13.7-20.2     c2.7-22.3,32.5-25.4,42.3-6.3c13.8,29.4-24.6,51.9-45.8,28.9c-2.8-3.1-5.1-6.5-6.2-10.2c-8.8-30.3,18.4-40.5,18.4-40.5     S285.4,257.1,294.8,289.1z"/>
		</g>
	</g>
	<g>
		<path class="st1" d="M356.5,266.9c-1.6-10-15.2-19.7-25.1-18.8c-1.5,0.1-4.1,0.1-3.3,2.3c0.5,1.7,2.6,2.2,4.3,2.6    c3.9,0.9,7,2.7,10.3,4.9c3.6,2.5,6.9,5.4,9.4,9.2C352.9,268.7,356.9,269.7,356.5,266.9z"/>
		<circle class="st1" cx="356.5" cy="272.2" r="1.9"/>
	</g>
	<polygon class="st0" points="183.1,244.1 187.5,265.4 202,249.1 195.1,269.8 215.8,262.9 199.5,277.4 220.9,281.8 199.5,286.2    215.8,300.7 195.1,293.8 202,314.5 187.5,298.1 183.1,319.5 178.8,298.1 164.3,314.5 171.2,293.8 150.5,300.7 166.8,286.2    145.4,281.8 166.8,277.4 150.5,262.9 171.2,269.8 164.3,249.1 178.8,265.4  "/>
	<g>
		<path class="st1" d="M214.5,266.9c-1.6-10-15.2-19.7-25.1-18.8c-1.5,0.1-4.1,0.1-3.3,2.3c0.5,1.7,2.6,2.2,4.3,2.6    c3.9,0.9,7,2.7,10.3,4.9c3.6,2.5,6.9,5.4,9.4,9.2C210.9,268.7,214.9,269.7,214.5,266.9z"/>
		<circle class="st1" cx="214.5" cy="272.2" r="1.9"/>
	</g>
	<g>
		<path class="st5" d="M248.8,300.6c0,0-4.2,9.2-1.1,18.5c0,0-8.7-0.4-14.1-4.8L248.8,300.6z"/>
		<path class="st5" d="M259.8,300.6c0,0,4.2,9.2,1.1,18.5c0,0,8.7-0.4,14.1-4.8L259.8,300.6z"/>
	</g>
	<g>
		<g>
			<path class="st4" d="M218.9,317.7c8.9-9.4,14.4-22.1,14.4-36.2c0-19.5-10.6-36.5-26.3-45.5l11.6,0.4c4.3,0,8.4,2.6,10.6,6.9     l15.7,46.7c2.6,7.7-1,16.2-8.5,19.6L218.9,317.7z"/>
			<path class="st5" d="M218.9,321.5c-1.2,0-2.4-0.6-3.1-1.6c-1.1-1.5-0.9-3.6,0.3-4.9c8.6-9.1,13.4-21,13.4-33.5c0-17.3-9.4-33.5-24.4-42.2     c-1.5-0.9-2.3-2.7-1.8-4.4c0.5-1.7,2.1-2.8,3.8-2.8l11.5,0.4c5.7,0,11,3.4,13.9,8.9c0.1,0.2,0.2,0.4,0.2,0.6l15.7,46.7     c3.2,9.6-1.3,20.1-10.5,24.3l-17.5,8.1C220,321.4,219.5,321.5,218.9,321.5z M237.1,279c0,0.8,0.1,1.7,0.1,2.5     c0,9.4-2.3,18.4-6.6,26.5l4.2-2c5.6-2.6,8.4-9,6.4-14.9L237.1,279z M219.2,240.3c3,2.8,5.7,6,8.1,9.4l-1.6-4.9     C224.2,242.2,221.8,240.5,219.2,240.3z"/>
		</g>
		<g>
			<path class="st4" d="M289.7,317.7c-8.9-9.4-14.4-22.1-14.4-36.2c0-19.5,10.6-36.5,26.3-45.5l-11.6,0.4c-4.3,0-8.4,2.6-10.6,6.9     l-15.7,46.7c-2.6,7.7,1,16.2,8.5,19.6L289.7,317.7z"/>
			<path class="st5" d="M289.7,321.5c-0.5,0-1.1-0.1-1.6-0.4l-17.5-8.1c-9.2-4.3-13.7-14.7-10.5-24.3l15.7-46.7c0.1-0.2,0.1-0.4,0.2-0.6     c2.9-5.5,8.2-8.9,13.9-8.9l11.5-0.4c1.8-0.1,3.4,1.1,3.8,2.8c0.5,1.7-0.2,3.5-1.8,4.4c-15.1,8.7-24.4,24.9-24.4,42.2     c0,12.5,4.7,24.4,13.4,33.5c1.3,1.3,1.4,3.4,0.3,4.9C292.1,321,290.9,321.5,289.7,321.5z M271.5,279l-4.1,12.2     c-2,5.9,0.8,12.3,6.4,14.9l4.2,2c-4.3-8.1-6.6-17.1-6.6-26.5C271.4,280.7,271.4,279.8,271.5,279z M282.9,244.8l-1.6,4.9     c2.3-3.4,5-6.6,8.1-9.4C286.8,240.5,284.4,242.2,282.9,244.8z"/>
		</g>
	</g>
	<g>
		<path class="st4" d="M270.8,269.2c-3.6-9.4-16.7-8.8-16.7-8.8s-12.8-0.2-16.4,9.2l-12.3-31.2c10.3,5,18-1.7,18-1.7h21.4    c0,0,8.1,6.7,18.4,1.7L270.8,269.2z"/>
		<path class="st5" d="M237.7,273.4c-1.6,0-3-1-3.6-2.4l-12.3-31.2c-0.6-1.5-0.2-3.2,1-4.2c1.2-1.1,2.9-1.3,4.3-0.6c7.8,3.8,13.6-0.9,13.8-1.1    c0.7-0.6,1.6-0.9,2.5-0.9h21.4c0.9,0,1.8,0.3,2.4,0.9c0.2,0.2,6.4,5,14.3,1.2c1.4-0.7,3.1-0.4,4.3,0.7c1.2,1.1,1.5,2.8,0.9,4.2    l-12.4,30.9c-0.6,1.5-2.1,2.4-3.6,2.4c-1.6,0-3-1-3.6-2.5c-2.6-6.6-12.9-6.4-13-6.4c-0.1,0-0.1,0-0.2,0c-0.1,0-10.2,0-12.7,6.7    C240.7,272.4,239.3,273.4,237.7,273.4C237.7,273.4,237.7,273.4,237.7,273.4z M227.3,244l11.4,21.2c5.9-5,14.2-8.7,15.3-8.7    c1.2,0,9.8,3.5,15.7,8.4l11.5-21c-6.2,0.4-15.5-2.1-17.7-3.5h-18.9C242.5,241.9,233.4,244.4,227.3,244z"/>
	</g>
	<g>
		<circle class="st4" cx="254.3" cy="246.1" r="13.1"/>
		<path class="st5" d="M254.3,264.2c-10,0-18.1-8.1-18.1-18.1c0-10,8.1-18.1,18.1-18.1c10,0,18.1,8.1,18.1,18.1    C272.4,256.1,264.3,264.2,254.3,264.2z M254.3,235.6c-5.8,0-10.4,4.7-10.4,10.4c0,5.8,4.7,10.4,10.4,10.4    c5.8,0,10.4-4.7,10.4-10.4C264.7,240.3,260.1,235.6,254.3,235.6z"/>
	</g>
	<circle class="st5" cx="254.3" cy="246.1" r="5.1"/>
	<path class="st5" d="M271.4,389.6c0,0,6,2.5,12.2,7l-1.9-3.7c5.6,2.2,9,2.3,14.9,1.8c12.6-0.9,20.5-8.7,22.7-15.7c1.6-5.2,1.2-9.9,1.2-9.9   s-0.4-8-6.8-8.9c-6.5-0.9-7.4,5.9-7.4,5.9s2.7-5.8,8-4c5.2,1.8,4.2,16.2-4.8,16.4c-2-0.1-3.7-0.7-5.6-2c1.5,0.3,4-0.3,4.7-0.4   c-8.2-2.1-10.9-4.5-10.9-4.5c1.3,0.1,3.7-0.5,4.4-0.4c-8.8-3.4-8.1-4.7-8.1-4.7l7.1-0.7c-12.1-3.1-14.1-7.3-14.1-7.3l4.2,0.2   l-3.2-1.9c-1.7-1-3.2-2.1-4.6-3.4c-5.3-4.6-10.9-6.9-17.5-6.9c-9.1,0.1-11.3,6.2-11.6,7.4c-0.3-1.3-2.5-7.4-11.6-7.4   c-6.6,0-12.2,2.3-17.5,6.9c-1.5,1.3-3,2.4-4.6,3.4l-3.2,1.9l4.2-0.2c0,0-2,4.2-14.1,7.3l7.1,0.7c0,0,0.7,1.3-8.1,4.7   c0.7-0.1,3.1,0.5,4.4,0.4c0,0-2.7,2.4-10.9,4.5c0.7,0.1,3.1,0.7,4.7,0.4c-1.9,1.3-3.7,1.9-5.6,2c-9-0.1-10.1-14.5-4.8-16.4   c5.2-1.8,8,4,8,4s-0.9-6.7-7.4-5.9c-6.5,0.9-6.8,8.9-6.8,8.9s-0.5,4.7,1.2,9.9c2.2,7.1,10.1,14.8,22.7,15.7   c5.9,0.5,9.3,0.4,14.9-1.8l-1.9,3.7c6.2-4.5,12.2-7,12.2-7l7.1-4.1c-0.7,1.1-0.2,1.9-0.2,1.9c5.5-7.4,10.2-8.7,10.2-8.7   s4.6,1.2,10.2,8.7c0,0,0.5-0.8-0.2-1.9L271.4,389.6z"/>
	<path class="st5" d="M254.3,338.4L254.3,338.4c2.5,0,4.2-0.5,6.5-1.4c0.8-0.3,1.5-0.7,2.2-1l0,0c0,0,15.7,5.3,12-14.4c0,0-6.4,10.2-20.7,10.2   c-14.3,0-20.7-10.2-20.7-10.2c-3.6,19.7,12,14.4,12,14.4l0,0c0.7,0.4,1.4,0.7,2.2,1C250.1,337.9,251.8,338.4,254.3,338.4   L254.3,338.4z"/>
	<g>
		<g>
			<path class="st4" d="M263.7,348.8c2.3-0.5,4.7-0.3,7,0.2c2.3,0.5,4.5,1.4,6.6,2.6c2,1.2,3.9,2.7,5.5,4.3c0.9,0.8,1.5,1.8,2.3,2.6     c0.7,0.9,1.3,1.9,1.9,2.9c-0.9-0.7-1.7-1.5-2.6-2.3c-0.9-0.7-1.7-1.5-2.6-2.2c-0.9-0.7-1.7-1.4-2.7-2c-0.9-0.7-1.9-1.2-2.8-1.8     c-1.9-1.1-3.9-2-6-2.8C268.1,349.7,266,349.1,263.7,348.8z"/>
			<path class="st4" d="M272.6,358.6c2.4-0.6,5.1-0.1,7.4,0.9c2.4,1,4.4,2.7,6,4.7c1.7,2,2.7,4.3,3.6,6.7c0.4,1.2,0.7,2.4,1,3.6     c0.2,1.2,0.4,2.5,0.4,3.7c-0.5-1.1-0.9-2.3-1.4-3.4l-1.5-3.3c-1.1-2.1-2.2-4.2-3.7-6C281.7,361.8,277.5,359.2,272.6,358.6z"/>
			<path class="st4" d="M258,356.1c1.6-0.8,3.5-0.9,5.3-0.6c1.8,0.3,3.5,1.2,5,2.3c1.4,1.2,2.5,2.7,3.4,4.2c0.4,0.8,0.7,1.6,1.1,2.4     c0.2,0.9,0.5,1.7,0.6,2.6c-0.5-0.7-1-1.4-1.4-2.2l-1.5-2.1c-0.6-0.6-1-1.3-1.6-1.9c-0.3-0.3-0.5-0.6-0.8-0.9l-0.9-0.8     C264.6,357.4,261.6,356.2,258,356.1z"/>
			<path class="st4" d="M288.6,390.1c-2,0.5-4.1,0.5-6.2,0.4c-2.1-0.2-4.1-0.6-6.1-1.3c-2-0.7-3.9-1.7-5.6-2.9     c-1.7-1.2-3.1-2.9-4.1-4.6c1.7,1.3,3.2,2.5,5,3.4c1.7,0.9,3.5,1.8,5.4,2.4C280.6,388.6,284.5,389.4,288.6,390.1z"/>
			<path class="st4" d="M299,384.9c-0.5,1.1-1.5,2-2.5,2.5c-1.1,0.6-2.3,0.9-3.5,0.9c-1.2,0.1-2.4-0.1-3.6-0.5     c-0.6-0.2-1.1-0.4-1.6-0.7c-0.5-0.3-1-0.6-1.5-1c0.6,0,1.2,0,1.7,0.1c0.6,0,1.1,0.1,1.7,0.1c1.1,0,2.1,0.1,3.2,0     C295,386.4,296.9,386,299,384.9z"/>
			<path class="st4" d="M276.1,385.5c0.6-0.9,1.5-1.6,2.4-2.1c0.9-0.5,2-0.9,3-1.1c1.1-0.2,2.2-0.2,3.2,0.1c1.1,0.2,2.1,0.6,2.9,1.3     c-1.1,0.1-2.1,0.1-3,0.2c-1,0.1-1.9,0.2-2.8,0.3C280,384.5,278.2,385,276.1,385.5z"/>
			<path class="st4" d="M255.4,359.1c1.1-0.4,2.4-0.4,3.6-0.1c1.2,0.3,2.3,0.9,3.2,1.7c0.9,0.8,1.7,1.8,2.2,2.9     c0.3,0.5,0.4,1.1,0.6,1.7c0.1,0.6,0.2,1.2,0.2,1.8c-0.4-0.4-0.7-0.9-1.1-1.3c-0.4-0.4-0.7-0.9-1-1.3c-0.7-0.8-1.4-1.5-2.2-2.2     C259.4,360.8,257.6,359.8,255.4,359.1z"/>
			<path class="st4" d="M258.4,353.1c0.7-0.9,1.7-1.5,2.8-2c1.1-0.4,2.3-0.6,3.5-0.5c1.2,0.1,2.4,0.4,3.4,1c1,0.6,1.9,1.4,2.5,2.4     c-1.1-0.3-2.1-0.8-3-1c-1-0.3-1.9-0.4-2.9-0.5C262.5,352.4,260.6,352.7,258.4,353.1z"/>
			<path class="st4" d="M301,375.5c-1.1,0.2-2.2,0-3.3-0.3c-1.1-0.3-2.1-0.8-3-1.3c-0.9-0.6-1.8-1.3-2.5-2.1     c-0.8-0.8-1.4-1.7-1.8-2.7c1,0.5,1.9,1,2.8,1.6l2.6,1.6L301,375.5z"/>
			<path class="st4" d="M276.1,364.6c0.5,0.1,1.1,0,1.6,0.2c0.6,0.1,1.1,0.3,1.6,0.6c1,0.5,2,1.3,2.6,2.3c0.7,1,1.1,2,1.4,3.1     c0.3,1.1,0.3,2.2,0.1,3.4c-0.5-1-0.9-2-1.3-3c-0.5-0.9-0.9-1.8-1.5-2.6c-0.6-0.8-1.2-1.5-2-2.2c-0.4-0.3-0.8-0.6-1.2-0.9     c-0.2-0.1-0.5-0.3-0.7-0.4C276.6,364.9,276.3,364.9,276.1,364.6z"/>
			<path class="st4" d="M258.6,378.2c1.4-0.6,3-1.1,4.5-1.2c1.6-0.2,3.2-0.1,4.8,0.3c3.1,0.7,6.1,2.5,7.9,5     c-1.4-0.7-2.8-1.3-4.2-1.9c-1.4-0.5-2.8-1-4.2-1.3c-1.4-0.3-2.9-0.5-4.3-0.7C261.7,378.4,260.2,378.4,258.6,378.2z"/>
			<path class="st4" d="M295.3,382c-0.7,0.1-1.5,0.3-2.2,0.4c-0.8,0.1-1.5,0.1-2.3,0c-1.5-0.1-3.1-0.5-4.5-1.2     c-2.8-1.3-5.1-3.8-6.1-6.6c1.2,1,2.2,1.9,3.4,2.8c1.1,0.8,2.3,1.5,3.6,2.1c1.2,0.6,2.5,1.1,3.9,1.5c0.7,0.2,1.4,0.4,2.1,0.5     C293.8,381.6,294.6,381.6,295.3,382z"/>
			<path class="st4" d="M271.8,374.2c-1.4,0-2.9-0.2-4.2-0.7c-1.4-0.5-2.7-1.2-3.8-2.1c-1.2-0.9-2.2-2-3-3.2     c-0.8-1.2-1.5-2.5-1.9-3.9l3,2.9c1,0.9,2,1.8,3.1,2.6c1.1,0.8,2.2,1.6,3.3,2.3C269.3,372.8,270.6,373.4,271.8,374.2z"/>
			<path class="st4" d="M268.1,367.8c1.1-0.2,2.5-0.1,3.7,0.6c1.2,0.6,2.1,1.6,2.8,2.7c0.7,1.1,1.1,2.3,1.3,3.5     c0.2,1.2,0.2,2.4,0,3.7c-0.6-1.1-1-2.2-1.5-3.2c-0.5-1-0.9-2-1.5-2.9c-0.6-0.9-1.2-1.7-2-2.5     C270.2,368.9,269.2,368.4,268.1,367.8z"/>
			<path class="st4" d="M299,388.5c1.1-0.1,2.1-0.4,3-0.7c0.9-0.3,1.8-0.7,2.7-1c0.9-0.4,1.8-0.8,2.7-1.3c0.5-0.2,0.9-0.5,1.4-0.7     c0.5-0.2,0.9-0.5,1.5-0.7c-0.3,0.5-0.6,0.9-0.9,1.4c-0.4,0.4-0.7,0.8-1.1,1.2c-0.8,0.7-1.8,1.4-2.8,1.8c-1,0.4-2.1,0.7-3.3,0.8     C301.2,389.3,300,389.1,299,388.5z"/>
			<path class="st4" d="M304.3,380.4c2.4,0,4.6,0,6.6-0.5c1-0.2,1.9-0.6,2.9-1.1c0.9-0.5,1.7-1.2,2.7-2c-0.3,1.2-0.8,2.3-1.8,3.2     c-0.9,0.9-2.1,1.5-3.3,1.8c-1.2,0.3-2.5,0.3-3.7,0C306.4,381.6,305.3,381.1,304.3,380.4z"/>
			<path class="st4" d="M292.9,375.8c0.9,1.1,1.9,2,2.9,2.9c1,0.8,2.1,1.5,3.3,2.1c1.2,0.5,2.4,1,3.7,1.4c0.6,0.2,1.3,0.3,2,0.5     c0.7,0.1,1.4,0.2,2.1,0.4c-0.7,0.2-1.4,0.4-2.1,0.5c-0.7,0-1.5,0.2-2.2,0.1c-1.5,0-2.9-0.5-4.3-1.1c-1.4-0.6-2.5-1.6-3.5-2.8     C293.8,378.5,293.1,377.2,292.9,375.8z"/>
		</g>
		<g>
			<path class="st4" d="M245,348.8c-2.3,0.3-4.5,0.9-6.6,1.6c-2.1,0.8-4.1,1.7-6,2.8c-0.9,0.6-1.9,1.1-2.8,1.8     c-0.9,0.6-1.8,1.3-2.7,2c-0.9,0.7-1.7,1.5-2.6,2.2c-0.9,0.8-1.7,1.6-2.6,2.3c0.6-1,1.2-2,1.9-2.9c0.7-0.9,1.4-1.8,2.3-2.6     c1.6-1.7,3.5-3.1,5.5-4.3c2.1-1.1,4.3-2.1,6.6-2.6C240.3,348.5,242.7,348.3,245,348.8z"/>
			<path class="st4" d="M236,358.6c-4.9,0.5-9.1,3.2-12,6.8c-1.5,1.8-2.6,3.9-3.7,6l-1.5,3.3c-0.4,1.1-0.8,2.3-1.4,3.4     c0.1-1.2,0.3-2.5,0.4-3.7c0.3-1.2,0.6-2.4,1-3.6c0.9-2.3,2-4.7,3.6-6.7c1.6-2,3.6-3.7,6-4.7C230.9,358.5,233.6,358.1,236,358.6z"/>
			<path class="st4" d="M250.6,356.1c-3.5,0-6.6,1.2-9,3.3l-0.9,0.8c-0.3,0.3-0.5,0.6-0.8,0.9c-0.6,0.5-1,1.3-1.6,1.9l-1.5,2.1     c-0.5,0.7-0.9,1.4-1.4,2.2c0.1-0.9,0.4-1.7,0.6-2.6c0.3-0.8,0.6-1.7,1.1-2.4c0.9-1.6,2-3,3.4-4.2c1.4-1.1,3.1-2,5-2.3     C247.1,355.2,249,355.4,250.6,356.1z"/>
			<path class="st4" d="M225.2,388.8c3.1-0.4,6.1-1,9-2.1c1.5-0.5,2.8-1.3,4.2-2.1c1.4-0.8,2.6-1.9,4-3.1c-0.9,1.7-2.1,3.3-3.4,4.4     c-1.4,1.2-2.9,2-4.4,2.6c-1.5,0.6-3.1,0.9-4.7,0.9C228.2,389.5,226.6,389.3,225.2,388.8z"/>
			<path class="st4" d="M209.6,384.9c2.1,1.1,4.1,1.5,6.2,1.6c1,0.1,2.1,0,3.2,0c0.5,0,1.1-0.1,1.7-0.1c0.6,0,1.1-0.1,1.7-0.1     c-0.5,0.4-1,0.7-1.5,1c-0.5,0.2-1.1,0.5-1.6,0.7c-1.1,0.3-2.3,0.6-3.6,0.5c-1.2-0.1-2.4-0.4-3.5-0.9     C211,386.9,210.1,386,209.6,384.9z"/>
			<path class="st4" d="M253,374.5c-1.9-0.8-3.5-1-5.2-1c-0.9,0-1.7,0.1-2.6,0.2c-0.4,0.1-0.9,0.1-1.4,0.2c-0.5,0.1-0.9,0.2-1.5,0.2     c0.3-0.4,0.7-0.7,1.1-1c0.4-0.3,0.9-0.6,1.3-0.8c0.9-0.4,2-0.7,3-0.7c1.1,0,2.1,0.2,3.1,0.7C251.7,372.8,252.5,373.5,253,374.5z"/>
			<path class="st4" d="M254.3,367.3c1.1,1.7,2.3,2.9,3.7,3.9c0.7,0.5,1.4,0.9,2.2,1.4c0.4,0.2,0.8,0.4,1.2,0.7     c0.4,0.2,0.9,0.4,1.3,0.7c-0.5,0.1-1,0.2-1.5,0.2c-0.5,0-1,0-1.5-0.2c-1-0.2-2-0.6-2.9-1.2c-0.9-0.6-1.6-1.4-2.1-2.4     C254.4,369.4,254.1,368.4,254.3,367.3z"/>
			<path class="st4" d="M232.5,385.5c-2.1-0.5-3.9-1-5.8-1.3c-0.9-0.1-1.9-0.3-2.8-0.3c-1-0.1-1.9-0.1-3-0.2     c0.9-0.6,1.9-1.1,2.9-1.3c1.1-0.2,2.2-0.2,3.2-0.1c1.1,0.2,2.1,0.5,3,1.1C231,383.9,231.9,384.6,232.5,385.5z"/>
			<path class="st4" d="M253,362.4c-2.3-0.5-4.3-0.6-6.3-0.3c-1,0.2-2,0.4-3,0.7c-0.5,0.1-1,0.4-1.5,0.5c-0.5,0.2-1,0.4-1.6,0.6     c0.3-0.5,0.7-0.9,1.1-1.4c0.4-0.4,0.9-0.8,1.4-1.1c1-0.7,2.2-1.1,3.4-1.3c1.2-0.2,2.5-0.1,3.6,0.3     C251.2,360.8,252.3,361.5,253,362.4z"/>
			<path class="st4" d="M249.5,350.3c-2.2,0.7-4,1.4-5.6,2.5c-0.8,0.5-1.6,1.1-2.3,1.8c-0.7,0.7-1.4,1.5-2.2,2.3     c0.1-1.1,0.4-2.3,1-3.3c0.6-1,1.4-1.9,2.4-2.5c1-0.6,2.1-1.1,3.3-1.2C247.3,349.8,248.5,349.8,249.5,350.3z"/>
			<path class="st4" d="M207.6,375.5l5.3-3.3l2.6-1.6c0.9-0.5,1.8-1.1,2.8-1.6c-0.5,1-1.1,1.9-1.8,2.7c-0.7,0.8-1.6,1.5-2.5,2.1     c-0.9,0.6-1.9,1-3,1.3C209.9,375.5,208.7,375.6,207.6,375.5z"/>
			<path class="st4" d="M232.7,365.5c-0.2,0.3-0.6,0.4-0.8,0.5c-0.3,0.2-0.6,0.3-0.9,0.5c-0.6,0.3-1.1,0.7-1.6,1     c-1,0.8-1.8,1.6-2.5,2.6c-0.7,1-1.3,2-1.9,3.1c-0.6,1.1-1.1,2.3-1.7,3.5c-0.2-1.4,0-2.7,0.3-4.1c0.4-1.3,0.9-2.6,1.8-3.8     c0.9-1.1,2-2.1,3.3-2.7c0.6-0.3,1.3-0.5,2-0.6C231.4,365.5,232.1,365.6,232.7,365.5z"/>
			<path class="st4" d="M250,378.2c-1.5,0.2-3.1,0.1-4.5,0.3c-1.5,0.1-2.9,0.4-4.3,0.7c-1.4,0.3-2.8,0.8-4.2,1.3     c-1.4,0.5-2.7,1.2-4.2,1.9c1.9-2.6,4.8-4.3,7.9-5c1.6-0.4,3.2-0.5,4.8-0.3C247,377.2,248.6,377.7,250,378.2z"/>
			<path class="st4" d="M213.4,382c0.7-0.3,1.4-0.4,2.1-0.6c0.7-0.2,1.4-0.3,2.1-0.5c1.4-0.4,2.7-0.9,3.9-1.5     c1.2-0.6,2.4-1.3,3.6-2.1c1.1-0.8,2.2-1.8,3.4-2.8c-1,2.9-3.3,5.3-6.1,6.6c-1.4,0.7-2.9,1.1-4.5,1.2c-0.8,0.1-1.5,0.1-2.3,0     C214.8,382.3,214,382.1,213.4,382z"/>
			<path class="st4" d="M251,365.5c-1.2,0.8-2.5,1.3-3.6,2c-1.2,0.7-2.3,1.4-3.4,2.2c-1.1,0.8-2.1,1.7-3.1,2.6l-3.1,2.8     c0.4-1.4,1.1-2.7,2-3.9c0.9-1.2,1.9-2.2,3.1-3.1c1.2-0.9,2.5-1.6,3.9-2C248.1,365.7,249.7,365.5,251,365.5z"/>
			<path class="st4" d="M240.5,367.8c-1.1,0.6-2.1,1.1-2.8,1.8c-0.8,0.7-1.4,1.5-2,2.5c-0.6,0.9-1,1.9-1.5,2.9     c-0.5,1-0.9,2.1-1.5,3.2c-0.2-1.2-0.2-2.5,0-3.7c0.2-1.2,0.6-2.4,1.3-3.5c0.7-1.1,1.6-2.1,2.8-2.7     C237.9,367.7,239.4,367.6,240.5,367.8z"/>
			<path class="st4" d="M209.2,389.4c-1,0.5-2.2,0.5-3.3,0.2c-1.1-0.2-2.2-0.7-3.1-1.3c-0.9-0.6-1.8-1.4-2.4-2.2     c-0.3-0.4-0.6-0.9-0.9-1.4c-0.2-0.5-0.5-1-0.7-1.5c0.5,0.3,0.9,0.6,1.4,0.9c0.4,0.3,0.9,0.6,1.3,0.9c0.8,0.6,1.6,1.2,2.5,1.7     c0.8,0.5,1.7,1,2.5,1.5C207.2,388.7,208.2,389.1,209.2,389.4z"/>
			<path class="st4" d="M204.3,380.4c-1,0.8-2.1,1.2-3.3,1.4c-1.2,0.2-2.5,0.2-3.7,0c-1.2-0.3-2.4-0.9-3.3-1.8c-1-0.8-1.5-2-1.8-3.2     c1,0.8,1.8,1.5,2.7,2c0.9,0.5,1.8,0.9,2.9,1.1C199.8,380.4,201.9,380.4,204.3,380.4z"/>
			<path class="st4" d="M215.7,375.8c-0.2,1.4-0.9,2.8-1.9,3.9c-0.9,1.1-2.1,2.1-3.5,2.8c-1.4,0.6-2.8,1.1-4.3,1.1     c-0.7,0.1-1.5,0-2.2-0.1c-0.7-0.1-1.4-0.3-2.1-0.5c0.7-0.2,1.4-0.3,2.1-0.4c0.7-0.2,1.3-0.2,2-0.5c1.3-0.3,2.5-0.8,3.7-1.4     c1.2-0.6,2.2-1.3,3.3-2.1C213.8,377.8,214.8,376.8,215.7,375.8z"/>
		</g>
	</g>
	<path class="st5" d="M262.9,283.5c0-6.7-2.3-11.4-8.6-11.4s-8.6,3.8-8.6,11.4l-8.2-15.6c0,0,3.7-7.5,16.8-7.5c13.1,0,16.7,8.8,16.7,8.8   L262.9,283.5z"/>
	<path class="st1" d="M262.9,270c-1.2-1.2-2.6-1.9-4-2.4c-1.5-0.5-3-0.7-4.6-0.7c-1.5,0-3.1,0.2-4.6,0.7c-1.5,0.5-2.9,1.2-4,2.4   c0.5-1.7,1.9-3,3.5-3.8c1.6-0.8,3.4-1.2,5.1-1.2c1.8,0,3.6,0.4,5.1,1.2C261,267,262.4,268.3,262.9,270z"/>
	<path class="st4" d="M254.3,231.5c6.1,0,8.8,2.6,8.8,2.6s-2.4-3.9-8.8-3.9s-8.8,3.9-8.8,3.9S248.2,231.5,254.3,231.5"/>
	<g>
		<path class="st1" d="M375.9,400.6c0,0,43.9,25.5,82,16.1C457.9,416.6,416.4,420.1,375.9,400.6z"/>
		<path class="st1" d="M132.7,400.6c0,0-43.9,25.5-82,16.1C50.8,416.6,92.2,420.1,132.7,400.6z"/>
	</g>
	<g>
		<path class="st1" d="M141.3,263.8c-0.1,0.2-0.1,0.2-0.1,0.2C141.3,263.9,141.3,263.9,141.3,263.8z"/>
		<path class="st1" d="M283.4,263.8c-0.1,0.2-0.1,0.2-0.1,0.2C283.3,263.9,283.3,263.9,283.4,263.8z"/>
	</g>
	<path class="st4" d="M240.7,245.6c0.4,3.7,1.9,7.2,4.3,9.8c2.4,2.6,5.8,4.2,9.3,4.1c3.5,0,6.9-1.6,9.3-4.1c2.4-2.6,3.9-6,4.3-9.8   c0.4,3.7-0.8,7.7-3.3,10.7c-1.2,1.5-2.8,2.8-4.6,3.6c-1.8,0.9-3.8,1.3-5.8,1.3c-2,0-4-0.5-5.8-1.3c-1.8-0.9-3.3-2.1-4.6-3.6   C241.5,253.3,240.3,249.3,240.7,245.6z"/>
	<g>
		<path class="st5" d="M389.1,357.7c0,0,2.4,9.9,7.1,13c0,0-5.9-4.7-9.9-3.6c0,0,1.8,4.7,11.7,11.1c0,0-5.7,0.2-15.5-0.6c0,0,6.1,5,19.4,9.9    c0,0-13.1,0.9-23.5-0.8c0,0,4.7,6.2,26.7,12c0,0-19.9,2.5-32.1-2.4l0.9-9.3l9.4-25.5L389.1,357.7z"/>
		<path class="st5" d="M119.5,357.7c0,0-2.4,9.9-7.1,13c0,0,5.9-4.7,9.9-3.6c0,0-1.8,4.7-11.7,11.1c0,0,5.7,0.2,15.5-0.6c0,0-6.1,5-19.4,9.9    c0,0,13.1,0.9,23.5-0.8c0,0-4.7,6.2-26.7,12c0,0,19.9,2.5,32.1-2.4l-0.9-9.3l-9.4-25.5L119.5,357.7z"/>
	</g>
	<g>
		<path class="st1" d="M484.6,376.9c-0.5,2.3,2.4,5.2,3.2,6.6c0.9,1.3,1.5,3,0.4,4.3c-1,1.2-2.9,1.3-3.7,2.7c-1.1,2.1,1.9,3.7,2,5.9    c0,1.8-2.2,3.3-4,4.6c-1.8,1.4-4.3,4.6-2.5,5c1,0.2,2.5,0.1,2.7,1c0.2,1-1.1,1.8-2.7,2.7c-4.7,2.8-9.3,4.8-13.1,5.4    c1.5-1,3.2-1.9,4.5-3.3c1.3-1.3,2.4-3.1,2.2-4.6c-0.2-1.2-1.1-2.2-0.4-3.4c0.6-1,1.9-1.4,3.3-1.9c1.4-0.5,3.2-1.2,4.6-2.1    c2.4-1.6,2.3-3.8,1-5c-1.3-1.2-3.7-1.3-5.2-2.3c-0.9-0.6-1.5-1.7-1.1-3.1c0.7-2,2.9-2.5,4.5-2.3c1.6,0.3,3.6,0.5,4.6-0.6    c1.3-1.2,0.3-3.5-0.9-4.7l-1.9-2.8c-0.6-0.9-1-2.3-0.2-3.3c3.2-4.1,1-10.5,1-10.5S486.2,370.3,484.6,376.9z"/>
		<path class="st1" d="M24,376.9c0.5,2.3-2.4,5.2-3.2,6.6c-0.9,1.3-1.5,3-0.4,4.3c1,1.2,2.9,1.3,3.7,2.7c1.1,2.1-1.9,3.7-2,5.9    c0,1.8,2.2,3.3,4,4.6c1.8,1.4,4.3,4.6,2.5,5c-1,0.2-2.5,0.1-2.7,1c-0.2,1,1.1,1.8,2.7,2.7c4.7,2.8,9.3,4.8,13.1,5.4    c-1.5-1-3.2-1.9-4.5-3.3c-1.3-1.3-2.4-3.1-2.2-4.6c0.2-1.2,1.1-2.2,0.4-3.4c-0.6-1-1.9-1.4-3.3-1.9c-1.4-0.5-3.2-1.2-4.6-2.1    c-2.4-1.6-2.3-3.8-1-5c1.3-1.2,3.7-1.3,5.2-2.3c0.9-0.6,1.5-1.7,1.1-3.1c-0.7-2-2.9-2.5-4.5-2.3c-1.6,0.3-3.6,0.5-4.6-0.6    c-1.3-1.2-0.3-3.5,0.9-4.7l1.9-2.8c0.6-0.9,1-2.3,0.2-3.3c-3.2-4.1-1-10.5-1-10.5S22.4,370.3,24,376.9z"/>
	</g>
	<path class="st5" d="M459.6,313.1c-0.7-3.5-2.2-7.4-5.3-10.6c-2.8-2.9-6.5-4.6-10.9-5.1c-5.2-16.9-16.9-24.5-20.8-26.6   c-20.1-36.2-44.1-49.5-55.2-53.9c-10.1-11.6-21.3-21.1-29.1-22.7c-10.7-2.2-19.9-0.6-27.3,4.8c-6.2,4.5-10.1,10.8-12.5,16.5   c-3.5,1.6-6.6,3.5-9.2,5.8c-7.2,6.5-10.1,15.7-8.7,27.2c-6.8,9.3-10.9,20.7-10.9,33.1c0,15,6,28.7,15.7,38.7   c-7.5,6.9-8,15.7-4.6,22.1c3.5,6.7,10.8,11.5,18.9,12.3c7.6,0.8,14.9-1.3,21.2-3.4c1.3-0.4,2.6-0.9,4-1.4c2.5-0.9,5-1.8,7.4-2.5   c0.1,1.7,0.1,3.3-0.1,5.1c-0.2,1.9-0.4,3.8-0.7,5.7c-0.3,1.9-0.8,3.8-1.3,5.7c1.4-1.4,2.7-2.9,3.9-4.5c1.3-1.6,2.4-3.2,3.6-5   c0.1-0.2,0.2-0.4,0.4-0.6c-0.1,0.4-0.2,0.9-0.3,1.3c-1.3,5-3.1,9.9-5.1,14.8c3-3.1,5.8-6.4,8.5-9.9c-0.2,0.5-0.5,0.9-0.7,1.4   c-3.9,7.7-8.6,15-14.2,21.7c5.8-4.5,11.2-9.6,16.2-15.2c-0.6,0.9-1.3,1.8-1.9,2.7c-3.4,4.6-6.9,9.1-10.7,13.3   c-3.8,4.3-7.8,8.3-12.1,12.2c4.9-3.1,9.6-6.4,14.1-10.1c4.5-3.6,8.9-7.5,13.1-11.6c0.3-0.3,0.6-0.6,0.9-0.9   c-52.7,74.6-132.5,67.6-181.5,1.6c4,3.8,8,7.5,12.3,10.9c4.5,3.6,9.2,7,14.1,10.1c-4.3-3.8-8.3-7.9-12.1-12.2   c-3.8-4.2-7.3-8.7-10.7-13.3c-0.6-0.9-1.3-1.8-1.9-2.7c5,5.6,10.4,10.7,16.2,15.2c-5.6-6.7-10.3-14.1-14.2-21.7   c-0.2-0.5-0.5-0.9-0.7-1.4c2.7,3.5,5.6,6.8,8.5,9.9c-2-4.9-3.8-9.9-5.1-14.8c-0.1-0.4-0.2-0.9-0.3-1.3c0.1,0.2,0.2,0.4,0.4,0.6   c1.1,1.7,2.3,3.4,3.6,5c1.2,1.6,2.6,3.1,3.9,4.5c-0.5-1.9-1-3.8-1.3-5.7c-0.4-1.9-0.6-3.8-0.7-5.7c-0.1-1.7-0.1-3.4-0.1-5.1   c2.5,0.7,5,1.6,7.6,2.5c1.3,0.5,2.6,0.9,4,1.4c6.2,2.1,13.6,4.1,21.2,3.4c8.2-0.9,15.4-5.6,18.9-12.3c3.3-6.3,2.9-15.2-4.6-22.1   c9.7-10,15.7-23.7,15.7-38.7c0-12.4-4.1-23.8-10.9-33.1c1.4-11.5-1.5-20.7-8.7-27.2c-2.5-2.2-5.4-4.1-8.8-5.6   c-2.4-5.7-6.3-12.1-12.5-16.6c-7.4-5.4-16.6-7-27.3-4.8c-7.8,1.6-18.9,11-28.9,22.5c-10.9,4.3-35.3,17.4-55.6,54.1   c-3.9,2.1-15.5,9.7-20.8,26.6c-4.4,0.5-8.1,2.2-10.9,5.1c-3.1,3.2-4.6,7.1-5.3,10.6c-7.2,5.1-44.6,33.7-40,79.2   c2.2,22.3,9.2,29.1,35.2,34.6c9.5,2,18.1,2.9,26.2,2.9c24.1,0,43.9-8,70.3-18.7c2-0.8,4-1.6,6-2.4l-5.3-6.1c-1.2,0.5-2.4,1-3.5,1.4   c-35.2,14.2-56.5,22.8-92.1,15.4c-23.8-5-27.4-10.1-29.2-27.8c-3.4-34.3,20.5-58.8,31.9-68.3c1.7,24.7,19.2,45.5,41.5,50.4   c-0.5,0.6-1,1.1-1.6,1.7c-0.6,0.7-1.4,1.3-2.1,1.9c-2.9,2.5-6.2,4.7-9.7,6.6c-1.8,1-3.5,1.9-5.4,2.8c-1.8,0.8-3.7,1.7-5.6,2.5   c-1.9,0.7-3.8,1.5-5.7,2.2l-5.8,2l6-1.1c2-0.4,4-0.9,6-1.3c2-0.5,4-1.1,6-1.6c2-0.6,4-1.2,5.9-2c3.9-1.4,7.8-3.2,11.5-5.4   c0.9-0.6,1.9-1.1,2.7-1.8c0.9-0.6,1.8-1.4,2.6-2.1c0.9-0.8,1.7-1.6,2.5-2.5c0.2-0.2,0.4-0.5,0.6-0.7c0.1,0,0.2,0,0.3,0   c15,0,19.5-8.9,20.8-14.3c0.2-0.9,0.4-1.8,0.5-2.8c7.6-1,14.6-3.7,21.3-6.3c20.8,43.2,63.9,84.2,113.5,83.6   c49.5,0.6,92.6-40.3,113.4-83.4c6.6,2.5,13.4,5.1,20.8,6.1c0.1,1,0.3,1.9,0.5,2.8c1.3,5.3,5.8,14.3,20.8,14.3c0.1,0,0.2,0,0.3,0   c0.2,0.3,0.4,0.5,0.6,0.7c0.8,1,1.6,1.8,2.5,2.5c0.9,0.8,1.7,1.5,2.6,2.1c0.9,0.7,1.8,1.3,2.7,1.8c3.7,2.3,7.6,4,11.5,5.4   c2,0.7,3.9,1.3,5.9,2c2,0.5,4,1.1,6,1.6c2,0.4,4,0.9,6,1.3l6,1.1l-5.8-2c-1.9-0.7-3.8-1.5-5.7-2.2c-1.9-0.7-3.7-1.6-5.6-2.5   c-1.8-0.9-3.6-1.8-5.4-2.8c-3.5-1.9-6.8-4.1-9.7-6.6c-0.7-0.6-1.4-1.2-2.1-1.9c-0.6-0.5-1.1-1.1-1.6-1.7   c22.2-4.9,39.7-25.8,41.5-50.4c11.4,9.6,35.3,34,31.9,68.3c-1.8,17.7-5.4,22.9-29.2,27.8c-35.6,7.5-56.8-1.1-92.1-15.4   c-1.2-0.5-2.4-1-3.5-1.4l-5.3,6.1c2,0.8,4,1.6,6,2.4c26.4,10.7,46.2,18.7,70.3,18.7c8.1,0,16.7-0.9,26.2-2.9   c26.1-5.5,33-12.3,35.2-34.6C504.2,346.8,466.8,318.2,459.6,313.1z M223.2,281.5c0,22.1-18,40.1-40.1,40.1   c-22.1,0-40.1-18-40.1-40.1c0-22.1,18-40.1,40.1-40.1C205.2,241.4,223.2,259.4,223.2,281.5z M172.1,201.7   c8.5-1.7,15.6-0.6,21.2,3.5c2.7,2,4.9,4.4,6.6,7.1c-4.7-1-9.9-1.6-15.7-1.7c-8.8-0.2-18.9,0.7-28.6,2.5   C161.9,207,167.9,202.6,172.1,201.7z M99.5,359.3c-1.3-0.3-2.5-0.8-3.8-1.2c-1.3-0.5-2.5-1-3.8-1.5c-1.2-0.6-2.5-1.2-3.7-1.8   l-3.7-2l3.1,2.8c1.1,0.9,2.2,1.7,3.3,2.6c1.1,0.8,2.3,1.6,3.5,2.4c0.5,0.3,0.9,0.6,1.4,0.9c-1.1-0.4-2.1-0.8-3.1-1.3   c-3.1-1.3-6-3.1-8.9-5l-4.2-3.1l-4-3.3l3.3,4l3.6,3.8c2.5,2.4,5.2,4.8,8.2,6.9c0.4,0.3,0.7,0.5,1.1,0.7c-2.7-1.2-5.4-2.7-8-4.4   c-2.9-1.9-5.6-4.3-8.3-6.7c-1.3-1.2-2.5-2.5-3.8-3.8l-3.6-4.1L71,350c1,1.5,2,3,3.1,4.5c2,2.5,4,5.1,6.3,7.4   c-13.8-7.7-23.6-23.3-24.3-40.9c0.5,2.2,1.2,4.3,1.9,6.3c0.4,1.2,0.9,2.3,1.3,3.4l1.5,3.3l-0.6-3.6c-0.1-1.2-0.3-2.4-0.4-3.6   c-0.2-2.4-0.3-4.7-0.1-7.1c0.1-2.3,0.4-4.5,0.8-6.7c0.1,0.5,0.1,1,0.2,1.4c0.2,1.6,0.5,3.1,0.9,4.6c0.3-1.5,0.6-3,0.9-4.5   c0-0.2,0.1-0.3,0.1-0.5c0,0.4,0,0.7,0,1.1c0,0.1,0,0.1,0,0.2c0.5,8.5,6.2,23.8,23.9,27.4c2.1,5.1,5.9,10.2,13,13   c-1.1-0.3-2.2-0.6-3.3-0.9c-1-0.3-2.1-0.7-3.1-1.1l-3.1-1.4l2.6,2.2c0.9,0.7,1.8,1.4,2.8,2c1.4,0.9,2.8,1.8,4.2,2.5   C99.6,359.3,99.5,359.3,99.5,359.3z M159.1,338.1l-0.3,0.1c-7.1,1-13.7,3.5-20.2,6c-7.5,2.9-14.5,5.6-22.2,6.1l-0.3,0   c-5,0.4-9.1,0-12.5-1.2c0.3,0,0.5,0,0.8,0c1,0.1,2.1,0,3.1-0.1c1-0.1,2-0.2,3-0.3c-1-0.2-2-0.4-2.9-0.6c-1-0.3-1.9-0.5-2.8-0.9   c-0.6-0.2-1.1-0.4-1.7-0.7c1,0,1.9-0.1,2.9-0.3c1-0.1,2-0.4,3-0.5c1-0.2,2-0.5,2.9-0.8c-1-0.1-2-0.1-3-0.2c-1-0.1-2-0.2-2.9-0.4   c-0.4-0.1-0.8-0.2-1.1-0.2c1.5-0.3,3-0.8,4.5-1.2c1-0.4,2.1-0.8,3.1-1.1l3-1.3l-3.2,0.4c-1.1,0.1-2.1,0.1-3.2,0.2   c-0.2,0-0.5,0-0.7,0c3.5-1.1,6.8-2.6,9.9-4.5c3.6-2.2,6.8-4.9,9.4-8c2.7-3.1,4.8-6.6,6.4-10.2c-2.2,3.3-4.8,6.4-7.7,8.9   c-3,2.5-6.3,4.5-9.8,5.9c-7,2.9-14.6,3.5-22,2.9c0,0-0.1,0-0.1,0c-21.5-0.4-23.5-19.2-23.6-20.9c0-18.7,8.3-29,14.2-34.1   c0,1,0.1,1.9,0.2,2.9c0.2,1.9,0.4,3.7,0.8,5.6c0.4,1.8,0.9,3.6,1.5,5.3c0-1.8,0.1-3.6,0.4-5.4c0.2-1.8,0.6-3.5,1.1-5.2   c0.5-1.7,1-3.3,1.7-4.9c0.3-0.8,0.7-1.6,1-2.3c0.2-0.3,0.3-0.7,0.5-1c0.2-0.2,0.3-0.4,0.4-0.6c24.8-45.5,56.5-53.1,56.9-53.2   c32.6-7.9,56.2-3.4,65,4.6c3.8,3.4,5.9,7.8,6.4,13.3c-9.9-8.9-23-14.4-37.3-14.4c-16.1,0-30.6,6.9-40.7,17.8   c-0.4,0.2-0.8,0.4-1.2,0.5c-0.9,0.4-1.8,0.8-2.6,1.3c-1.7,0.9-3.3,1.9-4.9,3c-1.5,1.1-3,2.3-4.4,3.5c-1.4,1.2-2.6,2.6-3.8,4   c1.6-0.9,3.2-1.7,4.9-2.4c1.6-0.7,3.3-1.2,5-1.7c0.3-0.1,0.5-0.1,0.8-0.2c-5.5,8.6-8.6,18.8-8.6,29.7c0,30.7,25,55.7,55.7,55.7   c12.6,0,24.2-4.2,33.5-11.3c-0.8,1-1.7,2.1-2.7,3c-1.1,1-2.2,2-3.4,2.9c-1.2,0.9-2.5,1.8-3.9,2.6c1.6-0.2,3.1-0.5,4.7-0.8   c1.6-0.4,3.1-0.8,4.7-1.4c0.7-0.3,1.4-0.6,2.1-0.9c-1.1,0.9-2.3,1.7-3.6,2.4c-1.7,1-3.4,1.9-5.3,2.7c-0.9,0.4-1.9,0.7-2.8,1.1   c-1,0.3-1.9,0.6-2.9,0.9c1,0,2,0,3.1,0c1-0.1,2.1,0,3.1-0.2c2.1-0.2,4.2-0.5,6.2-0.9c1.3-0.3,2.6-0.7,3.9-1.1c0,0,0,0,0,0   c-1.4,0.9-2.9,1.7-4.5,2.3c-1.6,0.7-3.2,1.2-4.9,1.6c-1.7,0.4-3.5,0.7-5.3,0.9c1.7,0.5,3.5,0.9,5.4,1.1c1.8,0.2,3.7,0.3,5.6,0.2   c0.5,0,1.1-0.1,1.6-0.1c-0.2,0.1-0.3,0.2-0.5,0.2c-1.2,0.6-2.5,1-3.9,1.2c-1.4,0.3-2.9,0.4-4.4,0.4c-0.7,0-1.5-0.1-2.3-0.1   l-2.3-0.3l2,1.2c0.7,0.3,1.4,0.7,2.1,1c0.5,0.2,1,0.4,1.5,0.6c-0.7,0.2-1.5,0.3-2.2,0.4c-6.1,0.6-12.5-1.2-17.9-3   c-1.3-0.4-2.6-0.9-3.9-1.3c-5.1-1.8-10.3-3.6-15.9-4.5C166.4,337.6,162.7,337.7,159.1,338.1C159.1,338.1,159.1,338.1,159.1,338.1z    M315.6,205.2c5.6-4,12.8-5.2,21.2-3.5c4.1,0.8,10.2,5.3,16.6,11.5c-9.8-1.8-20.1-2.8-28.9-2.6c-5.7,0.1-10.8,0.7-15.4,1.6   C310.8,209.6,312.9,207.2,315.6,205.2z M285.4,281.5c0-22.1,18-40.1,40.1-40.1c22.1,0,40.1,18,40.1,40.1c0,22.1-18,40.1-40.1,40.1   C303.4,321.6,285.4,303.6,285.4,281.5z M401.4,349.2c1,0,2,0.1,3.1,0.1c0.2,0,0.5,0,0.8,0c-3.4,1.2-7.5,1.6-12.5,1.2l-0.3,0   c-7.7-0.5-14.8-3.3-22.2-6.1c-6.6-2.5-13.3-5.1-20.4-6.1l-0.2-0.1c0,0,0,0,0,0c-3.6-0.5-7.3-0.5-11.1,0.1   c-5.6,0.8-10.8,2.7-15.9,4.5c-1.3,0.5-2.6,0.9-3.9,1.3c-5.4,1.8-11.8,3.6-17.9,3c-0.8-0.1-1.5-0.2-2.2-0.4c0.5-0.2,1-0.4,1.5-0.6   c0.7-0.3,1.4-0.7,2.1-1l2-1.2l-2.3,0.3c-0.8,0-1.5,0.1-2.3,0.1c-1.5,0-3-0.1-4.4-0.4c-1.4-0.3-2.7-0.7-3.9-1.2   c-0.2-0.1-0.3-0.2-0.5-0.2c0.5,0,1.1,0.1,1.6,0.1c1.9,0.1,3.8,0,5.6-0.2c1.8-0.2,3.6-0.6,5.4-1.1c-1.8-0.2-3.6-0.4-5.3-0.9   c-1.7-0.4-3.3-1-4.9-1.6c-1.6-0.6-3.1-1.4-4.5-2.3c0,0,0,0,0,0c1.3,0.4,2.6,0.8,3.9,1.1c2.1,0.4,4.2,0.8,6.2,0.9   c1,0.1,2.1,0.1,3.1,0.2c1,0,2.1,0,3.1,0c-1-0.3-2-0.6-2.9-0.9c-0.9-0.4-1.9-0.7-2.8-1.1c-1.9-0.8-3.6-1.7-5.3-2.7   c-1.2-0.8-2.4-1.6-3.6-2.4c0.7,0.3,1.4,0.6,2.1,0.9c1.6,0.6,3.1,1.1,4.7,1.4c1.6,0.4,3.1,0.6,4.7,0.8c-1.4-0.8-2.7-1.7-3.9-2.6   c-1.2-0.9-2.4-1.9-3.4-2.9c-1-1-1.9-2-2.7-3c9.3,7.1,20.9,11.3,33.5,11.3c30.7,0,55.7-25,55.7-55.7c0-10.9-3.2-21.1-8.6-29.7   c0.3,0.1,0.5,0.1,0.8,0.2c1.7,0.4,3.4,1,5,1.7c1.7,0.6,3.3,1.5,4.9,2.4c-1.2-1.4-2.4-2.7-3.8-4c-1.4-1.3-2.8-2.4-4.4-3.5   c-1.5-1.1-3.2-2.1-4.9-3c-0.8-0.5-1.7-0.9-2.6-1.3c-0.4-0.2-0.8-0.4-1.2-0.5c-10.2-10.9-24.7-17.8-40.7-17.8   c-14.3,0-27.4,5.5-37.3,14.4c0.5-5.5,2.6-9.9,6.4-13.3c8.8-8,32.4-12.5,65-4.6c0.4,0.1,32.1,7.7,56.9,53.2c0.1,0.2,0.3,0.4,0.4,0.6   c0.2,0.3,0.4,0.7,0.5,1c0.4,0.8,0.7,1.5,1,2.3c0.7,1.6,1.2,3.2,1.7,4.9c0.5,1.7,0.9,3.4,1.1,5.2c0.3,1.8,0.4,3.6,0.4,5.4   c0.6-1.7,1.1-3.5,1.5-5.3c0.4-1.8,0.7-3.7,0.8-5.6c0.1-0.9,0.1-1.9,0.2-2.9c5.9,5,14.1,15.4,14.2,34.1c-0.1,1.6-2.1,20.5-23.6,20.9   c0,0-0.1,0-0.1,0c-7.4,0.6-15.1,0-22-2.9c-3.5-1.4-6.8-3.4-9.8-5.9c-3-2.5-5.6-5.5-7.7-8.9c1.6,3.6,3.7,7.1,6.4,10.2   c2.6,3.1,5.8,5.8,9.4,8c3.1,1.9,6.4,3.4,9.9,4.5c-0.2,0-0.5,0-0.7,0c-1.1,0-2.1-0.1-3.2-0.2l-3.2-0.4l3,1.3c1,0.4,2,0.8,3.1,1.1   c1.5,0.5,2.9,0.9,4.5,1.2c-0.4,0.1-0.8,0.2-1.1,0.2c-1,0.2-1.9,0.3-2.9,0.4c-1,0.1-2,0.1-3,0.2c1,0.3,1.9,0.5,2.9,0.8   c1,0.2,2,0.4,3,0.5c0.9,0.1,1.9,0.2,2.9,0.3c-0.6,0.2-1.1,0.5-1.7,0.7c-0.9,0.4-1.9,0.6-2.8,0.9c-1,0.2-1.9,0.4-2.9,0.6   C399.3,348.9,400.3,349.1,401.4,349.2z M428.2,361.9c2.3-2.3,4.3-4.8,6.3-7.4c1.1-1.5,2.1-3,3.1-4.5l2.8-4.7l-3.6,4.1   c-1.3,1.3-2.5,2.6-3.8,3.8c-2.7,2.4-5.3,4.7-8.3,6.7c-2.6,1.7-5.2,3.2-8,4.4c0.4-0.2,0.7-0.5,1.1-0.7c3-2,5.6-4.4,8.2-6.9l3.6-3.8   l3.3-4l-4,3.3l-4.2,3.1c-2.9,1.9-5.8,3.7-8.9,5c-1,0.5-2.1,0.9-3.1,1.3c0.5-0.3,0.9-0.6,1.4-0.9c1.2-0.8,2.3-1.6,3.5-2.4   c1.1-0.9,2.2-1.7,3.3-2.6l3.1-2.8l-3.7,2c-1.2,0.6-2.5,1.2-3.7,1.8c-1.3,0.5-2.5,1-3.8,1.5c-1.3,0.4-2.5,0.9-3.8,1.2   c-0.1,0-0.2,0-0.3,0.1c1.5-0.8,2.9-1.6,4.2-2.5c0.9-0.6,1.9-1.4,2.8-2l2.6-2.2l-3.1,1.4c-1.1,0.4-2.1,0.8-3.1,1.1   c-1.1,0.3-2.2,0.6-3.3,0.9c7.1-2.8,11-7.9,13-13c17.7-3.6,23.5-18.9,23.9-27.4c0-0.1,0-0.1,0-0.2c0-0.4,0-0.7,0-1.1   c0,0.2,0.1,0.3,0.1,0.5c0.3,1.5,0.6,3,0.9,4.5c0.3-1.5,0.6-3,0.9-4.6c0.1-0.5,0.1-1,0.2-1.4c0.5,2.2,0.7,4.4,0.8,6.7   c0.1,2.3,0,4.7-0.1,7.1c-0.1,1.2-0.3,2.4-0.4,3.6l-0.6,3.6l1.5-3.3c0.4-1.1,0.9-2.3,1.3-3.4c0.7-2.1,1.4-4.1,1.9-6.3   C451.8,338.6,442,354.2,428.2,361.9z"/>
	<path class="st1" d="M207.8,240.1c-0.2-0.1-0.4-0.2-0.7-0.3c-0.7-0.2-1.6,0.1-1.7,0.9c-0.1,0.4,0.2,0.8,0.5,1.1   c3.5,1.7,6.9,3.8,10.1,6.1C213.6,245,210.9,242.3,207.8,240.1z"/>
	<path class="st1" d="M202.1,236.9c0,0-45.6-15.4-60.8,26.9c1.2-3.1,14.7-35.2,58.9-24.3c2.3,0.7,2.7-1.2,2.7-1.2   C203.2,237.2,202.1,236.9,202.1,236.9z"/>
	<path class="st1" d="M349.8,240.1c-0.2-0.1-0.4-0.2-0.7-0.3c-0.7-0.2-1.6,0.1-1.7,0.9c-0.1,0.4,0.2,0.8,0.5,1.1   c3.5,1.7,6.9,3.8,10.1,6.1C355.6,245,352.9,242.3,349.8,240.1z"/>
	<path class="st1" d="M344.1,236.9c0,0-45.6-15.4-60.8,26.9c1.2-3.1,14.7-35.2,58.9-24.3c2.3,0.7,2.7-1.2,2.7-1.2   C345.2,237.2,344.1,236.9,344.1,236.9z"/>
	<path class="st4" d="M173.2,326.9c-5-1.1-9.7-2.9-14-5.3c5,3.9,10.9,6.8,17.5,8.2c20.2,4.2,40-6.7,47.7-25.1   C214.1,321.7,193.8,331.2,173.2,326.9z"/>
	<path class="st4" d="M317.1,326.9c-5-1.1-9.7-2.9-14-5.3c5,3.9,10.9,6.8,17.5,8.2c20.2,4.2,40-6.7,47.7-25.1   C357.9,321.7,337.7,331.2,317.1,326.9z"/>
</g>
</svg>