<?xml version="1.0" encoding="UTF-8" standalone="no"?>
<!-- Generator: Adobe Illustrator 25.0.1, SVG Export Plug-In . SVG Version: 6.00 Build 0)  -->

<svg
   version="1.1"
   id="Laag_1"
   x="0px"
   y="0px"
   viewBox="0 0 490.81453 507.30001"
   xml:space="preserve"
   sodipodi:docname="0fb8c677957bf861f1c3b1d1d759b4b6.svg"
   width="490.81451"
   height="507.29999"
   xmlns:inkscape="http://www.inkscape.org/namespaces/inkscape"
   xmlns:sodipodi="http://sodipodi.sourceforge.net/DTD/sodipodi-0.dtd"
   xmlns="http://www.w3.org/2000/svg"
   xmlns:svg="http://www.w3.org/2000/svg"><defs
   id="defs448" /><sodipodi:namedview
   id="namedview446"
   pagecolor="#ffffff"
   bordercolor="#666666"
   borderopacity="1.0"
   inkscape:pageshadow="2"
   inkscape:pageopacity="0.0"
   inkscape:pagecheckerboard="0" />
<style
   type="text/css"
   id="style2">
	.st0{fill:#FF0819;}
	.st1{fill:#F6EEE1;}
	.st2{fill:#7E10FF;}
	.st3{fill:#FFB82E;}
	.st4{fill:#380083;}
	.st5{fill:#434343;}
	.st6{fill:#BA70E1;}
</style>
<g
   id="g443"
   transform="translate(-9.0093601,-39.7)">
	<g
   id="g8">
		<circle
   class="st0"
   cx="254.3"
   cy="324.89999"
   r="222.10001"
   id="circle4" />
		<path
   d="m 254.3,110.7 c 118.3,0 214.1,95.9 214.1,214.1 C 468.4,443 372.6,539 254.3,539 136,539 40.2,443.1 40.2,324.9 40.2,206.7 136,110.7 254.3,110.7 m 0,-7.9 c -59.3,0 -115.1,23.1 -157,65 -41.9,41.9 -65,97.7 -65,157 0,59.3 23.1,115.1 65,157 41.9,41.9 97.7,65 157,65 59.3,0 115.1,-23.1 157,-65 41.9,-41.9 65,-97.7 65,-157 0,-59.3 -23.1,-115.1 -65,-157 -41.9,-41.9 -97.7,-65 -157,-65 z"
   id="path6" />
	</g>
	<g
   id="g138">
		<path
   class="st1"
   d="m 210.8,127.2 v 0 c 0.2,0.7 -0.7,1.3 -0.4,2.3 l 2.6,10.6 0.6,-0.2 c 1.5,-0.4 1.1,-3 2.2,-3.3 l 0.4,-0.1 c 0.4,-0.1 0.7,0.1 0.7,0.5 l 0.3,3.1 c 0.1,0.5 -0.1,0.8 -0.6,0.9 l -10.8,2.6 c -0.5,0.1 -0.8,0 -0.9,-0.5 l -1.1,-2.9 c -0.2,-0.4 0,-0.7 0.4,-0.8 l 0.4,-0.1 c 1.1,-0.3 2,2.3 3.5,1.9 l 0.6,-0.2 -2.6,-10.6 c -0.2,-1 -1.3,-1.1 -1.4,-1.8 v -0.1 c -0.1,-0.3 0.1,-0.5 0.4,-0.6 l 5.1,-1.2 c 0.3,0.1 0.5,0.2 0.6,0.5 z"
   id="path10" />
		<path
   class="st1"
   d="m 198.3,130.3 v 0 c 0.2,0.7 -0.5,1.3 -0.2,2.3 l 3.2,9.6 c 0.3,1 1.3,1 1.5,1.7 v 0.1 c 0.1,0.3 -0.1,0.5 -0.4,0.6 l -4.9,1.7 c -0.3,0.1 -0.6,0 -0.7,-0.3 v -0.1 c -0.2,-0.6 0.6,-1.2 0.3,-2.2 l -1.3,-3.9 -4.6,1.6 1.3,3.9 c 0.3,1 1.3,1 1.5,1.7 v 0.1 c 0.1,0.3 0,0.5 -0.3,0.6 l -4.9,1.7 c -0.3,0.1 -0.6,0 -0.7,-0.3 V 149 c -0.2,-0.6 0.6,-1.3 0.3,-2.2 l -3.2,-9.6 c -0.3,-1 -1.4,-1 -1.6,-1.6 v -0.1 c -0.1,-0.3 0.1,-0.5 0.4,-0.6 l 4.9,-1.7 c 0.3,-0.1 0.5,0 0.6,0.3 v 0.1 c 0.2,0.6 -0.5,1.2 -0.2,2.2 l 1.3,3.9 4.6,-1.6 -1.3,-4 c -0.3,-1 -1.4,-1 -1.6,-1.6 v -0.1 c -0.1,-0.3 0.1,-0.5 0.4,-0.6 l 4.9,-1.7 c 0.4,-0.2 0.6,-0.1 0.7,0.2 z"
   id="path12" />
		<path
   class="st1"
   d="m 180.3,136.6 v 0 c 0.3,0.7 -0.4,1.3 0,2.3 l 4,9.2 c 0.4,1 1.4,0.9 1.6,1.5 v 0.1 c 0.1,0.3 0,0.5 -0.3,0.6 l -9.2,4 c -0.5,0.2 -0.7,0.1 -1,-0.3 l -1.6,-2.4 c -0.2,-0.3 -0.1,-0.7 0.3,-0.9 l 0.1,-0.1 c 1.2,-0.5 2.8,1.6 4.3,1 l 1.1,-0.5 c 0.5,-0.2 0.9,-0.7 0.5,-1.5 l -1.6,-3.6 -1.7,0.7 c -1.1,0.5 -0.5,2.2 -1.1,2.5 l -0.2,0.1 c -0.3,0.1 -0.5,0 -0.6,-0.3 l -1.7,-3.8 c -0.1,-0.3 -0.1,-0.6 0.2,-0.7 l 0.2,-0.1 c 0.6,-0.3 1.4,1.3 2.6,0.8 l 1.7,-0.7 -1.4,-3.2 c -0.3,-0.7 -1,-1.4 -2,-1 l -1.4,0.6 c -1.5,0.7 -0.7,3.3 -2,3.9 l -0.2,0.1 c -0.4,0.2 -0.7,-0.2 -0.8,-0.4 l -0.8,-2.9 c -0.1,-0.5 0,-0.8 0.4,-1 l 9.7,-4.2 c 0.5,-0.1 0.7,-0.1 0.9,0.2 z"
   id="path14" />
		<path
   class="st1"
   d="m 165.1,151.4 c 2.4,4.3 0.6,8.6 -2.4,10.4 -3.2,1.8 -6.4,1.8 -7.5,-0.3 -0.6,-1 -0.3,-2.1 0.7,-2.7 2.7,-1.5 5.2,1.9 6.9,0.9 1.1,-0.6 1,-2.1 0.1,-3.7 -2.1,-3.6 -5.6,-5.7 -7.8,-4.5 -0.3,0.1 -0.4,0.3 -0.5,0.4 l 1.2,2.2 c 0.5,0.9 1.7,0.6 2,1.2 v 0.1 c 0.1,0.2 0,0.5 -0.3,0.7 l -4.4,2.5 c -0.3,0.2 -0.6,0.1 -0.7,-0.1 v -0.1 c -0.3,-0.6 0.4,-1.3 -0.2,-2.3 l -1.1,-2 c -0.3,-0.6 -0.4,-1.1 0,-2 0.4,-1.1 1.4,-2.6 3.3,-3.7 4.2,-2.3 8.8,-0.5 10.7,3 z"
   id="path16" />
		<path
   class="st1"
   d="m 134.3,162.4 v 0 c -0.2,-0.3 -0.1,-0.6 0.1,-0.7 l 4.8,-3.3 c 0.3,-0.2 0.5,-0.2 0.7,0.1 v 0.1 c 0.4,0.5 -0.4,1.4 0.7,2 l 3,1.7 1.3,-1 -1.7,-2.5 c -0.6,-0.9 -1.6,-0.6 -2,-1.1 v -0.1 c -0.2,-0.2 -0.1,-0.5 0.2,-0.7 l 4.3,-3 c 0.3,-0.2 0.5,-0.2 0.7,0.1 v 0.1 c 0.4,0.5 -0.2,1.3 0.4,2.2 l 5.7,8.3 c 0.6,0.9 1.5,0.6 1.9,1.2 v 0.1 c 0.2,0.2 0.1,0.5 -0.2,0.7 l -5.1,3.5 c -3.3,2.3 -6.3,2.3 -8.1,-0.3 -0.8,-1.2 -1.1,-3 -0.2,-4.7 l -4.1,-1.8 c -1.2,-0.8 -2.1,-0.3 -2.4,-0.9 z m 10.4,1.1 -0.4,0.2 c -0.6,0.4 -0.7,1.3 0.4,2.9 1.2,1.8 3.1,2.3 3.9,1.7 l 0.1,-0.1 c 0.4,-0.3 0.4,-0.9 0,-1.5 l -1.8,-2.7 c -0.7,-1 -1.4,-1.1 -2.2,-0.5 z"
   id="path18" />
		<path
   class="st1"
   d="m 132.3,163.9 v 0 c 0.5,0.6 0,1.4 0.7,2.2 l 6.4,7.8 c 0.7,0.8 1.6,0.5 2,1 l 0.1,0.1 c 0.2,0.2 0.1,0.5 -0.1,0.7 l -7.8,6.3 c -0.4,0.3 -0.7,0.3 -1.1,0 l -2.2,-1.9 c -0.3,-0.3 -0.3,-0.6 0,-0.9 l 0.1,-0.1 c 1,-0.8 3.2,0.8 4.4,-0.2 l 0.9,-0.8 c 0.4,-0.4 0.7,-0.9 0.1,-1.5 l -2.5,-3 -1.4,1.2 c -1,0.8 0.1,2.3 -0.4,2.7 l -0.2,0.1 c -0.2,0.2 -0.5,0.1 -0.7,-0.1 l -2.6,-3.2 c -0.2,-0.2 -0.2,-0.5 0,-0.7 l 0.2,-0.1 c 0.5,-0.4 1.7,0.8 2.7,0.1 l 1.4,-1.2 -2.2,-2.7 c -0.5,-0.6 -1.3,-1.1 -2.2,-0.4 l -1.2,1 c -1.3,1 0.2,3.4 -0.9,4.3 l -0.2,0.1 c -0.3,0.2 -0.7,0 -0.8,-0.2 l -1.5,-2.6 c -0.3,-0.5 -0.3,-0.8 0.1,-1.1 l 8.2,-6.7 c 0.2,-0.4 0.5,-0.4 0.7,-0.2 z"
   id="path20" />
		<path
   class="st1"
   d="m 109.8,184 v 0 c -0.3,-0.3 -0.2,-0.5 0,-0.8 l 4.5,-4.3 c 0.2,-0.2 0.5,-0.2 0.7,0 l 0.1,0.1 c 0.5,0.5 -0.3,1.6 0.7,2.2 l 0.9,0.5 3.6,-3.5 -0.4,-1 c -0.5,-1 -1.7,-0.3 -2.1,-0.8 l -0.1,-0.1 c -0.2,-0.2 -0.2,-0.5 0.1,-0.7 l 2.5,-2.4 c 0.2,-0.2 0.5,-0.2 0.7,0 l 0.1,0.1 c 0.5,0.5 -0.1,1.2 0.5,2.4 l 4.1,9.8 c 0.4,0.9 1.7,0.6 2.1,1.1 l 0.1,0.1 c 0.2,0.2 0.2,0.5 -0.1,0.7 l -2.3,2.2 c -0.6,0.5 -1.2,0.6 -1.9,0.3 l -11.4,-5.1 c -1.3,-0.8 -2,-0.3 -2.4,-0.8 z m 8.6,-1.6 5.1,2.6 -2.4,-5.3 z"
   id="path22" />
		<path
   class="st1"
   d="m 107.2,186.7 v 0 c 0.6,0.5 0.2,1.4 0.9,2.1 l 8.1,7.3 0.4,-0.5 c 1,-1.1 -0.8,-3.1 0,-4 l 0.3,-0.3 c 0.3,-0.3 0.6,-0.3 0.9,0 l 2,2.4 c 0.3,0.4 0.3,0.7 0,1.1 l -7.5,8.2 c -0.3,0.4 -0.6,0.4 -1.1,0.1 l -2.6,-1.8 c -0.3,-0.2 -0.4,-0.6 -0.1,-0.9 l 0.3,-0.3 c 0.7,-0.8 2.9,0.8 3.9,-0.4 l 0.4,-0.5 -8.1,-7.3 c -0.8,-0.7 -1.7,-0.2 -2.2,-0.7 l -0.1,-0.1 c -0.2,-0.2 -0.2,-0.5 0,-0.7 l 3.5,-3.9 c 0.6,0.1 0.8,0 1,0.2 z"
   id="path24" />
		<path
   class="st1"
   d="m 98.8,196.3 v 0 c 0.6,0.5 0.3,1.4 1.1,2 l 8,6.2 c 0.8,0.6 1.6,0.1 2.2,0.6 l 0.1,0.1 c 0.2,0.2 0.2,0.4 0,0.7 l -6.1,7.9 c -0.3,0.4 -0.6,0.4 -1,0.2 l -2.6,-1.4 c -0.4,-0.2 -0.4,-0.6 -0.2,-0.9 l 0.1,-0.1 c 0.8,-1.1 3.2,0 4.2,-1.2 l 0.7,-1 c 0.3,-0.4 0.5,-1 -0.2,-1.5 l -3.1,-2.4 -1.1,1.4 c -0.8,1 0.6,2.2 0.2,2.7 l -0.1,0.2 c -0.2,0.2 -0.4,0.2 -0.7,0 L 97,207.2 c -0.3,-0.2 -0.3,-0.5 -0.1,-0.7 l 0.1,-0.2 c 0.4,-0.5 1.9,0.4 2.6,-0.5 l 1.1,-1.4 -2.8,-2.2 c -0.6,-0.5 -1.6,-0.8 -2.2,0.1 l -0.9,1.2 c -1,1.3 1,3.2 0.1,4.4 l -0.1,0.2 c -0.2,0.3 -0.7,0.2 -0.9,0 l -2.1,-2.2 c -0.4,-0.4 -0.4,-0.7 -0.1,-1.1 l 6.5,-8.3 c 0.1,-0.3 0.3,-0.4 0.6,-0.2 z"
   id="path26" />
		<path
   class="st1"
   d="m 92.3,210.1 c 0.9,0.6 1.2,1.4 0.5,2.4 -1.4,2.1 -4.6,-0.5 -6.2,2 -0.6,0.9 -0.5,1.7 0.3,2.2 3.2,2.1 5.9,-6 11.1,-2.6 2.4,1.6 2.7,4.6 0.7,7.6 -1.9,2.9 -5,4.3 -6.8,3.1 -0.9,-0.6 -1.1,-1.5 -0.5,-2.5 1.6,-2.4 4.7,0.4 6,-1.5 0.6,-0.9 0.3,-1.7 -0.4,-2.2 -3.8,-2.5 -6.3,5.7 -11.2,2.4 -2.4,-1.6 -2.2,-4.8 -0.5,-7.5 2.2,-3.2 5.3,-4.5 7,-3.4 z"
   id="path28" />
		<path
   class="st1"
   d="m 79.6,224 v 0 c 0.7,0.4 0.5,1.3 1.4,1.9 l 9.5,5.3 0.3,-0.6 c 0.7,-1.4 -1.4,-2.9 -0.9,-3.9 l 0.2,-0.4 c 0.2,-0.4 0.5,-0.5 0.9,-0.2 l 2.5,1.9 c 0.4,0.3 0.5,0.6 0.2,1 l -5.4,9.7 c -0.3,0.5 -0.5,0.5 -1,0.4 L 84.4,238 c -0.4,-0.1 -0.5,-0.5 -0.3,-0.8 l 0.2,-0.4 c 0.5,-1 3,0.1 3.8,-1.3 l 0.3,-0.6 -9.5,-5.3 c -0.9,-0.5 -1.7,0.2 -2.3,-0.1 h -0.1 c -0.2,-0.1 -0.3,-0.4 -0.1,-0.7 l 2.5,-4.6 c 0.2,-0.2 0.5,-0.3 0.7,-0.2 z"
   id="path30" />
		<path
   class="st1"
   d="m 74.5,240.8 c 0.9,0.4 1.4,1.1 0.9,2.3 -1,2.3 -4.6,0.4 -5.7,3 -0.4,1 -0.2,1.7 0.7,2.1 3.6,1.5 4.7,-6.9 10.5,-4.5 2.6,1.1 3.4,4.1 2,7.3 -1.4,3.2 -4.2,5.1 -6.1,4.3 -1,-0.4 -1.4,-1.2 -0.9,-2.4 1.1,-2.6 4.7,-0.5 5.6,-2.6 0.4,-1 0,-1.8 -0.8,-2.1 -4.2,-1.8 -5.1,6.7 -10.5,4.4 -2.7,-1.1 -3.1,-4.3 -1.8,-7.3 1.4,-3.5 4.2,-5.3 6.1,-4.5 z"
   id="path32" />
		<path
   class="st1"
   d="m 65.3,254.2 v 0 c 0.7,0.2 0.7,1.2 1.7,1.5 l 9.6,3.2 c 1,0.3 1.6,-0.4 2.2,-0.2 h 0.1 c 0.3,0.1 0.4,0.3 0.3,0.7 l -1.6,5 c -0.1,0.3 -0.3,0.5 -0.6,0.4 h -0.1 c -0.6,-0.2 -0.6,-1.2 -1.6,-1.6 l -3.9,-1.3 -1.5,4.6 3.9,1.3 c 1,0.3 1.6,-0.4 2.2,-0.2 h 0.1 c 0.3,0.1 0.4,0.3 0.3,0.6 l -1.6,5 c -0.1,0.3 -0.3,0.5 -0.6,0.4 h -0.1 c -0.6,-0.2 -0.6,-1.2 -1.6,-1.6 l -9.6,-3.2 c -1,-0.3 -1.6,0.5 -2.2,0.3 h -0.1 c -0.3,-0.1 -0.4,-0.3 -0.3,-0.7 l 1.6,-5 c 0.1,-0.3 0.3,-0.4 0.6,-0.3 h 0.1 c 0.6,0.2 0.7,1.1 1.7,1.5 l 4,1.3 1.5,-4.6 -3.9,-1.3 c -1,-0.3 -1.6,0.5 -2.2,0.3 h -0.1 c -0.3,-0.1 -0.4,-0.3 -0.3,-0.7 l 1.6,-5 c -0.1,-0.3 0.1,-0.5 0.4,-0.4 z"
   id="path34" />
		<path
   class="st1"
   d="m 66.5,273.6 c 4.6,1.1 7.1,4.7 6,9.2 -0.9,3.9 -4.8,6.7 -9.4,5.6 -4.6,-1.1 -6.8,-5.1 -5.8,-9.2 0.8,-3.7 4.5,-6.7 9.2,-5.6 z m -5.8,9.6 c 3.2,0.7 9.9,-0.2 10.4,-2.4 0.3,-1.1 -0.4,-1.9 -2,-2.2 -3.7,-0.9 -9.9,0.2 -10.4,2.3 -0.3,1.2 0.4,1.9 2,2.3 z"
   id="path36" />
		<path
   class="st1"
   d="m 67.2,312.4 v 0 c -0.7,-0.1 -0.8,-1 -1.9,-1.6 l -10.9,-5.4 c -0.8,-0.4 -1.1,-1 -1,-1.7 0.1,-0.8 0.5,-1.3 1.3,-1.4 l 7.2,-1.3 -6.6,-3.1 c -0.8,-0.4 -1.1,-0.9 -1,-1.6 0.1,-0.9 0.5,-1.2 1.3,-1.4 l 12.1,-3.5 c 1.2,-0.4 1.5,-1.3 2.2,-1.2 H 70 c 0.3,0 0.4,0.3 0.4,0.6 l -0.7,5.8 c 0,0.3 -0.2,0.5 -0.5,0.5 H 69.1 C 68.4,297 68.3,295.8 67.2,296 l -7.6,1.8 5.6,2.6 1.4,-0.3 c 1,-0.2 1.6,-1.3 2.2,-1.2 h 0.1 c 0.3,0 0.4,0.3 0.4,0.6 l -0.7,5.7 c 0,0.3 -0.2,0.5 -0.5,0.5 H 68 c -0.7,-0.1 -0.6,-1.4 -1.9,-1.3 l -7.4,1 6.8,3.2 c 1,0.5 1.5,-0.7 2.1,-0.7 h 0.1 c 0.3,0 0.4,0.3 0.4,0.6 l -0.4,3.5 c -0.1,0.2 -0.3,0.4 -0.5,0.4 z"
   id="path38" />
		<path
   class="st1"
   d="m 59.7,317.9 c 4.7,-0.1 8,2.9 8.1,7.4 0.1,4 -3.1,7.7 -7.8,7.7 -4.8,0.1 -7.8,-3.3 -7.8,-7.5 -0.2,-3.8 2.7,-7.5 7.5,-7.6 z m -3.4,10.7 c 3.2,-0.1 9.6,-2.6 9.6,-4.8 0,-1.2 -0.8,-1.7 -2.5,-1.7 -3.8,0.1 -9.5,2.6 -9.5,4.8 0,1.2 0.8,1.7 2.4,1.7 z"
   id="path40" />
		<path
   class="st1"
   d="m 68.5,349.9 v 0 c -0.7,0.1 -1.2,-0.9 -2.2,-0.8 l -11.5,1 c -0.7,0.1 -1.1,-0.3 -1.2,-1 l -0.1,-1.4 c -0.1,-0.6 0.2,-0.9 0.6,-1.3 l 8.8,-8.1 -7.7,0.7 c -1,0.1 -1.3,1.2 -1.9,1.2 h -0.1 c -0.3,0 -0.5,-0.2 -0.5,-0.5 l -0.3,-3 c 0,-0.3 0.1,-0.5 0.4,-0.6 h 0.1 c 0.7,-0.1 1.1,0.8 2.1,0.7 l 10,-0.9 c 1,-0.1 1.3,-1 2,-1.1 h 0.1 c 0.3,0 0.5,0.2 0.5,0.5 l 0.3,3.6 c 0.1,0.6 -0.2,0.9 -0.6,1.3 l -8.4,7.2 7.1,-0.6 c 1,-0.1 1.3,-1.1 1.9,-1.1 H 68 c 0.3,0 0.5,0.2 0.5,0.5 l 0.3,3 c 0.2,0.4 0,0.7 -0.3,0.7 z"
   id="path42" />
		<path
   class="st1"
   d="m 55.6,359.8 v 0 c 0.7,-0.1 1.2,0.6 2.3,0.4 l 9.9,-2 c 1,-0.2 1.2,-1.1 1.8,-1.3 h 0.1 c 0.3,-0.1 0.5,0.1 0.5,0.4 l 2,9.8 c 0.1,0.5 0,0.7 -0.5,0.9 l -2.7,1.1 c -0.4,0.1 -0.7,-0.1 -0.8,-0.5 v -0.1 c -0.3,-1.3 2.2,-2.4 1.8,-4 l -0.2,-1.2 c -0.1,-0.5 -0.5,-1 -1.3,-0.8 l -3.8,0.8 0.4,1.8 c 0.2,1.2 2.1,1 2.2,1.6 v 0.2 c 0.1,0.3 -0.1,0.5 -0.4,0.5 l -4.1,0.8 c -0.3,0.1 -0.6,-0.1 -0.6,-0.3 v -0.2 c -0.1,-0.7 1.5,-1.1 1.3,-2.3 l -0.4,-1.8 -3.4,0.7 c -0.8,0.2 -1.6,0.7 -1.4,1.7 l 0.3,1.5 c 0.3,1.6 3.1,1.4 3.4,2.8 v 0.2 c 0.1,0.4 -0.3,0.6 -0.6,0.6 l -3,0.1 c -0.5,0 -0.8,-0.1 -0.9,-0.6 l -2.1,-10.3 c -0.2,-0.2 -0.1,-0.5 0.2,-0.5 z"
   id="path44" />
		<path
   class="st1"
   d="m 62.9,389 v 0 c -0.3,0.1 -0.6,-0.1 -0.7,-0.4 l -1.7,-6 c -0.1,-0.3 0,-0.6 0.3,-0.6 h 0.1 c 0.6,-0.2 1.3,1 2.2,0.4 l 0.9,-0.6 -1.4,-4.8 -1,-0.1 c -1.1,-0.1 -1,1.3 -1.7,1.5 h -0.1 c -0.3,0.1 -0.5,-0.1 -0.6,-0.4 l -1,-3.4 c -0.1,-0.3 0,-0.6 0.3,-0.6 h 0.1 c 0.6,-0.2 1,0.6 2.3,0.7 l 10.6,0.9 c 1,0.1 1.4,-1.2 1.9,-1.4 h 0.1 c 0.3,-0.1 0.5,0.1 0.6,0.4 l 0.9,3.1 c 0.2,0.8 0,1.3 -0.6,1.8 l -9.8,7.7 c -1.1,0.8 -1,1.7 -1.7,1.8 z m 2.7,-8.3 4.7,-3.3 -5.8,-0.3 z"
   id="path46" />
		<path
   class="st1"
   d="m 69.1,405.2 v 0 c -0.3,0.1 -0.6,0 -0.7,-0.3 l -2.1,-5.4 c -0.1,-0.3 0,-0.6 0.2,-0.7 h 0.1 c 0.6,-0.2 1.2,0.7 2.1,-0.2 l 2.4,-2.5 -0.6,-1.5 -2.8,1.1 c -1,0.4 -0.9,1.4 -1.5,1.7 h -0.1 c -0.3,0.1 -0.5,0 -0.6,-0.3 l -1.9,-4.9 c -0.1,-0.3 0,-0.6 0.2,-0.7 h 0.1 c 0.6,-0.2 1.2,0.5 2.2,0.1 l 9.4,-3.6 c 1,-0.4 1,-1.3 1.6,-1.6 h 0.1 c 0.3,-0.1 0.5,0 0.6,0.3 l 2.2,5.7 c 1.4,3.7 0.8,6.7 -2.2,7.8 -1.4,0.5 -3.2,0.4 -4.6,-0.9 l -2.7,3.6 c -1,1.2 -0.8,2.1 -1.4,2.3 z m 3.4,-9.9 0.2,0.4 c 0.2,0.6 1.1,1 2.9,0.3 2,-0.8 3,-2.5 2.6,-3.4 v -0.1 C 78,392 77.4,391.9 76.8,392.1 l -3,1.2 c -1.4,0.5 -1.6,1.1 -1.3,2 z"
   id="path48" />
		<path
   class="st1"
   d="m 71.1,409.7 v 0 c 0.7,-0.3 1.4,0.4 2.3,-0.1 l 9.8,-4.7 -0.3,-0.6 c -0.7,-1.4 -3.2,-0.5 -3.7,-1.5 L 79,402.4 c -0.2,-0.4 -0.1,-0.7 0.3,-0.8 l 3,-0.9 c 0.5,-0.2 0.8,-0.1 1,0.4 l 4.8,10 c 0.2,0.5 0.1,0.7 -0.3,1 l -2.6,1.7 c -0.3,0.2 -0.7,0.1 -0.9,-0.3 l -0.2,-0.4 c -0.5,-1 1.8,-2.4 1.1,-3.8 l -0.3,-0.6 -9.8,4.7 c -0.9,0.5 -0.8,1.5 -1.4,1.8 h -0.1 c -0.3,0.1 -0.5,0 -0.6,-0.3 l -2.3,-4.7 c 0.1,-0.2 0.2,-0.4 0.4,-0.5 z"
   id="path50" />
		<path
   class="st1"
   d="m 91.2,444.1 v 0 c 0.6,-0.5 1.4,0.1 2.3,-0.5 l 8.7,-6.5 -0.4,-0.5 c -0.9,-1.2 -3.2,0.1 -3.9,-0.8 l -0.2,-0.3 c -0.2,-0.3 -0.2,-0.7 0.2,-0.9 l 2.7,-1.5 c 0.5,-0.3 0.7,-0.2 1,0.2 l 6.7,8.9 c 0.3,0.4 0.3,0.7 -0.1,1.1 l -2.2,2.2 c -0.3,0.3 -0.6,0.2 -0.9,-0.1 l -0.2,-0.3 c -0.7,-0.9 1.3,-2.7 0.4,-3.9 l -0.4,-0.5 -8.7,6.5 c -0.8,0.6 -0.5,1.6 -1.1,2 l -0.1,0.1 c -0.2,0.2 -0.5,0.1 -0.7,-0.2 l -3.1,-4.2 c -0.2,-0.4 -0.2,-0.6 0,-0.8 z"
   id="path52" />
		<path
   class="st1"
   d="m 99,454.3 v 0 c 0.6,-0.5 1.4,-0.1 2.2,-0.8 l 7.5,-6.7 c 0.8,-0.7 0.4,-1.6 0.9,-2 l 0.1,-0.1 c 0.2,-0.2 0.5,-0.1 0.7,0.1 l 3.5,3.9 c 0.2,0.2 0.2,0.5 0,0.7 l -0.1,0.1 c -0.5,0.4 -1.4,-0.1 -2.2,0.6 l -3,2.7 3.3,3.7 3.1,-2.7 c 0.8,-0.7 0.5,-1.6 0.9,-2 l 0.1,-0.1 c 0.2,-0.2 0.5,-0.2 0.7,0.1 l 3.5,3.9 c 0.2,0.2 0.2,0.5 0,0.7 l -0.1,0.1 c -0.5,0.4 -1.4,-0.1 -2.2,0.6 l -7.5,6.7 c -0.8,0.7 -0.4,1.7 -0.9,2.1 l -0.1,0.1 c -0.2,0.2 -0.5,0.1 -0.7,-0.1 l -3.5,-3.9 c -0.2,-0.2 -0.2,-0.5 0,-0.7 l 0.1,-0.1 c 0.5,-0.4 1.3,0 2.1,-0.7 l 3.1,-2.8 -3.3,-3.7 -3.1,2.8 c -0.8,0.7 -0.4,1.7 -0.9,2.1 l -0.1,0.1 c -0.2,0.2 -0.5,0.1 -0.7,-0.1 L 99,455 c -0.2,-0.2 -0.2,-0.5 0,-0.7 z"
   id="path54" />
		<path
   class="st1"
   d="m 111.9,468.4 v 0 c 0.5,-0.5 1.4,-0.2 2.1,-0.9 l 6.9,-7.3 c 0.7,-0.8 0.3,-1.6 0.8,-2.1 l 0.1,-0.1 c 0.2,-0.2 0.5,-0.2 0.7,0 l 7.3,6.9 c 0.4,0.4 0.4,0.6 0.1,1.1 l -1.6,2.4 c -0.2,0.3 -0.6,0.4 -0.9,0.1 l -0.1,-0.1 c -1,-0.9 0.4,-3.2 -0.8,-4.3 l -0.9,-0.8 c -0.4,-0.4 -1,-0.5 -1.5,0.1 l -2.7,2.8 1.3,1.3 c 0.9,0.9 2.3,-0.4 2.7,0.1 l 0.2,0.1 c 0.2,0.2 0.2,0.5 0,0.7 l -2.9,3 c -0.2,0.2 -0.5,0.3 -0.7,0.1 l -0.2,-0.1 c -0.5,-0.5 0.6,-1.8 -0.3,-2.7 l -1.3,-1.3 -2.4,2.6 c -0.5,0.6 -0.9,1.5 -0.2,2.2 l 1.1,1.1 c 1.2,1.1 3.3,-0.7 4.4,0.3 l 0.2,0.1 c 0.3,0.3 0.1,0.7 -0.1,0.9 l -2.4,1.8 c -0.4,0.3 -0.7,0.4 -1.1,0 l -7.7,-7.2 c -0.3,-0.3 -0.3,-0.6 -0.1,-0.8 z"
   id="path56" />
		<path
   class="st1"
   d="m 131.5,476.6 c 3,-3.9 7.7,-4 10.5,-1.8 2.9,2.2 4.1,5.2 2.7,7 -0.7,0.9 -1.8,1.1 -2.7,0.4 -2.4,-1.9 -0.2,-5.5 -1.9,-6.7 -1,-0.7 -2.4,-0.1 -3.5,1.4 -2.5,3.3 -3.1,7.4 -1,8.9 0.2,0.2 0.4,0.3 0.6,0.3 l 1.5,-2 c 0.6,-0.8 -0.1,-1.8 0.3,-2.3 l 0.1,-0.1 c 0.2,-0.2 0.5,-0.2 0.8,0 l 4,3.1 c 0.3,0.2 0.3,0.5 0.2,0.7 l -0.1,0.1 c -0.4,0.5 -1.4,0.2 -2,1 l -1.4,1.8 c -0.4,0.5 -0.8,0.8 -1.9,0.8 -1.1,0 -2.9,-0.3 -4.7,-1.6 -3.8,-2.9 -4,-7.9 -1.5,-11 z"
   id="path58" />
		<path
   class="st1"
   d="m 153.7,500.6 v 0 c -0.2,0.3 -0.5,0.3 -0.7,0.2 l -4.9,-3.1 c -0.3,-0.2 -0.4,-0.4 -0.2,-0.7 v -0.1 c 0.4,-0.6 1.4,-0.2 1.6,-1.4 l 0.4,-3.4 -1.4,-0.8 -1.6,2.6 c -0.6,0.9 0.1,1.7 -0.3,2.3 v 0.1 c -0.2,0.2 -0.4,0.3 -0.7,0.1 l -4.4,-2.8 c -0.3,-0.2 -0.4,-0.4 -0.2,-0.7 v -0.1 c 0.4,-0.6 1.3,-0.4 1.8,-1.2 l 5.4,-8.5 c 0.6,-0.9 0,-1.6 0.4,-2.2 v -0.1 c 0.1,-0.2 0.4,-0.3 0.7,-0.1 l 5.2,3.3 c 3.4,2.1 4.6,4.9 2.9,7.6 -0.8,1.2 -2.3,2.2 -4.2,2 v 4.5 c -0.2,1.4 0.5,2 0.2,2.5 z m -3.1,-10 0.4,0.2 c 0.6,0.4 1.5,0.1 2.5,-1.5 1.2,-1.8 0.9,-3.7 0.1,-4.3 l -0.1,-0.1 c -0.5,-0.3 -1,0 -1.4,0.5 l -1.7,2.7 c -0.8,1.3 -0.7,2 0.2,2.5 z"
   id="path60" />
		<path
   class="st1"
   d="m 155.8,501.9 v 0 c 0.4,-0.7 1.3,-0.5 1.8,-1.5 l 4.7,-8.9 c 0.5,-0.9 -0.1,-1.6 0.2,-2.2 v -0.1 c 0.1,-0.2 0.4,-0.3 0.7,-0.1 l 8.8,4.7 c 0.5,0.2 0.5,0.5 0.4,1 l -0.9,2.8 c -0.1,0.4 -0.5,0.5 -0.8,0.3 l -0.1,-0.1 c -1.2,-0.6 -0.5,-3.2 -2,-4 l -1.1,-0.6 c -0.5,-0.3 -1.1,-0.3 -1.5,0.5 l -1.8,3.5 1.6,0.9 c 1.1,0.6 2.1,-1 2.7,-0.7 l 0.2,0.1 c 0.2,0.1 0.3,0.4 0.1,0.7 l -2,3.7 c -0.2,0.3 -0.4,0.4 -0.7,0.3 l -0.2,-0.1 c -0.6,-0.3 0.1,-1.9 -1,-2.5 l -1.6,-0.9 -1.6,3.1 c -0.4,0.7 -0.5,1.7 0.4,2.2 l 1.4,0.7 c 1.4,0.8 3,-1.5 4.3,-0.9 l 0.2,0.1 c 0.3,0.2 0.3,0.6 0.1,0.9 l -1.8,2.4 c -0.3,0.4 -0.6,0.5 -1.1,0.3 l -9.3,-4.9 c -0.1,-0.2 -0.2,-0.5 -0.1,-0.7 z"
   id="path62" />
		<path
   class="st1"
   d="m 183.1,514.7 v 0 c -0.1,0.3 -0.4,0.4 -0.7,0.3 l -5.7,-2.5 c -0.3,-0.1 -0.4,-0.4 -0.3,-0.6 v -0.1 c 0.3,-0.6 1.6,-0.4 1.7,-1.5 l 0.1,-1 -4.6,-2 -0.7,0.8 c -0.7,0.8 0.4,1.6 0.1,2.3 v 0.1 c -0.1,0.3 -0.4,0.3 -0.7,0.2 l -3.2,-1.4 c -0.3,-0.1 -0.4,-0.4 -0.3,-0.6 v -0.1 c 0.3,-0.6 1.1,-0.4 2,-1.4 l 7.4,-7.6 c 0.7,-0.7 -0.1,-1.9 0.1,-2.4 v -0.1 c 0.1,-0.3 0.4,-0.3 0.7,-0.2 l 2.9,1.2 c 0.7,0.3 1,0.8 1,1.6 l -0.2,12.5 c 0,1.4 0.7,1.9 0.4,2.5 z m -4.8,-7.3 0.4,-5.7 -3.9,4.2 z"
   id="path64" />
		<path
   class="st1"
   d="m 186.7,516 v 0 c 0.2,-0.7 1.2,-0.7 1.6,-1.7 l 3.5,-10.3 -0.6,-0.2 c -1.5,-0.5 -2.6,1.9 -3.6,1.6 l -0.4,-0.1 c -0.4,-0.1 -0.5,-0.5 -0.4,-0.8 l 1.4,-2.8 c 0.2,-0.5 0.5,-0.6 1,-0.4 l 10.5,3.6 c 0.5,0.2 0.6,0.4 0.5,0.9 l -0.6,3.1 c -0.1,0.4 -0.4,0.6 -0.8,0.4 l -0.4,-0.1 c -1.1,-0.4 -0.5,-3 -1.9,-3.5 l -0.6,-0.2 -3.5,10.3 c -0.3,1 0.5,1.6 0.2,2.2 v 0.1 c -0.1,0.3 -0.3,0.4 -0.7,0.3 l -5,-1.7 c -0.2,-0.2 -0.3,-0.4 -0.2,-0.7 z"
   id="path66" />
		<path
   class="st1"
   d="m 198.7,520 v 0 c 0.2,-0.7 1.1,-0.8 1.4,-1.8 l 2.5,-9.8 c 0.3,-1 -0.5,-1.5 -0.3,-2.2 v -0.1 c 0.1,-0.3 0.3,-0.4 0.6,-0.3 l 9.7,2.5 c 0.5,0.1 0.6,0.4 0.6,0.9 l -0.2,2.9 c 0,0.4 -0.4,0.6 -0.7,0.5 h -0.1 c -1.3,-0.3 -1.2,-3 -2.8,-3.4 l -1.2,-0.3 c -0.5,-0.1 -1.1,0 -1.3,0.8 l -1,3.8 1.8,0.5 c 1.2,0.3 1.8,-1.4 2.4,-1.3 l 0.2,0.1 c 0.3,0.1 0.4,0.3 0.3,0.6 l -1,4 c -0.1,0.3 -0.3,0.5 -0.6,0.4 l -0.2,-0.1 c -0.6,-0.2 -0.3,-1.9 -1.5,-2.2 l -1.8,-0.5 -0.9,3.4 c -0.2,0.7 -0.1,1.7 0.9,2 l 1.5,0.4 c 1.6,0.4 2.6,-2.2 4,-1.8 l 0.2,0.1 c 0.4,0.1 0.4,0.5 0.3,0.8 l -1.2,2.7 c -0.2,0.5 -0.5,0.7 -1,0.5 l -10.2,-2.6 c -0.3,0 -0.4,-0.2 -0.4,-0.5 z"
   id="path68" />
		<path
   class="st1"
   d="m 214,520.5 c 0.2,-1 0.8,-1.6 2,-1.4 2.4,0.4 1.4,4.4 4.3,4.9 1,0.2 1.7,-0.2 1.9,-1.1 0.7,-3.8 -7.8,-3 -6.7,-9.2 0.5,-2.8 3.2,-4.3 6.7,-3.7 3.4,0.6 5.9,2.9 5.5,5 -0.2,1 -0.9,1.6 -2.1,1.4 -2.8,-0.5 -1.5,-4.5 -3.8,-4.9 -1.1,-0.2 -1.7,0.4 -1.9,1.3 -0.8,4.5 7.7,3.5 6.7,9.3 -0.5,2.9 -3.5,4 -6.7,3.4 -3.8,-0.7 -6.2,-3 -5.9,-5 z"
   id="path70" />
		<path
   class="st1"
   d="m 231.9,526.6 v 0 c 0.1,-0.7 1,-1 1.2,-2 l 1.1,-10.8 -0.6,-0.1 c -1.5,-0.2 -2.1,2.5 -3.2,2.4 H 230 c -0.4,0 -0.6,-0.3 -0.5,-0.7 l 0.7,-3 c 0.1,-0.5 0.3,-0.7 0.9,-0.6 l 11.1,1.1 c 0.5,0.1 0.7,0.3 0.7,0.8 l 0.1,3.1 c 0,0.4 -0.3,0.6 -0.7,0.6 h -0.4 c -1.1,-0.1 -1.1,-2.8 -2.7,-2.9 l -0.6,-0.1 -1.1,10.8 c -0.1,1 0.8,1.5 0.8,2.1 v 0.1 c 0,0.3 -0.3,0.4 -0.6,0.4 l -5.2,-0.5 c -0.5,-0.2 -0.6,-0.4 -0.6,-0.7 z"
   id="path72" />
		<path
   class="st1"
   d="m 249.3,524.8 c 0,-1 0.5,-1.7 1.7,-1.7 2.5,0 2.2,4 5.1,4 1,0 1.7,-0.6 1.6,-1.5 -0.1,-3.9 -8.2,-1.5 -8.4,-7.7 0,-2.9 2.3,-4.8 5.9,-4.9 3.5,-0.1 6.4,1.7 6.4,3.8 0,1.1 -0.6,1.8 -1.8,1.8 -2.9,0 -2.3,-4.1 -4.6,-4.1 -1.1,0 -1.6,0.7 -1.6,1.6 0.1,4.6 8.2,2 8.3,7.8 0,2.9 -2.7,4.5 -5.9,4.6 -3.9,0.2 -6.7,-1.6 -6.7,-3.7 z"
   id="path74" />
		<path
   class="st1"
   d="m 265.1,527.9 v 0 c -0.1,-0.7 0.8,-1.1 0.7,-2.2 l -0.8,-10 c -0.1,-1 -1,-1.3 -1,-2 v -0.1 c 0,-0.3 0.2,-0.5 0.5,-0.5 l 5.2,-0.4 c 0.3,0 0.5,0.1 0.6,0.4 v 0.1 c 0.1,0.7 -0.9,1.1 -0.8,2.1 l 0.3,4.1 4.9,-0.4 -0.3,-4.1 c -0.1,-1 -1,-1.3 -1,-2 v -0.1 c 0,-0.3 0.2,-0.5 0.5,-0.5 l 5.2,-0.4 c 0.3,0 0.5,0.1 0.6,0.4 v 0.1 c 0.1,0.7 -0.9,1.1 -0.8,2.1 l 0.8,10 c 0.1,1 1.1,1.3 1.2,1.9 v 0.1 c 0,0.3 -0.2,0.5 -0.5,0.5 l -5.2,0.4 c -0.3,0 -0.5,-0.1 -0.6,-0.4 v -0.1 c -0.1,-0.7 0.8,-1.1 0.7,-2.1 l -0.4,-4.1 -4.9,0.4 0.3,4.1 c 0.1,1 1.1,1.3 1.2,1.9 v 0.1 c 0,0.3 -0.2,0.5 -0.5,0.5 l -5.2,0.4 c -0.4,0.2 -0.6,0.1 -0.7,-0.2 z"
   id="path76" />
		<path
   class="st1"
   d="m 282.6,519.2 c -0.8,-4.7 1.6,-8.4 6.1,-9.1 3.9,-0.7 8.1,1.8 8.9,6.5 0.8,4.7 -2,8.2 -6.2,8.9 -3.9,0.7 -8,-1.6 -8.8,-6.3 z m 11.1,1.6 c -0.6,-3.2 -4.1,-9.1 -6.3,-8.7 -1.1,0.2 -1.6,1.1 -1.3,2.7 0.7,3.8 4,9 6.2,8.6 1.2,-0.1 1.6,-1 1.4,-2.6 z"
   id="path78" />
		<path
   class="st1"
   d="m 318,503.4 v 0 c 0.2,0.7 -0.7,1.1 -0.7,2.4 l -0.7,12.1 c -0.1,0.9 -0.5,1.4 -1.2,1.6 -0.8,0.2 -1.4,0 -1.8,-0.6 l -4,-6.1 -0.3,7.2 c 0,0.9 -0.4,1.4 -1.1,1.5 -0.9,0.2 -1.3,0 -1.8,-0.6 l -8,-9.7 c -0.8,-1 -1.8,-0.9 -2,-1.6 v -0.1 c -0.1,-0.3 0.1,-0.5 0.4,-0.6 l 5.7,-1.6 c 0.3,-0.1 0.6,0 0.6,0.3 v 0.1 c 0.2,0.6 -0.9,1.3 -0.2,2.2 l 4.6,6.3 0.2,-6.2 -0.8,-1.2 c -0.6,-0.8 -1.8,-0.9 -2,-1.5 v -0.1 c -0.1,-0.3 0.1,-0.5 0.4,-0.6 l 5.5,-1.6 c 0.3,-0.1 0.6,0 0.6,0.3 v 0.1 c 0.2,0.6 -1.1,1.1 -0.4,2.2 l 3.8,6.4 0.3,-7.5 c 0,-1.1 -1.3,-1.1 -1.4,-1.7 v -0.1 c -0.1,-0.3 0.1,-0.5 0.4,-0.6 l 3.4,-1 c 0.1,0 0.4,0.1 0.5,0.3 z"
   id="path80" />
		<path
   class="st1"
   d="m 325.9,508.1 c -1.9,-4.4 -0.4,-8.5 3.8,-10.3 3.7,-1.6 8.3,-0.1 10.1,4.3 1.9,4.4 -0.1,8.4 -3.9,10.1 -3.5,1.5 -8.1,0.2 -10,-4.1 z m 11.2,-1 c -1.3,-3 -6,-7.9 -8.1,-7 -1.1,0.5 -1.3,1.4 -0.6,3 1.5,3.5 6,7.9 8,7 1.1,-0.6 1.3,-1.5 0.7,-3 z"
   id="path82" />
		<path
   class="st1"
   d="m 351.9,487.4 v 0 c 0.4,0.7 -0.4,1.4 0.1,2.3 l 5.5,10.2 c 0.3,0.6 0.2,1.2 -0.4,1.5 l -1.2,0.7 c -0.5,0.3 -0.9,0.2 -1.5,-0.1 l -10.9,-4.9 3.7,6.8 c 0.5,0.9 1.6,0.7 1.9,1.3 v 0.1 c 0.1,0.2 0,0.5 -0.3,0.7 l -2.6,1.4 c -0.3,0.2 -0.6,0.1 -0.7,-0.1 v -0.1 c -0.3,-0.6 0.3,-1.3 -0.2,-2.2 l -4.8,-8.9 c -0.5,-0.9 -1.4,-0.8 -1.7,-1.4 v -0.1 c -0.1,-0.2 0,-0.5 0.3,-0.7 l 3.2,-1.7 c 0.5,-0.3 0.9,-0.2 1.5,0.1 l 10,4.8 -3.4,-6.3 c -0.5,-0.9 -1.5,-0.7 -1.8,-1.3 v -0.1 c -0.1,-0.2 0,-0.5 0.3,-0.7 l 2.7,-1.4 c -0.1,-0.2 0.2,-0.2 0.3,0.1 z"
   id="path84" />
		<path
   class="st1"
   d="m 366.1,495.4 v 0 c -0.4,-0.6 0.1,-1.4 -0.5,-2.2 l -5.7,-8.3 c -0.6,-0.9 -1.5,-0.6 -1.9,-1.2 v -0.1 c -0.2,-0.2 -0.1,-0.5 0.2,-0.7 l 8.2,-5.7 c 0.4,-0.3 0.7,-0.2 1.1,0.1 l 2.1,2.1 c 0.3,0.3 0.2,0.7 -0.1,0.9 l -0.1,0.1 c -1.1,0.8 -3.1,-1 -4.4,-0.1 l -1,0.7 c -0.5,0.3 -0.7,0.8 -0.2,1.5 l 2.2,3.2 1.5,-1 c 1,-0.7 0.1,-2.3 0.6,-2.7 l 0.2,-0.1 c 0.2,-0.2 0.5,-0.1 0.7,0.2 l 2.4,3.4 c 0.2,0.3 0.2,0.5 -0.1,0.7 l -0.2,0.1 c -0.5,0.4 -1.6,-1 -2.7,-0.3 l -1.5,1 2,2.9 c 0.4,0.6 1.2,1.2 2.1,0.6 l 1.3,-0.9 c 1.3,-0.9 0,-3.4 1.2,-4.2 l 0.2,-0.1 c 0.3,-0.2 0.7,0 0.8,0.3 l 1.3,2.7 c 0.2,0.5 0.2,0.8 -0.2,1.1 l -8.7,6 c -0.4,0.2 -0.7,0.2 -0.8,0 z"
   id="path86" />
		<path
   class="st1"
   d="m 390,477.1 v 0 c 0.2,0.3 0.2,0.6 -0.1,0.8 l -4.8,4 c -0.2,0.2 -0.5,0.2 -0.7,0 l -0.1,-0.1 c -0.4,-0.5 0.4,-1.6 -0.5,-2.2 l -0.8,-0.6 -3.9,3.2 0.4,1 c 0.4,1 1.6,0.4 2.1,1 l 0.1,0.1 c 0.2,0.2 0.1,0.5 -0.1,0.7 l -2.7,2.2 c -0.2,0.2 -0.5,0.2 -0.7,0 L 378,487 c -0.4,-0.5 0.1,-1.1 -0.3,-2.4 l -3.3,-10.1 c -0.3,-0.9 -1.7,-0.8 -2,-1.2 l -0.1,-0.1 c -0.2,-0.2 -0.1,-0.5 0.1,-0.7 l 2.5,-2 c 0.6,-0.5 1.2,-0.5 1.9,-0.1 l 10.9,6 c 1.2,0.6 1.9,0.2 2.3,0.7 z m -8.6,0.9 -4.9,-3 1.9,5.4 z"
   id="path88" />
		<path
   class="st1"
   d="m 402.5,465.1 v 0 c 0.3,0.3 0.2,0.5 0,0.8 l -4.2,4.1 c -0.2,0.2 -0.5,0.3 -0.7,0 l -0.1,-0.1 c -0.5,-0.5 0.2,-1.4 -1,-1.8 l -3.2,-1.2 -1.2,1.2 2.1,2.2 c 0.7,0.8 1.7,0.3 2.1,0.8 l 0.1,0.1 c 0.2,0.2 0.2,0.5 -0.1,0.7 l -3.8,3.7 c -0.2,0.2 -0.5,0.3 -0.7,0.1 l -0.1,-0.1 c -0.5,-0.5 -0.1,-1.3 -0.8,-2.1 l -7,-7.2 c -0.7,-0.8 -1.6,-0.4 -2.1,-0.8 l -0.1,-0.1 c -0.2,-0.2 -0.2,-0.5 0.1,-0.7 l 4.4,-4.3 c 2.9,-2.8 5.8,-3.3 8.1,-1 1,1 1.6,2.8 1,4.6 l 4.4,1.1 c 1.6,0.1 2.4,-0.5 2.8,0 z m -10.4,0.7 0.3,-0.3 c 0.5,-0.5 0.5,-1.4 -0.8,-2.8 -1.5,-1.6 -3.4,-1.7 -4.2,-1 l -0.1,0.1 c -0.4,0.4 -0.3,1 0.2,1.5 l 2.2,2.3 c 1,0.9 1.7,0.9 2.4,0.2 z"
   id="path90" />
		<path
   class="st1"
   d="m 405.9,461.4 v 0 c -0.6,-0.5 -0.2,-1.4 -1,-2.1 l -8.2,-7.2 -0.4,0.5 c -1,1.2 0.8,3.1 0.1,4 l -0.3,0.3 c -0.3,0.3 -0.6,0.3 -0.9,0 l -2,-2.4 c -0.3,-0.4 -0.3,-0.7 0,-1.1 l 7.4,-8.4 c 0.3,-0.4 0.6,-0.4 1.1,-0.1 l 2.6,1.7 c 0.3,0.2 0.4,0.6 0.1,0.9 l -0.3,0.3 c -0.7,0.8 -2.9,-0.7 -3.9,0.4 l -0.4,0.5 8.2,7.2 c 0.8,0.7 1.7,0.2 2.2,0.6 l 0.1,0.1 c 0.2,0.2 0.2,0.5 0,0.7 l -3.5,3.9 c -0.5,0.4 -0.7,0.4 -0.9,0.2 z"
   id="path92" />
		<path
   class="st1"
   d="m 414.3,451.8 v 0 c -0.6,-0.4 -0.3,-1.3 -1.2,-2 l -8.1,-6 c -0.8,-0.6 -1.6,-0.1 -2.2,-0.5 h -0.1 c -0.2,-0.2 -0.2,-0.4 0,-0.7 l 3.1,-4.2 c 0.2,-0.3 0.5,-0.3 0.7,-0.2 l 0.1,0.1 c 0.5,0.4 0.2,1.4 1.1,2 l 3.3,2.4 2.9,-3.9 -3.3,-2.4 c -0.8,-0.6 -1.6,-0.1 -2.2,-0.5 l -0.1,-0.1 c -0.2,-0.2 -0.2,-0.4 -0.1,-0.7 l 3.1,-4.2 c 0.2,-0.3 0.5,-0.3 0.7,-0.2 l 0.1,0.1 c 0.5,0.4 0.2,1.4 1.1,2 l 8.1,6 c 0.8,0.6 1.7,0 2.2,0.4 l 0.1,0.1 c 0.2,0.2 0.2,0.4 0,0.7 l -3.1,4.2 c -0.2,0.3 -0.4,0.3 -0.7,0.1 l -0.1,-0.1 c -0.5,-0.4 -0.3,-1.3 -1.1,-1.9 l -3.4,-2.5 -2.9,3.9 3.3,2.5 c 0.8,0.6 1.7,0 2.2,0.4 l 0.1,0.1 c 0.2,0.2 0.2,0.4 0,0.7 l -3.1,4.2 c 0,0.3 -0.3,0.3 -0.5,0.2 z"
   id="path94" />
		<path
   class="st1"
   d="m 436,418.3 v 0 c -0.7,-0.3 -0.6,-1.3 -1.5,-1.7 l -9.1,-4.3 c -0.9,-0.4 -1.6,0.2 -2.2,-0.1 h -0.1 c -0.3,-0.1 -0.3,-0.4 -0.2,-0.7 l 2.2,-4.7 c 0.1,-0.3 0.4,-0.4 0.6,-0.3 h 0.1 c 0.6,0.3 0.5,1.3 1.4,1.7 l 3.7,1.7 2.1,-4.4 -3.7,-1.8 c -1,-0.4 -1.6,0.2 -2.2,-0.1 H 427 c -0.3,-0.1 -0.3,-0.4 -0.2,-0.7 l 2.2,-4.7 c 0.1,-0.3 0.4,-0.4 0.6,-0.3 h 0.1 c 0.6,0.3 0.5,1.3 1.4,1.8 l 9.1,4.3 c 0.9,0.4 1.7,-0.3 2.3,0 h 0.1 c 0.3,0.1 0.3,0.4 0.2,0.7 l -2.2,4.7 c -0.1,0.3 -0.4,0.4 -0.6,0.3 h -0.1 c -0.6,-0.3 -0.5,-1.2 -1.5,-1.6 l -3.8,-1.7 -2.1,4.4 3.8,1.8 c 1,0.4 1.7,-0.3 2.3,0 h 0.1 c 0.3,0.1 0.3,0.4 0.2,0.7 l -2.2,4.7 c -0.2,0.3 -0.4,0.4 -0.7,0.3 z"
   id="path96" />
		<path
   class="st1"
   d="m 443.9,400.9 v 0 c -0.7,-0.3 -0.7,-1.2 -1.7,-1.6 l -9.5,-3.5 c -1,-0.4 -1.6,0.4 -2.2,0.1 h -0.1 c -0.3,-0.1 -0.3,-0.4 -0.2,-0.7 l 3.5,-9.4 c 0.2,-0.5 0.4,-0.6 0.9,-0.5 l 2.9,0.5 c 0.4,0.1 0.6,0.4 0.4,0.8 v 0.1 c -0.5,1.2 -3.1,0.9 -3.7,2.5 l -0.4,1.1 c -0.2,0.5 -0.1,1.1 0.7,1.4 l 3.7,1.3 0.6,-1.7 c 0.4,-1.2 -1.3,-1.9 -1,-2.5 l 0.1,-0.2 c 0.1,-0.3 0.4,-0.3 0.7,-0.2 l 3.9,1.4 c 0.3,0.1 0.4,0.3 0.3,0.6 l -0.1,0.2 c -0.2,0.6 -1.9,0.1 -2.3,1.3 l -0.6,1.7 3.3,1.2 c 0.7,0.3 1.7,0.3 2.1,-0.7 l 0.5,-1.4 c 0.6,-1.5 -1.9,-2.8 -1.4,-4.1 l 0.1,-0.2 c 0.1,-0.4 0.6,-0.4 0.8,-0.2 l 2.6,1.5 c 0.5,0.3 0.6,0.5 0.4,1 l -3.6,9.9 c -0.2,0.2 -0.4,0.4 -0.7,0.3 z"
   id="path98" />
		<path
   class="st1"
   d="m 443.7,379.7 c -4.8,-1.2 -6.7,-5.5 -5.8,-8.9 0.9,-3.5 3.1,-5.8 5.4,-5.3 1.1,0.3 1.7,1.2 1.4,2.4 -0.7,3 -5,2.4 -5.5,4.4 -0.3,1.2 0.8,2.2 2.6,2.7 4.1,1 8,-0.1 8.6,-2.6 0.1,-0.3 0.1,-0.5 0.1,-0.6 l -2.4,-0.6 c -1,-0.3 -1.6,0.8 -2.3,0.6 h -0.1 c -0.3,-0.1 -0.4,-0.4 -0.3,-0.7 l 1.3,-4.9 c 0.1,-0.3 0.3,-0.5 0.6,-0.4 h 0.1 c 0.6,0.2 0.7,1.2 1.7,1.5 l 2.2,0.5 c 0.6,0.2 1,0.4 1.5,1.4 0.5,1 0.9,2.8 0.4,5 -1.1,4.4 -5.6,6.5 -9.5,5.5 z"
   id="path100" />
		<path
   class="st1"
   d="m 457.1,349.8 v 0 c 0.4,0.1 0.5,0.3 0.4,0.6 l -0.9,5.8 c -0.1,0.3 -0.3,0.5 -0.5,0.5 H 456 c -0.7,-0.1 -0.7,-1.2 -1.9,-0.9 l -3.3,0.9 -0.2,1.6 3,0.5 c 1,0.2 1.5,-0.8 2.2,-0.7 h 0.1 c 0.3,0 0.4,0.3 0.4,0.6 l -0.8,5.2 c 0,0.3 -0.3,0.5 -0.5,0.5 h -0.1 c -0.7,-0.1 -0.8,-1 -1.9,-1.2 l -10,-1.6 c -1,-0.2 -1.5,0.7 -2.2,0.5 h -0.1 c -0.3,0 -0.4,-0.3 -0.4,-0.6 l 1,-6.1 c 0.6,-3.9 2.7,-6.2 5.9,-5.6 1.4,0.2 2.9,1.3 3.5,3.1 l 4.1,-1.7 c 1.3,-0.6 1.6,-1.5 2.3,-1.4 z m -8,6.8 0.1,-0.4 c 0.1,-0.7 -0.5,-1.4 -2.4,-1.7 -2.2,-0.3 -3.8,0.6 -4,1.6 v 0.1 c -0.1,0.5 0.4,1 1,1.1 l 3.2,0.5 c 1.4,0.2 1.9,-0.2 2.1,-1.2 z"
   id="path102" />
		<path
   class="st1"
   d="m 457.3,347.4 v 0 c -0.8,-0.1 -1,-1 -2.1,-1 l -10.1,-0.8 c -1,-0.1 -1.4,0.8 -2.1,0.7 h -0.1 c -0.3,0 -0.4,-0.2 -0.4,-0.6 l 0.8,-10 c 0,-0.5 0.2,-0.7 0.8,-0.7 l 2.9,-0.3 c 0.4,0 0.6,0.2 0.6,0.7 v 0.1 c -0.1,1.3 -2.7,1.7 -2.9,3.4 l -0.1,1.2 c 0,0.6 0.2,1.1 1,1.2 l 3.9,0.3 0.1,-1.8 c 0.1,-1.2 -1.7,-1.5 -1.7,-2.2 v -0.2 c 0,-0.3 0.2,-0.4 0.6,-0.4 l 4.2,0.3 c 0.3,0 0.5,0.2 0.5,0.5 v 0.2 c -0.1,0.7 -1.8,0.7 -1.9,1.9 l -0.1,1.8 3.5,0.3 c 0.8,0.1 1.7,-0.2 1.8,-1.3 l 0.1,-1.5 c 0.1,-1.6 -2.6,-2.2 -2.5,-3.6 v -0.2 c 0,-0.4 0.5,-0.5 0.7,-0.5 l 2.9,0.7 c 0.5,0.1 0.7,0.3 0.7,0.9 l -0.8,10.5 c 0.2,0.2 0,0.4 -0.3,0.4 z"
   id="path104" />
		<path
   class="st1"
   d="m 458.3,317.2 v 0 c 0.4,0 0.5,0.2 0.5,0.5 l 0.1,6.2 c 0,0.3 -0.2,0.5 -0.4,0.5 h -0.1 c -0.7,0 -1,-1.3 -2.1,-1 l -1,0.4 0.1,5 1,0.3 c 1.1,0.3 1.4,-1 2,-1 h 0.1 c 0.3,0 0.5,0.2 0.5,0.5 l 0.1,3.5 c 0,0.3 -0.2,0.5 -0.4,0.5 h -0.1 c -0.7,0 -0.8,-0.8 -2.1,-1.3 l -9.9,-3.7 c -0.9,-0.3 -1.7,0.8 -2.2,0.9 h -0.1 c -0.3,0 -0.5,-0.2 -0.5,-0.5 v -3.2 c 0,-0.8 0.3,-1.3 1.1,-1.6 l 11.5,-4.9 c 1,-0.2 1.2,-1.1 1.9,-1.1 z m -4.7,7.4 -5.4,1.9 5.5,1.8 z"
   id="path106" />
		<path
   class="st1"
   d="m 458.2,313.5 v 0 c -0.8,0.1 -1.1,-0.9 -2.2,-0.8 l -10.8,0.8 v 0.6 c 0.1,1.5 2.8,1.6 2.9,2.7 v 0.4 c 0,0.4 -0.2,0.7 -0.6,0.6 l -3.1,-0.2 c -0.5,0 -0.7,-0.2 -0.8,-0.7 l -0.8,-11.1 c 0,-0.5 0.1,-0.7 0.7,-0.8 l 3.1,-0.6 c 0.4,-0.1 0.7,0.1 0.7,0.6 v 0.4 c 0.1,1.1 -2.6,1.6 -2.4,3.1 v 0.6 l 10.8,-0.8 c 1,-0.1 1.3,-1.1 2,-1.1 h 0.1 c 0.3,0 0.5,0.2 0.5,0.5 l 0.4,5.2 c -0.1,0.4 -0.3,0.6 -0.5,0.6 z"
   id="path108" />
		<path
   class="st1"
   d="m 457.1,300.8 v 0 c -0.7,0.1 -1.2,-0.7 -2.2,-0.6 l -10,1.5 c -1,0.2 -1.2,1.1 -1.9,1.2 h -0.1 c -0.3,0 -0.5,-0.1 -0.5,-0.5 l -1.5,-9.9 c -0.1,-0.5 0.1,-0.7 0.6,-0.9 l 2.8,-0.9 c 0.4,-0.1 0.7,0.1 0.7,0.5 v 0.1 c 0.2,1.3 -2.3,2.3 -2,3.9 l 0.2,1.2 c 0.1,0.6 0.4,1 1.3,0.9 l 3.9,-0.6 -0.3,-1.8 c -0.2,-1.2 -2,-1.1 -2.1,-1.7 V 293 c 0,-0.3 0.1,-0.5 0.5,-0.5 l 4.1,-0.6 c 0.3,0 0.6,0.1 0.6,0.4 v 0.2 c 0.1,0.7 -1.6,1 -1.4,2.3 l 0.3,1.8 3.5,-0.5 c 0.8,-0.1 1.7,-0.6 1.5,-1.7 l -0.2,-1.5 c -0.2,-1.6 -3,-1.5 -3.2,-2.9 v -0.2 c -0.1,-0.4 0.3,-0.6 0.6,-0.6 h 3 c 0.5,0 0.8,0.2 0.9,0.7 l 1.5,10.4 c -0.2,0.2 -0.3,0.5 -0.6,0.5 z"
   id="path110" />
		<path
   class="st1"
   d="m 451.6,286.6 c -1,0.2 -1.8,-0.1 -2.1,-1.3 -0.5,-2.4 3.5,-3 2.9,-5.8 -0.2,-1 -0.9,-1.5 -1.8,-1.3 -3.8,0.9 0.2,8.4 -5.8,9.8 -2.8,0.6 -5.2,-1.3 -6,-4.7 -0.8,-3.4 0.4,-6.6 2.4,-7 1,-0.2 1.8,0.2 2.1,1.4 0.6,2.8 -3.5,3.1 -3,5.4 0.3,1.1 1,1.4 1.9,1.2 4.5,-1 0.2,-8.4 6,-9.8 2.8,-0.6 5,1.7 5.7,4.9 0.9,3.6 -0.3,6.7 -2.3,7.2 z"
   id="path112" />
		<path
   class="st1"
   d="m 450.3,267.7 v 0 c -0.7,0.2 -1.3,-0.6 -2.3,-0.3 l -10.4,3.2 0.2,0.6 c 0.5,1.5 3.1,1 3.4,2 l 0.1,0.4 c 0.1,0.4 0,0.7 -0.5,0.8 l -3.1,0.5 c -0.5,0.1 -0.8,-0.1 -0.9,-0.5 l -3.3,-10.6 c -0.2,-0.5 0,-0.8 0.4,-1 l 2.8,-1.3 c 0.4,-0.2 0.7,0 0.8,0.4 l 0.1,0.4 c 0.3,1.1 -2.1,2.1 -1.7,3.6 l 0.2,0.6 10.4,-3.2 c 1,-0.3 1,-1.3 1.7,-1.5 h 0.1 c 0.3,-0.1 0.5,0.1 0.6,0.4 l 1.6,5 c 0.1,0.2 0,0.4 -0.2,0.5 z"
   id="path114" />
		<path
   class="st1"
   d="m 441.7,252.5 c -0.9,0.4 -1.8,0.2 -2.3,-0.9 -1,-2.3 2.9,-3.6 1.8,-6.3 -0.4,-1 -1.2,-1.3 -2,-1 -3.6,1.5 1.7,8.2 -4,10.7 -2.6,1.1 -5.3,-0.3 -6.7,-3.6 -1.4,-3.2 -0.8,-6.5 1.1,-7.3 1,-0.4 1.9,-0.1 2.3,1 1.1,2.6 -2.9,3.7 -2,5.8 0.4,1 1.3,1.2 2.1,0.9 4.2,-1.8 -1.3,-8.3 4.1,-10.6 2.7,-1.1 5.2,0.8 6.5,3.7 1.6,3.4 1,6.7 -0.9,7.6 z"
   id="path116" />
		<path
   class="st1"
   d="m 438.4,236.6 v 0 c -0.7,0.4 -1.4,-0.3 -2.3,0.2 l -8.9,4.7 c -0.9,0.5 -0.8,1.4 -1.4,1.7 h -0.1 c -0.2,0.1 -0.5,0 -0.6,-0.3 l -2.5,-4.6 c -0.2,-0.3 -0.1,-0.6 0.1,-0.7 h 0.1 c 0.6,-0.3 1.3,0.4 2.3,-0.1 l 3.6,-1.9 -2.3,-4.3 -3.6,1.9 c -0.9,0.5 -0.8,1.4 -1.4,1.7 h -0.1 c -0.2,0.1 -0.5,0 -0.6,-0.2 l -2.5,-4.6 c -0.2,-0.3 -0.1,-0.6 0.1,-0.7 h 0.1 c 0.6,-0.3 1.3,0.4 2.3,-0.1 l 8.9,-4.7 c 0.9,-0.5 0.7,-1.5 1.3,-1.8 h 0.1 c 0.2,-0.1 0.5,0 0.6,0.3 l 2.5,4.6 c 0.2,0.3 0.1,0.5 -0.2,0.7 h -0.1 c -0.6,0.3 -1.3,-0.3 -2.2,0.2 l -3.7,2 2.3,4.3 3.7,-1.9 c 0.9,-0.5 0.7,-1.5 1.3,-1.8 h 0.1 c 0.2,-0.1 0.5,0 0.7,0.3 l 2.5,4.6 c 0.2,0.1 0.1,0.4 -0.1,0.5 z"
   id="path118" />
		<path
   class="st1"
   d="m 423.5,224 c -4,2.6 -8.3,1.8 -10.8,-2 -2.2,-3.3 -1.5,-8.1 2.4,-10.7 4,-2.6 8.3,-1.4 10.6,2.1 2.2,3.3 1.8,8 -2.2,10.6 z m -2.9,-10.8 c -2.7,1.8 -6.7,7.3 -5.5,9.2 0.6,1 1.6,1 3,0.1 3.2,-2.1 6.7,-7.3 5.5,-9.1 -0.7,-1.1 -1.6,-1.1 -3,-0.2 z"
   id="path120" />
		<path
   class="st1"
   d="m 395,197.7 v 0 c 0.6,-0.5 1.3,0.2 2.5,-0.3 l 11.4,-4.1 c 0.8,-0.3 1.5,-0.1 1.9,0.5 0.5,0.6 0.6,1.3 0.1,1.9 l -4,6.1 6.8,-2.6 c 0.8,-0.3 1.4,-0.2 1.8,0.4 0.6,0.7 0.5,1.2 0.1,1.9 l -5.8,11.2 c -0.6,1.1 -0.1,2 -0.7,2.4 l -0.1,0.1 c -0.2,0.2 -0.5,0.1 -0.7,-0.1 l -3.7,-4.6 c -0.2,-0.2 -0.2,-0.5 0,-0.7 l 0.1,-0.1 c 0.5,-0.4 1.5,0.3 2.1,-0.6 l 4,-6.7 -5.8,2.3 -0.8,1.2 c -0.6,0.8 -0.1,2 -0.6,2.5 l -0.1,0.1 c -0.2,0.2 -0.5,0.1 -0.7,-0.1 l -3.6,-4.5 c -0.2,-0.3 -0.2,-0.5 0,-0.7 l 0.1,-0.1 c 0.5,-0.4 1.5,0.5 2.2,-0.5 l 4.4,-6 -7,2.7 c -1,0.4 -0.5,1.6 -1,2 l -0.1,0.1 c -0.2,0.2 -0.5,0.1 -0.7,-0.1 l -2.2,-2.8 c -0.2,-0.4 -0.2,-0.7 0.1,-0.8 z"
   id="path122" />
		<path
   class="st1"
   d="m 396.1,188.6 c -3.3,3.4 -7.7,3.7 -11,0.5 -2.9,-2.8 -3.3,-7.6 0,-11 3.3,-3.5 7.8,-3.2 10.8,-0.3 2.9,2.6 3.5,7.3 0.2,10.8 z m -5.2,-9.9 c -2.2,2.3 -4.9,8.7 -3.3,10.2 0.8,0.8 1.8,0.6 3,-0.6 2.6,-2.8 4.9,-8.6 3.3,-10.1 -1,-0.9 -1.9,-0.7 -3,0.5 z"
   id="path124" />
		<path
   class="st1"
   d="m 367,172.8 v 0 c 0.5,-0.6 1.4,-0.2 2.1,-1 l 7.2,-9 c 0.4,-0.6 1,-0.6 1.6,-0.2 l 1.1,0.9 c 0.5,0.4 0.5,0.8 0.5,1.4 l -0.3,12 4.8,-6 c 0.7,-0.8 0,-1.7 0.5,-2.2 l 0.1,-0.1 c 0.2,-0.2 0.4,-0.2 0.7,0 l 2.3,1.9 c 0.3,0.2 0.3,0.5 0.1,0.7 l -0.1,0.1 c -0.4,0.5 -1.3,0.2 -2,1 l -6.3,7.9 c -0.7,0.8 -0.2,1.6 -0.6,2.1 l -0.1,0.1 c -0.2,0.2 -0.5,0.2 -0.7,0 l -2.9,-2.3 c -0.5,-0.4 -0.5,-0.8 -0.5,-1.4 l 0.5,-11 -4.5,5.6 c -0.7,0.8 -0.1,1.7 -0.5,2.2 l -0.1,0.1 c -0.2,0.2 -0.4,0.2 -0.7,0 l -2.4,-1.9 c 0,-0.4 0,-0.7 0.2,-0.9 z"
   id="path126" />
		<path
   class="st1"
   d="m 368.7,156.6 v 0 c -0.4,0.6 -1.3,0.4 -1.9,1.3 l -5.4,8.5 c -0.6,0.9 0,1.6 -0.3,2.2 v 0.1 c -0.1,0.2 -0.4,0.3 -0.7,0.1 l -8.5,-5.3 c -0.4,-0.3 -0.5,-0.5 -0.3,-1 l 1.1,-2.7 c 0.2,-0.4 0.5,-0.5 0.9,-0.2 l 0.1,0.1 c 1.1,0.7 0.3,3.2 1.6,4.1 l 1,0.6 c 0.5,0.3 1,0.4 1.5,-0.4 l 2.1,-3.3 -1.5,-1 c -1.1,-0.7 -2.1,0.8 -2.7,0.5 l -0.2,-0.1 c -0.2,-0.1 -0.3,-0.4 -0.1,-0.7 l 2.2,-3.5 c 0.2,-0.3 0.4,-0.4 0.7,-0.2 l 0.2,0.1 c 0.6,0.4 -0.3,1.9 0.8,2.6 l 1.5,1 1.9,-3 c 0.4,-0.7 0.6,-1.6 -0.3,-2.2 l -1.3,-0.8 c -1.4,-0.9 -3.1,1.3 -4.3,0.5 l -0.2,-0.1 c -0.3,-0.2 -0.3,-0.6 -0.1,-0.9 l 2,-2.3 c 0.3,-0.4 0.6,-0.5 1.1,-0.2 l 8.9,5.6 c 0.3,0.1 0.3,0.3 0.2,0.6 z"
   id="path128" />
		<path
   class="st1"
   d="m 342.5,141.6 v 0 c 0.2,-0.3 0.4,-0.4 0.7,-0.2 l 5.5,2.9 c 0.3,0.1 0.4,0.4 0.3,0.6 v 0.1 c -0.3,0.6 -1.7,0.2 -1.8,1.3 l -0.2,1 4.4,2.3 0.8,-0.7 c 0.8,-0.8 -0.2,-1.7 0.1,-2.3 v -0.1 c 0.1,-0.2 0.4,-0.3 0.7,-0.2 l 3.1,1.6 c 0.3,0.1 0.4,0.4 0.3,0.6 v 0.1 c -0.3,0.6 -1.1,0.3 -2.1,1.2 l -8,7 c -0.7,0.6 -0.1,1.9 -0.3,2.4 v 0.1 c -0.1,0.2 -0.4,0.3 -0.7,0.1 l -2.8,-1.5 c -0.7,-0.4 -1,-0.9 -0.9,-1.7 l 1.2,-12.4 c 0,-1 -0.6,-1.6 -0.3,-2.2 z m 4.2,7.7 -0.9,5.7 4.2,-3.9 z"
   id="path130" />
		<path
   class="st1"
   d="m 326.6,134.9 v 0 c 0.1,-0.3 0.4,-0.4 0.7,-0.3 l 5.4,2.3 c 0.3,0.1 0.4,0.4 0.3,0.6 v 0.1 c -0.3,0.6 -1.4,0.4 -1.3,1.7 l 0.1,3.4 1.5,0.6 1.2,-2.8 c 0.4,-1 -0.4,-1.6 -0.1,-2.3 v -0.1 c 0.1,-0.3 0.4,-0.3 0.7,-0.2 l 4.8,2 c 0.3,0.1 0.4,0.4 0.3,0.6 v 0.1 c -0.3,0.6 -1.2,0.6 -1.6,1.5 l -3.9,9.3 c -0.4,1 0.3,1.6 0,2.2 v 0.1 c -0.1,0.3 -0.4,0.3 -0.7,0.2 l -5.7,-2.4 c -3.7,-1.5 -5.3,-4.1 -4.1,-7 0.6,-1.3 1.9,-2.5 3.8,-2.7 l -0.7,-4.4 c -0.2,-1.4 -1,-1.9 -0.7,-2.5 z m 4.7,9.3 -0.4,-0.2 c -0.6,-0.3 -1.5,0.1 -2.3,1.9 -0.8,2 -0.3,3.8 0.7,4.2 h 0.1 c 0.5,0.2 1,-0.1 1.3,-0.8 l 1.2,-3 c 0.6,-1.1 0.3,-1.7 -0.6,-2.1 z"
   id="path132" />
		<path
   class="st1"
   d="m 321.9,133.3 v 0 c -0.2,0.7 -1.2,0.7 -1.6,1.7 l -3.4,10.3 0.6,0.2 c 1.5,0.5 2.6,-2 3.6,-1.6 l 0.4,0.1 c 0.4,0.1 0.6,0.5 0.4,0.8 l -1.4,2.8 c -0.2,0.5 -0.5,0.6 -1,0.4 l -10.6,-3.5 c -0.5,-0.2 -0.6,-0.4 -0.5,-0.9 l 0.6,-3.1 c 0.1,-0.4 0.4,-0.6 0.8,-0.4 l 0.4,0.1 c 1.1,0.3 0.5,3 2,3.4 l 0.6,0.2 3.4,-10.3 c 0.3,-1 -0.5,-1.6 -0.3,-2.2 v -0.1 c 0.1,-0.3 0.3,-0.4 0.7,-0.3 l 5,1.6 c 0.3,0.3 0.4,0.5 0.3,0.8 z"
   id="path134" />
		<path
   class="st1"
   d="m 309.7,129.4 v 0 c -0.2,0.7 -1.1,0.8 -1.3,1.9 l -2.3,9.8 c -0.2,1 0.5,1.5 0.4,2.2 v 0.1 c -0.1,0.3 -0.3,0.4 -0.6,0.3 l -5.1,-1.2 c -0.3,-0.1 -0.5,-0.3 -0.4,-0.6 v -0.1 c 0.2,-0.6 1.2,-0.7 1.4,-1.8 l 0.9,-4 -4.8,-1.1 -1,4 c -0.2,1 0.5,1.5 0.4,2.2 v 0.1 c -0.1,0.3 -0.3,0.4 -0.6,0.3 l -5.1,-1.2 c -0.3,-0.1 -0.5,-0.3 -0.4,-0.6 v -0.1 c 0.2,-0.6 1.2,-0.7 1.4,-1.8 l 2.3,-9.8 c 0.2,-1 -0.6,-1.6 -0.5,-2.2 v -0.1 c 0.1,-0.3 0.3,-0.4 0.6,-0.3 l 5.1,1.2 c 0.3,0.1 0.5,0.3 0.4,0.6 v 0.1 c -0.2,0.6 -1.1,0.8 -1.3,1.8 l -0.9,4.1 4.8,1.1 1,-4 c 0.2,-1 -0.6,-1.6 -0.5,-2.2 V 128 c 0.1,-0.3 0.3,-0.4 0.6,-0.3 l 5.1,1.2 c 0.3,0 0.5,0.2 0.4,0.5 z"
   id="path136" />
	</g>
	<g
   id="g144">
		
			<circle
   transform="matrix(0.7071,-0.7071,0.7071,0.7071,-155.2203,274.9725)"
   class="st2"
   cx="254.3"
   cy="324.89999"
   id="ellipse140"
   r="173.10001" />
		<path
   d="m 254.3,155.7 c 93.4,0 169.2,75.8 169.2,169.2 0,93.4 -75.8,169.2 -169.2,169.2 -93.4,0 -169.2,-75.8 -169.2,-169.2 0,-93.4 75.8,-169.2 169.2,-169.2 m 0,-7.7 c -47.3,0 -91.7,18.4 -125.1,51.8 -33.4,33.4 -51.8,77.8 -51.8,125.1 0,47.3 18.4,91.7 51.8,125.1 33.4,33.4 77.8,51.8 125.1,51.8 47.3,0 91.7,-18.4 125.1,-51.8 33.4,-33.4 51.8,-77.8 51.8,-125.1 0,-47.3 -18.4,-91.7 -51.8,-125.1 C 346,166.4 301.6,148 254.3,148 Z"
   id="path142" />
	</g>
	<polygon
   class="st0"
   points="302,194 338.9,178.3 343.9,218.2 383.9,216.1 375,255.2 413.3,267 391.5,300.7 423.5,324.9 391.5,349.1 413.3,382.8 375,394.6 383.9,433.7 343.9,431.6 338.9,471.5 302,455.8 283.7,491.6 254.3,464.2 224.9,491.6 206.7,455.8 169.7,471.5 164.8,431.6 124.7,433.7 133.7,394.6 95.3,382.8 117.1,349.1 85.1,324.9 117.1,300.7 95.3,267 133.7,255.2 124.7,216.1 164.8,218.2 169.7,178.3 206.7,194 224.9,158.2 254.3,185.6 283.7,158.2 "
   id="polygon146" />
	<polygon
   class="st1"
   points="297.2,207.1 330.4,193 334.9,228.9 371,227 362.9,262.2 397.4,272.8 377.8,303.1 406.6,324.9 377.8,346.7 397.4,377 362.9,387.6 371,422.8 334.9,420.9 330.4,456.8 297.2,442.7 280.8,474.9 254.3,450.3 227.9,474.9 211.4,442.7 178.2,456.8 173.7,420.9 137.7,422.8 145.7,387.6 111.2,377 130.9,346.7 102,324.9 130.9,303.1 111.2,272.8 145.7,262.2 137.7,227 173.7,228.9 178.2,193 211.4,207.1 227.9,174.9 254.3,199.5 280.8,174.9 "
   id="polygon148" />
	<g
   id="g168">
		<g
   id="g156">
			<g
   id="g152">
				<path
   class="st2"
   d="m 456.5,315.6 c 0,0 44.2,28.9 39.4,76.4 -2,19.9 -7.1,26 -32.2,31.2 -41.4,8.7 -64.6,-3.9 -108.5,-21.3 L 384.3,351 c 0,0 8.9,-5.2 25.9,7.8 z"
   id="path150" />
			</g>
			<path
   d="m 416.3,369.7 c 0,0 -0.1,-0.1 -0.1,-0.1 l 0.1,0.1 c 0,0 0,0 0,0.1 0.1,0.1 0.1,0.3 0.2,0.5 0.2,0.3 0.3,0.7 0.5,1 0.4,0.7 0.9,1.4 1.5,2.1 0.6,0.7 1.2,1.4 1.8,2 0.6,0.7 1.4,1.3 2.1,1.9 2.9,2.5 6.2,4.7 9.7,6.6 1.8,1 3.5,1.9 5.4,2.8 1.8,0.8 3.7,1.7 5.6,2.5 1.9,0.7 3.8,1.5 5.7,2.2 l 5.8,2 -6,-1.1 c -2,-0.4 -4,-0.9 -6,-1.3 -2,-0.5 -4,-1.1 -6,-1.6 -2,-0.6 -4,-1.2 -5.9,-2 -3.9,-1.4 -7.8,-3.2 -11.5,-5.4 -0.9,-0.6 -1.9,-1.1 -2.7,-1.8 -0.9,-0.6 -1.8,-1.4 -2.6,-2.1 -0.9,-0.8 -1.7,-1.6 -2.5,-2.5 -0.4,-0.4 -0.8,-1 -1.2,-1.5 -0.2,-0.3 -0.4,-0.6 -0.5,-0.9 -0.1,-0.1 -0.2,-0.3 -0.3,-0.5 l -0.1,-0.3 c 0,-0.1 -0.1,-0.3 -0.2,-0.5 z"
   id="path154" />
		</g>
		<g
   id="g166">
			<g
   id="g160">
				<path
   class="st2"
   d="m 52.1,315.6 c 0,0 -44.2,28.9 -39.4,76.4 2,19.9 7.1,26 32.2,31.2 41.4,8.7 64.6,-3.9 108.5,-21.3 L 124.3,351 c 0,0 -8.9,-5.2 -25.9,7.8 z"
   id="path158" />
			</g>
			<path
   class="st3"
   d="m 424.1,376.5 c 3.8,3.1 11.6,8.1 26.4,14.1 0,0 -15.8,-9.4 -24.4,-16.3 0,0 0,0 -0.1,-0.1 -1.6,-1.2 -3.4,1.1 -1.9,2.3 z"
   id="path162" />
			<path
   class="st3"
   d="m 83.3,376.5 c -3.8,3.1 -11.6,8.1 -26.4,14.1 0,0 15.8,-9.4 24.4,-16.3 0,0 0,0 0.1,-0.1 1.6,-1.2 3.4,1.1 1.9,2.3 z"
   id="path164" />
		</g>
	</g>
	<circle
   class="st3"
   cx="254.3"
   cy="324.89999"
   r="135.5"
   id="circle170" />
	<path
   class="st1"
   d="m 254.3,431.2 c 5.5,0 14.6,-1.5 22.2,-3 0.8,-0.2 1.7,-0.3 2.7,-0.6 18.1,-4.3 34.4,-13.7 46.9,-26.8 l 11.3,-11.9 c 12.3,-13 22.2,-27.9 29.1,-44 5.3,-12.3 10,-23.5 10,-23.5 V 212.7 H 132 v 108.7 c 0,0 4.7,11.2 10,23.5 6.9,16.2 16.8,31.1 29.1,44 l 11.3,11.9 c 12.5,13.1 28.8,22.6 46.9,26.8 1,0.2 1.9,0.4 2.7,0.6 7.7,1.5 16.8,3 22.3,3 z"
   id="path172" />
	<path
   d="M 254.3,464.2 C 177.5,464.2 115,401.7 115,324.9 c 0,-76.8 62.5,-139.3 139.3,-139.3 76.8,0 139.3,62.4 139.3,139.3 0,76.9 -62.5,139.3 -139.3,139.3 z m 0,-271 c -72.6,0 -131.6,59 -131.6,131.6 0,72.6 59,131.6 131.6,131.6 72.6,0 131.6,-59 131.6,-131.6 0,-72.6 -59,-131.6 -131.6,-131.6 z"
   id="path174" />
	<g
   id="g206">
		<path
   class="st0"
   d="m 233,435.5 c -4.2,-0.8 -8.2,1.9 -9,6.1 -0.8,4.2 1.9,8.2 6.1,9 0.4,0.1 0.7,0.1 1.1,0.1 3.8,0.2 7.2,-2.4 7.9,-6.2 0.8,-4.2 -1.9,-8.2 -6.1,-9 z"
   id="path176" />
		<path
   class="st0"
   d="m 275.6,435.5 c -4.2,0.8 -6.9,4.8 -6.1,9 0.7,3.6 3.7,6.1 7.2,6.2 0.6,0 1.2,0 1.8,-0.1 4.2,-0.8 6.9,-4.8 6.1,-9 -0.7,-4.2 -4.8,-6.9 -9,-6.1 z"
   id="path178" />
		<path
   class="st0"
   d="m 254.3,437.5 c -4.3,0 -7.7,3.4 -7.7,7.7 0,4.1 3.2,7.5 7.3,7.7 0.1,0 0.2,0 0.4,0 0,0 0,0 0,0 4.3,0 7.7,-3.4 7.7,-7.7 0,-4.2 -3.4,-7.7 -7.7,-7.7 z"
   id="path180" />
		<path
   class="st0"
   d="m 193.4,419.7 v 0 c -3.6,-2.3 -8.3,-1.3 -10.6,2.3 -2.3,3.6 -1.3,8.3 2.3,10.6 1.2,0.8 2.5,1.2 3.8,1.2 2.7,0.1 5.3,-1.1 6.9,-3.5 2.2,-3.6 1.2,-8.3 -2.4,-10.6 z"
   id="path182" />
		<path
   class="st0"
   d="m 212.4,429.5 c -3.9,-1.6 -8.4,0.3 -10,4.3 -1.6,3.9 0.3,8.4 4.3,10 0.8,0.3 1.7,0.5 2.5,0.5 3.2,0.2 6.3,-1.7 7.5,-4.8 1.6,-3.9 -0.3,-8.4 -4.3,-10 z"
   id="path184" />
		<path
   class="st0"
   d="m 176.6,406.4 c -3.1,-2.9 -8,-2.8 -10.9,0.3 -2.9,3.1 -2.8,8 0.3,10.9 0,0 0,0 0,0 1.4,1.3 3.2,2 4.9,2.1 2.2,0.1 4.3,-0.7 5.9,-2.4 3,-3.1 2.9,-7.9 -0.2,-10.9 z"
   id="path186" />
		<path
   class="st0"
   d="m 144.8,351.5 c -0.5,-2.2 -2,-4 -3.9,-5 h -7.1 c -3.1,1.6 -4.8,5.1 -3.9,8.6 0.8,3.4 3.8,5.7 7.1,5.9 0.7,0 1.5,0 2.2,-0.2 4.1,-1 6.6,-5.2 5.6,-9.3 z"
   id="path188" />
		<path
   class="st0"
   d="m 162.5,390.2 c -2.5,-3.5 -7.3,-4.3 -10.7,-1.8 -3.5,2.5 -4.3,7.3 -1.8,10.7 1.4,2 3.6,3.1 5.9,3.2 1.7,0.1 3.4,-0.4 4.8,-1.4 3.5,-2.4 4.3,-7.2 1.8,-10.7 z"
   id="path190" />
		<path
   class="st0"
   d="m 151.8,371.7 v 0 c -1.8,-3.9 -6.3,-5.6 -10.2,-3.8 -3.9,1.8 -5.6,6.3 -3.8,10.2 1.2,2.7 3.9,4.4 6.6,4.5 1.2,0.1 2.4,-0.2 3.6,-0.7 3.9,-1.8 5.6,-6.3 3.8,-10.2 z"
   id="path192" />
		<path
   class="st0"
   d="m 356.8,388.4 c -3.5,-2.5 -8.3,-1.7 -10.7,1.8 v 0 c -2.5,3.5 -1.7,8.3 1.8,10.7 1.2,0.9 2.7,1.4 4.1,1.4 2.5,0.1 5.1,-1 6.6,-3.2 2.5,-3.4 1.7,-8.2 -1.8,-10.7 z"
   id="path194" />
		<path
   class="st0"
   d="m 332.1,406.4 v 0 c -3.1,2.9 -3.2,7.8 -0.3,10.9 1.4,1.5 3.3,2.3 5.2,2.4 2,0.1 4.1,-0.6 5.7,-2.1 0,0 0,0 0,0 3.1,-2.9 3.2,-7.8 0.3,-10.9 -3,-3.1 -7.9,-3.2 -10.9,-0.3 z"
   id="path196" />
		<path
   class="st0"
   d="m 367,367.9 c -3.9,-1.8 -8.4,-0.1 -10.2,3.8 -1.8,3.9 -0.1,8.4 3.8,10.2 0.9,0.4 1.9,0.6 2.8,0.7 3.1,0.1 6,-1.5 7.4,-4.5 1.8,-3.9 0.1,-8.4 -3.8,-10.2 z"
   id="path198" />
		<path
   class="st0"
   d="m 374.9,346.5 h -7.1 c -1.9,1 -3.4,2.8 -3.9,5 -1,4.1 1.5,8.3 5.7,9.3 0.5,0.1 1,0.2 1.4,0.2 3.6,0.2 7,-2.2 7.8,-5.9 0.8,-3.5 -0.9,-7 -3.9,-8.6 z"
   id="path200" />
		<path
   class="st0"
   d="m 296.2,429.5 c -3.9,1.6 -5.9,6.1 -4.3,10 1.2,2.9 3.9,4.7 6.8,4.8 1.1,0.1 2.2,-0.1 3.2,-0.5 3.9,-1.6 5.9,-6.1 4.3,-10 -1.6,-4 -6.1,-5.9 -10,-4.3 z"
   id="path202" />
		<path
   class="st0"
   d="m 315.2,419.7 c -3.6,2.3 -4.6,7.1 -2.3,10.6 1.4,2.2 3.7,3.4 6.1,3.5 1.5,0.1 3.1,-0.3 4.5,-1.2 0,0 0,0 0,0 3.6,-2.3 4.6,-7.1 2.3,-10.6 -2.2,-3.6 -7,-4.6 -10.6,-2.3 z"
   id="path204" />
	</g>
	<path
   d="m 146.3,244.1 h 4.2 c 29.1,-18.6 66,-29.7 106.1,-29.7 40.1,0 77,11.1 106.1,29.7 h 3.6 c 57.8,-21.7 54.6,-58.4 48.8,-72.3 C 409.4,158 395,145 358.7,157.5 c -63.5,21.8 -104.8,20 -104.8,20 0,0 -41.3,1.8 -104.8,-20 -36.2,-12.4 -50.5,0.6 -56.4,14.3 -10.2,24 18.4,52.2 53.6,72.3 z"
   id="path208" />
	<path
   d="m 459.6,313.1 c -0.7,-3.5 -2.2,-7.4 -5.3,-10.6 -2.8,-2.9 -6.5,-4.6 -10.9,-5.1 -5.2,-16.9 -16.9,-24.5 -20.8,-26.6 -20.1,-36.2 -44.1,-49.5 -55.2,-53.9 -10.1,-11.6 -21.3,-21.1 -29.1,-22.7 -10.7,-2.2 -19.9,-0.6 -27.3,4.8 -6.2,4.5 -10.1,10.8 -12.5,16.5 -3.5,1.6 -6.6,3.5 -9.2,5.8 -7.2,6.5 -10.1,15.7 -8.7,27.2 -6.8,9.3 -10.9,20.7 -10.9,33.1 0,15 6,28.7 15.7,38.7 -7.5,6.9 -8,15.7 -4.6,22.1 3.5,6.7 10.8,11.5 18.9,12.3 7.6,0.8 14.9,-1.3 21.2,-3.4 1.3,-0.4 2.6,-0.9 4,-1.4 2.5,-0.9 5,-1.8 7.4,-2.5 0.1,1.7 0.1,3.3 -0.1,5.1 -0.2,1.9 -0.4,3.8 -0.7,5.7 -0.3,1.9 -0.8,3.8 -1.3,5.7 1.4,-1.4 2.7,-2.9 3.9,-4.5 1.3,-1.6 2.4,-3.2 3.6,-5 0.1,-0.2 0.2,-0.4 0.4,-0.6 -0.1,0.4 -0.2,0.9 -0.3,1.3 -1.3,5 -3.1,9.9 -5.1,14.8 3,-3.1 5.8,-6.4 8.5,-9.9 -0.2,0.5 -0.5,0.9 -0.7,1.4 -3.9,7.7 -8.6,15 -14.2,21.7 5.8,-4.5 11.2,-9.6 16.2,-15.2 -0.6,0.9 -1.3,1.8 -1.9,2.7 -3.4,4.6 -6.9,9.1 -10.7,13.3 -3.8,4.3 -7.8,8.3 -12.1,12.2 4.9,-3.1 9.6,-6.4 14.1,-10.1 4.5,-3.6 8.9,-7.5 13.1,-11.6 0.3,-0.3 0.6,-0.6 0.9,-0.9 -52.7,74.6 -132.5,67.6 -181.5,1.6 4,3.8 8,7.5 12.3,10.9 4.5,3.6 9.2,7 14.1,10.1 -4.3,-3.8 -8.3,-7.9 -12.1,-12.2 -3.8,-4.2 -7.3,-8.7 -10.7,-13.3 -0.6,-0.9 -1.3,-1.8 -1.9,-2.7 5,5.6 10.4,10.7 16.2,15.2 -5.6,-6.7 -10.3,-14.1 -14.2,-21.7 -0.2,-0.5 -0.5,-0.9 -0.7,-1.4 2.7,3.5 5.6,6.8 8.5,9.9 -2,-4.9 -3.8,-9.9 -5.1,-14.8 -0.1,-0.4 -0.2,-0.9 -0.3,-1.3 0.1,0.2 0.2,0.4 0.4,0.6 1.1,1.7 2.3,3.4 3.6,5 1.2,1.6 2.6,3.1 3.9,4.5 -0.5,-1.9 -1,-3.8 -1.3,-5.7 -0.4,-1.9 -0.6,-3.8 -0.7,-5.7 -0.1,-1.7 -0.1,-3.4 -0.1,-5.1 2.5,0.7 5,1.6 7.6,2.5 1.3,0.5 2.6,0.9 4,1.4 6.2,2.1 13.6,4.1 21.2,3.4 8.2,-0.9 15.4,-5.6 18.9,-12.3 3.3,-6.3 2.9,-15.2 -4.6,-22.1 9.7,-10 15.7,-23.7 15.7,-38.7 0,-12.4 -4.1,-23.8 -10.9,-33.1 1.4,-11.5 -1.5,-20.7 -8.7,-27.2 -2.5,-2.2 -5.4,-4.1 -8.8,-5.6 -2.4,-5.7 -6.3,-12.1 -12.5,-16.6 -7.4,-5.4 -16.6,-7 -27.3,-4.8 -7.8,1.6 -18.9,11 -28.9,22.5 -10.9,4.3 -35.3,17.4 -55.6,54.1 -3.9,2.1 -15.5,9.7 -20.8,26.6 -4.4,0.5 -8.1,2.2 -10.9,5.1 -3.1,3.2 -4.6,7.1 -5.3,10.6 -7.2,5.1 -44.6,33.7 -40,79.2 2.2,22.3 9.2,29.1 35.2,34.6 9.5,2 18.1,2.9 26.2,2.9 24.1,0 43.9,-8 70.3,-18.7 2,-0.8 4,-1.6 6,-2.4 l -5.3,-6.1 c -1.2,0.5 -2.4,1 -3.5,1.4 -35.2,14.2 -56.5,22.8 -92.1,15.4 -23.8,-5 -27.4,-10.1 -29.2,-27.8 -3.4,-34.3 20.5,-58.8 31.9,-68.3 1.7,24.7 19.2,45.5 41.5,50.4 -0.5,0.6 -1,1.1 -1.6,1.7 -0.6,0.7 -1.4,1.3 -2.1,1.9 -2.9,2.5 -6.2,4.7 -9.7,6.6 -1.8,1 -3.5,1.9 -5.4,2.8 -1.8,0.8 -3.7,1.7 -5.6,2.5 -1.9,0.7 -3.8,1.5 -5.7,2.2 l -5.8,2 6,-1.1 c 2,-0.4 4,-0.9 6,-1.3 2,-0.5 4,-1.1 6,-1.6 2,-0.6 4,-1.2 5.9,-2 3.9,-1.4 7.8,-3.2 11.5,-5.4 0.9,-0.6 1.9,-1.1 2.7,-1.8 0.9,-0.6 1.8,-1.4 2.6,-2.1 0.9,-0.8 1.7,-1.6 2.5,-2.5 0.2,-0.2 0.4,-0.5 0.6,-0.7 0.1,0 0.2,0 0.3,0 15,0 19.5,-8.9 20.8,-14.3 0.2,-0.9 0.4,-1.8 0.5,-2.8 7.6,-1 14.6,-3.7 21.3,-6.3 20.8,43.2 63.9,84.2 113.5,83.6 49.5,0.6 92.6,-40.3 113.4,-83.4 6.6,2.5 13.4,5.1 20.8,6.1 0.1,1 0.3,1.9 0.5,2.8 1.3,5.3 5.8,14.3 20.8,14.3 0.1,0 0.2,0 0.3,0 0.2,0.3 0.4,0.5 0.6,0.7 0.8,1 1.6,1.8 2.5,2.5 0.9,0.8 1.7,1.5 2.6,2.1 0.9,0.7 1.8,1.3 2.7,1.8 3.7,2.3 7.6,4 11.5,5.4 2,0.7 3.9,1.3 5.9,2 2,0.5 4,1.1 6,1.6 2,0.4 4,0.9 6,1.3 l 6,1.1 -5.8,-2 c -1.9,-0.7 -3.8,-1.5 -5.7,-2.2 -1.9,-0.7 -3.7,-1.6 -5.6,-2.5 -1.8,-0.9 -3.6,-1.8 -5.4,-2.8 -3.5,-1.9 -6.8,-4.1 -9.7,-6.6 -0.7,-0.6 -1.4,-1.2 -2.1,-1.9 -0.6,-0.5 -1.1,-1.1 -1.6,-1.7 22.2,-4.9 39.7,-25.8 41.5,-50.4 11.4,9.6 35.3,34 31.9,68.3 -1.8,17.7 -5.4,22.9 -29.2,27.8 -35.6,7.5 -56.8,-1.1 -92.1,-15.4 -1.2,-0.5 -2.4,-1 -3.5,-1.4 l -5.3,6.1 c 2,0.8 4,1.6 6,2.4 26.4,10.7 46.2,18.7 70.3,18.7 8.1,0 16.7,-0.9 26.2,-2.9 26.1,-5.5 33,-12.3 35.2,-34.6 4.8,-45.6 -32.6,-74.2 -39.8,-79.3 z M 223.2,281.5 c 0,22.1 -18,40.1 -40.1,40.1 -22.1,0 -40.1,-18 -40.1,-40.1 0,-22.1 18,-40.1 40.1,-40.1 22.1,0 40.1,18 40.1,40.1 z m -51.1,-79.8 c 8.5,-1.7 15.6,-0.6 21.2,3.5 2.7,2 4.9,4.4 6.6,7.1 -4.7,-1 -9.9,-1.6 -15.7,-1.7 -8.8,-0.2 -18.9,0.7 -28.6,2.5 6.3,-6.1 12.3,-10.5 16.5,-11.4 z M 99.5,359.3 c -1.3,-0.3 -2.5,-0.8 -3.8,-1.2 -1.3,-0.5 -2.5,-1 -3.8,-1.5 -1.2,-0.6 -2.5,-1.2 -3.7,-1.8 l -3.7,-2 3.1,2.8 c 1.1,0.9 2.2,1.7 3.3,2.6 1.1,0.8 2.3,1.6 3.5,2.4 0.5,0.3 0.9,0.6 1.4,0.9 -1.1,-0.4 -2.1,-0.8 -3.1,-1.3 -3.1,-1.3 -6,-3.1 -8.9,-5 l -4.2,-3.1 -4,-3.3 3.3,4 3.6,3.8 c 2.5,2.4 5.2,4.8 8.2,6.9 0.4,0.3 0.7,0.5 1.1,0.7 -2.7,-1.2 -5.4,-2.7 -8,-4.4 -2.9,-1.9 -5.6,-4.3 -8.3,-6.7 -1.3,-1.2 -2.5,-2.5 -3.8,-3.8 l -3.6,-4.1 2.9,4.8 c 1,1.5 2,3 3.1,4.5 2,2.5 4,5.1 6.3,7.4 -13.8,-7.7 -23.6,-23.3 -24.3,-40.9 0.5,2.2 1.2,4.3 1.9,6.3 0.4,1.2 0.9,2.3 1.3,3.4 l 1.5,3.3 -0.6,-3.6 c -0.1,-1.2 -0.3,-2.4 -0.4,-3.6 -0.2,-2.4 -0.3,-4.7 -0.1,-7.1 0.1,-2.3 0.4,-4.5 0.8,-6.7 0.1,0.5 0.1,1 0.2,1.4 0.2,1.6 0.5,3.1 0.9,4.6 0.3,-1.5 0.6,-3 0.9,-4.5 0,-0.2 0.1,-0.3 0.1,-0.5 0,0.4 0,0.7 0,1.1 0,0.1 0,0.1 0,0.2 0.5,8.5 6.2,23.8 23.9,27.4 2.1,5.1 5.9,10.2 13,13 -1.1,-0.3 -2.2,-0.6 -3.3,-0.9 -1,-0.3 -2.1,-0.7 -3.1,-1.1 l -3.1,-1.4 2.6,2.2 c 0.9,0.7 1.8,1.4 2.8,2 1.4,0.9 2.8,1.8 4.2,2.5 0,0.3 -0.1,0.3 -0.1,0.3 z m 59.6,-21.2 -0.3,0.1 c -7.1,1 -13.7,3.5 -20.2,6 -7.5,2.9 -14.5,5.6 -22.2,6.1 h -0.3 c -5,0.4 -9.1,0 -12.5,-1.2 0.3,0 0.5,0 0.8,0 1,0.1 2.1,0 3.1,-0.1 1,-0.1 2,-0.2 3,-0.3 -1,-0.2 -2,-0.4 -2.9,-0.6 -1,-0.3 -1.9,-0.5 -2.8,-0.9 -0.6,-0.2 -1.1,-0.4 -1.7,-0.7 1,0 1.9,-0.1 2.9,-0.3 1,-0.1 2,-0.4 3,-0.5 1,-0.2 2,-0.5 2.9,-0.8 -1,-0.1 -2,-0.1 -3,-0.2 -1,-0.1 -2,-0.2 -2.9,-0.4 -0.4,-0.1 -0.8,-0.2 -1.1,-0.2 1.5,-0.3 3,-0.8 4.5,-1.2 1,-0.4 2.1,-0.8 3.1,-1.1 l 3,-1.3 -3.2,0.4 c -1.1,0.1 -2.1,0.1 -3.2,0.2 -0.2,0 -0.5,0 -0.7,0 3.5,-1.1 6.8,-2.6 9.9,-4.5 3.6,-2.2 6.8,-4.9 9.4,-8 2.7,-3.1 4.8,-6.6 6.4,-10.2 -2.2,3.3 -4.8,6.4 -7.7,8.9 -3,2.5 -6.3,4.5 -9.8,5.9 -7,2.9 -14.6,3.5 -22,2.9 0,0 -0.1,0 -0.1,0 C 73,335.7 71,316.9 70.9,315.2 c 0,-18.7 8.3,-29 14.2,-34.1 0,1 0.1,1.9 0.2,2.9 0.2,1.9 0.4,3.7 0.8,5.6 0.4,1.8 0.9,3.6 1.5,5.3 0,-1.8 0.1,-3.6 0.4,-5.4 0.2,-1.8 0.6,-3.5 1.1,-5.2 0.5,-1.7 1,-3.3 1.7,-4.9 0.3,-0.8 0.7,-1.6 1,-2.3 0.2,-0.3 0.3,-0.7 0.5,-1 0.2,-0.2 0.3,-0.4 0.4,-0.6 24.8,-45.5 56.5,-53.1 56.9,-53.2 32.6,-7.9 56.2,-3.4 65,4.6 3.8,3.4 5.9,7.8 6.4,13.3 -9.9,-8.9 -23,-14.4 -37.3,-14.4 -16.1,0 -30.6,6.9 -40.7,17.8 -0.4,0.2 -0.8,0.4 -1.2,0.5 -0.9,0.4 -1.8,0.8 -2.6,1.3 -1.7,0.9 -3.3,1.9 -4.9,3 -1.5,1.1 -3,2.3 -4.4,3.5 -1.4,1.2 -2.6,2.6 -3.8,4 1.6,-0.9 3.2,-1.7 4.9,-2.4 1.6,-0.7 3.3,-1.2 5,-1.7 0.3,-0.1 0.5,-0.1 0.8,-0.2 -5.5,8.6 -8.6,18.8 -8.6,29.7 0,30.7 25,55.7 55.7,55.7 12.6,0 24.2,-4.2 33.5,-11.3 -0.8,1 -1.7,2.1 -2.7,3 -1.1,1 -2.2,2 -3.4,2.9 -1.2,0.9 -2.5,1.8 -3.9,2.6 1.6,-0.2 3.1,-0.5 4.7,-0.8 1.6,-0.4 3.1,-0.8 4.7,-1.4 0.7,-0.3 1.4,-0.6 2.1,-0.9 -1.1,0.9 -2.3,1.7 -3.6,2.4 -1.7,1 -3.4,1.9 -5.3,2.7 -0.9,0.4 -1.9,0.7 -2.8,1.1 -1,0.3 -1.9,0.6 -2.9,0.9 1,0 2,0 3.1,0 1,-0.1 2.1,0 3.1,-0.2 2.1,-0.2 4.2,-0.5 6.2,-0.9 1.3,-0.3 2.6,-0.7 3.9,-1.1 0,0 0,0 0,0 -1.4,0.9 -2.9,1.7 -4.5,2.3 -1.6,0.7 -3.2,1.2 -4.9,1.6 -1.7,0.4 -3.5,0.7 -5.3,0.9 1.7,0.5 3.5,0.9 5.4,1.1 1.8,0.2 3.7,0.3 5.6,0.2 0.5,0 1.1,-0.1 1.6,-0.1 -0.2,0.1 -0.3,0.2 -0.5,0.2 -1.2,0.6 -2.5,1 -3.9,1.2 -1.4,0.3 -2.9,0.4 -4.4,0.4 -0.7,0 -1.5,-0.1 -2.3,-0.1 l -2.3,-0.3 2,1.2 c 0.7,0.3 1.4,0.7 2.1,1 0.5,0.2 1,0.4 1.5,0.6 -0.7,0.2 -1.5,0.3 -2.2,0.4 -6.1,0.6 -12.5,-1.2 -17.9,-3 -1.3,-0.4 -2.6,-0.9 -3.9,-1.3 -5.1,-1.8 -10.3,-3.6 -15.9,-4.5 -4.4,-0.2 -8.1,-0.1 -11.7,0.3 0,0 0,0 0,0 z M 315.6,205.2 c 5.6,-4 12.8,-5.2 21.2,-3.5 4.1,0.8 10.2,5.3 16.6,11.5 -9.8,-1.8 -20.1,-2.8 -28.9,-2.6 -5.7,0.1 -10.8,0.7 -15.4,1.6 1.7,-2.6 3.8,-5 6.5,-7 z m -30.2,76.3 c 0,-22.1 18,-40.1 40.1,-40.1 22.1,0 40.1,18 40.1,40.1 0,22.1 -18,40.1 -40.1,40.1 -22.1,0 -40.1,-18 -40.1,-40.1 z m 116,67.7 c 1,0 2,0.1 3.1,0.1 0.2,0 0.5,0 0.8,0 -3.4,1.2 -7.5,1.6 -12.5,1.2 h -0.3 c -7.7,-0.5 -14.8,-3.3 -22.2,-6.1 -6.6,-2.5 -13.3,-5.1 -20.4,-6.1 l -0.2,-0.1 c 0,0 0,0 0,0 -3.6,-0.5 -7.3,-0.5 -11.1,0.1 -5.6,0.8 -10.8,2.7 -15.9,4.5 -1.3,0.5 -2.6,0.9 -3.9,1.3 -5.4,1.8 -11.8,3.6 -17.9,3 -0.8,-0.1 -1.5,-0.2 -2.2,-0.4 0.5,-0.2 1,-0.4 1.5,-0.6 0.7,-0.3 1.4,-0.7 2.1,-1 l 2,-1.2 -2.3,0.3 c -0.8,0 -1.5,0.1 -2.3,0.1 -1.5,0 -3,-0.1 -4.4,-0.4 -1.4,-0.3 -2.7,-0.7 -3.9,-1.2 -0.2,-0.1 -0.3,-0.2 -0.5,-0.2 0.5,0 1.1,0.1 1.6,0.1 1.9,0.1 3.8,0 5.6,-0.2 1.8,-0.2 3.6,-0.6 5.4,-1.1 -1.8,-0.2 -3.6,-0.4 -5.3,-0.9 -1.7,-0.4 -3.3,-1 -4.9,-1.6 -1.6,-0.6 -3.1,-1.4 -4.5,-2.3 0,0 0,0 0,0 1.3,0.4 2.6,0.8 3.9,1.1 2.1,0.4 4.2,0.8 6.2,0.9 1,0.1 2.1,0.1 3.1,0.2 1,0 2.1,0 3.1,0 -1,-0.3 -2,-0.6 -2.9,-0.9 -0.9,-0.4 -1.9,-0.7 -2.8,-1.1 -1.9,-0.8 -3.6,-1.7 -5.3,-2.7 -1.2,-0.8 -2.4,-1.6 -3.6,-2.4 0.7,0.3 1.4,0.6 2.1,0.9 1.6,0.6 3.1,1.1 4.7,1.4 1.6,0.4 3.1,0.6 4.7,0.8 -1.4,-0.8 -2.7,-1.7 -3.9,-2.6 -1.2,-0.9 -2.4,-1.9 -3.4,-2.9 -1,-1 -1.9,-2 -2.7,-3 9.3,7.1 20.9,11.3 33.5,11.3 30.7,0 55.7,-25 55.7,-55.7 0,-10.9 -3.2,-21.1 -8.6,-29.7 0.3,0.1 0.5,0.1 0.8,0.2 1.7,0.4 3.4,1 5,1.7 1.7,0.6 3.3,1.5 4.9,2.4 -1.2,-1.4 -2.4,-2.7 -3.8,-4 -1.4,-1.3 -2.8,-2.4 -4.4,-3.5 -1.5,-1.1 -3.2,-2.1 -4.9,-3 -0.8,-0.5 -1.7,-0.9 -2.6,-1.3 -0.4,-0.2 -0.8,-0.4 -1.2,-0.5 -10.2,-10.9 -24.7,-17.8 -40.7,-17.8 -14.3,0 -27.4,5.5 -37.3,14.4 0.5,-5.5 2.6,-9.9 6.4,-13.3 8.8,-8 32.4,-12.5 65,-4.6 0.4,0.1 32.1,7.7 56.9,53.2 0.1,0.2 0.3,0.4 0.4,0.6 0.2,0.3 0.4,0.7 0.5,1 0.4,0.8 0.7,1.5 1,2.3 0.7,1.6 1.2,3.2 1.7,4.9 0.5,1.7 0.9,3.4 1.1,5.2 0.3,1.8 0.4,3.6 0.4,5.4 0.6,-1.7 1.1,-3.5 1.5,-5.3 0.4,-1.8 0.7,-3.7 0.8,-5.6 0.1,-0.9 0.1,-1.9 0.2,-2.9 5.9,5 14.1,15.4 14.2,34.1 -0.1,1.6 -2.1,20.5 -23.6,20.9 0,0 -0.1,0 -0.1,0 -7.4,0.6 -15.1,0 -22,-2.9 -3.5,-1.4 -6.8,-3.4 -9.8,-5.9 -3,-2.5 -5.6,-5.5 -7.7,-8.9 1.6,3.6 3.7,7.1 6.4,10.2 2.6,3.1 5.8,5.8 9.4,8 3.1,1.9 6.4,3.4 9.9,4.5 -0.2,0 -0.5,0 -0.7,0 -1.1,0 -2.1,-0.1 -3.2,-0.2 l -3.2,-0.4 3,1.3 c 1,0.4 2,0.8 3.1,1.1 1.5,0.5 2.9,0.9 4.5,1.2 -0.4,0.1 -0.8,0.2 -1.1,0.2 -1,0.2 -1.9,0.3 -2.9,0.4 -1,0.1 -2,0.1 -3,0.2 1,0.3 1.9,0.5 2.9,0.8 1,0.2 2,0.4 3,0.5 0.9,0.1 1.9,0.2 2.9,0.3 -0.6,0.2 -1.1,0.5 -1.7,0.7 -0.9,0.4 -1.9,0.6 -2.8,0.9 -1,0.2 -1.9,0.4 -2.9,0.6 0.4,-0.3 1.4,-0.1 2.5,0 z m 26.8,12.7 c 2.3,-2.3 4.3,-4.8 6.3,-7.4 1.1,-1.5 2.1,-3 3.1,-4.5 l 2.8,-4.7 -3.6,4.1 c -1.3,1.3 -2.5,2.6 -3.8,3.8 -2.7,2.4 -5.3,4.7 -8.3,6.7 -2.6,1.7 -5.2,3.2 -8,4.4 0.4,-0.2 0.7,-0.5 1.1,-0.7 3,-2 5.6,-4.4 8.2,-6.9 l 3.6,-3.8 3.3,-4 -4,3.3 -4.2,3.1 c -2.9,1.9 -5.8,3.7 -8.9,5 -1,0.5 -2.1,0.9 -3.1,1.3 0.5,-0.3 0.9,-0.6 1.4,-0.9 1.2,-0.8 2.3,-1.6 3.5,-2.4 1.1,-0.9 2.2,-1.7 3.3,-2.6 l 3.1,-2.8 -3.7,2 c -1.2,0.6 -2.5,1.2 -3.7,1.8 -1.3,0.5 -2.5,1 -3.8,1.5 -1.3,0.4 -2.5,0.9 -3.8,1.2 -0.1,0 -0.2,0 -0.3,0.1 1.5,-0.8 2.9,-1.6 4.2,-2.5 0.9,-0.6 1.9,-1.4 2.8,-2 l 2.6,-2.2 -3.1,1.4 c -1.1,0.4 -2.1,0.8 -3.1,1.1 -1.1,0.3 -2.2,0.6 -3.3,0.9 7.1,-2.8 11,-7.9 13,-13 17.7,-3.6 23.5,-18.9 23.9,-27.4 0,-0.1 0,-0.1 0,-0.2 0,-0.4 0,-0.7 0,-1.1 0,0.2 0.1,0.3 0.1,0.5 0.3,1.5 0.6,3 0.9,4.5 0.3,-1.5 0.6,-3 0.9,-4.6 0.1,-0.5 0.1,-1 0.2,-1.4 0.5,2.2 0.7,4.4 0.8,6.7 0.1,2.3 0,4.7 -0.1,7.1 -0.1,1.2 -0.3,2.4 -0.4,3.6 l -0.6,3.6 1.5,-3.3 c 0.4,-1.1 0.9,-2.3 1.3,-3.4 0.7,-2.1 1.4,-4.1 1.9,-6.3 -0.4,17.1 -10.2,32.7 -24,40.4 z"
   id="path210" />
	<g
   id="g220">
		<g
   id="g214">
			<path
   class="st1"
   d="m 440.6,301.1 h -0.1 c -5.2,-20.5 -20.6,-27.4 -20.6,-27.4 -20,-36.8 -44.4,-49.6 -54.5,-53.5 -9.9,-11.4 -20.7,-20.8 -27.7,-22.2 -22.1,-4.5 -31.9,9.7 -36,20.4 -11.6,4.6 -19.2,13.7 -17,30.1 l 74.1,52.1 -67.4,20 c -8.9,5.8 -10,14.1 -7,19.9 3,5.8 9.3,9.6 15.9,10.3 6.6,0.7 13.3,-1 19.6,-3.2 6.3,-2.1 12.5,-4.7 19.1,-5.6 18.9,-2.8 34.2,10.9 53.2,12.2 0.1,0 0.2,0 0.3,0 0.1,9.7 5,16.9 18.1,16.7 26,-1.2 45.5,-25 45.8,-51 0.1,-4.7 -1,-18.8 -15.8,-18.8 z"
   id="path212" />
		</g>
		<g
   id="g218">
			<path
   class="st1"
   d="m 217.4,320.6 -67.4,-20 74.1,-52.1 c 2.2,-16.3 -5.2,-25.4 -16.6,-30 -4.1,-10.8 -13.9,-25.1 -36.1,-20.6 -7,1.4 -17.8,10.8 -27.6,22.1 -9.9,3.8 -34.6,16.4 -54.9,53.7 0,0 -15.4,6.9 -20.6,27.4 h -0.1 c -14.8,0 -15.9,14.1 -15.8,18.8 0.3,26 19.8,49.8 45.8,51 13.1,0.2 18.1,-7 18.1,-16.7 0.1,0 0.2,0 0.3,0 19,-1.3 34.4,-15 53.2,-12.2 6.6,1 12.8,3.5 19.1,5.6 6.3,2.1 12.9,3.9 19.6,3.2 6.6,-0.7 12.9,-4.5 15.9,-10.3 3,-5.8 1.8,-14.1 -7,-19.9 z"
   id="path216" />
		</g>
	</g>
	<g
   id="g234">
		<g
   id="g226">
			
				<circle
   transform="matrix(0.7071,-0.7071,0.7071,0.7071,-145.9616,211.8358)"
   class="st2"
   cx="182.7"
   cy="282.10001"
   id="ellipse222"
   r="42" />
			<path
   class="st4"
   d="m 150.7,313.9 c -17.9,-17.9 -17.9,-46.9 0,-64.8 17.9,-17.9 46.9,-17.9 64.8,0 17.9,17.9 17.9,46.9 0,64.8 -17.8,17.9 -46.9,17.9 -64.8,0 z m 60.8,-60.7 c -15.6,-15.6 -40.2,-16.5 -54.8,-1.9 -14.6,14.6 -11.8,37.3 3.8,52.9 15.6,15.6 38.3,18.4 52.9,3.8 14.6,-14.6 13.7,-39.2 -1.9,-54.8 z"
   id="path224" />
		</g>
		<g
   id="g232">
			
				<circle
   transform="matrix(0.7071,-0.7071,0.7071,0.7071,-104.2651,312.5002)"
   class="st2"
   cx="325.10001"
   cy="282.10001"
   id="ellipse228"
   r="42" />
			<path
   class="st4"
   d="m 293.1,313.9 c -17.9,-17.9 -17.9,-46.9 0,-64.8 17.9,-17.9 46.9,-17.9 64.8,0 17.9,17.9 17.9,46.9 0,64.8 -17.9,17.9 -46.9,17.9 -64.8,0 z m 60.7,-60.7 c -15.6,-15.6 -40.2,-16.5 -54.8,-1.9 -14.6,14.6 -11.8,37.3 3.8,52.9 15.6,15.6 38.3,18.4 52.9,3.8 14.6,-14.6 13.8,-39.2 -1.9,-54.8 z"
   id="path230" />
		</g>
	</g>
	<polygon
   class="st0"
   points="261.7,125.5 254.3,121.7 246.9,125.5 254.3,129.2 "
   id="polygon236" />
	<g
   id="g240">
		<path
   d="m 253.8,177.5 c 0,0 40.9,1.7 103.9,-19.7 -1,-43.9 -6.6,-66.3 -15.6,-80 -9.3,-14.2 -36.1,-38.1 -87.8,-38.1 -51.7,0 -78.5,23.9 -87.8,38.1 -9,13.8 -14.6,36.2 -15.6,80.4 62.5,21 102.9,19.3 102.9,19.3 z"
   id="path238" />
	</g>
	<g
   id="g246">
		<path
   class="st3"
   d="m 372.3,216.9 c 4.1,1.6 9.8,4.4 16.5,9.1 0.4,-0.3 0.8,-0.5 1.2,-0.8 2.8,-1.9 5.4,-4.1 7.7,-6.4 2.3,-2.4 4.4,-4.9 6.3,-7.5 1,-1.3 1.8,-2.7 2.7,-4.1 0.8,-1.4 1.6,-2.8 2.3,-4.2 -1,1.2 -2.1,2.4 -3.1,3.6 -1.1,1.1 -2.2,2.3 -3.3,3.4 -2.3,2.2 -4.7,4.1 -7.3,5.8 -1.4,1 -2.9,1.8 -4.4,2.6 0,0 0,0 0,0 2.3,-2.2 4.5,-4.6 6.5,-7 1,-1.2 2,-2.4 3,-3.6 l 2.9,-3.7 -3.6,3.1 c -1.2,1 -2.4,2 -3.6,2.9 -2.4,1.9 -5,3.7 -7.5,5.3 -0.6,0.4 -1.2,0.7 -1.8,1 0.5,-0.5 1,-0.9 1.5,-1.4 1.1,-1.1 2.1,-2.1 3.1,-3.2 1,-1.1 2,-2.2 3,-3.3 l 2.8,-3.4 -3.5,2.7 c -1.2,0.9 -2.4,1.7 -3.5,2.6 -1.2,0.8 -2.4,1.6 -3.6,2.4 -1.3,0.7 -2.5,1.5 -3.8,2.1 -0.8,0.4 -1.6,0.8 -2.4,1.1 1.1,-0.9 2.3,-1.9 3.4,-2.8 1.8,-1.5 3.4,-3.1 5.1,-4.7 -2.1,1.1 -4.1,2.1 -6.2,3.1 -2.1,1 -4.2,1.9 -6.3,2.7 -1.6,0.6 -3.3,1.2 -4.9,1.7 0.2,0.3 0.5,0.6 0.8,0.9 z"
   id="path242" />
		<path
   class="st3"
   d="m 135.5,168.9 c 2.5,0.2 27.3,10.4 27.3,10.4 -15.3,-4.8 -31.6,-8.8 -47.7,-7.8 13.2,1.1 26.1,4.6 38.6,8.7 -14.8,-3 -29.8,-4.5 -44.8,-4 5.7,0.9 11.3,2.2 16.6,4 0,0 -16.6,-1.4 -25.9,4.5 7.1,-30.6 38.6,-23.9 64.7,-13.9 15.2,5 30.9,9.4 46.7,12.4 52.2,10.1 105.5,-1.1 155.4,-17.1 -62.7,25 -137.1,33.7 -201.8,9.3 0,0 -15.2,-5.3 -29.1,-6.5 z"
   id="path244" />
	</g>
	<g
   id="g252">
		<path
   class="st2"
   d="m 165.5,159.7 c 1.5,0.6 3,1.2 4.5,1.8 12.7,4.8 25.9,8.4 39.4,10.5 1.6,0.2 5.4,0.7 7.1,0.9 1.6,0.1 5.6,0.5 7.1,0.6 1.5,0 5.5,0.2 7.1,0.2 -1.6,-0.1 -5.6,-0.5 -7.1,-0.7 -1.5,-0.2 -5.5,-0.8 -7,-1 -1.6,-0.3 -5.4,-1 -7,-1.4 -13.1,-2.9 -25.9,-7.3 -38.2,-12.8 -3.2,-1.5 -6.4,-3 -9.5,-4.6 13.4,5.6 27.7,9.1 42.2,9.9 -15.3,-2.4 -30.2,-7.8 -43.6,-15.5 9.6,3.7 19.7,5.9 29.9,7.4 l 4.9,0.7 -4.8,-1.3 c -10.3,-2.9 -20.6,-6.4 -30.1,-11.7 -0.4,-0.2 -1.2,-0.7 -1.5,-0.9 v -0.2 c 8.8,3.3 18.1,5.3 27.3,6.9 l 4.3,0.7 -4.2,-1.3 c -8.4,-2.6 -16.6,-5.7 -24.5,-9.7 6.6,2.2 13.5,3.4 20.5,4 l 3.8,0.3 -3.8,-0.9 c -8,-2 -15.9,-4.6 -22.9,-9 l -0.2,-0.1 v -0.1 c 6.7,2.6 13.9,4.1 21.1,4.7 -7.4,-2.2 -14.6,-5.2 -21,-9.6 v -0.2 c 6.2,2.4 12.7,4 19.3,5.1 -6.7,-2.6 -13.2,-5.9 -19.1,-9.9 v -0.3 c 5.4,1.3 10.9,2.5 16.5,3.1 -5.5,-2.1 -10.8,-4.8 -16,-7.5 v -0.2 c 4.4,0.6 8.8,1.1 13.1,1.4 -3.9,-1.6 -7.8,-3.3 -11.6,-5.2 4.3,0.3 8.8,0.3 13.1,-0.1 -3.2,-0.7 -6.4,-1.6 -9.5,-2.7 3.4,-1 6.7,-1.8 10.3,-2.2 -3.9,-0.6 -7.9,-0.9 -11.8,-0.9 3.6,-1.6 6.7,-2.4 10.6,-3.3 -4,-0.3 -7.6,-0.8 -11.6,-0.3 2.7,-1.6 5.1,-4.1 8.1,-5.2 l -6.1,-2.6 5.5,-3.1 -3.6,-3.7 3.7,-1.7 c 0,0 -1.4,-3.8 -0.6,-7.2 -8.7,13.6 -13.4,44 -12.4,67.4 0.1,9.1 0.5,8.4 8.3,11.5 z"
   id="path248" />
		<path
   class="st2"
   d="m 351,144.9 c -0.2,-2.5 -0.4,-4.9 -0.7,-7.4 -0.3,-2.5 -0.5,-4.9 -0.8,-7.4 -0.6,-4.9 -1.4,-9.8 -2.4,-14.7 -1,-4.8 -2.2,-9.7 -4,-14.3 1.5,4.7 2.3,9.6 3,14.4 0.6,4.9 1.1,9.8 1.3,14.7 0.2,2.5 0.2,4.9 0.3,7.4 0.1,2.5 0.1,4.9 0.1,7.4 l -0.1,7.4 -0.1,3.3 c 0,1.2 -0.8,2.3 -1.9,2.8 0,0 0,0 0,0 -5.6,1.4 -10.1,3.4 -25.2,7.9 0,0 19.6,-3.5 28.1,-6 1.8,-0.5 2.9,-2.3 2.9,-4.2 0,-1 0,-2.3 0,-3.9 z"
   id="path250" />
	</g>
	<path
   class="st4"
   d="m 280,72.9 c -5,-3.8 -11.4,-4.8 -19,-3.1 l -40,6.5 0.5,2.5 22.4,35.2 -18.2,1.6 0.5,2.5 28.2,44.1 V 130.5 L 261,129 c 7.5,-1.7 13.9,-5.7 18.9,-11.9 5.1,-6.1 7.6,-13.5 7.6,-22 v -4 C 287.6,82.9 285,76.7 280,72.9 Z m -11.9,26.4 c 0,2.7 -0.5,5.1 -1.5,6.9 -1.1,2 -2.5,3.2 -4.2,3.6 l -7.2,1.7 0.8,-21.6 6.4,-1.5 c 1.6,-0.4 3,0.2 4.1,1.6 1,1.3 1.5,3.4 1.5,6.2 v 3.1 z"
   id="path254" />
	<path
   class="st2"
   d="m 279.7,70.4 c -5,-3.8 -11.4,-4.8 -19,-3.1 l -39.5,9.1 22.4,35.2 -17.7,4.1 28.2,44.1 v -31.7 l 6.6,-1.5 c 7.5,-1.7 13.9,-5.7 18.9,-11.9 5.1,-6.1 7.6,-13.5 7.6,-22 v -4 c 0.1,-8.3 -2.4,-14.5 -7.5,-18.3 z m -11.9,26.4 c 0,2.7 -0.5,5.1 -1.5,6.9 -1.1,2 -2.5,3.2 -4.2,3.6 l -7.2,1.7 0.8,-21.6 6.4,-1.5 c 1.6,-0.4 3,0.2 4.1,1.6 1,1.3 1.5,3.4 1.5,6.2 v 3.1 z"
   id="path256" />
	<path
   d="m 275,384 -0.7,-0.1 c 0.3,-0.2 0.5,-0.5 0.7,-0.7 l -5.4,-1.1 c -3.4,1.8 -8.4,4.1 -15.2,4.1 -7,0 -12.1,-2.3 -15.5,-4.2 l -4.3,1.3 c 0.2,0.2 0.4,0.5 0.6,0.7 l -0.6,0.2 c 0.2,0.2 0.4,0.5 0.6,0.7 l -0.6,0.2 c 6.4,8.4 33.9,7.8 40.4,-0.1 l -0.7,-0.1 c 0.2,-0.4 0.4,-0.6 0.7,-0.9 z"
   id="path258" />
	<path
   d="m 263.4,402 c -0.8,-1 -2,-1.8 -3.6,-2.4 v 0 c -0.8,-0.3 -1.7,-0.6 -2.7,-0.7 -1,-0.2 -2,-0.3 -3.1,-0.3 -1,0 -2.1,0.1 -3,0.3 -0.9,0.2 -1.8,0.4 -2.7,0.7 -1.6,0.6 -2.8,1.5 -3.6,2.4 -0.7,0.8 -0.4,1.9 0.7,2.5 0.5,0.3 1.1,0.4 1.7,0.4 0.5,0 1,-0.1 1.5,-0.3 0.9,-0.4 1.8,-0.8 2.7,-1 1.8,-0.5 3.5,-0.5 5.2,0 1,0.3 1.9,0.7 2.7,1 1,0.4 2.3,0.4 3.2,-0.1 1.3,-0.7 1.6,-1.7 1,-2.5 z"
   id="path260" />
	<g
   id="_x32_rv3kk_4_">
		<g
   id="g264">
			<path
   class="st0"
   d="m 294.8,289.1 c 3.7,12.5 12.6,22.9 30,24.2 18.7,1.4 35.6,-15.6 33.8,-34.1 -0.8,-16.4 -15.7,-30.1 -32.2,-28.3 -17.3,1.1 -30,19.7 -23.3,36 9.2,24 45.8,18.9 44.1,-7.9 -1.1,-9.7 -9.1,-17.1 -18.8,-16.8 -8.7,0.2 -15.6,7.1 -15.6,15.6 0,7.7 6.3,13.7 13.6,13.3 6.3,-0.4 11.1,-6.7 9.2,-12.5 -1.2,-3.8 -5.1,-6 -8.6,-4.8 -1.8,0.6 -3,1.8 -3.2,3.8 -0.1,1 0.2,1.9 1.1,2.6 0.9,0.7 1.9,0.4 2.4,-0.6 0.4,-0.9 1.1,-1.1 1.9,-0.5 0.8,0.5 1.1,1.7 0.9,2.8 -0.5,2.2 -2.9,3.6 -5.4,3.3 -3.3,-0.4 -6,-3.5 -6,-7.1 -0.1,-6.4 6,-11.1 12.6,-9.7 7,1.5 11.4,8.6 9.7,15.9 -2,8.7 -10.9,13.9 -19.8,11.6 -8.8,-2.3 -14.7,-10.9 -13.7,-20.2 2.7,-22.3 32.5,-25.4 42.3,-6.3 13.8,29.4 -24.6,51.9 -45.8,28.9 -2.8,-3.1 -5.1,-6.5 -6.2,-10.2 -8.8,-30.3 18.4,-40.5 18.4,-40.5 0,0 -30.8,9.5 -21.4,41.5 z"
   id="path262" />
		</g>
	</g>
	<g
   id="g271">
		<path
   class="st1"
   d="m 356.5,266.9 c -1.6,-10 -15.2,-19.7 -25.1,-18.8 -1.5,0.1 -4.1,0.1 -3.3,2.3 0.5,1.7 2.6,2.2 4.3,2.6 3.9,0.9 7,2.7 10.3,4.9 3.6,2.5 6.9,5.4 9.4,9.2 0.8,1.6 4.8,2.6 4.4,-0.2 z"
   id="path267" />
		<circle
   class="st1"
   cx="356.5"
   cy="272.20001"
   r="1.9"
   id="circle269" />
	</g>
	<polygon
   class="st0"
   points="202,249.1 195.1,269.8 215.8,262.9 199.5,277.4 220.9,281.8 199.5,286.2 215.8,300.7 195.1,293.8 202,314.5 187.5,298.1 183.1,319.5 178.8,298.1 164.3,314.5 171.2,293.8 150.5,300.7 166.8,286.2 145.4,281.8 166.8,277.4 150.5,262.9 171.2,269.8 164.3,249.1 178.8,265.4 183.1,244.1 187.5,265.4 "
   id="polygon273" />
	<g
   id="g279">
		<path
   class="st1"
   d="m 214.5,266.9 c -1.6,-10 -15.2,-19.7 -25.1,-18.8 -1.5,0.1 -4.1,0.1 -3.3,2.3 0.5,1.7 2.6,2.2 4.3,2.6 3.9,0.9 7,2.7 10.3,4.9 3.6,2.5 6.9,5.4 9.4,9.2 0.8,1.6 4.8,2.6 4.4,-0.2 z"
   id="path275" />
		<circle
   class="st1"
   cx="214.5"
   cy="272.20001"
   r="1.9"
   id="circle277" />
	</g>
	<g
   id="g285">
		<path
   d="m 248.8,300.6 c 0,0 -4.2,9.2 -1.1,18.5 0,0 -8.7,-0.4 -14.1,-4.8 z"
   id="path281" />
		<path
   d="m 259.8,300.6 c 0,0 4.2,9.2 1.1,18.5 0,0 8.7,-0.4 14.1,-4.8 z"
   id="path283" />
	</g>
	<g
   id="g299">
		<g
   id="g291">
			<path
   class="st5"
   d="m 218.9,317.7 c 8.9,-9.4 14.4,-22.1 14.4,-36.2 C 233.3,262 222.7,245 207,236 l 11.6,0.4 c 4.3,0 8.4,2.6 10.6,6.9 l 15.7,46.7 c 2.6,7.7 -1,16.2 -8.5,19.6 z"
   id="path287" />
			<path
   d="m 218.9,321.5 c -1.2,0 -2.4,-0.6 -3.1,-1.6 -1.1,-1.5 -0.9,-3.6 0.3,-4.9 8.6,-9.1 13.4,-21 13.4,-33.5 0,-17.3 -9.4,-33.5 -24.4,-42.2 -1.5,-0.9 -2.3,-2.7 -1.8,-4.4 0.5,-1.7 2.1,-2.8 3.8,-2.8 l 11.5,0.4 c 5.7,0 11,3.4 13.9,8.9 0.1,0.2 0.2,0.4 0.2,0.6 l 15.7,46.7 c 3.2,9.6 -1.3,20.1 -10.5,24.3 l -17.5,8.1 c -0.4,0.3 -0.9,0.4 -1.5,0.4 z M 237.1,279 c 0,0.8 0.1,1.7 0.1,2.5 0,9.4 -2.3,18.4 -6.6,26.5 l 4.2,-2 c 5.6,-2.6 8.4,-9 6.4,-14.9 z m -17.9,-38.7 c 3,2.8 5.7,6 8.1,9.4 l -1.6,-4.9 c -1.5,-2.6 -3.9,-4.3 -6.5,-4.5 z"
   id="path289" />
		</g>
		<g
   id="g297">
			<path
   class="st5"
   d="m 289.7,317.7 c -8.9,-9.4 -14.4,-22.1 -14.4,-36.2 0,-19.5 10.6,-36.5 26.3,-45.5 l -11.6,0.4 c -4.3,0 -8.4,2.6 -10.6,6.9 L 263.7,290 c -2.6,7.7 1,16.2 8.5,19.6 z"
   id="path293" />
			<path
   d="m 289.7,321.5 c -0.5,0 -1.1,-0.1 -1.6,-0.4 L 270.6,313 c -9.2,-4.3 -13.7,-14.7 -10.5,-24.3 L 275.8,242 c 0.1,-0.2 0.1,-0.4 0.2,-0.6 2.9,-5.5 8.2,-8.9 13.9,-8.9 l 11.5,-0.4 c 1.8,-0.1 3.4,1.1 3.8,2.8 0.5,1.7 -0.2,3.5 -1.8,4.4 -15.1,8.7 -24.4,24.9 -24.4,42.2 0,12.5 4.7,24.4 13.4,33.5 1.3,1.3 1.4,3.4 0.3,4.9 -0.6,1.1 -1.8,1.6 -3,1.6 z m -18.2,-42.5 -4.1,12.2 c -2,5.9 0.8,12.3 6.4,14.9 l 4.2,2 c -4.3,-8.1 -6.6,-17.1 -6.6,-26.5 0,-0.9 0,-1.8 0.1,-2.6 z m 11.4,-34.2 -1.6,4.9 c 2.3,-3.4 5,-6.6 8.1,-9.4 -2.6,0.2 -5,1.9 -6.5,4.5 z"
   id="path295" />
		</g>
	</g>
	<g
   id="g305">
		<path
   class="st5"
   d="m 270.8,269.2 c -3.6,-9.4 -16.7,-8.8 -16.7,-8.8 0,0 -12.8,-0.2 -16.4,9.2 l -12.3,-31.2 c 10.3,5 18,-1.7 18,-1.7 h 21.4 c 0,0 8.1,6.7 18.4,1.7 z"
   id="path301" />
		<path
   d="m 237.7,273.4 c -1.6,0 -3,-1 -3.6,-2.4 l -12.3,-31.2 c -0.6,-1.5 -0.2,-3.2 1,-4.2 1.2,-1.1 2.9,-1.3 4.3,-0.6 7.8,3.8 13.6,-0.9 13.8,-1.1 0.7,-0.6 1.6,-0.9 2.5,-0.9 h 21.4 c 0.9,0 1.8,0.3 2.4,0.9 0.2,0.2 6.4,5 14.3,1.2 1.4,-0.7 3.1,-0.4 4.3,0.7 1.2,1.1 1.5,2.8 0.9,4.2 l -12.4,30.9 c -0.6,1.5 -2.1,2.4 -3.6,2.4 -1.6,0 -3,-1 -3.6,-2.5 -2.6,-6.6 -12.9,-6.4 -13,-6.4 -0.1,0 -0.1,0 -0.2,0 -0.1,0 -10.2,0 -12.7,6.7 -0.5,1.3 -1.9,2.3 -3.5,2.3 0,0 0,0 0,0 z m -10.4,-29.4 11.4,21.2 c 5.9,-5 14.2,-8.7 15.3,-8.7 1.2,0 9.8,3.5 15.7,8.4 l 11.5,-21 c -6.2,0.4 -15.5,-2.1 -17.7,-3.5 h -18.9 c -2.1,1.5 -11.2,4 -17.3,3.6 z"
   id="path303" />
	</g>
	<g
   id="g311">
		<circle
   class="st5"
   cx="254.3"
   cy="246.10001"
   r="13.1"
   id="circle307" />
		<path
   d="m 254.3,264.2 c -10,0 -18.1,-8.1 -18.1,-18.1 0,-10 8.1,-18.1 18.1,-18.1 10,0 18.1,8.1 18.1,18.1 0,10 -8.1,18.1 -18.1,18.1 z m 0,-28.6 c -5.8,0 -10.4,4.7 -10.4,10.4 0,5.8 4.7,10.4 10.4,10.4 5.8,0 10.4,-4.7 10.4,-10.4 0,-5.7 -4.6,-10.4 -10.4,-10.4 z"
   id="path309" />
	</g>
	<circle
   cx="254.3"
   cy="246.10001"
   r="5.0999999"
   id="circle313" />
	<path
   d="m 271.4,389.6 c 0,0 6,2.5 12.2,7 l -1.9,-3.7 c 5.6,2.2 9,2.3 14.9,1.8 12.6,-0.9 20.5,-8.7 22.7,-15.7 1.6,-5.2 1.2,-9.9 1.2,-9.9 0,0 -0.4,-8 -6.8,-8.9 -6.5,-0.9 -7.4,5.9 -7.4,5.9 0,0 2.7,-5.8 8,-4 5.2,1.8 4.2,16.2 -4.8,16.4 -2,-0.1 -3.7,-0.7 -5.6,-2 1.5,0.3 4,-0.3 4.7,-0.4 -8.2,-2.1 -10.9,-4.5 -10.9,-4.5 1.3,0.1 3.7,-0.5 4.4,-0.4 -8.8,-3.4 -8.1,-4.7 -8.1,-4.7 l 7.1,-0.7 C 289,362.7 287,358.5 287,358.5 l 4.2,0.2 -3.2,-1.9 c -1.7,-1 -3.2,-2.1 -4.6,-3.4 -5.3,-4.6 -10.9,-6.9 -17.5,-6.9 -9.1,0.1 -11.3,6.2 -11.6,7.4 -0.3,-1.3 -2.5,-7.4 -11.6,-7.4 -6.6,0 -12.2,2.3 -17.5,6.9 -1.5,1.3 -3,2.4 -4.6,3.4 l -3.2,1.9 4.2,-0.2 c 0,0 -2,4.2 -14.1,7.3 l 7.1,0.7 c 0,0 0.7,1.3 -8.1,4.7 0.7,-0.1 3.1,0.5 4.4,0.4 0,0 -2.7,2.4 -10.9,4.5 0.7,0.1 3.1,0.7 4.7,0.4 -1.9,1.3 -3.7,1.9 -5.6,2 -9,-0.1 -10.1,-14.5 -4.8,-16.4 5.2,-1.8 8,4 8,4 0,0 -0.9,-6.7 -7.4,-5.9 -6.5,0.9 -6.8,8.9 -6.8,8.9 0,0 -0.5,4.7 1.2,9.9 2.2,7.1 10.1,14.8 22.7,15.7 5.9,0.5 9.3,0.4 14.9,-1.8 l -1.9,3.7 c 6.2,-4.5 12.2,-7 12.2,-7 l 7.1,-4.1 c -0.7,1.1 -0.2,1.9 -0.2,1.9 5.5,-7.4 10.2,-8.7 10.2,-8.7 0,0 4.6,1.2 10.2,8.7 0,0 0.5,-0.8 -0.2,-1.9 z"
   id="path315" />
	<path
   d="m 254.3,338.4 v 0 c 2.5,0 4.2,-0.5 6.5,-1.4 0.8,-0.3 1.5,-0.7 2.2,-1 v 0 c 0,0 15.7,5.3 12,-14.4 0,0 -6.4,10.2 -20.7,10.2 -14.3,0 -20.7,-10.2 -20.7,-10.2 -3.6,19.7 12,14.4 12,14.4 v 0 c 0.7,0.4 1.4,0.7 2.2,1 2.3,0.9 4,1.4 6.5,1.4 z"
   id="path317" />
	<g
   id="g395">
		<g
   id="g353">
			<path
   class="st5"
   d="m 263.7,348.8 c 2.3,-0.5 4.7,-0.3 7,0.2 2.3,0.5 4.5,1.4 6.6,2.6 2,1.2 3.9,2.7 5.5,4.3 0.9,0.8 1.5,1.8 2.3,2.6 0.7,0.9 1.3,1.9 1.9,2.9 -0.9,-0.7 -1.7,-1.5 -2.6,-2.3 -0.9,-0.7 -1.7,-1.5 -2.6,-2.2 -0.9,-0.7 -1.7,-1.4 -2.7,-2 -0.9,-0.7 -1.9,-1.2 -2.8,-1.8 -1.9,-1.1 -3.9,-2 -6,-2.8 -2.2,-0.6 -4.3,-1.2 -6.6,-1.5 z"
   id="path319" />
			<path
   class="st5"
   d="m 272.6,358.6 c 2.4,-0.6 5.1,-0.1 7.4,0.9 2.4,1 4.4,2.7 6,4.7 1.7,2 2.7,4.3 3.6,6.7 0.4,1.2 0.7,2.4 1,3.6 0.2,1.2 0.4,2.5 0.4,3.7 -0.5,-1.1 -0.9,-2.3 -1.4,-3.4 l -1.5,-3.3 c -1.1,-2.1 -2.2,-4.2 -3.7,-6 -2.7,-3.7 -6.9,-6.3 -11.8,-6.9 z"
   id="path321" />
			<path
   class="st5"
   d="m 258,356.1 c 1.6,-0.8 3.5,-0.9 5.3,-0.6 1.8,0.3 3.5,1.2 5,2.3 1.4,1.2 2.5,2.7 3.4,4.2 0.4,0.8 0.7,1.6 1.1,2.4 0.2,0.9 0.5,1.7 0.6,2.6 -0.5,-0.7 -1,-1.4 -1.4,-2.2 l -1.5,-2.1 c -0.6,-0.6 -1,-1.3 -1.6,-1.9 -0.3,-0.3 -0.5,-0.6 -0.8,-0.9 l -0.9,-0.8 c -2.6,-1.7 -5.6,-2.9 -9.2,-3 z"
   id="path323" />
			<path
   class="st5"
   d="m 288.6,390.1 c -2,0.5 -4.1,0.5 -6.2,0.4 -2.1,-0.2 -4.1,-0.6 -6.1,-1.3 -2,-0.7 -3.9,-1.7 -5.6,-2.9 -1.7,-1.2 -3.1,-2.9 -4.1,-4.6 1.7,1.3 3.2,2.5 5,3.4 1.7,0.9 3.5,1.8 5.4,2.4 3.6,1.1 7.5,1.9 11.6,2.6 z"
   id="path325" />
			<path
   class="st5"
   d="m 299,384.9 c -0.5,1.1 -1.5,2 -2.5,2.5 -1.1,0.6 -2.3,0.9 -3.5,0.9 -1.2,0.1 -2.4,-0.1 -3.6,-0.5 -0.6,-0.2 -1.1,-0.4 -1.6,-0.7 -0.5,-0.3 -1,-0.6 -1.5,-1 0.6,0 1.2,0 1.7,0.1 0.6,0 1.1,0.1 1.7,0.1 1.1,0 2.1,0.1 3.2,0 2.1,0.1 4,-0.3 6.1,-1.4 z"
   id="path327" />
			<path
   class="st5"
   d="m 276.1,385.5 c 0.6,-0.9 1.5,-1.6 2.4,-2.1 0.9,-0.5 2,-0.9 3,-1.1 1.1,-0.2 2.2,-0.2 3.2,0.1 1.1,0.2 2.1,0.6 2.9,1.3 -1.1,0.1 -2.1,0.1 -3,0.2 -1,0.1 -1.9,0.2 -2.8,0.3 -1.8,0.3 -3.6,0.8 -5.7,1.3 z"
   id="path329" />
			<path
   class="st5"
   d="m 255.4,359.1 c 1.1,-0.4 2.4,-0.4 3.6,-0.1 1.2,0.3 2.3,0.9 3.2,1.7 0.9,0.8 1.7,1.8 2.2,2.9 0.3,0.5 0.4,1.1 0.6,1.7 0.1,0.6 0.2,1.2 0.2,1.8 -0.4,-0.4 -0.7,-0.9 -1.1,-1.3 -0.4,-0.4 -0.7,-0.9 -1,-1.3 -0.7,-0.8 -1.4,-1.5 -2.2,-2.2 -1.5,-1.5 -3.3,-2.5 -5.5,-3.2 z"
   id="path331" />
			<path
   class="st5"
   d="m 258.4,353.1 c 0.7,-0.9 1.7,-1.5 2.8,-2 1.1,-0.4 2.3,-0.6 3.5,-0.5 1.2,0.1 2.4,0.4 3.4,1 1,0.6 1.9,1.4 2.5,2.4 -1.1,-0.3 -2.1,-0.8 -3,-1 -1,-0.3 -1.9,-0.4 -2.9,-0.5 -2.2,-0.1 -4.1,0.2 -6.3,0.6 z"
   id="path333" />
			<path
   class="st5"
   d="m 301,375.5 c -1.1,0.2 -2.2,0 -3.3,-0.3 -1.1,-0.3 -2.1,-0.8 -3,-1.3 -0.9,-0.6 -1.8,-1.3 -2.5,-2.1 -0.8,-0.8 -1.4,-1.7 -1.8,-2.7 1,0.5 1.9,1 2.8,1.6 l 2.6,1.6 z"
   id="path335" />
			<path
   class="st5"
   d="m 276.1,364.6 c 0.5,0.1 1.1,0 1.6,0.2 0.6,0.1 1.1,0.3 1.6,0.6 1,0.5 2,1.3 2.6,2.3 0.7,1 1.1,2 1.4,3.1 0.3,1.1 0.3,2.2 0.1,3.4 -0.5,-1 -0.9,-2 -1.3,-3 -0.5,-0.9 -0.9,-1.8 -1.5,-2.6 -0.6,-0.8 -1.2,-1.5 -2,-2.2 -0.4,-0.3 -0.8,-0.6 -1.2,-0.9 -0.2,-0.1 -0.5,-0.3 -0.7,-0.4 -0.1,-0.2 -0.4,-0.2 -0.6,-0.5 z"
   id="path337" />
			<path
   class="st5"
   d="m 258.6,378.2 c 1.4,-0.6 3,-1.1 4.5,-1.2 1.6,-0.2 3.2,-0.1 4.8,0.3 3.1,0.7 6.1,2.5 7.9,5 -1.4,-0.7 -2.8,-1.3 -4.2,-1.9 -1.4,-0.5 -2.8,-1 -4.2,-1.3 -1.4,-0.3 -2.9,-0.5 -4.3,-0.7 -1.4,0 -2.9,0 -4.5,-0.2 z"
   id="path339" />
			<path
   class="st5"
   d="m 295.3,382 c -0.7,0.1 -1.5,0.3 -2.2,0.4 -0.8,0.1 -1.5,0.1 -2.3,0 -1.5,-0.1 -3.1,-0.5 -4.5,-1.2 -2.8,-1.3 -5.1,-3.8 -6.1,-6.6 1.2,1 2.2,1.9 3.4,2.8 1.1,0.8 2.3,1.5 3.6,2.1 1.2,0.6 2.5,1.1 3.9,1.5 0.7,0.2 1.4,0.4 2.1,0.5 0.6,0.1 1.4,0.1 2.1,0.5 z"
   id="path341" />
			<path
   class="st5"
   d="m 271.8,374.2 c -1.4,0 -2.9,-0.2 -4.2,-0.7 -1.4,-0.5 -2.7,-1.2 -3.8,-2.1 -1.2,-0.9 -2.2,-2 -3,-3.2 -0.8,-1.2 -1.5,-2.5 -1.9,-3.9 l 3,2.9 c 1,0.9 2,1.8 3.1,2.6 1.1,0.8 2.2,1.6 3.3,2.3 1,0.7 2.3,1.3 3.5,2.1 z"
   id="path343" />
			<path
   class="st5"
   d="m 268.1,367.8 c 1.1,-0.2 2.5,-0.1 3.7,0.6 1.2,0.6 2.1,1.6 2.8,2.7 0.7,1.1 1.1,2.3 1.3,3.5 0.2,1.2 0.2,2.4 0,3.7 -0.6,-1.1 -1,-2.2 -1.5,-3.2 -0.5,-1 -0.9,-2 -1.5,-2.9 -0.6,-0.9 -1.2,-1.7 -2,-2.5 -0.7,-0.8 -1.7,-1.3 -2.8,-1.9 z"
   id="path345" />
			<path
   class="st5"
   d="m 299,388.5 c 1.1,-0.1 2.1,-0.4 3,-0.7 0.9,-0.3 1.8,-0.7 2.7,-1 0.9,-0.4 1.8,-0.8 2.7,-1.3 0.5,-0.2 0.9,-0.5 1.4,-0.7 0.5,-0.2 0.9,-0.5 1.5,-0.7 -0.3,0.5 -0.6,0.9 -0.9,1.4 -0.4,0.4 -0.7,0.8 -1.1,1.2 -0.8,0.7 -1.8,1.4 -2.8,1.8 -1,0.4 -2.1,0.7 -3.3,0.8 -1,0 -2.2,-0.2 -3.2,-0.8 z"
   id="path347" />
			<path
   class="st5"
   d="m 304.3,380.4 c 2.4,0 4.6,0 6.6,-0.5 1,-0.2 1.9,-0.6 2.9,-1.1 0.9,-0.5 1.7,-1.2 2.7,-2 -0.3,1.2 -0.8,2.3 -1.8,3.2 -0.9,0.9 -2.1,1.5 -3.3,1.8 -1.2,0.3 -2.5,0.3 -3.7,0 -1.3,-0.2 -2.4,-0.7 -3.4,-1.4 z"
   id="path349" />
			<path
   class="st5"
   d="m 292.9,375.8 c 0.9,1.1 1.9,2 2.9,2.9 1,0.8 2.1,1.5 3.3,2.1 1.2,0.5 2.4,1 3.7,1.4 0.6,0.2 1.3,0.3 2,0.5 0.7,0.1 1.4,0.2 2.1,0.4 -0.7,0.2 -1.4,0.4 -2.1,0.5 -0.7,0 -1.5,0.2 -2.2,0.1 -1.5,0 -2.9,-0.5 -4.3,-1.1 -1.4,-0.6 -2.5,-1.6 -3.5,-2.8 -1,-1.3 -1.7,-2.6 -1.9,-4 z"
   id="path351" />
		</g>
		<g
   id="g393">
			<path
   class="st5"
   d="m 245,348.8 c -2.3,0.3 -4.5,0.9 -6.6,1.6 -2.1,0.8 -4.1,1.7 -6,2.8 -0.9,0.6 -1.9,1.1 -2.8,1.8 -0.9,0.6 -1.8,1.3 -2.7,2 -0.9,0.7 -1.7,1.5 -2.6,2.2 -0.9,0.8 -1.7,1.6 -2.6,2.3 0.6,-1 1.2,-2 1.9,-2.9 0.7,-0.9 1.4,-1.8 2.3,-2.6 1.6,-1.7 3.5,-3.1 5.5,-4.3 2.1,-1.1 4.3,-2.1 6.6,-2.6 2.3,-0.6 4.7,-0.8 7,-0.3 z"
   id="path355" />
			<path
   class="st5"
   d="m 236,358.6 c -4.9,0.5 -9.1,3.2 -12,6.8 -1.5,1.8 -2.6,3.9 -3.7,6 l -1.5,3.3 c -0.4,1.1 -0.8,2.3 -1.4,3.4 0.1,-1.2 0.3,-2.5 0.4,-3.7 0.3,-1.2 0.6,-2.4 1,-3.6 0.9,-2.3 2,-4.7 3.6,-6.7 1.6,-2 3.6,-3.7 6,-4.7 2.5,-0.9 5.2,-1.3 7.6,-0.8 z"
   id="path357" />
			<path
   class="st5"
   d="m 250.6,356.1 c -3.5,0 -6.6,1.2 -9,3.3 l -0.9,0.8 c -0.3,0.3 -0.5,0.6 -0.8,0.9 -0.6,0.5 -1,1.3 -1.6,1.9 l -1.5,2.1 c -0.5,0.7 -0.9,1.4 -1.4,2.2 0.1,-0.9 0.4,-1.7 0.6,-2.6 0.3,-0.8 0.6,-1.7 1.1,-2.4 0.9,-1.6 2,-3 3.4,-4.2 1.4,-1.1 3.1,-2 5,-2.3 1.6,-0.6 3.5,-0.4 5.1,0.3 z"
   id="path359" />
			<path
   class="st5"
   d="m 225.2,388.8 c 3.1,-0.4 6.1,-1 9,-2.1 1.5,-0.5 2.8,-1.3 4.2,-2.1 1.4,-0.8 2.6,-1.9 4,-3.1 -0.9,1.7 -2.1,3.3 -3.4,4.4 -1.4,1.2 -2.9,2 -4.4,2.6 -1.5,0.6 -3.1,0.9 -4.7,0.9 -1.7,0.1 -3.3,-0.1 -4.7,-0.6 z"
   id="path361" />
			<path
   class="st5"
   d="m 209.6,384.9 c 2.1,1.1 4.1,1.5 6.2,1.6 1,0.1 2.1,0 3.2,0 0.5,0 1.1,-0.1 1.7,-0.1 0.6,0 1.1,-0.1 1.7,-0.1 -0.5,0.4 -1,0.7 -1.5,1 -0.5,0.2 -1.1,0.5 -1.6,0.7 -1.1,0.3 -2.3,0.6 -3.6,0.5 -1.2,-0.1 -2.4,-0.4 -3.5,-0.9 -1.2,-0.7 -2.1,-1.6 -2.6,-2.7 z"
   id="path363" />
			<path
   class="st5"
   d="m 253,374.5 c -1.9,-0.8 -3.5,-1 -5.2,-1 -0.9,0 -1.7,0.1 -2.6,0.2 -0.4,0.1 -0.9,0.1 -1.4,0.2 -0.5,0.1 -0.9,0.2 -1.5,0.2 0.3,-0.4 0.7,-0.7 1.1,-1 0.4,-0.3 0.9,-0.6 1.3,-0.8 0.9,-0.4 2,-0.7 3,-0.7 1.1,0 2.1,0.2 3.1,0.7 0.9,0.5 1.7,1.2 2.2,2.2 z"
   id="path365" />
			<path
   class="st5"
   d="m 254.3,367.3 c 1.1,1.7 2.3,2.9 3.7,3.9 0.7,0.5 1.4,0.9 2.2,1.4 0.4,0.2 0.8,0.4 1.2,0.7 0.4,0.2 0.9,0.4 1.3,0.7 -0.5,0.1 -1,0.2 -1.5,0.2 -0.5,0 -1,0 -1.5,-0.2 -1,-0.2 -2,-0.6 -2.9,-1.2 -0.9,-0.6 -1.6,-1.4 -2.1,-2.4 -0.3,-1 -0.6,-2 -0.4,-3.1 z"
   id="path367" />
			<path
   class="st5"
   d="m 232.5,385.5 c -2.1,-0.5 -3.9,-1 -5.8,-1.3 -0.9,-0.1 -1.9,-0.3 -2.8,-0.3 -1,-0.1 -1.9,-0.1 -3,-0.2 0.9,-0.6 1.9,-1.1 2.9,-1.3 1.1,-0.2 2.2,-0.2 3.2,-0.1 1.1,0.2 2.1,0.5 3,1.1 1,0.5 1.9,1.2 2.5,2.1 z"
   id="path369" />
			<path
   class="st5"
   d="m 253,362.4 c -2.3,-0.5 -4.3,-0.6 -6.3,-0.3 -1,0.2 -2,0.4 -3,0.7 -0.5,0.1 -1,0.4 -1.5,0.5 -0.5,0.2 -1,0.4 -1.6,0.6 0.3,-0.5 0.7,-0.9 1.1,-1.4 0.4,-0.4 0.9,-0.8 1.4,-1.1 1,-0.7 2.2,-1.1 3.4,-1.3 1.2,-0.2 2.5,-0.1 3.6,0.3 1.1,0.4 2.2,1.1 2.9,2 z"
   id="path371" />
			<path
   class="st5"
   d="m 249.5,350.3 c -2.2,0.7 -4,1.4 -5.6,2.5 -0.8,0.5 -1.6,1.1 -2.3,1.8 -0.7,0.7 -1.4,1.5 -2.2,2.3 0.1,-1.1 0.4,-2.3 1,-3.3 0.6,-1 1.4,-1.9 2.4,-2.5 1,-0.6 2.1,-1.1 3.3,-1.2 1.2,-0.1 2.4,-0.1 3.4,0.4 z"
   id="path373" />
			<path
   class="st5"
   d="m 207.6,375.5 5.3,-3.3 2.6,-1.6 c 0.9,-0.5 1.8,-1.1 2.8,-1.6 -0.5,1 -1.1,1.9 -1.8,2.7 -0.7,0.8 -1.6,1.5 -2.5,2.1 -0.9,0.6 -1.9,1 -3,1.3 -1.1,0.4 -2.3,0.5 -3.4,0.4 z"
   id="path375" />
			<path
   class="st5"
   d="m 232.7,365.5 c -0.2,0.3 -0.6,0.4 -0.8,0.5 -0.3,0.2 -0.6,0.3 -0.9,0.5 -0.6,0.3 -1.1,0.7 -1.6,1 -1,0.8 -1.8,1.6 -2.5,2.6 -0.7,1 -1.3,2 -1.9,3.1 -0.6,1.1 -1.1,2.3 -1.7,3.5 -0.2,-1.4 0,-2.7 0.3,-4.1 0.4,-1.3 0.9,-2.6 1.8,-3.8 0.9,-1.1 2,-2.1 3.3,-2.7 0.6,-0.3 1.3,-0.5 2,-0.6 0.7,0 1.4,0.1 2,0 z"
   id="path377" />
			<path
   class="st5"
   d="m 250,378.2 c -1.5,0.2 -3.1,0.1 -4.5,0.3 -1.5,0.1 -2.9,0.4 -4.3,0.7 -1.4,0.3 -2.8,0.8 -4.2,1.3 -1.4,0.5 -2.7,1.2 -4.2,1.9 1.9,-2.6 4.8,-4.3 7.9,-5 1.6,-0.4 3.2,-0.5 4.8,-0.3 1.5,0.1 3.1,0.6 4.5,1.1 z"
   id="path379" />
			<path
   class="st5"
   d="m 213.4,382 c 0.7,-0.3 1.4,-0.4 2.1,-0.6 0.7,-0.2 1.4,-0.3 2.1,-0.5 1.4,-0.4 2.7,-0.9 3.9,-1.5 1.2,-0.6 2.4,-1.3 3.6,-2.1 1.1,-0.8 2.2,-1.8 3.4,-2.8 -1,2.9 -3.3,5.3 -6.1,6.6 -1.4,0.7 -2.9,1.1 -4.5,1.2 -0.8,0.1 -1.5,0.1 -2.3,0 -0.8,0 -1.6,-0.2 -2.2,-0.3 z"
   id="path381" />
			<path
   class="st5"
   d="m 251,365.5 c -1.2,0.8 -2.5,1.3 -3.6,2 -1.2,0.7 -2.3,1.4 -3.4,2.2 -1.1,0.8 -2.1,1.7 -3.1,2.6 l -3.1,2.8 c 0.4,-1.4 1.1,-2.7 2,-3.9 0.9,-1.2 1.9,-2.2 3.1,-3.1 1.2,-0.9 2.5,-1.6 3.9,-2 1.3,-0.4 2.9,-0.6 4.2,-0.6 z"
   id="path383" />
			<path
   class="st5"
   d="m 240.5,367.8 c -1.1,0.6 -2.1,1.1 -2.8,1.8 -0.8,0.7 -1.4,1.5 -2,2.5 -0.6,0.9 -1,1.9 -1.5,2.9 -0.5,1 -0.9,2.1 -1.5,3.2 -0.2,-1.2 -0.2,-2.5 0,-3.7 0.2,-1.2 0.6,-2.4 1.3,-3.5 0.7,-1.1 1.6,-2.1 2.8,-2.7 1.1,-0.6 2.6,-0.7 3.7,-0.5 z"
   id="path385" />
			<path
   class="st5"
   d="m 209.2,389.4 c -1,0.5 -2.2,0.5 -3.3,0.2 -1.1,-0.2 -2.2,-0.7 -3.1,-1.3 -0.9,-0.6 -1.8,-1.4 -2.4,-2.2 -0.3,-0.4 -0.6,-0.9 -0.9,-1.4 -0.2,-0.5 -0.5,-1 -0.7,-1.5 0.5,0.3 0.9,0.6 1.4,0.9 0.4,0.3 0.9,0.6 1.3,0.9 0.8,0.6 1.6,1.2 2.5,1.7 0.8,0.5 1.7,1 2.5,1.5 0.7,0.5 1.7,0.9 2.7,1.2 z"
   id="path387" />
			<path
   class="st5"
   d="m 204.3,380.4 c -1,0.8 -2.1,1.2 -3.3,1.4 -1.2,0.2 -2.5,0.2 -3.7,0 -1.2,-0.3 -2.4,-0.9 -3.3,-1.8 -1,-0.8 -1.5,-2 -1.8,-3.2 1,0.8 1.8,1.5 2.7,2 0.9,0.5 1.8,0.9 2.9,1.1 2,0.5 4.1,0.5 6.5,0.5 z"
   id="path389" />
			<path
   class="st5"
   d="m 215.7,375.8 c -0.2,1.4 -0.9,2.8 -1.9,3.9 -0.9,1.1 -2.1,2.1 -3.5,2.8 -1.4,0.6 -2.8,1.1 -4.3,1.1 -0.7,0.1 -1.5,0 -2.2,-0.1 -0.7,-0.1 -1.4,-0.3 -2.1,-0.5 0.7,-0.2 1.4,-0.3 2.1,-0.4 0.7,-0.2 1.3,-0.2 2,-0.5 1.3,-0.3 2.5,-0.8 3.7,-1.4 1.2,-0.6 2.2,-1.3 3.3,-2.1 1,-0.8 2,-1.8 2.9,-2.8 z"
   id="path391" />
		</g>
	</g>
	<path
   d="m 262.9,283.5 c 0,-6.7 -2.3,-11.4 -8.6,-11.4 -6.3,0 -8.6,3.8 -8.6,11.4 l -8.2,-15.6 c 0,0 3.7,-7.5 16.8,-7.5 13.1,0 16.7,8.8 16.7,8.8 z"
   id="path397" />
	<path
   class="st3"
   d="m 262.9,270 c -1.2,-1.2 -2.6,-1.9 -4,-2.4 -1.5,-0.5 -3,-0.7 -4.6,-0.7 -1.5,0 -3.1,0.2 -4.6,0.7 -1.5,0.5 -2.9,1.2 -4,2.4 0.5,-1.7 1.9,-3 3.5,-3.8 1.6,-0.8 3.4,-1.2 5.1,-1.2 1.8,0 3.6,0.4 5.1,1.2 1.6,0.8 3,2.1 3.5,3.8 z"
   id="path399" />
	<path
   class="st5"
   d="m 254.3,231.5 c 6.1,0 8.8,2.6 8.8,2.6 0,0 -2.4,-3.9 -8.8,-3.9 -6.4,0 -8.8,3.9 -8.8,3.9 0,0 2.7,-2.6 8.8,-2.6"
   id="path401" />
	<g
   id="g407">
		<path
   class="st3"
   d="m 375.9,400.6 c 0,0 43.9,25.5 82,16.1 0,-0.1 -41.5,3.4 -82,-16.1 z"
   id="path403" />
		<path
   class="st3"
   d="m 132.7,400.6 c 0,0 -43.9,25.5 -82,16.1 0.1,-0.1 41.5,3.4 82,-16.1 z"
   id="path405" />
	</g>
	<g
   id="g413">
		<path
   class="st3"
   d="m 141.3,263.8 c -0.1,0.2 -0.1,0.2 -0.1,0.2 0.1,-0.1 0.1,-0.1 0.1,-0.2 z"
   id="path409" />
		<path
   class="st3"
   d="m 283.4,263.8 c -0.1,0.2 -0.1,0.2 -0.1,0.2 0,-0.1 0,-0.1 0.1,-0.2 z"
   id="path411" />
	</g>
	<path
   class="st5"
   d="m 240.7,245.6 c 0.4,3.7 1.9,7.2 4.3,9.8 2.4,2.6 5.8,4.2 9.3,4.1 3.5,0 6.9,-1.6 9.3,-4.1 2.4,-2.6 3.9,-6 4.3,-9.8 0.4,3.7 -0.8,7.7 -3.3,10.7 -1.2,1.5 -2.8,2.8 -4.6,3.6 -1.8,0.9 -3.8,1.3 -5.8,1.3 -2,0 -4,-0.5 -5.8,-1.3 -1.8,-0.9 -3.3,-2.1 -4.6,-3.6 -2.3,-3 -3.5,-7 -3.1,-10.7 z"
   id="path415" />
	<g
   id="g421">
		<path
   d="m 389.1,357.7 c 0,0 2.4,9.9 7.1,13 0,0 -5.9,-4.7 -9.9,-3.6 0,0 1.8,4.7 11.7,11.1 0,0 -5.7,0.2 -15.5,-0.6 0,0 6.1,5 19.4,9.9 0,0 -13.1,0.9 -23.5,-0.8 0,0 4.7,6.2 26.7,12 0,0 -19.9,2.5 -32.1,-2.4 l 0.9,-9.3 9.4,-25.5 z"
   id="path417" />
		<path
   d="m 119.5,357.7 c 0,0 -2.4,9.9 -7.1,13 0,0 5.9,-4.7 9.9,-3.6 0,0 -1.8,4.7 -11.7,11.1 0,0 5.7,0.2 15.5,-0.6 0,0 -6.1,5 -19.4,9.9 0,0 13.1,0.9 23.5,-0.8 0,0 -4.7,6.2 -26.7,12 0,0 19.9,2.5 32.1,-2.4 l -0.9,-9.3 -9.4,-25.5 z"
   id="path419" />
	</g>
	<g
   id="g427">
		<path
   class="st6"
   d="m 484.6,376.9 c -0.5,2.3 2.4,5.2 3.2,6.6 0.9,1.3 1.5,3 0.4,4.3 -1,1.2 -2.9,1.3 -3.7,2.7 -1.1,2.1 1.9,3.7 2,5.9 0,1.8 -2.2,3.3 -4,4.6 -1.8,1.4 -4.3,4.6 -2.5,5 1,0.2 2.5,0.1 2.7,1 0.2,1 -1.1,1.8 -2.7,2.7 -4.7,2.8 -9.3,4.8 -13.1,5.4 1.5,-1 3.2,-1.9 4.5,-3.3 1.3,-1.3 2.4,-3.1 2.2,-4.6 -0.2,-1.2 -1.1,-2.2 -0.4,-3.4 0.6,-1 1.9,-1.4 3.3,-1.9 1.4,-0.5 3.2,-1.2 4.6,-2.1 2.4,-1.6 2.3,-3.8 1,-5 -1.3,-1.2 -3.7,-1.3 -5.2,-2.3 -0.9,-0.6 -1.5,-1.7 -1.1,-3.1 0.7,-2 2.9,-2.5 4.5,-2.3 1.6,0.3 3.6,0.5 4.6,-0.6 1.3,-1.2 0.3,-3.5 -0.9,-4.7 l -1.9,-2.8 c -0.6,-0.9 -1,-2.3 -0.2,-3.3 3.2,-4.1 1,-10.5 1,-10.5 0,0 3.3,5.1 1.7,11.7 z"
   id="path423" />
		<path
   class="st6"
   d="m 24,376.9 c 0.5,2.3 -2.4,5.2 -3.2,6.6 -0.9,1.3 -1.5,3 -0.4,4.3 1,1.2 2.9,1.3 3.7,2.7 1.1,2.1 -1.9,3.7 -2,5.9 0,1.8 2.2,3.3 4,4.6 1.8,1.4 4.3,4.6 2.5,5 -1,0.2 -2.5,0.1 -2.7,1 -0.2,1 1.1,1.8 2.7,2.7 4.7,2.8 9.3,4.8 13.1,5.4 -1.5,-1 -3.2,-1.9 -4.5,-3.3 -1.3,-1.3 -2.4,-3.1 -2.2,-4.6 0.2,-1.2 1.1,-2.2 0.4,-3.4 -0.6,-1 -1.9,-1.4 -3.3,-1.9 -1.4,-0.5 -3.2,-1.2 -4.6,-2.1 -2.4,-1.6 -2.3,-3.8 -1,-5 1.3,-1.2 3.7,-1.3 5.2,-2.3 0.9,-0.6 1.5,-1.7 1.1,-3.1 -0.7,-2 -2.9,-2.5 -4.5,-2.3 -1.6,0.3 -3.6,0.5 -4.6,-0.6 -1.3,-1.2 -0.3,-3.5 0.9,-4.7 l 1.9,-2.8 c 0.6,-0.9 1,-2.3 0.2,-3.3 -3.2,-4.1 -1,-10.5 -1,-10.5 0,0 -3.3,5.1 -1.7,11.7 z"
   id="path425" />
	</g>
	<path
   d="m 459.6,313.1 c -0.7,-3.5 -2.2,-7.4 -5.3,-10.6 -2.8,-2.9 -6.5,-4.6 -10.9,-5.1 -5.2,-16.9 -16.9,-24.5 -20.8,-26.6 -20.1,-36.2 -44.1,-49.5 -55.2,-53.9 -10.1,-11.6 -21.3,-21.1 -29.1,-22.7 -10.7,-2.2 -19.9,-0.6 -27.3,4.8 -6.2,4.5 -10.1,10.8 -12.5,16.5 -3.5,1.6 -6.6,3.5 -9.2,5.8 -7.2,6.5 -10.1,15.7 -8.7,27.2 -6.8,9.3 -10.9,20.7 -10.9,33.1 0,15 6,28.7 15.7,38.7 -7.5,6.9 -8,15.7 -4.6,22.1 3.5,6.7 10.8,11.5 18.9,12.3 7.6,0.8 14.9,-1.3 21.2,-3.4 1.3,-0.4 2.6,-0.9 4,-1.4 2.5,-0.9 5,-1.8 7.4,-2.5 0.1,1.7 0.1,3.3 -0.1,5.1 -0.2,1.9 -0.4,3.8 -0.7,5.7 -0.3,1.9 -0.8,3.8 -1.3,5.7 1.4,-1.4 2.7,-2.9 3.9,-4.5 1.3,-1.6 2.4,-3.2 3.6,-5 0.1,-0.2 0.2,-0.4 0.4,-0.6 -0.1,0.4 -0.2,0.9 -0.3,1.3 -1.3,5 -3.1,9.9 -5.1,14.8 3,-3.1 5.8,-6.4 8.5,-9.9 -0.2,0.5 -0.5,0.9 -0.7,1.4 -3.9,7.7 -8.6,15 -14.2,21.7 5.8,-4.5 11.2,-9.6 16.2,-15.2 -0.6,0.9 -1.3,1.8 -1.9,2.7 -3.4,4.6 -6.9,9.1 -10.7,13.3 -3.8,4.3 -7.8,8.3 -12.1,12.2 4.9,-3.1 9.6,-6.4 14.1,-10.1 4.5,-3.6 8.9,-7.5 13.1,-11.6 0.3,-0.3 0.6,-0.6 0.9,-0.9 -52.7,74.6 -132.5,67.6 -181.5,1.6 4,3.8 8,7.5 12.3,10.9 4.5,3.6 9.2,7 14.1,10.1 -4.3,-3.8 -8.3,-7.9 -12.1,-12.2 -3.8,-4.2 -7.3,-8.7 -10.7,-13.3 -0.6,-0.9 -1.3,-1.8 -1.9,-2.7 5,5.6 10.4,10.7 16.2,15.2 -5.6,-6.7 -10.3,-14.1 -14.2,-21.7 -0.2,-0.5 -0.5,-0.9 -0.7,-1.4 2.7,3.5 5.6,6.8 8.5,9.9 -2,-4.9 -3.8,-9.9 -5.1,-14.8 -0.1,-0.4 -0.2,-0.9 -0.3,-1.3 0.1,0.2 0.2,0.4 0.4,0.6 1.1,1.7 2.3,3.4 3.6,5 1.2,1.6 2.6,3.1 3.9,4.5 -0.5,-1.9 -1,-3.8 -1.3,-5.7 -0.4,-1.9 -0.6,-3.8 -0.7,-5.7 -0.1,-1.7 -0.1,-3.4 -0.1,-5.1 2.5,0.7 5,1.6 7.6,2.5 1.3,0.5 2.6,0.9 4,1.4 6.2,2.1 13.6,4.1 21.2,3.4 8.2,-0.9 15.4,-5.6 18.9,-12.3 3.3,-6.3 2.9,-15.2 -4.6,-22.1 9.7,-10 15.7,-23.7 15.7,-38.7 0,-12.4 -4.1,-23.8 -10.9,-33.1 1.4,-11.5 -1.5,-20.7 -8.7,-27.2 -2.5,-2.2 -5.4,-4.1 -8.8,-5.6 -2.4,-5.7 -6.3,-12.1 -12.5,-16.6 -7.4,-5.4 -16.6,-7 -27.3,-4.8 -7.8,1.6 -18.9,11 -28.9,22.5 -10.9,4.3 -35.3,17.4 -55.6,54.1 -3.9,2.1 -15.5,9.7 -20.8,26.6 -4.4,0.5 -8.1,2.2 -10.9,5.1 -3.1,3.2 -4.6,7.1 -5.3,10.6 -7.2,5.1 -44.6,33.7 -40,79.2 2.2,22.3 9.2,29.1 35.2,34.6 9.5,2 18.1,2.9 26.2,2.9 24.1,0 43.9,-8 70.3,-18.7 2,-0.8 4,-1.6 6,-2.4 l -5.3,-6.1 c -1.2,0.5 -2.4,1 -3.5,1.4 -35.2,14.2 -56.5,22.8 -92.1,15.4 -23.8,-5 -27.4,-10.1 -29.2,-27.8 -3.4,-34.3 20.5,-58.8 31.9,-68.3 1.7,24.7 19.2,45.5 41.5,50.4 -0.5,0.6 -1,1.1 -1.6,1.7 -0.6,0.7 -1.4,1.3 -2.1,1.9 -2.9,2.5 -6.2,4.7 -9.7,6.6 -1.8,1 -3.5,1.9 -5.4,2.8 -1.8,0.8 -3.7,1.7 -5.6,2.5 -1.9,0.7 -3.8,1.5 -5.7,2.2 l -5.8,2 6,-1.1 c 2,-0.4 4,-0.9 6,-1.3 2,-0.5 4,-1.1 6,-1.6 2,-0.6 4,-1.2 5.9,-2 3.9,-1.4 7.8,-3.2 11.5,-5.4 0.9,-0.6 1.9,-1.1 2.7,-1.8 0.9,-0.6 1.8,-1.4 2.6,-2.1 0.9,-0.8 1.7,-1.6 2.5,-2.5 0.2,-0.2 0.4,-0.5 0.6,-0.7 0.1,0 0.2,0 0.3,0 15,0 19.5,-8.9 20.8,-14.3 0.2,-0.9 0.4,-1.8 0.5,-2.8 7.6,-1 14.6,-3.7 21.3,-6.3 20.8,43.2 63.9,84.2 113.5,83.6 49.5,0.6 92.6,-40.3 113.4,-83.4 6.6,2.5 13.4,5.1 20.8,6.1 0.1,1 0.3,1.9 0.5,2.8 1.3,5.3 5.8,14.3 20.8,14.3 0.1,0 0.2,0 0.3,0 0.2,0.3 0.4,0.5 0.6,0.7 0.8,1 1.6,1.8 2.5,2.5 0.9,0.8 1.7,1.5 2.6,2.1 0.9,0.7 1.8,1.3 2.7,1.8 3.7,2.3 7.6,4 11.5,5.4 2,0.7 3.9,1.3 5.9,2 2,0.5 4,1.1 6,1.6 2,0.4 4,0.9 6,1.3 l 6,1.1 -5.8,-2 c -1.9,-0.7 -3.8,-1.5 -5.7,-2.2 -1.9,-0.7 -3.7,-1.6 -5.6,-2.5 -1.8,-0.9 -3.6,-1.8 -5.4,-2.8 -3.5,-1.9 -6.8,-4.1 -9.7,-6.6 -0.7,-0.6 -1.4,-1.2 -2.1,-1.9 -0.6,-0.5 -1.1,-1.1 -1.6,-1.7 22.2,-4.9 39.7,-25.8 41.5,-50.4 11.4,9.6 35.3,34 31.9,68.3 -1.8,17.7 -5.4,22.9 -29.2,27.8 -35.6,7.5 -56.8,-1.1 -92.1,-15.4 -1.2,-0.5 -2.4,-1 -3.5,-1.4 l -5.3,6.1 c 2,0.8 4,1.6 6,2.4 26.4,10.7 46.2,18.7 70.3,18.7 8.1,0 16.7,-0.9 26.2,-2.9 26.1,-5.5 33,-12.3 35.2,-34.6 4.8,-45.6 -32.6,-74.2 -39.8,-79.3 z M 223.2,281.5 c 0,22.1 -18,40.1 -40.1,40.1 -22.1,0 -40.1,-18 -40.1,-40.1 0,-22.1 18,-40.1 40.1,-40.1 22.1,0 40.1,18 40.1,40.1 z m -51.1,-79.8 c 8.5,-1.7 15.6,-0.6 21.2,3.5 2.7,2 4.9,4.4 6.6,7.1 -4.7,-1 -9.9,-1.6 -15.7,-1.7 -8.8,-0.2 -18.9,0.7 -28.6,2.5 6.3,-6.1 12.3,-10.5 16.5,-11.4 z M 99.5,359.3 c -1.3,-0.3 -2.5,-0.8 -3.8,-1.2 -1.3,-0.5 -2.5,-1 -3.8,-1.5 -1.2,-0.6 -2.5,-1.2 -3.7,-1.8 l -3.7,-2 3.1,2.8 c 1.1,0.9 2.2,1.7 3.3,2.6 1.1,0.8 2.3,1.6 3.5,2.4 0.5,0.3 0.9,0.6 1.4,0.9 -1.1,-0.4 -2.1,-0.8 -3.1,-1.3 -3.1,-1.3 -6,-3.1 -8.9,-5 l -4.2,-3.1 -4,-3.3 3.3,4 3.6,3.8 c 2.5,2.4 5.2,4.8 8.2,6.9 0.4,0.3 0.7,0.5 1.1,0.7 -2.7,-1.2 -5.4,-2.7 -8,-4.4 -2.9,-1.9 -5.6,-4.3 -8.3,-6.7 -1.3,-1.2 -2.5,-2.5 -3.8,-3.8 l -3.6,-4.1 2.9,4.8 c 1,1.5 2,3 3.1,4.5 2,2.5 4,5.1 6.3,7.4 -13.8,-7.7 -23.6,-23.3 -24.3,-40.9 0.5,2.2 1.2,4.3 1.9,6.3 0.4,1.2 0.9,2.3 1.3,3.4 l 1.5,3.3 -0.6,-3.6 c -0.1,-1.2 -0.3,-2.4 -0.4,-3.6 -0.2,-2.4 -0.3,-4.7 -0.1,-7.1 0.1,-2.3 0.4,-4.5 0.8,-6.7 0.1,0.5 0.1,1 0.2,1.4 0.2,1.6 0.5,3.1 0.9,4.6 0.3,-1.5 0.6,-3 0.9,-4.5 0,-0.2 0.1,-0.3 0.1,-0.5 0,0.4 0,0.7 0,1.1 0,0.1 0,0.1 0,0.2 0.5,8.5 6.2,23.8 23.9,27.4 2.1,5.1 5.9,10.2 13,13 -1.1,-0.3 -2.2,-0.6 -3.3,-0.9 -1,-0.3 -2.1,-0.7 -3.1,-1.1 l -3.1,-1.4 2.6,2.2 c 0.9,0.7 1.8,1.4 2.8,2 1.4,0.9 2.8,1.8 4.2,2.5 0,0.3 -0.1,0.3 -0.1,0.3 z m 59.6,-21.2 -0.3,0.1 c -7.1,1 -13.7,3.5 -20.2,6 -7.5,2.9 -14.5,5.6 -22.2,6.1 h -0.3 c -5,0.4 -9.1,0 -12.5,-1.2 0.3,0 0.5,0 0.8,0 1,0.1 2.1,0 3.1,-0.1 1,-0.1 2,-0.2 3,-0.3 -1,-0.2 -2,-0.4 -2.9,-0.6 -1,-0.3 -1.9,-0.5 -2.8,-0.9 -0.6,-0.2 -1.1,-0.4 -1.7,-0.7 1,0 1.9,-0.1 2.9,-0.3 1,-0.1 2,-0.4 3,-0.5 1,-0.2 2,-0.5 2.9,-0.8 -1,-0.1 -2,-0.1 -3,-0.2 -1,-0.1 -2,-0.2 -2.9,-0.4 -0.4,-0.1 -0.8,-0.2 -1.1,-0.2 1.5,-0.3 3,-0.8 4.5,-1.2 1,-0.4 2.1,-0.8 3.1,-1.1 l 3,-1.3 -3.2,0.4 c -1.1,0.1 -2.1,0.1 -3.2,0.2 -0.2,0 -0.5,0 -0.7,0 3.5,-1.1 6.8,-2.6 9.9,-4.5 3.6,-2.2 6.8,-4.9 9.4,-8 2.7,-3.1 4.8,-6.6 6.4,-10.2 -2.2,3.3 -4.8,6.4 -7.7,8.9 -3,2.5 -6.3,4.5 -9.8,5.9 -7,2.9 -14.6,3.5 -22,2.9 0,0 -0.1,0 -0.1,0 C 73,335.7 71,316.9 70.9,315.2 c 0,-18.7 8.3,-29 14.2,-34.1 0,1 0.1,1.9 0.2,2.9 0.2,1.9 0.4,3.7 0.8,5.6 0.4,1.8 0.9,3.6 1.5,5.3 0,-1.8 0.1,-3.6 0.4,-5.4 0.2,-1.8 0.6,-3.5 1.1,-5.2 0.5,-1.7 1,-3.3 1.7,-4.9 0.3,-0.8 0.7,-1.6 1,-2.3 0.2,-0.3 0.3,-0.7 0.5,-1 0.2,-0.2 0.3,-0.4 0.4,-0.6 24.8,-45.5 56.5,-53.1 56.9,-53.2 32.6,-7.9 56.2,-3.4 65,4.6 3.8,3.4 5.9,7.8 6.4,13.3 -9.9,-8.9 -23,-14.4 -37.3,-14.4 -16.1,0 -30.6,6.9 -40.7,17.8 -0.4,0.2 -0.8,0.4 -1.2,0.5 -0.9,0.4 -1.8,0.8 -2.6,1.3 -1.7,0.9 -3.3,1.9 -4.9,3 -1.5,1.1 -3,2.3 -4.4,3.5 -1.4,1.2 -2.6,2.6 -3.8,4 1.6,-0.9 3.2,-1.7 4.9,-2.4 1.6,-0.7 3.3,-1.2 5,-1.7 0.3,-0.1 0.5,-0.1 0.8,-0.2 -5.5,8.6 -8.6,18.8 -8.6,29.7 0,30.7 25,55.7 55.7,55.7 12.6,0 24.2,-4.2 33.5,-11.3 -0.8,1 -1.7,2.1 -2.7,3 -1.1,1 -2.2,2 -3.4,2.9 -1.2,0.9 -2.5,1.8 -3.9,2.6 1.6,-0.2 3.1,-0.5 4.7,-0.8 1.6,-0.4 3.1,-0.8 4.7,-1.4 0.7,-0.3 1.4,-0.6 2.1,-0.9 -1.1,0.9 -2.3,1.7 -3.6,2.4 -1.7,1 -3.4,1.9 -5.3,2.7 -0.9,0.4 -1.9,0.7 -2.8,1.1 -1,0.3 -1.9,0.6 -2.9,0.9 1,0 2,0 3.1,0 1,-0.1 2.1,0 3.1,-0.2 2.1,-0.2 4.2,-0.5 6.2,-0.9 1.3,-0.3 2.6,-0.7 3.9,-1.1 0,0 0,0 0,0 -1.4,0.9 -2.9,1.7 -4.5,2.3 -1.6,0.7 -3.2,1.2 -4.9,1.6 -1.7,0.4 -3.5,0.7 -5.3,0.9 1.7,0.5 3.5,0.9 5.4,1.1 1.8,0.2 3.7,0.3 5.6,0.2 0.5,0 1.1,-0.1 1.6,-0.1 -0.2,0.1 -0.3,0.2 -0.5,0.2 -1.2,0.6 -2.5,1 -3.9,1.2 -1.4,0.3 -2.9,0.4 -4.4,0.4 -0.7,0 -1.5,-0.1 -2.3,-0.1 l -2.3,-0.3 2,1.2 c 0.7,0.3 1.4,0.7 2.1,1 0.5,0.2 1,0.4 1.5,0.6 -0.7,0.2 -1.5,0.3 -2.2,0.4 -6.1,0.6 -12.5,-1.2 -17.9,-3 -1.3,-0.4 -2.6,-0.9 -3.9,-1.3 -5.1,-1.8 -10.3,-3.6 -15.9,-4.5 -4.4,-0.2 -8.1,-0.1 -11.7,0.3 0,0 0,0 0,0 z M 315.6,205.2 c 5.6,-4 12.8,-5.2 21.2,-3.5 4.1,0.8 10.2,5.3 16.6,11.5 -9.8,-1.8 -20.1,-2.8 -28.9,-2.6 -5.7,0.1 -10.8,0.7 -15.4,1.6 1.7,-2.6 3.8,-5 6.5,-7 z m -30.2,76.3 c 0,-22.1 18,-40.1 40.1,-40.1 22.1,0 40.1,18 40.1,40.1 0,22.1 -18,40.1 -40.1,40.1 -22.1,0 -40.1,-18 -40.1,-40.1 z m 116,67.7 c 1,0 2,0.1 3.1,0.1 0.2,0 0.5,0 0.8,0 -3.4,1.2 -7.5,1.6 -12.5,1.2 h -0.3 c -7.7,-0.5 -14.8,-3.3 -22.2,-6.1 -6.6,-2.5 -13.3,-5.1 -20.4,-6.1 l -0.2,-0.1 c 0,0 0,0 0,0 -3.6,-0.5 -7.3,-0.5 -11.1,0.1 -5.6,0.8 -10.8,2.7 -15.9,4.5 -1.3,0.5 -2.6,0.9 -3.9,1.3 -5.4,1.8 -11.8,3.6 -17.9,3 -0.8,-0.1 -1.5,-0.2 -2.2,-0.4 0.5,-0.2 1,-0.4 1.5,-0.6 0.7,-0.3 1.4,-0.7 2.1,-1 l 2,-1.2 -2.3,0.3 c -0.8,0 -1.5,0.1 -2.3,0.1 -1.5,0 -3,-0.1 -4.4,-0.4 -1.4,-0.3 -2.7,-0.7 -3.9,-1.2 -0.2,-0.1 -0.3,-0.2 -0.5,-0.2 0.5,0 1.1,0.1 1.6,0.1 1.9,0.1 3.8,0 5.6,-0.2 1.8,-0.2 3.6,-0.6 5.4,-1.1 -1.8,-0.2 -3.6,-0.4 -5.3,-0.9 -1.7,-0.4 -3.3,-1 -4.9,-1.6 -1.6,-0.6 -3.1,-1.4 -4.5,-2.3 0,0 0,0 0,0 1.3,0.4 2.6,0.8 3.9,1.1 2.1,0.4 4.2,0.8 6.2,0.9 1,0.1 2.1,0.1 3.1,0.2 1,0 2.1,0 3.1,0 -1,-0.3 -2,-0.6 -2.9,-0.9 -0.9,-0.4 -1.9,-0.7 -2.8,-1.1 -1.9,-0.8 -3.6,-1.7 -5.3,-2.7 -1.2,-0.8 -2.4,-1.6 -3.6,-2.4 0.7,0.3 1.4,0.6 2.1,0.9 1.6,0.6 3.1,1.1 4.7,1.4 1.6,0.4 3.1,0.6 4.7,0.8 -1.4,-0.8 -2.7,-1.7 -3.9,-2.6 -1.2,-0.9 -2.4,-1.9 -3.4,-2.9 -1,-1 -1.9,-2 -2.7,-3 9.3,7.1 20.9,11.3 33.5,11.3 30.7,0 55.7,-25 55.7,-55.7 0,-10.9 -3.2,-21.1 -8.6,-29.7 0.3,0.1 0.5,0.1 0.8,0.2 1.7,0.4 3.4,1 5,1.7 1.7,0.6 3.3,1.5 4.9,2.4 -1.2,-1.4 -2.4,-2.7 -3.8,-4 -1.4,-1.3 -2.8,-2.4 -4.4,-3.5 -1.5,-1.1 -3.2,-2.1 -4.9,-3 -0.8,-0.5 -1.7,-0.9 -2.6,-1.3 -0.4,-0.2 -0.8,-0.4 -1.2,-0.5 -10.2,-10.9 -24.7,-17.8 -40.7,-17.8 -14.3,0 -27.4,5.5 -37.3,14.4 0.5,-5.5 2.6,-9.9 6.4,-13.3 8.8,-8 32.4,-12.5 65,-4.6 0.4,0.1 32.1,7.7 56.9,53.2 0.1,0.2 0.3,0.4 0.4,0.6 0.2,0.3 0.4,0.7 0.5,1 0.4,0.8 0.7,1.5 1,2.3 0.7,1.6 1.2,3.2 1.7,4.9 0.5,1.7 0.9,3.4 1.1,5.2 0.3,1.8 0.4,3.6 0.4,5.4 0.6,-1.7 1.1,-3.5 1.5,-5.3 0.4,-1.8 0.7,-3.7 0.8,-5.6 0.1,-0.9 0.1,-1.9 0.2,-2.9 5.9,5 14.1,15.4 14.2,34.1 -0.1,1.6 -2.1,20.5 -23.6,20.9 0,0 -0.1,0 -0.1,0 -7.4,0.6 -15.1,0 -22,-2.9 -3.5,-1.4 -6.8,-3.4 -9.8,-5.9 -3,-2.5 -5.6,-5.5 -7.7,-8.9 1.6,3.6 3.7,7.1 6.4,10.2 2.6,3.1 5.8,5.8 9.4,8 3.1,1.9 6.4,3.4 9.9,4.5 -0.2,0 -0.5,0 -0.7,0 -1.1,0 -2.1,-0.1 -3.2,-0.2 l -3.2,-0.4 3,1.3 c 1,0.4 2,0.8 3.1,1.1 1.5,0.5 2.9,0.9 4.5,1.2 -0.4,0.1 -0.8,0.2 -1.1,0.2 -1,0.2 -1.9,0.3 -2.9,0.4 -1,0.1 -2,0.1 -3,0.2 1,0.3 1.9,0.5 2.9,0.8 1,0.2 2,0.4 3,0.5 0.9,0.1 1.9,0.2 2.9,0.3 -0.6,0.2 -1.1,0.5 -1.7,0.7 -0.9,0.4 -1.9,0.6 -2.8,0.9 -1,0.2 -1.9,0.4 -2.9,0.6 0.4,-0.3 1.4,-0.1 2.5,0 z m 26.8,12.7 c 2.3,-2.3 4.3,-4.8 6.3,-7.4 1.1,-1.5 2.1,-3 3.1,-4.5 l 2.8,-4.7 -3.6,4.1 c -1.3,1.3 -2.5,2.6 -3.8,3.8 -2.7,2.4 -5.3,4.7 -8.3,6.7 -2.6,1.7 -5.2,3.2 -8,4.4 0.4,-0.2 0.7,-0.5 1.1,-0.7 3,-2 5.6,-4.4 8.2,-6.9 l 3.6,-3.8 3.3,-4 -4,3.3 -4.2,3.1 c -2.9,1.9 -5.8,3.7 -8.9,5 -1,0.5 -2.1,0.9 -3.1,1.3 0.5,-0.3 0.9,-0.6 1.4,-0.9 1.2,-0.8 2.3,-1.6 3.5,-2.4 1.1,-0.9 2.2,-1.7 3.3,-2.6 l 3.1,-2.8 -3.7,2 c -1.2,0.6 -2.5,1.2 -3.7,1.8 -1.3,0.5 -2.5,1 -3.8,1.5 -1.3,0.4 -2.5,0.9 -3.8,1.2 -0.1,0 -0.2,0 -0.3,0.1 1.5,-0.8 2.9,-1.6 4.2,-2.5 0.9,-0.6 1.9,-1.4 2.8,-2 l 2.6,-2.2 -3.1,1.4 c -1.1,0.4 -2.1,0.8 -3.1,1.1 -1.1,0.3 -2.2,0.6 -3.3,0.9 7.1,-2.8 11,-7.9 13,-13 17.7,-3.6 23.5,-18.9 23.9,-27.4 0,-0.1 0,-0.1 0,-0.2 0,-0.4 0,-0.7 0,-1.1 0,0.2 0.1,0.3 0.1,0.5 0.3,1.5 0.6,3 0.9,4.5 0.3,-1.5 0.6,-3 0.9,-4.6 0.1,-0.5 0.1,-1 0.2,-1.4 0.5,2.2 0.7,4.4 0.8,6.7 0.1,2.3 0,4.7 -0.1,7.1 -0.1,1.2 -0.3,2.4 -0.4,3.6 l -0.6,3.6 1.5,-3.3 c 0.4,-1.1 0.9,-2.3 1.3,-3.4 0.7,-2.1 1.4,-4.1 1.9,-6.3 -0.4,17.1 -10.2,32.7 -24,40.4 z"
   id="path429" />
	<path
   class="st3"
   d="m 207.8,240.1 c -0.2,-0.1 -0.4,-0.2 -0.7,-0.3 -0.7,-0.2 -1.6,0.1 -1.7,0.9 -0.1,0.4 0.2,0.8 0.5,1.1 3.5,1.7 6.9,3.8 10.1,6.1 -2.4,-2.9 -5.1,-5.6 -8.2,-7.8 z"
   id="path431" />
	<path
   class="st3"
   d="m 202.1,236.9 c 0,0 -45.6,-15.4 -60.8,26.9 1.2,-3.1 14.7,-35.2 58.9,-24.3 2.3,0.7 2.7,-1.2 2.7,-1.2 0.3,-1.1 -0.8,-1.4 -0.8,-1.4 z"
   id="path433" />
	<path
   class="st3"
   d="m 349.8,240.1 c -0.2,-0.1 -0.4,-0.2 -0.7,-0.3 -0.7,-0.2 -1.6,0.1 -1.7,0.9 -0.1,0.4 0.2,0.8 0.5,1.1 3.5,1.7 6.9,3.8 10.1,6.1 -2.4,-2.9 -5.1,-5.6 -8.2,-7.8 z"
   id="path435" />
	<path
   class="st3"
   d="m 344.1,236.9 c 0,0 -45.6,-15.4 -60.8,26.9 1.2,-3.1 14.7,-35.2 58.9,-24.3 2.3,0.7 2.7,-1.2 2.7,-1.2 0.3,-1.1 -0.8,-1.4 -0.8,-1.4 z"
   id="path437" />
	<path
   class="st5"
   d="m 173.2,326.9 c -5,-1.1 -9.7,-2.9 -14,-5.3 5,3.9 10.9,6.8 17.5,8.2 20.2,4.2 40,-6.7 47.7,-25.1 -10.3,17 -30.6,26.5 -51.2,22.2 z"
   id="path439" />
	<path
   class="st5"
   d="m 317.1,326.9 c -5,-1.1 -9.7,-2.9 -14,-5.3 5,3.9 10.9,6.8 17.5,8.2 20.2,4.2 40,-6.7 47.7,-25.1 -10.4,17 -30.6,26.5 -51.2,22.2 z"
   id="path441" />
</g>
</svg>
