<svg version="1.1" xmlns="http://www.w3.org/2000/svg" viewBox="0 0 1024 1024">
<path fill="#000" d="M900.836 563.199c2.609-15.347 2.609-33.275 2.609-51.199s-2.609-33.275-2.609-51.199l109.948-84.474c10.486-7.675 13.093-20.472 5.243-33.275l-104.735-176.647c-5.241-10.25-20.94-15.347-31.426-10.25l-130.918 51.202c-26.185-20.475-57.584-38.402-89.008-51.202l-18.333-135.671c-2.609-10.225-13.093-20.475-26.185-20.475h-209.469c-13.090 0-23.574 10.25-26.183 20.475l-20.942 135.671c-31.426 12.8-60.218 30.724-89.035 51.202l-130.918-51.202c-13.093-5.098-26.185 0-31.426 10.25l-104.735 176.65c-5.216 10.223-2.612 25.597 5.241 33.275l112.592 84.471c0 17.925-2.609 33.275-2.609 51.199s2.609 33.275 2.609 51.199l-109.95 84.474c-10.486 7.675-13.090 20.472-5.243 33.275l104.735 176.647c5.243 10.25 20.942 15.347 31.426 10.25l130.92-51.202c26.183 20.475 57.584 38.402 89.008 51.202l20.942 135.671c2.631 12.8 13.090 20.475 26.183 20.475h209.469c13.093 0 23.576-10.25 26.185-20.475l20.967-135.671c31.401-12.8 60.218-30.724 89.008-51.202l130.92 51.202c13.090 5.098 26.183 0 31.426-10.25l104.735-176.65c5.241-10.223 2.609-25.597-5.243-33.275l-115.198-84.471zM510.69 691.197c-102.125 0-183.284-79.347-183.284-179.197s81.158-179.197 183.284-179.197 183.286 79.347 183.286 179.197-81.161 179.197-183.286 179.197z"></path>
</svg>
