<?xml version="1.0" encoding="UTF-8"?>
<svg xmlns="http://www.w3.org/2000/svg" xmlns:xlink="http://www.w3.org/1999/xlink" viewBox="0 0 24 24" version="1.1">
<g id="surface1">
<path style=" stroke:none;fill-rule:nonzero;fill:rgb(100%,100%,100%);fill-opacity:1;" d="M 0 12 L 12 0 L 24 12 L 12 24 Z M 0 12 "/>
<path style=" stroke:none;fill-rule:nonzero;fill:rgb(85.098039%,0%,7.058824%);fill-opacity:1;" d="M 0.429688 12 L 12 0.429688 L 23.570312 12 L 12 23.570312 Z M 0.429688 12 "/>
<path style=" stroke:none;fill-rule:nonzero;fill:rgb(100%,100%,100%);fill-opacity:1;" d="M 1.914062 12 L 12 1.914062 L 22.085938 12 L 12 22.085938 Z M 1.914062 12 "/>
<path style=" stroke:none;fill-rule:nonzero;fill:rgb(85.098039%,0%,7.058824%);fill-opacity:1;" d="M 12 14.347656 C 12.058594 14.347656 12.40625 14.042969 12.597656 13.8125 C 12.667969 13.726562 12.734375 13.652344 12.789062 13.574219 L 13.875 13.574219 C 13.941406 13.574219 13.984375 13.601562 14.003906 13.699219 L 14.066406 13.996094 C 14.078125 14.0625 14.132812 14.109375 14.199219 14.109375 L 14.296875 14.109375 C 14.367188 14.109375 14.421875 14.0625 14.429688 13.996094 L 14.492188 13.699219 C 14.511719 13.601562 14.554688 13.574219 14.621094 13.574219 L 14.660156 13.574219 C 14.785156 13.574219 14.800781 13.589844 14.828125 13.617188 L 15.296875 14.136719 C 15.347656 14.191406 15.386719 14.21875 15.445312 14.21875 C 15.503906 14.21875 15.542969 14.191406 15.59375 14.136719 L 16.058594 13.617188 C 16.085938 13.585938 16.101562 13.574219 16.226562 13.574219 L 16.265625 13.574219 C 16.332031 13.574219 16.375 13.597656 16.394531 13.699219 L 16.457031 13.996094 C 16.464844 14.0625 16.523438 14.109375 16.589844 14.109375 L 16.695312 14.109375 C 16.761719 14.109375 16.816406 14.0625 16.824219 13.996094 L 16.910156 13.59375 L 16.910156 13.601562 C 16.929688 13.519531 16.941406 13.433594 16.945312 13.339844 L 16.945312 13.335938 C 16.941406 13.246094 16.929688 13.160156 16.910156 13.089844 L 16.824219 12.6875 L 16.824219 12.683594 C 16.816406 12.621094 16.761719 12.570312 16.695312 12.570312 L 16.589844 12.570312 C 16.523438 12.570312 16.464844 12.621094 16.457031 12.6875 L 16.386719 12.984375 C 16.367188 13.082031 16.324219 13.105469 16.257812 13.105469 L 16.21875 13.105469 C 16.09375 13.105469 16.078125 13.09375 16.050781 13.066406 L 15.585938 12.546875 C 15.535156 12.488281 15.496094 12.460938 15.4375 12.460938 C 15.378906 12.460938 15.339844 12.488281 15.289062 12.546875 L 14.824219 13.066406 C 14.796875 13.09375 14.78125 13.105469 14.65625 13.105469 L 14.617188 13.105469 C 14.554688 13.105469 14.507812 13.082031 14.488281 12.984375 L 14.425781 12.6875 C 14.414062 12.621094 14.359375 12.570312 14.292969 12.570312 L 14.195312 12.570312 C 14.125 12.570312 14.070312 12.621094 14.0625 12.6875 L 14 12.984375 C 13.980469 13.082031 13.9375 13.105469 13.871094 13.105469 L 13 13.105469 L 13 13.113281 C 13.007812 13.066406 13.011719 13.019531 13.011719 12.972656 C 13.011719 12.96875 13.011719 12.96875 13.011719 12.96875 C 13.011719 12.964844 13.011719 12.960938 13.011719 12.957031 C 13.011719 12.675781 12.792969 12.449219 12.515625 12.433594 C 12.335938 12.433594 12.261719 12.449219 12.082031 12.621094 C 12.050781 12.652344 12.019531 12.695312 11.996094 12.695312 C 11.972656 12.695312 11.945312 12.652344 11.910156 12.621094 C 11.730469 12.449219 11.65625 12.433594 11.480469 12.433594 C 11.203125 12.449219 10.984375 12.675781 10.984375 12.957031 C 10.984375 12.960938 10.984375 12.964844 10.984375 12.96875 C 10.984375 13.015625 10.988281 13.066406 10.992188 13.105469 L 10.125 13.105469 C 10.058594 13.105469 10.015625 13.082031 9.996094 12.984375 L 9.933594 12.6875 C 9.921875 12.621094 9.867188 12.570312 9.800781 12.570312 L 9.703125 12.570312 C 9.632812 12.570312 9.578125 12.621094 9.570312 12.6875 L 9.507812 12.984375 C 9.488281 13.082031 9.445312 13.105469 9.378906 13.105469 L 9.339844 13.105469 C 9.214844 13.105469 9.199219 13.09375 9.171875 13.066406 L 8.703125 12.542969 C 8.652344 12.488281 8.613281 12.460938 8.554688 12.460938 C 8.5 12.460938 8.460938 12.488281 8.410156 12.542969 L 7.941406 13.0625 C 7.914062 13.09375 7.898438 13.105469 7.773438 13.105469 L 7.734375 13.105469 C 7.671875 13.105469 7.628906 13.082031 7.605469 12.984375 L 7.542969 12.6875 L 7.542969 12.683594 C 7.535156 12.621094 7.476562 12.570312 7.410156 12.570312 L 7.304688 12.570312 C 7.238281 12.570312 7.183594 12.621094 7.175781 12.6875 L 7.089844 13.089844 L 7.089844 13.078125 C 7.074219 13.164062 7.058594 13.25 7.054688 13.339844 L 7.054688 13.347656 C 7.058594 13.433594 7.074219 13.519531 7.089844 13.59375 L 7.175781 13.996094 C 7.183594 14.0625 7.238281 14.113281 7.304688 14.113281 L 7.410156 14.113281 C 7.410156 14.113281 7.410156 14.113281 7.414062 14.113281 C 7.480469 14.113281 7.535156 14.0625 7.542969 13.996094 L 7.609375 13.699219 C 7.628906 13.601562 7.671875 13.578125 7.738281 13.578125 L 7.777344 13.578125 C 7.902344 13.578125 7.917969 13.589844 7.945312 13.621094 L 8.414062 14.136719 C 8.464844 14.195312 8.503906 14.21875 8.558594 14.21875 C 8.617188 14.21875 8.65625 14.195312 8.707031 14.136719 L 9.175781 13.621094 C 9.199219 13.589844 9.21875 13.578125 9.339844 13.578125 L 9.382812 13.578125 C 9.445312 13.578125 9.488281 13.601562 9.507812 13.699219 L 9.574219 13.996094 C 9.582031 14.0625 9.636719 14.113281 9.703125 14.113281 C 9.703125 14.113281 9.703125 14.113281 9.707031 14.113281 L 9.800781 14.113281 C 9.800781 14.113281 9.804688 14.113281 9.804688 14.113281 C 9.871094 14.113281 9.925781 14.0625 9.933594 13.996094 L 9.996094 13.699219 C 10.015625 13.601562 10.058594 13.578125 10.125 13.578125 L 11.210938 13.578125 C 11.265625 13.652344 11.332031 13.730469 11.398438 13.8125 C 11.59375 14.042969 11.941406 14.347656 12 14.347656 Z M 6.179688 13.339844 L 6.207031 12.136719 C 6.207031 12.132812 6.203125 12.128906 6.203125 12.125 C 6.203125 12.078125 6.222656 12.03125 6.253906 12 L 6.441406 11.828125 C 6.46875 11.804688 6.5 11.792969 6.535156 11.792969 C 6.539062 11.792969 6.542969 11.792969 6.546875 11.792969 L 7.125 11.78125 C 7.128906 11.78125 7.128906 11.78125 7.132812 11.78125 C 7.203125 11.78125 7.261719 11.722656 7.261719 11.652344 C 7.261719 11.617188 7.246094 11.582031 7.222656 11.558594 L 7.097656 11.441406 C 7.070312 11.414062 7.054688 11.378906 7.054688 11.335938 C 7.054688 11.332031 7.054688 11.332031 7.054688 11.328125 L 7.054688 10.871094 C 7.054688 10.761719 7.074219 10.710938 7.175781 10.703125 C 7.542969 10.660156 7.972656 10.636719 8.410156 10.636719 C 8.460938 10.636719 8.511719 10.640625 8.566406 10.640625 L 8.558594 10.640625 L 9.285156 10.640625 C 9.351562 10.640625 9.378906 10.671875 9.398438 10.734375 C 9.539062 11.097656 9.878906 11.347656 10.28125 11.347656 C 10.683594 11.347656 11.023438 11.097656 11.160156 10.742188 L 11.164062 10.734375 C 11.183594 10.671875 11.210938 10.640625 11.277344 10.640625 L 12.730469 10.640625 C 12.792969 10.640625 12.820312 10.671875 12.84375 10.734375 C 12.980469 11.097656 13.324219 11.347656 13.722656 11.347656 C 14.125 11.347656 14.46875 11.097656 14.601562 10.742188 L 14.605469 10.734375 C 14.628906 10.671875 14.65625 10.640625 14.71875 10.640625 L 15.449219 10.640625 C 15.492188 10.640625 15.542969 10.636719 15.597656 10.636719 C 16.03125 10.636719 16.460938 10.660156 16.882812 10.707031 L 16.832031 10.703125 C 16.933594 10.710938 16.949219 10.757812 16.949219 10.871094 L 16.949219 11.328125 C 16.949219 11.328125 16.949219 11.332031 16.949219 11.335938 C 16.949219 11.375 16.933594 11.414062 16.90625 11.441406 L 16.78125 11.558594 C 16.757812 11.582031 16.746094 11.613281 16.746094 11.648438 C 16.746094 11.722656 16.800781 11.777344 16.875 11.777344 C 16.875 11.777344 16.878906 11.777344 16.878906 11.777344 L 17.457031 11.792969 C 17.460938 11.792969 17.464844 11.792969 17.46875 11.792969 C 17.503906 11.792969 17.535156 11.804688 17.5625 11.828125 L 17.75 12 C 17.78125 12.03125 17.800781 12.078125 17.800781 12.125 C 17.800781 12.128906 17.800781 12.132812 17.800781 12.136719 L 17.824219 13.339844 L 17.800781 14.542969 C 17.800781 14.546875 17.800781 14.550781 17.800781 14.554688 C 17.800781 14.605469 17.78125 14.648438 17.75 14.683594 L 17.5625 14.855469 C 17.535156 14.875 17.503906 14.886719 17.46875 14.886719 C 17.464844 14.886719 17.460938 14.886719 17.457031 14.886719 L 16.878906 14.902344 C 16.878906 14.902344 16.875 14.902344 16.875 14.902344 C 16.800781 14.902344 16.746094 14.960938 16.746094 15.03125 C 16.746094 15.066406 16.757812 15.097656 16.78125 15.121094 L 16.90625 15.242188 C 16.933594 15.269531 16.949219 15.304688 16.949219 15.34375 C 16.949219 15.347656 16.949219 15.351562 16.949219 15.355469 L 16.949219 15.351562 L 16.949219 15.808594 C 16.949219 15.917969 16.933594 15.96875 16.832031 15.980469 C 16.460938 16.019531 16.03125 16.042969 15.59375 16.042969 C 15.542969 16.042969 15.492188 16.042969 15.441406 16.042969 L 15.449219 16.042969 L 8.554688 16.042969 C 8.511719 16.042969 8.460938 16.042969 8.410156 16.042969 C 7.972656 16.042969 7.542969 16.019531 7.121094 15.972656 L 7.171875 15.980469 C 7.070312 15.96875 7.054688 15.921875 7.054688 15.808594 L 7.054688 15.351562 C 7.054688 15.351562 7.054688 15.347656 7.054688 15.34375 C 7.054688 15.304688 7.070312 15.269531 7.097656 15.242188 L 7.222656 15.121094 C 7.246094 15.097656 7.257812 15.066406 7.257812 15.03125 C 7.257812 14.960938 7.203125 14.902344 7.128906 14.902344 C 7.128906 14.902344 7.125 14.902344 7.125 14.902344 L 6.546875 14.886719 C 6.542969 14.886719 6.539062 14.886719 6.535156 14.886719 C 6.5 14.886719 6.464844 14.875 6.441406 14.851562 L 6.441406 14.855469 L 6.253906 14.683594 C 6.222656 14.648438 6.203125 14.605469 6.203125 14.554688 C 6.203125 14.550781 6.203125 14.546875 6.203125 14.542969 Z M 12 10.242188 L 11.300781 10.242188 C 11.296875 10.242188 11.296875 10.242188 11.292969 10.242188 C 11.238281 10.242188 11.191406 10.199219 11.1875 10.148438 L 11.1875 10.144531 C 11.082031 9.738281 10.714844 9.4375 10.277344 9.4375 C 9.84375 9.4375 9.476562 9.738281 9.371094 10.140625 L 9.371094 10.148438 C 9.363281 10.199219 9.316406 10.242188 9.261719 10.242188 C 9.261719 10.242188 9.257812 10.242188 9.257812 10.242188 L 8.265625 10.242188 C 8.425781 8.582031 9.175781 7.847656 10.097656 7.339844 C 10.199219 7.289062 10.269531 7.1875 10.269531 7.066406 C 10.269531 7.027344 10.261719 6.992188 10.25 6.960938 C 10.207031 6.835938 10.144531 6.722656 10.066406 6.628906 L 10.066406 6.632812 C 10 6.546875 9.886719 6.511719 9.765625 6.488281 C 9.429688 6.421875 9.246094 6.25 9.246094 5.960938 C 9.246094 5.507812 9.816406 5.128906 10.273438 5.128906 C 10.773438 5.128906 10.914062 5.449219 10.914062 5.644531 C 10.914062 5.792969 10.839844 5.941406 10.8125 6.015625 C 10.761719 6.160156 10.738281 6.28125 10.808594 6.453125 C 10.867188 6.589844 10.929688 6.707031 11.003906 6.820312 L 11 6.8125 C 11.058594 6.914062 11.167969 6.980469 11.289062 6.980469 C 11.308594 6.980469 11.328125 6.980469 11.34375 6.976562 L 11.339844 6.976562 C 11.523438 6.960938 11.710938 6.941406 12.003906 6.941406 C 12.292969 6.941406 12.484375 6.960938 12.664062 6.976562 C 12.679688 6.980469 12.695312 6.980469 12.714844 6.980469 C 12.839844 6.980469 12.949219 6.914062 13.007812 6.8125 C 13.074219 6.707031 13.140625 6.589844 13.191406 6.46875 L 13.199219 6.453125 C 13.265625 6.28125 13.242188 6.160156 13.191406 6.015625 C 13.164062 5.9375 13.09375 5.792969 13.09375 5.644531 C 13.09375 5.449219 13.230469 5.128906 13.730469 5.128906 C 14.1875 5.128906 14.761719 5.507812 14.761719 5.960938 C 14.761719 6.25 14.578125 6.421875 14.238281 6.488281 C 14.117188 6.511719 14.003906 6.546875 13.941406 6.632812 C 13.859375 6.722656 13.796875 6.835938 13.757812 6.953125 L 13.753906 6.960938 C 13.742188 6.992188 13.734375 7.027344 13.734375 7.066406 C 13.734375 7.1875 13.804688 7.289062 13.90625 7.339844 L 13.910156 7.339844 C 14.832031 7.847656 15.578125 8.582031 15.742188 10.242188 L 14.742188 10.242188 C 14.742188 10.242188 14.738281 10.242188 14.738281 10.242188 C 14.679688 10.242188 14.636719 10.199219 14.628906 10.148438 C 14.523438 9.738281 14.15625 9.4375 13.71875 9.4375 C 13.285156 9.4375 12.917969 9.738281 12.8125 10.140625 L 12.8125 10.148438 C 12.804688 10.203125 12.761719 10.242188 12.703125 10.242188 C 12.703125 10.242188 12.699219 10.242188 12.699219 10.242188 Z M 12 10.242188 "/>
</g>
</svg>
